<?xml version="1.0" encoding="UTF-8"?>
<svg width="94px" height="36px" viewBox="0 0 94 36" version="1.1" xmlns="http://www.w3.org/2000/svg" xmlns:xlink="http://www.w3.org/1999/xlink">
    <!-- Generator: sketchtool 52.3 (67297) - http://www.bohemiancoding.com/sketch -->
    <title>05C384D3-9489-44E6-8FCE-9534F7B4187C@1x</title>
    <desc>Created with sketchtool.</desc>
    <g id="Page-1" stroke="none" stroke-width="1" fill="none" fill-rule="evenodd">
        <g id="Car-Model-Icons" transform="translate(-269.000000, -109.000000)">
            <g id="CAB" transform="translate(269.000000, 110.000000)">
                <g id="Group-2">
                    <path d="M21.5277,11.6129 C21.9277,11.5569 22.4957,11.2829 22.7897,11.0059 L33.2177,1.1419 C33.5907,0.7889 34.3167,0.4999 34.8307,0.4999 L57.0747,0.4999 C57.4787,0.4999 57.8447,0.8289 57.8877,1.2309 L58.9917,11.4639 C59.0357,11.8649 59.4007,12.1939 59.8047,12.1939 L90.4037,12.1939 C90.8077,12.1939 91.1387,12.5249 91.1387,12.9279 L91.1387,21.3799 C91.1387,21.7839 91.2547,22.1149 91.3957,22.1149 L91.7217,22.1149 C92.0487,22.1149 92.3517,21.6939 92.3517,21.9669 C92.3517,22.2379 89.2317,25.7079 89.2317,25.7079 C88.9627,26.0089 88.4107,26.2549 88.0067,26.2549 L2.8747,26.2549 C2.4697,26.2549 2.0957,25.9269 2.0447,25.5259 L1.8087,23.7329 C1.7567,23.3319 1.7587,22.6759 1.8157,22.2769 L1.8157,14.1349 C1.8157,13.5109 2.3177,13.0039 2.9407,12.9959 L21.5277,11.6129 Z" id="Fill-1" fill="#E9F5FD"></path>
                    <path d="M21.5277,11.6129 C21.9277,11.5569 22.4957,11.2829 22.7897,11.0059 L33.2177,1.1419 C33.5907,0.7889 34.3167,0.4999 34.8307,0.4999 L57.0747,0.4999 C57.4787,0.4999 57.8447,0.8289 57.8877,1.2309 L58.9917,11.4639 C59.0357,11.8649 59.4007,12.1939 59.8047,12.1939 L90.4037,12.1939 C90.8077,12.1939 91.1387,12.5249 91.1387,12.9279 L91.1387,21.3799 C91.1387,21.7839 91.2547,22.1149 91.3957,22.1149 L91.7217,22.1149 C92.0487,22.1149 92.3517,21.6939 92.3517,21.9669 C92.3517,22.2379 89.2317,25.7079 89.2317,25.7079 C88.9627,26.0089 88.4107,26.2549 88.0067,26.2549 L2.8747,26.2549 C2.4697,26.2549 2.0957,25.9269 2.0447,25.5259 L1.8087,23.7329 C1.7567,23.3319 1.7587,22.6759 1.8157,22.2769 L1.8157,14.1349 C1.8157,13.5109 2.3177,13.0039 2.9407,12.9959 L21.5277,11.6129 Z" id="Stroke-3" stroke="#489DEA"></path>
                    <polygon id="Fill-5" fill="#E5E53C" points="69.3187 24.7359 25.8437 24.7359 20.1197 26.1809 71.1087 26.1809"></polygon>
                    <path d="M20.8177,21.5416 C20.8177,21.8136 21.0407,22.0366 21.3127,22.0366 L73.9167,22.0366 C74.1887,22.0366 74.4117,21.8136 74.4117,21.5416 L74.4117,20.7206 C74.4117,20.4476 74.1887,20.2246 73.9167,20.2246 L21.3127,20.2246 C21.0407,20.2246 20.8177,20.4476 20.8177,20.7206 L20.8177,21.5416 Z" id="Fill-9" fill="#489DEA"></path>
                    <polygon id="Fill-11" fill="#C1E2F8" points="16.6019 27.7374 76.6829 27.7374 76.3539 24.1034 17.0439 24.1034"></polygon>
                    <polygon id="Stroke-13" stroke="#489DEA" stroke-width="0.75" stroke-linecap="round" stroke-linejoin="round" points="16.6019 27.7374 76.6829 27.7374 76.3539 24.1034 17.0439 24.1034"></polygon>
                    <polygon id="Fill-15" fill="#C1E2F8" points="75.9769 27.0768 90.8089 27.0768 92.6829 25.4588 92.6829 21.4618 75.6479 21.4618"></polygon>
                    <polygon id="Stroke-17" stroke="#489DEA" stroke-linecap="round" stroke-linejoin="round" points="75.9769 27.0768 90.8089 27.0768 92.6829 25.4588 92.6829 21.4618 75.6479 21.4618"></polygon>
                    <polygon id="Fill-19" fill="#C1E2F8" points="20.3402 21.462 0.5002 21.462 0.5002 24.269 2.8422 27.077 19.8982 27.077"></polygon>
                    <polygon id="Stroke-21" stroke="#489DEA" stroke-linecap="round" stroke-linejoin="round" points="20.3402 21.462 0.5002 21.462 0.5002 24.269 2.8422 27.077 19.8982 27.077"></polygon>
                    <path d="M11.263,32.7975 C11.263,32.7975 11.378,32.8515 11.551,32.9325 C11.721,33.0195 11.969,33.0845 12.206,33.1755 C12.443,33.2725 12.698,33.3075 12.881,33.3595 C13.067,33.4045 13.19,33.4345 13.19,33.4345 C13.19,33.4345 12.997,33.7205 12.782,33.9995 C12.568,34.2795 12.329,34.5545 12.329,34.5545 C12.329,34.5545 12.263,34.5385 12.163,34.5155 C12.064,34.4955 11.936,34.4475 11.807,34.4025 C11.55,34.3135 11.293,34.2225 11.293,34.2225 C11.293,34.2225 11.285,34.1335 11.275,34.0025 C11.265,33.8695 11.258,33.6845 11.255,33.5065 C11.248,33.1465 11.263,32.7975 11.263,32.7975" id="Fill-25" fill="#489DEA"></path>
                    <path d="M8.4935,30.3937 C8.4935,30.3937 8.5735,30.4927 8.6935,30.6417 C8.8155,30.7877 8.9655,30.9947 9.1525,31.1677 C9.3335,31.3467 9.5035,31.5387 9.6565,31.6527 C9.8035,31.7747 9.9005,31.8567 9.9005,31.8567 C9.9005,31.8567 9.5945,32.0187 9.2665,32.1677 C9.1045,32.2427 8.9375,32.3137 8.8115,32.3647 C8.6845,32.4167 8.6015,32.4467 8.6015,32.4467 C8.6015,32.4467 7.8325,31.6757 7.8545,31.6557 C7.8545,31.6557 7.9985,31.3217 8.1595,31.0077 C8.3185,30.6907 8.4935,30.3937 8.4935,30.3937" id="Fill-27" fill="#489DEA"></path>
                    <path d="M7.139,27.3297 C7.139,27.3297 7.164,27.4547 7.202,27.6417 C7.25,27.8267 7.332,28.0677 7.404,28.3107 C7.484,28.5527 7.596,28.7827 7.664,28.9607 C7.701,29.0487 7.731,29.1227 7.759,29.1707 C7.785,29.2197 7.801,29.2477 7.801,29.2477 C7.801,29.2477 7.712,29.2527 7.578,29.2607 C7.443,29.2667 7.268,29.2707 7.093,29.2687 C6.743,29.2667 6.383,29.2417 6.383,29.2417 C6.383,29.2417 6.357,29.1777 6.317,29.0837 C6.281,28.9887 6.219,28.8667 6.184,28.7347 C6.104,28.4747 6.024,28.2147 6.024,28.2147 C6.024,28.2147 6.09,28.1547 6.189,28.0657 C6.288,27.9777 6.422,27.8637 6.567,27.7527 C6.85,27.5287 7.139,27.3297 7.139,27.3297" id="Fill-29" fill="#489DEA"></path>
                    <path d="M7.1771,23.9835 C7.1771,23.9835 7.1531,24.1085 7.1151,24.2955 C7.0971,24.3885 7.0741,24.4985 7.0511,24.6155 C7.0391,24.7335 7.0281,24.8605 7.0161,24.9875 C7.0031,25.1135 6.9911,25.2405 6.9801,25.3595 C6.9721,25.4785 6.9791,25.5895 6.9781,25.6845 C6.9791,25.8755 6.9791,26.0035 6.9791,26.0035 C6.9791,26.0035 6.6561,25.8765 6.3321,25.7255 C6.0091,25.5765 5.6861,25.4035 5.6861,25.4035 C5.6861,25.4035 5.6841,25.3355 5.6961,25.2335 C5.7051,25.1315 5.7181,24.9965 5.7311,24.8605 C5.7431,24.7255 5.7571,24.5895 5.7681,24.4875 C5.7711,24.4375 5.7801,24.3955 5.7851,24.3665 C5.7911,24.3375 5.7941,24.3205 5.7941,24.3205 C5.7941,24.3205 6.1441,24.2125 6.4901,24.1295 C6.8361,24.0445 7.1771,23.9835 7.1771,23.9835" id="Fill-31" fill="#489DEA"></path>
                    <path d="M8.6048,20.9542 C8.6048,20.9542 8.5838,20.9782 8.5488,21.0212 C8.5178,21.0672 8.4738,21.1332 8.4198,21.2122 C8.3668,21.2912 8.3038,21.3832 8.2368,21.4812 C8.1678,21.5782 8.0968,21.6842 8.0408,21.7992 C7.9228,22.0242 7.7888,22.2412 7.7138,22.4162 C7.6398,22.5932 7.5908,22.7102 7.5908,22.7102 C7.5908,22.7102 7.3458,22.4592 7.1108,22.1862 C6.8698,21.9122 6.6648,21.6282 6.6648,21.6282 C6.6648,21.6282 6.7938,21.3892 6.9238,21.1502 C6.9578,21.0902 6.9898,21.0302 7.0208,20.9742 C7.0558,20.9212 7.0898,20.8722 7.1188,20.8302 C7.1748,20.7462 7.2138,20.6892 7.2138,20.6892 C7.2138,20.6892 7.5738,20.7342 7.9188,20.8002 C8.0918,20.8322 8.2628,20.8702 8.3888,20.8982 C8.5188,20.9322 8.6048,20.9542 8.6048,20.9542" id="Fill-33" fill="#489DEA"></path>
                    <path d="M20.4808,20.3253 C20.4808,20.3253 20.3908,20.2343 20.2568,20.0983 C20.1318,19.9533 19.9238,19.8043 19.7318,19.6373 C19.5438,19.4643 19.3238,19.3353 19.1688,19.2243 C19.0098,19.1173 18.9058,19.0463 18.9058,19.0463 C18.9058,19.0463 19.1868,18.8463 19.4888,18.6613 C19.7888,18.4753 20.1088,18.3033 20.1088,18.3033 C20.1088,18.3033 20.3398,18.4503 20.5428,18.6323 C20.7518,18.8063 20.9598,18.9813 20.9598,18.9813 C20.9598,18.9813 20.9388,19.0643 20.8968,19.1963 C20.8558,19.3263 20.7988,19.4983 20.7388,19.6673 C20.6188,20.0053 20.4808,20.3253 20.4808,20.3253" id="Fill-41" fill="#489DEA"></path>
                    <path d="M22.2298,23.1822 C22.2298,23.1822 22.2198,23.1512 22.2048,23.0982 C22.1848,23.0452 22.1518,22.9732 22.1168,22.8852 C22.0798,22.7972 22.0368,22.6942 21.9908,22.5842 C21.9468,22.4732 21.8978,22.3552 21.8328,22.2452 C21.7088,22.0232 21.6028,21.7902 21.4948,21.6332 C21.3888,21.4742 21.3178,21.3682 21.3178,21.3682 C21.3178,21.3682 21.6618,21.3012 22.0188,21.2562 C22.3778,21.2052 22.7318,21.1882 22.7318,21.1882 C22.7318,21.1882 22.8598,21.4282 22.9878,21.6682 C23.0548,21.7872 23.1108,21.9112 23.1488,22.0062 C23.1878,22.1002 23.2138,22.1632 23.2138,22.1632 C23.2138,22.1632 22.9788,22.4392 22.7348,22.6912 C22.6128,22.8192 22.4908,22.9412 22.3948,23.0312 C22.2948,23.1212 22.2298,23.1822 22.2298,23.1822" id="Fill-43" fill="#489DEA"></path>
                    <path d="M22.6175,26.505 C22.6175,26.505 22.6305,26.379 22.6475,26.19 C22.6675,25.999 22.6505,25.744 22.6545,25.49 C22.6595,25.363 22.6475,25.236 22.6345,25.117 C22.6205,24.999 22.6085,24.889 22.5995,24.794 C22.5905,24.699 22.5825,24.62 22.5755,24.565 C22.5645,24.51 22.5585,24.479 22.5585,24.479 C22.5585,24.479 22.6455,24.5 22.7755,24.533 C22.9005,24.567 23.0675,24.615 23.2355,24.669 C23.5705,24.775 23.9085,24.905 23.9085,24.905 C23.9085,24.905 23.9165,24.974 23.9265,25.075 C23.9315,25.126 23.9375,25.186 23.9435,25.248 C23.9445,25.313 23.9445,25.381 23.9455,25.448 C23.9455,25.721 23.9475,25.994 23.9475,25.994 C23.9475,25.994 23.6315,26.146 23.2885,26.273 C22.9515,26.401 22.6175,26.505 22.6175,26.505" id="Fill-45" fill="#489DEA"></path>
                    <path d="M21.5931,29.6935 C21.5931,29.6935 21.6541,29.5825 21.7441,29.4145 C21.7881,29.3305 21.8481,29.2355 21.8991,29.1275 C21.9441,29.0165 21.9921,28.8995 22.0421,28.7825 C22.0921,28.6655 22.1421,28.5485 22.1891,28.4385 C22.2231,28.3235 22.2551,28.2175 22.2831,28.1265 C22.3391,27.9435 22.3771,27.8215 22.3771,27.8215 C22.3771,27.8215 22.6481,28.0375 22.9121,28.2775 C23.1771,28.5145 23.4341,28.7765 23.4341,28.7765 C23.4341,28.7765 23.4291,28.7925 23.4201,28.8205 C23.4121,28.8485 23.3991,28.8895 23.3781,28.9365 C23.3391,29.0305 23.2861,29.1555 23.2341,29.2815 C23.1801,29.4065 23.1271,29.5315 23.0871,29.6265 C23.0501,29.7205 23.0151,29.7795 23.0151,29.7795 C23.0151,29.7795 22.6491,29.7795 22.2931,29.7565 C21.9371,29.7365 21.5931,29.6935 21.5931,29.6935" id="Fill-47" fill="#489DEA"></path>
                    <path d="M19.3285,32.1588 C19.3285,32.1588 19.3555,32.1418 19.4015,32.1108 C19.4495,32.0828 19.5125,32.0328 19.5855,31.9718 C19.7295,31.8468 19.9375,31.6978 20.1225,31.5238 C20.3025,31.3438 20.4875,31.1688 20.6185,31.0308 C20.7405,30.8828 20.8215,30.7848 20.8215,30.7848 C20.8215,30.7848 20.9815,31.0978 21.1255,31.4298 C21.1995,31.5968 21.2635,31.7608 21.3075,31.8848 C21.3525,32.0098 21.3835,32.0938 21.3835,32.0938 C21.3835,32.0938 21.1895,32.2838 20.9955,32.4748 C20.9015,32.5748 20.7895,32.6528 20.7125,32.7198 C20.6335,32.7838 20.5805,32.8268 20.5805,32.8268 C20.5805,32.8268 20.2515,32.6778 19.9415,32.5128 C19.7865,32.4318 19.6345,32.3468 19.5175,32.2758 C19.4045,32.2058 19.3285,32.1588 19.3285,32.1588" id="Fill-49" fill="#489DEA"></path>
                    <path d="M16.2415,33.4571 L16.5535,33.3941 C16.7425,33.3671 16.9835,33.2781 17.2265,33.2071 C17.4735,33.1431 17.7045,33.0331 17.8815,32.9611 C18.0575,32.8881 18.1755,32.8391 18.1755,32.8391 C18.1755,32.8391 18.1875,33.1831 18.1775,33.5371 C18.1695,33.8901 18.1375,34.2521 18.1375,34.2521 C18.1475,34.2821 17.1045,34.5941 17.1045,34.5951 C17.1045,34.5941 17.0455,34.5291 16.9595,34.4221 C16.8725,34.3171 16.7595,34.1751 16.6515,34.0321 C16.4335,33.7471 16.2415,33.4571 16.2415,33.4571" id="Fill-51" fill="#489DEA"></path>
                    <path d="M12.8822,33.4029 C8.6542,32.3349 6.0932,28.0409 7.1592,23.8119 C8.2282,19.5829 12.5212,17.0199 16.7492,18.0869 C20.9792,19.1549 23.5402,23.4489 22.4732,27.6779 C21.4052,31.9069 17.1112,34.4709 12.8822,33.4029" id="Fill-53" fill="#B5D7EA"></path>
                    <path d="M12.8822,33.4029 C8.6542,32.3349 6.0932,28.0409 7.1592,23.8119 C8.2282,19.5829 12.5212,17.0199 16.7492,18.0869 C20.9792,19.1549 23.5402,23.4489 22.4732,27.6779 C21.4052,31.9069 17.1112,34.4709 12.8822,33.4029 Z" id="Stroke-55" stroke="#489DEA" stroke-linecap="round" stroke-linejoin="round"></path>
                    <path d="M14.8216,31.1813 C17.3096,31.1813 19.4736,29.4923 20.0846,27.0753 C20.8166,24.1693 19.0506,21.2093 16.1456,20.4763 C15.7066,20.3653 15.2576,20.3093 14.8106,20.3093 C12.3236,20.3093 10.1596,21.9973 9.5496,24.4153 C8.8156,27.3203 10.5826,30.2803 13.4856,31.0143 C13.9256,31.1243 14.3746,31.1813 14.8216,31.1813" id="Fill-57" fill="#B5D7EA"></path>
                    <path d="M14.8216,31.1813 C17.3096,31.1813 19.4736,29.4923 20.0846,27.0753 C20.8166,24.1693 19.0506,21.2093 16.1456,20.4763 C15.7066,20.3653 15.2576,20.3093 14.8106,20.3093 C12.3236,20.3093 10.1596,21.9973 9.5496,24.4153 C8.8156,27.3203 10.5826,30.2803 13.4856,31.0143 C13.9256,31.1243 14.3746,31.1813 14.8216,31.1813 Z" id="Stroke-59" stroke="#489DEA" stroke-linecap="round" stroke-linejoin="round"></path>
                    <path d="M17.2503,26.401 C17.2883,26.248 17.3093,26.094 17.3173,25.943 L20.1263,24.395 L19.6133,23.116 L16.4973,23.939 C16.2813,23.743 16.0303,23.584 15.7483,23.471 L15.1423,20.309 L13.7673,20.401 L13.5873,23.612 C13.3273,23.759 13.0983,23.955 12.9043,24.187 L9.7163,23.787 L9.3783,25.124 L12.3743,26.285 C12.4353,26.585 12.5463,26.868 12.7073,27.123 L11.3473,30.023 L12.5143,30.756 L14.5443,28.266 C14.8523,28.301 15.1513,28.277 15.4393,28.204 L17.7803,30.398 L18.8393,29.515 L17.1003,26.816 C17.1593,26.683 17.2133,26.547 17.2503,26.401" id="Fill-61" fill="#B5D7EA"></path>
                    <path d="M17.2503,26.401 C17.2883,26.248 17.3093,26.094 17.3173,25.943 L20.1263,24.395 L19.6133,23.116 L16.4973,23.939 C16.2813,23.743 16.0303,23.584 15.7483,23.471 L15.1423,20.309 L13.7673,20.401 L13.5873,23.612 C13.3273,23.759 13.0983,23.955 12.9043,24.187 L9.7163,23.787 L9.3783,25.124 L12.3743,26.285 C12.4353,26.585 12.5463,26.868 12.7073,27.123 L11.3473,30.023 L12.5143,30.756 L14.5443,28.266 C14.8523,28.301 15.1513,28.277 15.4393,28.204 L17.7803,30.398 L18.8393,29.515 L17.1003,26.816 C17.1593,26.683 17.2133,26.547 17.2503,26.401 Z" id="Stroke-63" stroke="#489DEA" stroke-width="0.75" stroke-linecap="round" stroke-linejoin="round"></path>
                    <path d="M14.5511,26.7945 C13.9721,26.6485 13.6201,26.0605 13.7671,25.4815 C13.9131,24.9015 14.5011,24.5505 15.0811,24.6965 C15.6601,24.8425 16.0121,25.4315 15.8641,26.0105 C15.7191,26.5895 15.1311,26.9405 14.5511,26.7945" id="Fill-65" fill="#489DEA"></path>
                    <path d="M73.7747,32.7975 C73.7747,32.7975 73.8897,32.8515 74.0627,32.9325 C74.2327,33.0195 74.4797,33.0845 74.7177,33.1755 C74.9547,33.2725 75.2087,33.3075 75.3927,33.3595 C75.5787,33.4045 75.7017,33.4345 75.7017,33.4345 C75.7017,33.4345 75.5087,33.7205 75.2937,33.9995 C75.0787,34.2795 74.8407,34.5545 74.8407,34.5545 C74.8407,34.5545 74.7747,34.5385 74.6747,34.5155 C74.5747,34.4955 74.4467,34.4475 74.3187,34.4025 C74.0617,34.3135 73.8047,34.2225 73.8047,34.2225 C73.8047,34.2225 73.7967,34.1335 73.7867,34.0025 C73.7767,33.8695 73.7697,33.6845 73.7667,33.5065 C73.7587,33.1465 73.7747,32.7975 73.7747,32.7975" id="Fill-67" fill="#489DEA"></path>
                    <path d="M71.0042,30.3937 C71.0042,30.3937 71.0842,30.4927 71.2052,30.6417 C71.3272,30.7877 71.4772,30.9947 71.6642,31.1677 C71.8452,31.3467 72.0142,31.5387 72.1682,31.6527 C72.3152,31.7747 72.4122,31.8567 72.4122,31.8567 C72.4122,31.8567 72.1062,32.0187 71.7782,32.1677 C71.6152,32.2427 71.4492,32.3137 71.3232,32.3647 C71.1952,32.4167 71.1122,32.4467 71.1122,32.4467 C71.1122,32.4467 70.3432,31.6757 70.3652,31.6557 C70.3652,31.6557 70.5102,31.3217 70.6712,31.0077 C70.8302,30.6907 71.0042,30.3937 71.0042,30.3937" id="Fill-69" fill="#489DEA"></path>
                    <path d="M69.6507,27.3297 C69.6507,27.3297 69.6757,27.4547 69.7137,27.6417 C69.7617,27.8267 69.8427,28.0677 69.9157,28.3107 C69.9957,28.5527 70.1067,28.7827 70.1757,28.9607 C70.2127,29.0487 70.2417,29.1227 70.2707,29.1707 C70.2967,29.2197 70.3117,29.2477 70.3117,29.2477 C70.3117,29.2477 70.2227,29.2527 70.0897,29.2607 C69.9547,29.2667 69.7797,29.2707 69.6047,29.2687 C69.2547,29.2667 68.8937,29.2417 68.8937,29.2417 C68.8937,29.2417 68.8677,29.1777 68.8287,29.0837 C68.7927,28.9887 68.7307,28.8667 68.6957,28.7347 C68.6157,28.4747 68.5357,28.2147 68.5357,28.2147 C68.5357,28.2147 68.6017,28.1547 68.7007,28.0657 C68.7997,27.9777 68.9327,27.8637 69.0787,27.7527 C69.3607,27.5287 69.6507,27.3297 69.6507,27.3297" id="Fill-71" fill="#489DEA"></path>
                    <path d="M69.6888,23.9835 C69.6888,23.9835 69.6648,24.1085 69.6268,24.2955 C69.6078,24.3885 69.5858,24.4985 69.5628,24.6155 C69.5508,24.7335 69.5398,24.8605 69.5278,24.9875 C69.5148,25.1135 69.5018,25.2405 69.4918,25.3595 C69.4838,25.4785 69.4908,25.5895 69.4898,25.6845 C69.4898,25.8755 69.4908,26.0035 69.4908,26.0035 C69.4908,26.0035 69.1678,25.8765 68.8428,25.7255 C68.5198,25.5765 68.1978,25.4035 68.1978,25.4035 C68.1978,25.4035 68.1948,25.3355 68.2078,25.2335 C68.2168,25.1315 68.2298,24.9965 68.2428,24.8605 C68.2548,24.7255 68.2688,24.5895 68.2788,24.4875 C68.2828,24.4375 68.2908,24.3955 68.2968,24.3665 C68.3018,24.3375 68.3058,24.3205 68.3058,24.3205 C68.3058,24.3205 68.6558,24.2125 69.0018,24.1295 C69.3468,24.0445 69.6888,23.9835 69.6888,23.9835" id="Fill-73" fill="#489DEA"></path>
                    <path d="M71.1165,20.9542 C71.1165,20.9542 71.0955,20.9782 71.0605,21.0212 C71.0295,21.0672 70.9845,21.1332 70.9305,21.2122 C70.8775,21.2912 70.8155,21.3832 70.7485,21.4812 C70.6785,21.5782 70.6075,21.6842 70.5525,21.7992 C70.4345,22.0242 70.3005,22.2412 70.2255,22.4162 C70.1515,22.5932 70.1025,22.7102 70.1025,22.7102 C70.1025,22.7102 69.8575,22.4592 69.6225,22.1862 C69.3815,21.9122 69.1755,21.6282 69.1755,21.6282 C69.1755,21.6282 69.3045,21.3892 69.4355,21.1502 C69.4695,21.0902 69.5015,21.0302 69.5315,20.9742 C69.5675,20.9212 69.6005,20.8722 69.6295,20.8302 C69.6865,20.7462 69.7255,20.6892 69.7255,20.6892 C69.7255,20.6892 70.0855,20.7342 70.4305,20.8002 C70.6035,20.8322 70.7735,20.8702 70.9005,20.8982 C71.0295,20.9322 71.1165,20.9542 71.1165,20.9542" id="Fill-75" fill="#489DEA"></path>
                    <path d="M82.9915,20.3253 C82.9915,20.3253 82.9025,20.2343 82.7685,20.0983 C82.6425,19.9533 82.4345,19.8043 82.2435,19.6373 C82.0555,19.4643 81.8355,19.3353 81.6795,19.2243 C81.5215,19.1173 81.4175,19.0463 81.4175,19.0463 C81.4175,19.0463 81.6975,18.8463 81.9995,18.6613 C82.3005,18.4753 82.6205,18.3033 82.6205,18.3033 C82.6205,18.3033 82.8505,18.4503 83.0545,18.6323 C83.2625,18.8063 83.4715,18.9813 83.4715,18.9813 C83.4715,18.9813 83.4505,19.0643 83.4085,19.1963 C83.3675,19.3263 83.3105,19.4983 83.2505,19.6673 C83.1295,20.0053 82.9915,20.3253 82.9915,20.3253" id="Fill-83" fill="#489DEA"></path>
                    <path d="M84.7406,23.1822 C84.7406,23.1822 84.7316,23.1512 84.7156,23.0982 C84.6956,23.0452 84.6636,22.9732 84.6276,22.8852 C84.5906,22.7972 84.5486,22.6942 84.5026,22.5842 C84.4586,22.4732 84.4096,22.3552 84.3446,22.2452 C84.2196,22.0232 84.1136,21.7902 84.0066,21.6332 C83.8996,21.4742 83.8286,21.3682 83.8286,21.3682 C83.8286,21.3682 84.1736,21.3012 84.5306,21.2562 C84.8896,21.2052 85.2426,21.1882 85.2426,21.1882 C85.2426,21.1882 85.3716,21.4282 85.4996,21.6682 C85.5666,21.7872 85.6226,21.9112 85.6606,22.0062 C85.6996,22.1002 85.7246,22.1632 85.7246,22.1632 C85.7246,22.1632 85.4906,22.4392 85.2466,22.6912 C85.1236,22.8192 85.0016,22.9412 84.9056,23.0312 C84.8066,23.1212 84.7406,23.1822 84.7406,23.1822" id="Fill-85" fill="#489DEA"></path>
                    <path d="M85.1292,26.505 C85.1292,26.505 85.1412,26.379 85.1592,26.19 C85.1792,25.999 85.1622,25.744 85.1662,25.49 C85.1712,25.363 85.1592,25.236 85.1452,25.117 C85.1322,24.999 85.1202,24.889 85.1112,24.794 C85.1022,24.699 85.0942,24.62 85.0872,24.565 C85.0762,24.51 85.0702,24.479 85.0702,24.479 C85.0702,24.479 85.1572,24.5 85.2872,24.533 C85.4112,24.567 85.5792,24.615 85.7462,24.669 C86.0822,24.775 86.4202,24.905 86.4202,24.905 C86.4202,24.905 86.4272,24.974 86.4382,25.075 C86.4422,25.126 86.4482,25.186 86.4542,25.248 C86.4562,25.313 86.4562,25.381 86.4562,25.448 C86.4572,25.721 86.4582,25.994 86.4582,25.994 C86.4582,25.994 86.1432,26.146 85.7992,26.273 C85.4632,26.401 85.1292,26.505 85.1292,26.505" id="Fill-87" fill="#489DEA"></path>
                    <path d="M84.1048,29.6935 C84.1048,29.6935 84.1648,29.5825 84.2558,29.4145 C84.2998,29.3305 84.3588,29.2355 84.4098,29.1275 C84.4558,29.0165 84.5038,28.8995 84.5538,28.7825 C84.6038,28.6655 84.6538,28.5485 84.6998,28.4385 C84.7348,28.3235 84.7668,28.2175 84.7948,28.1265 C84.8508,27.9435 84.8878,27.8215 84.8878,27.8215 C84.8878,27.8215 85.1598,28.0375 85.4228,28.2775 C85.6888,28.5145 85.9458,28.7765 85.9458,28.7765 C85.9458,28.7765 85.9408,28.7925 85.9308,28.8205 C85.9228,28.8485 85.9108,28.8895 85.8898,28.9365 C85.8508,29.0305 85.7978,29.1555 85.7448,29.2815 C85.6918,29.4065 85.6388,29.5315 85.5988,29.6265 C85.5618,29.7205 85.5268,29.7795 85.5268,29.7795 C85.5268,29.7795 85.1608,29.7795 84.8048,29.7565 C84.4488,29.7365 84.1048,29.6935 84.1048,29.6935" id="Fill-89" fill="#489DEA"></path>
                    <path d="M81.8402,32.1588 C81.8402,32.1588 81.8662,32.1418 81.9132,32.1108 C81.9612,32.0828 82.0232,32.0328 82.0972,31.9718 C82.2412,31.8468 82.4492,31.6978 82.6332,31.5238 C82.8142,31.3438 82.9992,31.1688 83.1302,31.0308 C83.2522,30.8828 83.3322,30.7848 83.3322,30.7848 C83.3322,30.7848 83.4932,31.0978 83.6372,31.4298 C83.7112,31.5968 83.7752,31.7608 83.8192,31.8848 C83.8642,32.0098 83.8952,32.0938 83.8952,32.0938 C83.8952,32.0938 83.7012,32.2838 83.5072,32.4748 C83.4132,32.5748 83.3012,32.6528 83.2232,32.7198 C83.1452,32.7838 83.0922,32.8268 83.0922,32.8268 C83.0922,32.8268 82.7632,32.6778 82.4522,32.5128 C82.2982,32.4318 82.1462,32.3468 82.0292,32.2758 C81.9162,32.2058 81.8402,32.1588 81.8402,32.1588" id="Fill-91" fill="#489DEA"></path>
                    <path d="M78.7533,33.4571 C78.7533,33.4571 78.8783,33.4321 79.0653,33.3941 C79.2543,33.3671 79.4943,33.2781 79.7373,33.2071 C79.9853,33.1431 80.2153,33.0331 80.3933,32.9611 C80.5693,32.8881 80.6873,32.8391 80.6873,32.8391 C80.6873,32.8391 80.6993,33.1831 80.6893,33.5371 C80.6803,33.8901 80.6493,34.2521 80.6493,34.2521 C80.6593,34.2821 79.6153,34.5941 79.6153,34.5951 C79.6153,34.5941 79.5573,34.5291 79.4703,34.4221 C79.3833,34.3171 79.2713,34.1751 79.1623,34.0321 C78.9453,33.7471 78.7533,33.4571 78.7533,33.4571" id="Fill-93" fill="#489DEA"></path>
                    <path d="M75.3939,33.4029 C71.1659,32.3349 68.6039,28.0409 69.6709,23.8119 C70.7389,19.5829 75.0329,17.0199 79.2599,18.0869 C83.4899,19.1549 86.0519,23.4489 84.9849,27.6779 C83.9169,31.9069 79.6229,34.4709 75.3939,33.4029" id="Fill-95" fill="#B5D7EA"></path>
                    <path d="M75.3939,33.4029 C71.1659,32.3349 68.6039,28.0409 69.6709,23.8119 C70.7389,19.5829 75.0329,17.0199 79.2599,18.0869 C83.4899,19.1549 86.0519,23.4489 84.9849,27.6779 C83.9169,31.9069 79.6229,34.4709 75.3939,33.4029 Z" id="Stroke-97" stroke="#489DEA" stroke-linecap="round" stroke-linejoin="round"></path>
                    <path d="M77.3333,31.1813 C79.8213,31.1813 81.9853,29.4923 82.5953,27.0753 C83.3283,24.1693 81.5623,21.2093 78.6573,20.4763 C78.2183,20.3653 77.7693,20.3093 77.3223,20.3093 C74.8343,20.3093 72.6713,21.9973 72.0613,24.4153 C71.3273,27.3203 73.0933,30.2803 75.9973,31.0143 C76.4373,31.1243 76.8863,31.1813 77.3333,31.1813" id="Fill-99" fill="#B5D7EA"></path>
                    <path d="M77.3333,31.1813 C79.8213,31.1813 81.9853,29.4923 82.5953,27.0753 C83.3283,24.1693 81.5623,21.2093 78.6573,20.4763 C78.2183,20.3653 77.7693,20.3093 77.3223,20.3093 C74.8343,20.3093 72.6713,21.9973 72.0613,24.4153 C71.3273,27.3203 73.0933,30.2803 75.9973,31.0143 C76.4373,31.1243 76.8863,31.1813 77.3333,31.1813 Z" id="Stroke-101" stroke="#489DEA" stroke-linecap="round" stroke-linejoin="round"></path>
                    <path d="M79.7621,26.401 C79.8001,26.248 79.8201,26.094 79.8291,25.943 L82.6371,24.395 L82.1251,23.116 L79.0091,23.939 C78.7921,23.743 78.5421,23.584 78.2591,23.471 L77.6531,20.309 L76.2791,20.401 L76.0991,23.612 C75.8391,23.759 75.6101,23.955 75.4161,24.187 L72.2271,23.787 L71.8901,25.124 L74.8851,26.285 C74.9471,26.585 75.0581,26.868 75.2191,27.123 L73.8591,30.023 L75.0251,30.756 L77.0561,28.266 C77.3631,28.301 77.6631,28.277 77.9501,28.204 L80.2921,30.398 L81.3511,29.515 L79.6121,26.816 C79.6711,26.683 79.7251,26.547 79.7621,26.401" id="Fill-103" fill="#B5D7EA"></path>
                    <path d="M79.7621,26.401 C79.8001,26.248 79.8201,26.094 79.8291,25.943 L82.6371,24.395 L82.1251,23.116 L79.0091,23.939 C78.7921,23.743 78.5421,23.584 78.2591,23.471 L77.6531,20.309 L76.2791,20.401 L76.0991,23.612 C75.8391,23.759 75.6101,23.955 75.4161,24.187 L72.2271,23.787 L71.8901,25.124 L74.8851,26.285 C74.9471,26.585 75.0581,26.868 75.2191,27.123 L73.8591,30.023 L75.0251,30.756 L77.0561,28.266 C77.3631,28.301 77.6631,28.277 77.9501,28.204 L80.2921,30.398 L81.3511,29.515 L79.6121,26.816 C79.6711,26.683 79.7251,26.547 79.7621,26.401 Z" id="Stroke-105" stroke="#489DEA" stroke-width="0.75" stroke-linecap="round" stroke-linejoin="round"></path>
                    <path d="M77.0628,26.7945 C76.4828,26.6485 76.1318,26.0605 76.2788,25.4815 C76.4248,24.9015 77.0128,24.5505 77.5928,24.6965 C78.1718,24.8425 78.5228,25.4315 78.3758,26.0105 C78.2308,26.5895 77.6428,26.9405 77.0628,26.7945" id="Fill-107" fill="#489DEA"></path>
                    <path d="M90.7865,14.8966 L90.0415,14.8966 C89.2115,14.8966 88.7285,15.4986 88.6325,16.0586 C88.6285,16.0766 88.6265,16.0966 88.6245,16.1156 L88.3635,18.8616 C88.3365,19.0446 88.3015,19.5506 88.6465,19.9726 C88.8295,20.1956 89.1775,20.4616 89.7925,20.4616 L90.7865,20.4616 C91.2005,20.4616 91.5365,20.1256 91.5365,19.7116 L91.5365,15.6466 C91.5365,15.2326 91.2005,14.8966 90.7865,14.8966 M90.7865,15.6466 L90.7865,19.7116 L89.7925,19.7116 C88.9575,19.7116 89.1085,18.9586 89.1085,18.9586 L89.3705,16.1866 C89.3705,16.1866 89.4645,15.6466 90.0415,15.6466 L90.7865,15.6466" id="Fill-125" fill="#489DEA"></path>
                    <path d="M48.6673,27.6168 L48.6673,0.8358" id="Stroke-127" stroke="#489DEA" stroke-width="0.75" stroke-linecap="round" stroke-linejoin="round"></path>
                    <path d="M26.1673,27.6168 L26.1673,11.8668" id="Stroke-129" stroke="#489DEA" stroke-width="0.75" stroke-linecap="round" stroke-linejoin="round"></path>
                    <path d="M3.5609,14.7989 C3.5209,14.7989 3.4799,14.8019 3.4389,14.8089 L1.9969,15.0469 C1.6339,15.1069 1.3689,15.4199 1.3689,15.7869 L1.3689,19.7119 C1.3689,20.1259 1.7049,20.4619 2.1189,20.4619 L3.5609,20.4619 C3.9759,20.4619 4.3109,20.1259 4.3109,19.7119 L4.3109,15.5489 C4.3109,15.3289 4.2139,15.1199 4.0459,14.9769 C3.9099,14.8609 3.7379,14.7989 3.5609,14.7989 M3.5609,15.5489 L3.5609,19.7119 L2.1189,19.7119 L2.1189,15.7869 L3.5609,15.5489" id="Fill-23" fill="#489DEA"></path>
                    <g id="Group-131" transform="translate(1.000000, 14.000000)"></g>
                </g>
                <path d="M11.1742,18.8063 C11.1742,18.8063 11.0622,18.8663 10.8932,18.9563 C10.7232,19.0413 10.5202,19.1983 10.3052,19.3343 C10.1952,19.3993 10.0962,19.4793 10.0052,19.5563 C9.9122,19.6323 9.8252,19.7023 9.7512,19.7623 C9.6772,19.8233 9.6162,19.8723 9.5732,19.9083 C9.5332,19.9463 9.5112,19.9693 9.5112,19.9693 C9.5112,19.9693 9.4812,19.8853 9.4382,19.7593 C9.3962,19.6333 9.3462,19.4683 9.2992,19.2983 C9.2032,18.9593 9.1282,18.6053 9.1282,18.6053 C9.1282,18.6053 9.1812,18.5623 9.2602,18.4983 C9.3002,18.4663 9.3462,18.4293 9.3962,18.3893 C9.4482,18.3533 9.5052,18.3153 9.5622,18.2783 C9.7882,18.1273 10.0152,17.9763 10.0152,17.9763 C10.0152,17.9763 10.3182,18.1593 10.6112,18.3743 C10.9032,18.5843 11.1742,18.8063 11.1742,18.8063" id="Fill-35" fill="#489DEA"></path>
                <path d="M14.3997,17.9073 C14.3997,17.9073 14.2727,17.9203 14.0837,17.9393 C13.8937,17.9643 13.6387,17.9713 13.3907,18.0353 C13.1427,18.0913 12.8897,18.1243 12.7107,18.1923 C12.5277,18.2483 12.4067,18.2853 12.4067,18.2853 C12.4067,18.2853 12.4367,17.9383 12.4917,17.5843 C12.5187,17.4073 12.5497,17.2283 12.5757,17.0943 C12.6007,16.9583 12.6227,16.8753 12.6227,16.8753 C12.6227,16.8753 12.8887,16.8213 13.1557,16.7653 C13.4207,16.7013 13.6927,16.6823 13.6927,16.6823 C13.6927,16.6823 13.8937,16.9853 14.0687,17.2923 C14.2467,17.5983 14.3997,17.9073 14.3997,17.9073" id="Fill-37" fill="#489DEA"></path>
                <path d="M17.7044,18.4571 C17.7044,18.4571 17.6754,18.4451 17.6244,18.4231 C17.5724,18.4011 17.5004,18.3681 17.4074,18.3431 C17.2254,18.2871 16.9814,18.2121 16.7384,18.1381 C16.4884,18.0871 16.2384,18.0381 16.0514,18.0001 C15.9584,17.9781 15.8794,17.9731 15.8234,17.9681 C15.7674,17.9631 15.7354,17.9591 15.7354,17.9591 C15.7354,17.9591 15.7804,17.8831 15.8484,17.7681 C15.9164,17.6541 16.0114,17.4961 16.1084,17.3531 C16.3034,17.0631 16.5214,16.7781 16.5214,16.7781 L17.0554,16.8851 C17.3144,16.9641 17.5754,17.0441 17.5754,17.0441 C17.5754,17.0441 17.6324,17.3991 17.6654,17.7471 C17.6834,17.9171 17.6904,18.1031 17.6974,18.2351 C17.7014,18.3681 17.7044,18.4571 17.7044,18.4571" id="Fill-39" fill="#489DEA"></path>
                <path d="M71.7718,18.4981 C71.8118,18.4661 71.8578,18.4291 71.9078,18.3891 C71.9598,18.3531 72.0168,18.3151 72.0728,18.2781 C72.2998,18.1271 72.5268,17.9771 72.5268,17.9771 C72.5268,17.9771 72.8298,18.1591 73.1228,18.3741 C73.4158,18.5841 73.6858,18.8061 73.6858,18.8061 C73.6858,18.8061 73.5738,18.8661 73.4048,18.9561 C73.2348,19.0411 73.0318,19.1981 72.8158,19.3341 C72.7068,19.3991 72.6078,19.4791 72.5158,19.5561 C72.4228,19.6321 72.3368,19.7021 72.2628,19.7621 C72.1888,19.8231 72.1268,19.8731 72.0838,19.9081 C72.0448,19.9461 72.0228,19.9691 72.0228,19.9691 C72.0228,19.9691 71.9928,19.8851 71.9488,19.7591 C71.9068,19.6331 71.8578,19.4681 71.8098,19.2981" id="Fill-77" fill="#489DEA"></path>
                <path d="M76.9105,17.9073 C76.9105,17.9073 76.7845,17.9203 76.5955,17.9393 C76.4055,17.9643 76.1495,17.9713 75.9025,18.0353 C75.6545,18.0913 75.4005,18.1243 75.2215,18.1923 C75.0395,18.2483 74.9175,18.2853 74.9175,18.2853 C74.9175,18.2853 74.9485,17.9383 75.0035,17.5843 C75.0295,17.4073 75.0605,17.2283 75.0875,17.0943 C75.1125,16.9583 75.1335,16.8753 75.1335,16.8753 C75.1335,16.8753 75.4005,16.8213 75.6675,16.7653 C75.9315,16.7013 76.2045,16.6823 76.2045,16.6823 C76.2045,16.6823 76.4055,16.9853 76.5805,17.2923 C76.7585,17.5983 76.9105,17.9073 76.9105,17.9073" id="Fill-79" fill="#489DEA"></path>
                <path d="M80.2152,18.4571 C80.2152,18.4571 80.1862,18.4451 80.1352,18.4231 C80.0842,18.4011 80.0122,18.3681 79.9192,18.3431 C79.7362,18.2871 79.4932,18.2121 79.2502,18.1381 C79.0002,18.0871 78.7502,18.0381 78.5632,18.0001 C78.4702,17.9781 78.3902,17.9731 78.3352,17.9681 C78.2792,17.9631 78.2472,17.9591 78.2472,17.9591 C78.2472,17.9591 78.2922,17.8831 78.3592,17.7681 C78.4272,17.6541 78.5232,17.4961 78.6192,17.3531 C78.8142,17.0631 79.0332,16.7781 79.0332,16.7781 C79.0332,16.7781 79.2992,16.8321 79.5662,16.8851 C79.8262,16.9641 80.0862,17.0441 80.0862,17.0441 C80.0862,17.0441 80.1432,17.3991 80.1762,17.7471 C80.1942,17.9171 80.2022,18.1031 80.2082,18.2351 C80.2132,18.3681 80.2152,18.4571 80.2152,18.4571" id="Fill-81" fill="#489DEA"></path>
                <path d="M46.6253,11.3209 C46.6213,11.7849 46.2423,12.1589 45.7763,12.1549 L26.4873,11.9879 C26.1833,11.9859 26.0343,11.6129 26.2563,11.4009 L35.5373,2.6009 C35.7593,2.3899 36.0623,2.2699 36.3683,2.2729 L45.7993,2.3619 C46.2643,2.3659 46.6373,2.7459 46.6333,3.2109 L46.6253,11.3209 Z" id="Fill-109" fill="#FFFFFF"></path>
                <path d="M46.6253,11.3209 C46.6213,11.7849 46.2423,12.1589 45.7763,12.1549 L26.4873,11.9879 C26.1833,11.9859 26.0343,11.6129 26.2563,11.4009 L35.5373,2.6009 C35.7593,2.3899 36.0623,2.2699 36.3683,2.2729 L45.7993,2.3619 C46.2643,2.3659 46.6373,2.7459 46.6333,3.2109 L46.6253,11.3209 Z" id="Stroke-111" stroke="#489DEA" stroke-width="0.75" stroke-linecap="round" stroke-linejoin="round"></path>
                <polygon id="Fill-113" fill="#FFFFFF" points="51.1146 2.419 55.3336 2.388 56.1766 12.158 50.8666 12.158"></polygon>
                <polygon id="Stroke-115" stroke="#489DEA" stroke-width="0.75" stroke-linecap="round" stroke-linejoin="round" points="51.1146 2.419 55.3336 2.388 56.1766 12.158 50.8666 12.158"></polygon>
                <path d="M42.6126,15.6451 C42.6126,15.7671 42.6966,15.8671 42.7996,15.8671 L46.1786,15.8671 C46.2826,15.8671 46.3666,15.7671 46.3666,15.6451 L46.3666,14.7871 C46.3666,14.6651 46.2826,14.5651 46.1786,14.5651 L42.7996,14.5651 C42.6966,14.5651 42.6126,14.6651 42.6126,14.7871 L42.6126,15.6451 Z" id="Fill-117" fill="#FFFFFF"></path>
                <path d="M42.6126,15.6451 C42.6126,15.7671 42.6966,15.8671 42.7996,15.8671 L46.1786,15.8671 C46.2826,15.8671 46.3666,15.7671 46.3666,15.6451 L46.3666,14.7871 C46.3666,14.6651 46.2826,14.5651 46.1786,14.5651 L42.7996,14.5651 C42.6966,14.5651 42.6126,14.6651 42.6126,14.7871 L42.6126,15.6451 Z" id="Stroke-119" stroke="#489DEA" stroke-width="0.75" stroke-linecap="round" stroke-linejoin="round"></path>
                <path d="M21.973,17.0177 L23.41,17.0177 C23.697,17.0177 23.93,16.7847 23.93,16.4977 L23.93,15.9297 C23.93,15.6437 23.697,15.4107 23.41,15.4107 L21.973,15.4107 C21.686,15.4107 21.453,15.6437 21.453,15.9297 L21.453,16.4977 C21.453,16.7847 21.686,17.0177 21.973,17.0177" id="Fill-121" fill="#FFFFFF"></path>
                <path d="M21.973,17.0177 L23.41,17.0177 C23.697,17.0177 23.93,16.7847 23.93,16.4977 L23.93,15.9297 C23.93,15.6437 23.697,15.4107 23.41,15.4107 L21.973,15.4107 C21.686,15.4107 21.453,15.6437 21.453,15.9297 L21.453,16.4977 C21.453,16.7847 21.686,17.0177 21.973,17.0177 Z" id="Stroke-123" stroke="#489DEA" stroke-width="0.75" stroke-linecap="round" stroke-linejoin="round"></path>
            </g>
        </g>
    </g>
</svg>