<?xml version="1.0" encoding="UTF-8"?>
<svg width="94px" height="36px" viewBox="0 0 76 28" version="1.1" xmlns="http://www.w3.org/2000/svg" xmlns:xlink="http://www.w3.org/1999/xlink">
    <!-- Generator: sketchtool 52.3 (67297) - http://www.bohemiancoding.com/sketch -->
    <title>BA5D9C04-1A2C-4CBA-8532-466EE19D94F7@1x</title>
    <desc>Created with sketchtool.</desc>
    <g id="Page-1" stroke="none" stroke-width="1" fill="none" fill-rule="evenodd">
        <g id="Car-Model-Icons---Greyscale" transform="translate(-277.000000, -243.000000)">
            <g id="Group-75" transform="translate(277.000000, 243.000000)">
                <path d="M59.6519,15.8207 C56.5439,15.8247 54.0269,18.3477 54.0319,21.4567 C54.0359,24.5637 56.5589,27.0807 59.6679,27.0757 C62.7749,27.0717 65.2919,24.5477 65.2869,21.4407 C65.2819,18.3317 62.7589,15.8157 59.6519,15.8207" id="Fill-1" fill="#CFCFD1"></path>
                <path d="M59.6519,15.8207 C56.5439,15.8247 54.0269,18.3477 54.0319,21.4567 C54.0359,24.5637 56.5589,27.0807 59.6679,27.0757 C62.7749,27.0717 65.2919,24.5477 65.2869,21.4407 C65.2819,18.3317 62.7589,15.8157 59.6519,15.8207 Z" id="Stroke-3" stroke="#202020" stroke-linecap="round" stroke-linejoin="round"></path>
                <path d="M59.6617,23.099 C58.7467,23.1 58.0037,22.363 58.0027,21.45 C58.0007,20.539 58.7417,19.798 59.6567,19.797 C60.5717,19.796 61.3147,20.535 61.3157,21.445 C61.3177,22.358 60.5767,23.097 59.6617,23.099 M59.6527,16.992 C57.1827,16.995 55.1817,18.994 55.1847,21.455 C55.1877,23.915 57.1947,25.91 59.6657,25.906 C62.1367,25.903 64.1367,23.903 64.1337,21.443 C64.1297,18.981 62.1237,16.988 59.6527,16.992" id="Fill-5" fill="#CFCFD1"></path>
                <path d="M59.6617,23.099 C58.7467,23.1 58.0037,22.363 58.0027,21.45 C58.0007,20.539 58.7417,19.798 59.6567,19.797 C60.5717,19.796 61.3147,20.535 61.3157,21.445 C61.3177,22.358 60.5767,23.097 59.6617,23.099 Z M59.6527,16.992 C57.1827,16.995 55.1817,18.994 55.1847,21.455 C55.1877,23.915 57.1947,25.91 59.6657,25.906 C62.1367,25.903 64.1367,23.903 64.1337,21.443 C64.1297,18.981 62.1237,16.988 59.6527,16.992 Z" id="Stroke-7" stroke="#202020" stroke-width="0.75" stroke-linecap="round" stroke-linejoin="round"></path>
                <path d="M59.6568,19.7972 C58.7418,19.7982 58.0008,20.5392 58.0028,21.4492 C58.0038,22.3622 58.7468,23.1002 59.6618,23.0992 C60.5768,23.0972 61.3178,22.3582 61.3158,21.4442 C61.3148,20.5342 60.5718,19.7962 59.6568,19.7972" id="Fill-9" fill="#202020"></path>
                <path d="M59.4976,18.5238 C62.1096,18.5198 64.3036,20.2988 64.9406,22.7118 C65.0596,22.2538 65.1296,21.7768 65.1296,21.2818 C65.1246,18.1718 62.6016,15.6568 59.4936,15.6608 C56.3866,15.6658 53.8696,18.1878 53.8736,21.2968 C53.8746,21.7928 53.9456,22.2708 54.0666,22.7278 C54.6966,20.3128 56.8856,18.5278 59.4976,18.5238" id="Fill-11" fill-opacity="0.1" fill="#202020"></path>
                <path d="M54.1353,20.3509 C53.3853,24.3189 56.8063,27.7299 60.7733,26.9689 C62.9883,26.5439 64.7703,24.7529 65.1853,22.5379 C65.9263,18.5729 62.5123,15.1699 58.5513,15.9259 C56.3373,16.3489 54.5543,18.1359 54.1353,20.3509 Z" id="Stroke-13" stroke="#202020" stroke-width="1.75" stroke-linecap="round" stroke-linejoin="round"></path>
                <path d="M15.147,15.8998 C12.04,15.9038 9.523,18.4268 9.527,21.5368 C9.532,24.6428 12.055,27.1598 15.164,27.1548 C18.271,27.1508 20.787,24.6278 20.783,21.5198 C20.778,18.4108 18.255,15.8948 15.147,15.8998" id="Fill-15" fill="#CFCFD1"></path>
                <path d="M15.147,15.8998 C12.04,15.9038 9.523,18.4268 9.527,21.5368 C9.532,24.6428 12.055,27.1598 15.164,27.1548 C18.271,27.1508 20.787,24.6278 20.783,21.5198 C20.778,18.4108 18.255,15.8948 15.147,15.8998 Z" id="Stroke-17" stroke="#202020" stroke-linecap="round" stroke-linejoin="round"></path>
                <path d="M15.1578,23.1781 C14.2428,23.1791 13.4998,22.4421 13.4988,21.5291 C13.4968,20.6181 14.2378,19.8781 15.1528,19.8761 C16.0678,19.8751 16.8108,20.6141 16.8118,21.5251 C16.8128,22.4371 16.0728,23.1761 15.1578,23.1781 M15.1488,17.0711 C12.6788,17.0741 10.6778,19.0741 10.6798,21.5341 C10.6838,23.9951 12.6908,25.9891 15.1618,25.9851 C17.6328,25.9821 19.6328,23.9821 19.6298,21.5221 C19.6258,19.0601 17.6198,17.0681 15.1488,17.0711" id="Fill-19" fill="#CFCFD1"></path>
                <path d="M15.1578,23.1781 C14.2428,23.1791 13.4998,22.4421 13.4988,21.5291 C13.4968,20.6181 14.2378,19.8781 15.1528,19.8761 C16.0678,19.8751 16.8108,20.6141 16.8118,21.5251 C16.8128,22.4371 16.0728,23.1761 15.1578,23.1781 Z M15.1488,17.0711 C12.6788,17.0741 10.6778,19.0741 10.6798,21.5341 C10.6838,23.9951 12.6908,25.9891 15.1618,25.9851 C17.6328,25.9821 19.6328,23.9821 19.6298,21.5221 C19.6258,19.0601 17.6198,17.0681 15.1488,17.0711 Z" id="Stroke-21" stroke="#202020" stroke-width="0.75" stroke-linecap="round" stroke-linejoin="round"></path>
                <path d="M15.1529,19.8763 C14.2379,19.8783 13.4969,20.6183 13.4989,21.5283 C13.4999,22.4413 14.2429,23.1793 15.1579,23.1783 C16.0729,23.1763 16.8129,22.4373 16.8119,21.5243 C16.8109,20.6133 16.0679,19.8753 15.1529,19.8763" id="Fill-23" fill="#202020"></path>
                <path d="M14.9937,18.6029 C17.6057,18.5989 19.7997,20.3779 20.4357,22.7909 C20.5557,22.3339 20.6257,21.8559 20.6257,21.3609 C20.6207,18.2509 18.0977,15.7359 14.9897,15.7409 C11.8827,15.7449 9.3657,18.2669 9.3697,21.3759 C9.3707,21.8729 9.4417,22.3499 9.5627,22.8069 C10.1927,20.3919 12.3817,18.6069 14.9937,18.6029" id="Fill-25" fill-opacity="0.1" fill="#202020"></path>
                <path d="M9.6314,20.43 C8.8814,24.398 12.3024,27.809 16.2694,27.048 C18.4844,26.623 20.2664,24.832 20.6804,22.617 C21.4224,18.652 18.0084,15.249 14.0474,16.005 C11.8334,16.428 10.0494,18.215 9.6314,20.43 Z" id="Stroke-27" stroke="#202020" stroke-width="1.75" stroke-linecap="round" stroke-linejoin="round"></path>
                <path d="M50.692,3.9066 C50.261,3.0926 49.117,3.0446 48.544,3.7656 C48.231,4.1576 47.956,4.7066 48.046,5.3706 C48.233,6.7596 48.652,7.2776 48.652,7.2776 L50.881,7.5156 C50.881,7.5156 51.101,5.0196 50.868,4.3256 C50.819,4.1786 50.761,4.0386 50.692,3.9066" id="Fill-29" fill="#CFCFD1"></path>
                <path d="M50.692,3.9066 C50.261,3.0926 49.117,3.0446 48.544,3.7656 C48.231,4.1576 47.956,4.7066 48.046,5.3706 C48.233,6.7596 48.652,7.2776 48.652,7.2776 L50.881,7.5156 C50.881,7.5156 51.101,5.0196 50.868,4.3256 C50.819,4.1786 50.761,4.0386 50.692,3.9066 Z" id="Stroke-31" stroke="#202020" stroke-width="0.75"></path>
                <path d="M61.398,5.1205 C61.398,5.1205 62.125,3.5395 60.642,3.4465 C59.161,3.3535 57.646,5.6015 57.592,5.6345 C57.539,5.6655 61.398,5.1205 61.398,5.1205" id="Fill-33" fill="#CFCFD1"></path>
                <path d="M61.398,5.1205 C61.398,5.1205 62.125,3.5395 60.642,3.4465 C59.161,3.3535 57.646,5.6015 57.592,5.6345 C57.539,5.6655 61.398,5.1205 61.398,5.1205 Z" id="Stroke-35" stroke="#202020" stroke-width="0.75"></path>
                <path d="M18.3541,7.4808 C18.3541,7.4808 30.3881,-0.1032 31.4001,0.5388 C32.4111,1.1798 32.6581,1.7478 32.2631,1.9938 C31.8681,2.2408 24.8521,6.2658 23.9631,7.2008" id="Stroke-37" stroke="#202020" fill="#FFFFFF" stroke-linecap="round" stroke-linejoin="round"></path>
                <path d="M46.5279,6.9671 C46.5279,6.9671 46.6349,5.8381 46.9409,5.6441 C47.2469,5.4491 66.8359,4.7891 68.7799,5.8451 C70.7229,6.9001 47.3639,7.5391 46.5279,6.9671" id="Fill-39" fill="#CFCFD1"></path>
                <path d="M46.5279,6.9671 C46.5279,6.9671 46.6349,5.8381 46.9409,5.6441 C47.2469,5.4491 66.8359,4.7891 68.7799,5.8451 C70.7229,6.9001 47.3639,7.5391 46.5279,6.9671 Z" id="Stroke-41" stroke="#202020"></path>
                <path d="M24.3375,7.5433 C24.3375,7.5433 1.2895,6.5153 2.2275,18.8973 C2.3025,19.8793 2.7615,20.8003 3.5585,21.3853 L3.6445,21.4473 C4.4525,22.0413 5.4355,22.3633 6.4395,22.3633 C7.2655,22.3633 7.8695,21.6423 7.9215,20.8173 C8.1625,17.0223 11.3165,14.0193 15.1725,14.0193 C18.2805,14.0193 20.8945,15.9583 21.9445,18.6473 C22.6865,20.5463 21.6985,22.3633 23.7375,22.3633 L52.2615,22.3633 C52.2615,21.8173 52.0255,19.9643 53.3465,17.6673 C54.6015,15.4863 56.9535,14.0193 59.6505,14.0193 C62.8615,14.0193 65.5885,16.1043 66.5465,18.9963 C67.1245,20.7383 68.4015,22.3633 70.2375,22.3633 C72.0485,22.3633 74.0185,21.1593 73.7995,19.3623 C73.7995,19.3623 73.6715,14.9263 72.5975,10.7973 C72.1215,8.9693 70.5225,6.7273 68.8765,6.4353 L24.3375,7.5433 Z" id="Fill-43" fill="#ECECEC"></path>
                <path d="M45.7017,11.2132 L42.3887,11.2132" id="Stroke-45" stroke="#202020" stroke-linecap="round" stroke-linejoin="round"></path>
                <path d="M70.8677,14.7738 C70.2457,14.7738 69.7397,14.2678 69.7397,13.6458 L69.7397,13.5308 C69.7397,12.9088 70.2457,12.4028 70.8677,12.4028 L72.7907,12.4028 C72.9787,12.4028 73.1387,12.5438 73.1627,12.7298 L73.3697,14.3508 C73.3837,14.4588 73.3497,14.5658 73.2787,14.6468 C73.2077,14.7278 73.1047,14.7738 72.9977,14.7738 L70.8677,14.7738 Z" id="Fill-47" fill="#ECECEC"></path>
                <path d="M72.7906,12.0277 L70.8676,12.0277 C70.0396,12.0277 69.3646,12.7017 69.3646,13.5307 L69.3646,13.6457 C69.3646,14.4737 70.0396,15.1487 70.8676,15.1487 L72.9976,15.1487 C73.2136,15.1487 73.4186,15.0557 73.5606,14.8937 C73.7026,14.7327 73.7696,14.5167 73.7416,14.3037 L73.5346,12.6827 C73.4866,12.3087 73.1686,12.0277 72.7906,12.0277 M72.7906,12.7777 L72.9976,14.3987 L70.8676,14.3987 C70.4516,14.3987 70.1146,14.0617 70.1146,13.6457 L70.1146,13.5307 C70.1146,13.1147 70.4516,12.7777 70.8676,12.7777 L72.7906,12.7777" id="Fill-49" fill="#202020"></path>
                <g id="Group-54" transform="translate(2.000000, 13.030100)">
                    <path d="M0.7164,2.6226 L4.6724,2.6306 C5.1204,2.6306 5.5204,2.3406 5.6614,1.9146 L5.8794,1.1526 C5.9954,0.8026 5.7334,0.4396 5.3624,0.4396 L1.9334,0.2626" id="Fill-51" fill="#ECECEC"></path>
                    <path d="M0.7164,2.6226 L4.6724,2.6306 C5.1204,2.6306 5.5204,2.3406 5.6614,1.9146 L5.8794,1.1526 C5.9954,0.8026 5.7334,0.4396 5.3624,0.4396 L1.9334,0.2626" id="Stroke-53" stroke="#202020" stroke-width="0.75" stroke-linecap="round" stroke-linejoin="round"></path>
                </g>
                <path d="M7.3716,13.4652 L6.2896,13.4652 C6.6616,13.4652 6.9246,13.8272 6.8076,14.1782 L6.5886,14.9402 C6.4516,15.3552 6.0676,15.6402 5.6326,15.6532 L6.6816,15.6562 C7.1306,15.6562 7.5296,15.3652 7.6706,14.9402 L7.8896,14.1782 C8.0056,13.8272 7.7426,13.4652 7.3716,13.4652" id="Fill-55" fill="#202020"></path>
                <path d="M26.6754,7.6683 C26.6754,7.6683 24.5904,8.8623 25.6684,19.6053 C25.7044,19.9633 26.0024,20.2413 26.3634,20.2423 C29.5224,20.2583 43.5694,20.3103 44.8574,20.0313 C46.3094,19.7163 46.5074,18.3623 46.7464,17.7103 C46.9864,17.0583 48.7234,11.3763 48.6814,10.2463 C48.6444,9.2183 47.2444,7.2943 47.2444,7.2943" id="Stroke-57" stroke="#202020" stroke-linecap="round" stroke-linejoin="round"></path>
                <path d="M24.3375,7.5433 C24.3375,7.5433 1.2895,6.5153 2.2275,18.8973 C2.3025,19.8793 2.7615,20.8003 3.5585,21.3853 L3.6445,21.4473 C4.4525,22.0413 5.4355,22.3633 6.4395,22.3633 C7.2655,22.3633 7.8695,21.6423 7.9215,20.8173 C8.1625,17.0223 11.3165,14.0193 15.1725,14.0193 C18.2805,14.0193 20.8945,15.9583 21.9445,18.6473 C22.6865,20.5463 21.6985,22.3633 23.7375,22.3633 L52.2615,22.3633 C52.2615,21.8173 52.0255,19.9643 53.3465,17.6673 C54.6015,15.4863 56.9535,14.0193 59.6505,14.0193 C62.8615,14.0193 65.5885,16.1043 66.5465,18.9963 C67.1245,20.7383 68.4015,22.3633 70.2375,22.3633 C72.0485,22.3633 74.0185,21.1593 73.7995,19.3623 C73.7995,19.3623 73.6715,14.9263 72.5975,10.7973 C72.1215,8.9693 70.5225,6.7273 68.8765,6.4353 L24.3375,7.5433 Z" id="Stroke-59" stroke="#202020"></path>
                <path d="M8.4146,22.7806 C8.7936,23.8426 7.4436,23.5266 6.8206,23.5266 L2.7316,23.5266 C2.0726,23.5266 1.5006,23.0666 1.3556,22.4246 L0.5226,18.7036 C0.3946,18.1376 0.8246,17.6026 1.4046,17.6026 L7.0866,17.6026 C7.7106,17.6026 8.4956,17.9096 8.1496,18.9916 C7.8056,20.0726 8.0536,21.7676 8.4146,22.7806" id="Fill-61" fill="#CFCFD1"></path>
                <path d="M8.4146,22.7806 C8.7936,23.8426 7.4436,23.5266 6.8206,23.5266 L2.7316,23.5266 C2.0726,23.5266 1.5006,23.0666 1.3556,22.4246 L0.5226,18.7036 C0.3946,18.1376 0.8246,17.6026 1.4046,17.6026 L7.0866,17.6026 C7.7106,17.6026 8.4956,17.9096 8.1496,18.9916 C7.8056,20.0726 8.0536,21.7676 8.4146,22.7806 Z" id="Stroke-63" stroke="#202020" stroke-linecap="round" stroke-linejoin="round"></path>
                <path d="M8.4146,22.7767 C8.0406,21.7677 7.8056,20.0687 8.1496,18.9877 C8.4956,17.9057 7.7106,17.5977 7.0866,17.5977 L6.4896,17.5977 C6.4776,17.6577 6.4606,17.7197 6.4396,17.7847 C6.1476,18.6967 5.7816,20.0637 6.0886,21.5107 C6.1746,21.9167 5.8946,22.3197 5.4796,22.3197 L1.3336,22.3197 L1.3556,22.4197 C1.5006,23.0617 2.0726,23.5217 2.7316,23.5217 L6.8206,23.5217 C7.4436,23.5217 8.7086,23.5707 8.4146,22.7767" id="Fill-65" fill-opacity="0.1" fill="#202020"></path>
                <path d="M66.4957,22.9056 C66.1877,23.7376 66.9107,23.8486 67.5347,23.8486 L73.2677,23.8486 C73.9277,23.8486 74.5007,23.3896 74.6447,22.7466 L75.4767,19.0266 C75.6047,18.4616 75.1767,17.9256 74.5967,17.9256 L67.5347,17.9256 C66.9107,17.9256 66.3237,17.9946 66.6947,19.0866 C67.1007,20.2806 66.8047,22.0716 66.4957,22.9056 Z" id="Stroke-67" stroke="#202020" stroke-linecap="round" stroke-linejoin="round"></path>
                <path d="M74.317,17.9476 L73.909,17.9476 C73.906,17.9666 73.908,17.9846 73.903,18.0036 L73.071,21.7226 C72.926,22.3666 72.353,22.8256 71.694,22.8256 L66.252,22.8256 C66.24,22.8606 66.228,22.8956 66.216,22.9276 C65.909,23.7596 66.632,23.8726 67.256,23.8726 L72.99,23.8726 C73.649,23.8726 74.221,23.4126 74.366,22.7686 L75.199,19.0496 C75.326,18.4826 74.898,17.9476 74.317,17.9476" id="Fill-69" fill="#202020"></path>
                <path d="M66.4957,22.9056 C66.1877,23.7376 66.9107,23.8486 67.5347,23.8486 L73.2677,23.8486 C73.9277,23.8486 74.5007,23.3896 74.6447,22.7466 L75.4767,19.0266 C75.6047,18.4616 75.1767,17.9256 74.5967,17.9256 L67.5347,17.9256 C66.9107,17.9256 66.3237,17.9946 66.6947,19.0866 C67.1007,20.2806 66.8047,22.0716 66.4957,22.9056" id="Fill-71" fill="#CFCFD1"></path>
                <path d="M66.4957,22.9056 C66.1877,23.7376 66.9107,23.8486 67.5347,23.8486 L73.2677,23.8486 C73.9277,23.8486 74.5007,23.3896 74.6447,22.7466 L75.4767,19.0266 C75.6047,18.4616 75.1767,17.9256 74.5967,17.9256 L67.5347,17.9256 C66.9107,17.9256 66.3237,17.9946 66.6947,19.0866 C67.1007,20.2806 66.8047,22.0716 66.4957,22.9056 Z" id="Stroke-73" stroke="#202020" stroke-linecap="round" stroke-linejoin="round"></path>
            </g>
        </g>
    </g>
</svg>