<?xml version="1.0" encoding="UTF-8"?>
<svg width="94px" height="36px" viewBox="0 0 76 28" version="1.1" xmlns="http://www.w3.org/2000/svg" xmlns:xlink="http://www.w3.org/1999/xlink">
    <!-- Generator: sketchtool 52.3 (67297) - http://www.bohemiancoding.com/sketch -->
    <title>D2CB4CA1-0668-4F08-A68F-496C6DDCDB26@1.5x</title>
    <desc>Created with sketchtool.</desc>
    <g id="Page-1" stroke="none" stroke-width="1" fill="none" fill-rule="evenodd">
        <g id="Car-Model-Icons---Greyscale" transform="translate(-150.000000, -244.000000)">
            <g id="Group-95" transform="translate(150.000000, 244.000000)">
                <path d="M23.0473,8.824 C22.8993,8.824 22.7623,8.736 22.7023,8.596 C22.6333,8.434 22.6863,8.246 22.8293,8.143 L32.4973,1.249 C32.5613,1.204 32.6373,1.179 32.7143,1.179 C32.7253,1.179 32.7353,1.179 32.7453,1.18 C33.3173,1.227 33.6653,1.418 33.7823,1.745 C33.8903,2.049 33.7673,2.391 33.4353,2.711 L27.9783,7.55 C27.5383,7.933 26.9283,8.1 26.1453,8.234 L23.1183,8.817 C23.0943,8.822 23.0703,8.824 23.0473,8.824" id="Fill-1" fill="#FFFFFF"></path>
                <path d="M32.7148,0.8045 C32.5588,0.8045 32.4068,0.8535 32.2788,0.9445 L22.6118,7.8385 C22.3248,8.0435 22.2188,8.4205 22.3578,8.7445 C22.4778,9.0245 22.7518,9.1995 23.0468,9.1995 C23.0938,9.1995 23.1418,9.1955 23.1888,9.1865 L26.2248,8.6015 C27.0518,8.4605 27.7168,8.2745 28.2228,7.8345 L33.6728,3.0005 C34.1328,2.5605 34.2938,2.0645 34.1358,1.6195 C33.9648,1.1405 33.5078,0.8665 32.7758,0.8075 C32.7558,0.8055 32.7358,0.8045 32.7148,0.8045 M32.7148,1.5545 C33.6648,1.6325 33.5368,2.0925 33.1748,2.4405 L27.7298,7.2695 C27.3608,7.5905 26.8078,7.7415 26.0828,7.8655 L23.0478,8.4495 L32.7148,1.5545" id="Fill-3" fill="#202020"></path>
                <path d="M60.9863,7.4344 C60.9113,7.4344 60.8383,7.4124 60.7763,7.3694 L53.2433,2.2424 C53.1563,2.1834 53.0973,2.0904 53.0833,1.9864 C53.0683,1.8824 53.0973,1.7764 53.1643,1.6954 L53.9403,0.7454 C54.0133,0.6554 54.1213,0.6074 54.2303,0.6074 C54.2873,0.6074 54.3433,0.6204 54.3973,0.6464 L66.6533,6.7404 C66.8093,6.8184 66.8913,6.9934 66.8513,7.1624 C66.8113,7.3314 66.6603,7.4514 66.4863,7.4514 L60.9863,7.4344 Z" id="Fill-5" fill="#FFFFFF"></path>
                <path d="M54.2304,0.2322 C54.0104,0.2322 53.7954,0.3292 53.6494,0.5072 L52.8734,1.4582 C52.7404,1.6212 52.6814,1.8322 52.7114,2.0402 C52.7424,2.2482 52.8584,2.4342 53.0324,2.5522 L60.5654,7.6792 C60.6894,7.7642 60.8354,7.8092 60.9854,7.8092 L66.4834,7.8262 L66.4864,7.8262 C66.8334,7.8262 67.1354,7.5862 67.2154,7.2482 C67.2954,6.9092 67.1314,6.5592 66.8194,6.4042 L54.5634,0.3112 C54.4574,0.2572 54.3434,0.2322 54.2304,0.2322 M54.2304,0.9822 L66.4854,7.0762 L60.9874,7.0592 L53.4544,1.9322 L54.2304,0.9822" id="Fill-7" fill="#202020"></path>
                <path d="M54.9345,1.3328 L54.1875,2.2978 L57.0015,4.0958 C57.0015,4.0958 55.9955,3.4158 56.8985,2.3098 C55.6195,1.6588 54.9345,1.3328 54.9345,1.3328" id="Fill-9" fill-opacity="0.1" fill="#202020"></path>
                <path d="M32.4331,1.7557 L32.7421,2.2427 L30.4521,4.2617 C30.4521,4.2617 31.1571,3.6487 30.6511,3.0267 L32.4331,1.7557 Z" id="Fill-11" fill-opacity="0.1" fill="#202020"></path>
                <polygon id="Stroke-13" stroke="#202020" stroke-linecap="round" stroke-linejoin="round" points="68.7353 12.1863 11.0583 12.2693 5.9203 21.7023 69.3513 21.6103"></polygon>
                <path d="M73.7343,18.8172 C73.7343,18.8172 73.6003,14.3692 72.5173,10.2312 C72.0373,8.3982 70.4323,7.6522 68.7823,7.3622 L63.3243,6.9812 C61.6573,6.9832 60.0223,6.4782 58.6473,5.5372 L54.9123,3.1302 C53.9163,2.4852 54.6903,1.3832 54.6893,0.9622 C54.6893,0.5032 54.1953,0.5002 53.9393,0.5002 L34.8673,0.5272 C34.3143,0.5282 33.4853,0.5502 33.0473,0.8872 C33.0473,0.8872 32.5693,1.1802 32.7093,1.4012 C32.8483,1.6222 33.3063,2.2892 32.7143,2.8642 L27.7293,7.2692 C27.3613,7.5902 26.8073,7.7412 26.0823,7.8652 L24.4353,8.1302 L24.4313,8.1292 L8.6573,10.5862 C4.7603,11.1932 1.7833,14.5152 1.9683,18.4552 C2.0143,19.4402 2.5053,20.3622 3.3063,20.9472 L3.3913,21.0092 C4.2043,21.6042 5.1893,21.9252 6.1963,21.9232 C7.0243,21.9222 7.6293,21.1982 7.6803,20.3722 C7.9163,16.5652 11.0753,13.5492 14.9413,13.5442 C18.0573,13.5392 20.6813,15.4802 21.7383,18.1742 C22.4843,20.0782 21.4973,21.9022 23.5413,21.8992 C29.0923,21.8912 46.0373,21.8672 52.1433,21.8582 C52.1423,21.3102 51.9033,19.4522 53.2233,17.1472 C54.4783,14.9592 56.8363,13.4832 59.5393,13.4792 C62.7593,13.4742 65.4973,15.5622 66.4623,18.4612 C67.0443,20.2072 68.3273,21.8352 70.1683,21.8322 C71.9833,21.8302 73.9573,20.6192 73.7343,18.8172" id="Fill-15" fill="#ECECEC"></path>
                <path d="M73.7343,18.8172 C73.7343,18.8172 73.6003,14.3692 72.5173,10.2312 C72.0373,8.3982 70.4323,7.6522 68.7823,7.3622 L63.3243,6.9812 C61.6573,6.9832 60.0223,6.4782 58.6473,5.5372 L54.9123,3.1302 C53.9163,2.4852 54.6903,1.3832 54.6893,0.9622 C54.6893,0.5032 54.1953,0.5002 53.9393,0.5002 L34.8673,0.5272 C34.3143,0.5282 33.4853,0.5502 33.0473,0.8872 C33.0473,0.8872 32.5693,1.1802 32.7093,1.4012 C32.8483,1.6222 33.3063,2.2892 32.7143,2.8642 L27.7293,7.2692 C27.3613,7.5902 26.8073,7.7412 26.0823,7.8652 L24.4353,8.1302 L24.4313,8.1292 L8.6573,10.5862 C4.7603,11.1932 1.7833,14.5152 1.9683,18.4552 C2.0143,19.4402 2.5053,20.3622 3.3063,20.9472 L3.3913,21.0092 C4.2043,21.6042 5.1893,21.9252 6.1963,21.9232 C7.0243,21.9222 7.6293,21.1982 7.6803,20.3722 C7.9163,16.5652 11.0753,13.5492 14.9413,13.5442 C18.0573,13.5392 20.6813,15.4802 21.7383,18.1742 C22.4843,20.0782 21.4973,21.9022 23.5413,21.8992 C29.0923,21.8912 46.0373,21.8672 52.1433,21.8582 C52.1423,21.3102 51.9033,19.4522 53.2233,17.1472 C54.4783,14.9592 56.8363,13.4832 59.5393,13.4792 C62.7593,13.4742 65.4973,15.5622 66.4623,18.4612 C67.0443,20.2072 68.3273,21.8352 70.1683,21.8322 C71.9833,21.8302 73.9573,20.6192 73.7343,18.8172 Z" id="Stroke-17" stroke="#202020"></path>
                <path d="M9.3325,20.9129 C9.3365,24.0199 11.8605,26.5359 14.9685,26.5319 C18.0765,26.5269 20.5925,24.0039 20.5885,20.8959 C20.5835,17.7869 18.0605,15.2719 14.9525,15.2759 C11.8445,15.2809 9.3285,17.8039 9.3325,20.9129" id="Fill-19" fill="#CFCFD1"></path>
                <path d="M9.3325,20.9129 C9.3365,24.0199 11.8605,26.5359 14.9685,26.5319 C18.0765,26.5269 20.5925,24.0039 20.5885,20.8959 C20.5835,17.7869 18.0605,15.2719 14.9525,15.2759 C11.8445,15.2809 9.3285,17.8039 9.3325,20.9129 Z" id="Stroke-21" stroke="#202020" stroke-linecap="round" stroke-linejoin="round"></path>
                <path d="M10.4868,20.9109 C10.4898,23.3719 12.4958,25.3649 14.9668,25.3619 C17.4378,25.3579 19.4388,23.3589 19.4348,20.8979 C19.4318,18.4369 17.4248,16.4439 14.9548,16.4469 C12.4838,16.4509 10.4838,18.4499 10.4868,20.9109" id="Fill-23" fill="#CFCFD1"></path>
                <path d="M10.4868,20.9109 C10.4898,23.3719 12.4958,25.3649 14.9668,25.3619 C17.4378,25.3579 19.4388,23.3589 19.4348,20.8979 C19.4318,18.4369 17.4248,16.4439 14.9548,16.4469 C12.4838,16.4509 10.4838,18.4499 10.4868,20.9109 Z" id="Stroke-25" stroke="#202020" stroke-width="0.75" stroke-linecap="round" stroke-linejoin="round"></path>
                <path d="M13.3032,20.9061 C13.3042,21.8181 14.0482,22.5551 14.9632,22.5541 C15.8782,22.5531 16.6192,21.8131 16.6182,20.9011 C16.6162,19.9901 15.8732,19.2521 14.9582,19.2541 C14.0432,19.2551 13.3022,19.9951 13.3032,20.9061" id="Fill-27" fill="#202020"></path>
                <path d="M66.4765,22.8582 C66.1695,23.6922 66.8945,23.8032 67.5205,23.8022 L73.2695,23.7952 C73.9305,23.7942 74.5035,23.3322 74.6485,22.6862 L75.4775,18.9562 C75.6045,18.3882 75.1735,17.8512 74.5915,17.8522 L67.5115,17.8632 C66.8865,17.8632 66.2975,17.9332 66.6705,19.0282 C67.0805,20.2252 66.7855,22.0212 66.4765,22.8582 Z" id="Stroke-29" stroke="#202020" stroke-linecap="round" stroke-linejoin="round"></path>
                <path d="M74.3125,17.8758 L73.9035,17.8758 C73.9005,17.8948 73.9015,17.9128 73.8975,17.9318 L73.0685,21.6628 C72.9235,22.3088 72.3505,22.7698 71.6895,22.7708 L66.2325,22.7778 C66.2205,22.8128 66.2085,22.8488 66.1975,22.8808 C65.8895,23.7158 66.6155,23.8268 67.2415,23.8258 L72.9905,23.8168 C73.6505,23.8158 74.2245,23.3548 74.3685,22.7098 L75.1985,18.9788 C75.3255,18.4108 74.8945,17.8748 74.3125,17.8758" id="Fill-31" fill="#202020"></path>
                <path d="M66.4765,22.8582 C66.1695,23.6922 66.8945,23.8032 67.5205,23.8022 L73.2695,23.7952 C73.9305,23.7942 74.5035,23.3322 74.6485,22.6862 L75.4775,18.9562 C75.6045,18.3882 75.1735,17.8512 74.5915,17.8522 L67.5115,17.8632 C66.8865,17.8632 66.2975,17.9332 66.6705,19.0282 C67.0805,20.2252 66.7855,22.0212 66.4765,22.8582" id="Fill-33" fill="#CFCFD1"></path>
                <path d="M66.4765,22.8582 C66.1695,23.6922 66.8945,23.8032 67.5205,23.8022 L73.2695,23.7952 C73.9305,23.7942 74.5035,23.3322 74.6485,22.6862 L75.4775,18.9562 C75.6045,18.3882 75.1735,17.8512 74.5915,17.8522 L67.5115,17.8632 C66.8865,17.8632 66.2975,17.9332 66.6705,19.0282 C67.0805,20.2252 66.7855,22.0212 66.4765,22.8582 Z" id="Stroke-35" stroke="#202020" stroke-linecap="round" stroke-linejoin="round"></path>
                <path d="M70.9707,16.3357 C70.3497,16.3357 69.8417,15.8297 69.8407,15.2087 L69.8407,15.0917 C69.8397,14.7907 69.9567,14.5067 70.1707,14.2927 C70.3837,14.0787 70.6667,13.9617 70.9687,13.9607 L72.8987,13.9587 C73.0867,13.9587 73.2457,14.0987 73.2707,14.2857 L73.4797,15.9097 C73.4927,16.0167 73.4597,16.1247 73.3897,16.2047 C73.3187,16.2857 73.2157,16.3327 73.1087,16.3327 L70.9737,16.3357 L70.9707,16.3357 Z" id="Fill-37" fill="#ECECEC"></path>
                <path d="M72.8984,13.5838 L72.8964,13.5838 L70.9684,13.5858 C70.5664,13.5868 70.1894,13.7438 69.9054,14.0278 C69.6214,14.3128 69.4644,14.6898 69.4654,15.0928 L69.4654,15.2088 C69.4664,16.0368 70.1424,16.7108 70.9704,16.7108 L73.1084,16.7078 C73.3244,16.7078 73.5294,16.6148 73.6704,16.4528 C73.8134,16.2908 73.8784,16.0758 73.8514,15.8618 L73.6414,14.2368 C73.5934,13.8628 73.2754,13.5838 72.8984,13.5838 M72.8984,14.3338 L73.1074,15.9578 L70.9714,15.9608 L70.9704,15.9608 C70.5544,15.9608 70.2164,15.6238 70.2154,15.2078 L70.2154,15.0918 C70.2144,14.6748 70.5524,14.3368 70.9694,14.3358 L72.8984,14.3338" id="Fill-39" fill="#202020"></path>
                <path d="M70.9668,13.7742 C70.3458,13.7742 69.8378,13.2682 69.8368,12.6472 L69.8368,12.5302 C69.8368,11.9082 70.3428,11.4002 70.9648,11.3992 L72.4328,11.3972 C72.6128,11.3972 72.7668,11.5242 72.8008,11.7002 L73.1188,13.3252 C73.1408,13.4352 73.1118,13.5482 73.0408,13.6352 C72.9698,13.7212 72.8628,13.7722 72.7508,13.7722 L70.9688,13.7742 L70.9668,13.7742 Z" id="Fill-41" fill="#ECECEC"></path>
                <path d="M72.4326,11.0223 L72.4316,11.0223 L70.9646,11.0243 C70.1346,11.0263 69.4606,11.7023 69.4616,12.5313 L69.4616,12.6473 C69.4636,13.4753 70.1386,14.1493 70.9676,14.1493 L72.7516,14.1473 C72.9756,14.1463 73.1876,14.0463 73.3296,13.8743 C73.4726,13.7003 73.5296,13.4723 73.4866,13.2523 L73.1686,11.6283 C73.0996,11.2763 72.7906,11.0223 72.4326,11.0223 M72.4326,11.7723 L72.7506,13.3973 L70.9686,13.3993 L70.9676,13.3993 C70.5506,13.3993 70.2126,13.0623 70.2116,12.6463 L70.2116,12.5303 C70.2116,12.1133 70.5486,11.7753 70.9656,11.7743 L72.4326,11.7723" id="Fill-43" fill="#202020"></path>
                <path d="M59.5449,15.2117 C56.4369,15.2167 53.9209,17.7387 53.9249,20.8487 C53.9299,23.9557 56.4529,26.4727 59.5619,26.4677 C62.6689,26.4627 65.1849,23.9397 65.1809,20.8327 C65.1759,17.7237 62.6519,15.2077 59.5449,15.2117" id="Fill-45" fill="#CFCFD1"></path>
                <path d="M59.5449,15.2117 C56.4369,15.2167 53.9209,17.7387 53.9249,20.8487 C53.9299,23.9557 56.4529,26.4727 59.5619,26.4677 C62.6689,26.4627 65.1849,23.9397 65.1809,20.8327 C65.1759,17.7237 62.6519,15.2077 59.5449,15.2117 Z" id="Stroke-47" stroke="#202020" stroke-linecap="round" stroke-linejoin="round"></path>
                <path d="M59.5556,22.49 C58.6406,22.492 57.8976,21.754 57.8956,20.842 C57.8946,19.93 58.6356,19.19 59.5506,19.189 C60.4656,19.188 61.2086,19.926 61.2096,20.837 C61.2106,21.749 60.4696,22.489 59.5556,22.49 M59.5466,16.384 C57.0756,16.386 55.0756,18.386 55.0776,20.846 C55.0816,23.307 57.0876,25.302 59.5596,25.298 C62.0306,25.294 64.0306,23.295 64.0266,20.834 C64.0236,18.373 62.0176,16.38 59.5466,16.384" id="Fill-49" fill="#CFCFD1"></path>
                <path d="M59.5556,22.49 C58.6406,22.492 57.8976,21.754 57.8956,20.842 C57.8946,19.93 58.6356,19.19 59.5506,19.189 C60.4656,19.188 61.2086,19.926 61.2096,20.837 C61.2106,21.749 60.4696,22.489 59.5556,22.49 Z M59.5466,16.384 C57.0756,16.386 55.0756,18.386 55.0776,20.846 C55.0816,23.307 57.0876,25.302 59.5596,25.298 C62.0306,25.294 64.0306,23.295 64.0266,20.834 C64.0236,18.373 62.0176,16.38 59.5466,16.384 Z" id="Stroke-51" stroke="#202020" stroke-width="0.75" stroke-linecap="round" stroke-linejoin="round"></path>
                <path d="M59.5508,19.1893 C58.6358,19.1903 57.8948,19.9303 57.8958,20.8413 C57.8978,21.7533 58.6408,22.4923 59.5558,22.4903 C60.4698,22.4893 61.2108,21.7493 61.2098,20.8363 C61.2088,19.9253 60.4658,19.1883 59.5508,19.1893" id="Fill-53" fill="#202020"></path>
                <path d="M8.4424,23.118 C8.8244,24.182 7.4704,23.867 6.8444,23.868 L2.7454,23.874 C2.0844,23.875 1.5104,23.415 1.3634,22.77 L0.5234,19.041 C0.3944,18.474 0.8244,17.936 1.4054,17.936 L7.1034,17.928 C7.7284,17.927 8.5174,18.234 8.1714,19.319 C7.8274,20.404 8.0784,22.103 8.4424,23.118 Z" id="Stroke-55" stroke="#202020" stroke-linecap="round" stroke-linejoin="round"></path>
                <path d="M8.4424,23.1141 C8.0664,22.1031 7.8274,20.3991 8.1714,19.3141 C8.5174,18.2291 7.7284,17.9221 7.1034,17.9231 L6.5054,17.9241 C6.4924,17.9841 6.4754,18.0461 6.4544,18.1111 C6.1644,19.0261 5.7984,20.3981 6.1084,21.8481 C6.1944,22.2551 5.9154,22.6591 5.4994,22.6601 L1.3414,22.6661 L1.3634,22.7651 C1.5104,23.4101 2.0844,23.8701 2.7454,23.8691 L6.8444,23.8631 C7.4704,23.8621 8.7384,23.9101 8.4424,23.1141" id="Fill-57" fill="#202020"></path>
                <path d="M8.4424,23.118 C8.8244,24.182 7.4704,23.867 6.8444,23.868 L2.7454,23.874 C2.0844,23.875 1.5104,23.415 1.3634,22.77 L0.5234,19.041 C0.3944,18.474 0.8244,17.936 1.4054,17.936 L7.1034,17.928 C7.7284,17.927 8.5174,18.234 8.1714,19.319 C7.8274,20.404 8.0784,22.103 8.4424,23.118" id="Fill-59" fill="#CFCFD1"></path>
                <path d="M8.4424,23.118 C8.8244,24.182 7.4704,23.867 6.8444,23.868 L2.7454,23.874 C2.0844,23.875 1.5104,23.415 1.3634,22.77 L0.5234,19.041 C0.3944,18.474 0.8244,17.936 1.4054,17.936 L7.1034,17.928 C7.7284,17.927 8.5174,18.234 8.1714,19.319 C7.8274,20.404 8.0784,22.103 8.4424,23.118 Z" id="Stroke-61" stroke="#202020" stroke-linecap="round" stroke-linejoin="round"></path>
                <path d="M2.7812,16.0896 C2.6572,16.0896 2.5422,16.0276 2.4722,15.9266 C2.4022,15.8246 2.3872,15.6946 2.4322,15.5796 C2.4422,15.5526 2.6952,14.9016 3.0372,14.3606 C3.3762,13.8226 3.8592,13.2936 3.8792,13.2716 C3.9502,13.1936 4.0512,13.1496 4.1562,13.1496 L6.8032,13.1456 C7.0992,13.1456 7.3792,13.2876 7.5522,13.5266 C7.7272,13.7686 7.7732,14.0686 7.6802,14.3526 L7.4672,15.1016 C7.2702,15.6986 6.7292,16.0926 6.1162,16.0936 C6.1162,16.0936 2.7812,16.0896 2.7812,16.0896" id="Fill-63" fill="#ECECEC"></path>
                <path d="M6.8047,12.7703 L6.8037,12.7703 L4.1557,12.7743 C3.9447,12.7743 3.7437,12.8633 3.6027,13.0183 C3.5807,13.0413 3.0767,13.5953 2.7197,14.1603 C2.3587,14.7313 2.0927,15.4163 2.0817,15.4443 C1.9927,15.6743 2.0227,15.9343 2.1627,16.1383 C2.3027,16.3423 2.5337,16.4643 2.7807,16.4643 L6.1147,16.4683 C6.8917,16.4673 7.5757,15.9703 7.8187,15.2333 L8.0457,14.4403 C8.1657,14.0773 8.0987,13.6423 7.8557,13.3073 C7.6127,12.9713 7.2207,12.7703 6.8047,12.7703 M6.8047,13.5203 C7.1767,13.5203 7.4407,13.8823 7.3247,14.2353 L7.1067,14.9993 C6.9657,15.4253 6.5657,15.7173 6.1157,15.7183 L2.7817,15.7143 C2.7817,15.7143 3.0277,15.0773 3.3537,14.5613 C3.6797,14.0453 4.1567,13.5243 4.1567,13.5243 L6.8047,13.5203" id="Fill-65" fill="#202020"></path>
                <path d="M6.8134,13.5154 L5.7294,13.5174 C6.1024,13.5164 6.3654,13.8794 6.2494,14.2314 L6.0314,14.9954 C5.8944,15.4114 5.5094,15.6984 5.0724,15.7114 L6.1254,15.7134 C6.5744,15.7124 6.9754,15.4204 7.1154,14.9944 L7.3334,14.2304 C7.4494,13.8774 7.1864,13.5154 6.8134,13.5154" id="Fill-67" fill-opacity="0.1" fill="#202020"></path>
                <path d="M50.1357,10.0525 C50.5317,10.0525 50.8507,9.7325 50.8497,9.3375 L50.8497,9.1845 C50.8487,8.7275 50.6697,8.2845 50.3527,7.9555 L46.0527,3.5875 C45.9267,3.4565 45.7507,3.3825 45.5707,3.3825 L36.7057,3.3955 C36.4827,3.3955 36.2647,3.4755 36.0937,3.6195 L29.7727,9.5015 C29.5497,9.7085 29.6967,10.0815 30.0007,10.0815 L50.1357,10.0525 Z" id="Fill-69" fill="#FFFFFF"></path>
                <path d="M50.1357,10.0525 C50.5317,10.0525 50.8507,9.7325 50.8497,9.3375 L50.8497,9.1845 C50.8487,8.7275 50.6697,8.2845 50.3527,7.9555 L46.0527,3.5875 C45.9267,3.4565 45.7507,3.3825 45.5707,3.3825 L36.7057,3.3955 C36.4827,3.3955 36.2647,3.4755 36.0937,3.6195 L29.7727,9.5015 C29.5497,9.7085 29.6967,10.0815 30.0007,10.0815 L50.1357,10.0525 Z" id="Stroke-71" stroke="#202020" stroke-width="0.75" stroke-linecap="round" stroke-linejoin="round"></path>
                <path d="M52.7998,21.5945 C52.7438,21.3795 52.5498,21.2285 52.3268,21.2285 L22.3398,21.2715 C22.1188,21.2725 21.9248,21.4245 21.8688,21.6395 L21.3928,23.5055 C21.3458,23.6905 21.4868,23.8695 21.6778,23.8685 L52.9978,23.8235 C53.1888,23.8235 53.3278,23.6445 53.2798,23.4595 L52.7998,21.5945 Z" id="Fill-73" fill="#CFCFD1"></path>
                <path d="M52.7998,21.5945 C52.7438,21.3795 52.5498,21.2285 52.3268,21.2285 L22.3398,21.2715 C22.1188,21.2725 21.9248,21.4245 21.8688,21.6395 L21.3928,23.5055 C21.3458,23.6905 21.4868,23.8695 21.6778,23.8685 L52.9978,23.8235 C53.1888,23.8235 53.3278,23.6445 53.2798,23.4595 L52.7998,21.5945 Z" id="Stroke-75" stroke="#202020" stroke-width="0.75" stroke-linecap="round" stroke-linejoin="round"></path>
                <path d="M22.1396,20.6502 L21.3926,23.5052 C21.3466,23.6902 21.4866,23.8702 21.6786,23.8692 L52.9976,23.8242 C53.1886,23.8242 53.3276,23.6442 53.2806,23.4602 L52.7236,21.3352" id="Stroke-77" stroke="#202020" stroke-linecap="round" stroke-linejoin="round"></path>
                <path d="M50.2353,11.9383 L46.9123,11.9433" id="Stroke-79" stroke="#202020" stroke-linecap="round" stroke-linejoin="round"></path>
                <path d="M24.2573,11.9764 L22.5963,11.9784" id="Stroke-81" stroke="#202020" stroke-linecap="round" stroke-linejoin="round"></path>
                <path d="M59.3916,17.9148 C62.0036,17.9118 64.1976,19.6908 64.8336,22.1038 C64.9536,21.6458 65.0236,21.1688 65.0226,20.6728 C65.0186,17.5628 62.4956,15.0488 59.3866,15.0528 C56.2796,15.0578 53.7626,17.5798 53.7676,20.6888 C53.7686,21.1848 53.8396,21.6618 53.9596,22.1198 C54.5906,19.7048 56.7796,17.9188 59.3916,17.9148" id="Fill-83" fill-opacity="0.1" fill="#202020"></path>
                <path d="M14.7905,17.9793 C17.4035,17.9753 19.5955,19.7553 20.2335,22.1683 C20.3525,21.7103 20.4225,21.2323 20.4225,20.7373 C20.4175,17.6273 17.8945,15.1123 14.7865,15.1173 C11.6785,15.1213 9.1615,17.6443 9.1665,20.7533 C9.1665,21.2493 9.2385,21.7263 9.3595,22.1843 C9.9905,19.7693 12.1785,17.9833 14.7905,17.9793" id="Fill-85" fill-opacity="0.1" fill="#202020"></path>
                <path d="M54.0293,19.742 C53.2793,23.71 56.7003,27.122 60.6673,26.36 C62.8823,25.935 64.6643,24.145 65.0783,21.929 C65.8193,17.964 62.4053,14.562 58.4453,15.318 C56.2313,15.74 54.4473,17.528 54.0293,19.742 Z" id="Stroke-87" stroke="#202020" stroke-width="1.75" stroke-linecap="round" stroke-linejoin="round"></path>
                <path d="M9.3325,20.9129 C9.3365,24.0199 11.8605,26.5359 14.9685,26.5319 C18.0765,26.5269 20.5925,24.0039 20.5885,20.8959 C20.5835,17.7869 18.0605,15.2719 14.9525,15.2759 C11.8445,15.2809 9.3285,17.8039 9.3325,20.9129 Z" id="Stroke-89" stroke="#202020" stroke-width="1.75" stroke-linecap="round" stroke-linejoin="round"></path>
                <path d="M66.8886,11.8045 C66.8886,12.0685 66.6756,12.2825 66.4106,12.2835 L64.8256,12.2845 C64.5626,12.2845 64.3476,12.0725 64.3476,11.8085 L64.3446,10.2225 C64.3446,9.9585 64.5586,9.7435 64.8226,9.7435 L66.4086,9.7415 C66.6716,9.7415 66.8856,9.9545 66.8866,10.2185 L66.8886,11.8045 Z" id="Stroke-91" stroke="#202020" stroke-width="0.75" stroke-linecap="round" stroke-linejoin="round"></path>
                <path d="M50.8818,14.7781 L50.8818,14.7711 C53.3018,12.2101 53.7618,11.9621 53.7598,10.9331 L53.7588,10.1561 C53.7578,9.6081 53.5438,9.0811 53.1648,8.6861 L47.2088,2.7621 C46.8308,2.3711 46.3068,2.1481 45.7618,2.1491 L36.7348,2.1621 C36.1838,2.1631 35.6488,2.3591 35.2268,2.7141 L28.1628,9.1071 C27.7638,9.4751 27.5358,9.9981 27.5368,10.5411 L27.5538,18.2531 C27.5558,19.1961 28.3208,19.9601 29.2648,19.9591 L48.3628,19.9311 C48.8238,19.9301 49.1888,19.5511 49.1998,19.0911 C49.2478,17.3211 49.8508,15.9081 50.8818,14.7781 Z" id="Stroke-93" stroke="#202020" stroke-width="0.75" stroke-linecap="round" stroke-linejoin="round"></path>
            </g>
        </g>
    </g>
</svg>