<?xml version="1.0" encoding="UTF-8"?>
<svg width="94px" height="36px" viewBox="0 0 76 28" version="1.1" xmlns="http://www.w3.org/2000/svg" xmlns:xlink="http://www.w3.org/1999/xlink">
    <!-- Generator: sketchtool 52.3 (67297) - http://www.bohemiancoding.com/sketch -->
    <title>457ECA16-6D94-46FA-B10D-5A851B4BC94D@1x</title>
    <desc>Created with sketchtool.</desc>
    <g id="Page-1" stroke="none" stroke-width="1" fill="none" fill-rule="evenodd">
        <g id="Car-Model-Icons" transform="translate(-150.000000, -244.000000)">
            <g id="COUPE" transform="translate(150.000000, 244.000000)">
                <path d="M23.0473,8.8245 C22.9003,8.8245 22.7623,8.7375 22.7023,8.5975 C22.6333,8.4355 22.6863,8.2465 22.8293,8.1445 L32.4973,1.2495 C32.5613,1.2035 32.6373,1.1795 32.7153,1.1795 C32.7253,1.1795 32.7353,1.1795 32.7453,1.1805 C33.3173,1.2275 33.6653,1.4175 33.7823,1.7445 C33.8903,2.0495 33.7673,2.3915 33.4353,2.7105 L27.9793,7.5495 C27.5353,7.9355 26.9253,8.1015 26.1453,8.2345 L23.1183,8.8175 C23.0943,8.8225 23.0703,8.8245 23.0473,8.8245" id="Fill-1" fill="#FFFFFF"></path>
                <path d="M32.7142,0.8045 C32.5592,0.8045 32.4062,0.8525 32.2792,0.9445 L22.6112,7.8385 C22.3242,8.0435 22.2192,8.4205 22.3582,8.7445 C22.4782,9.0245 22.7512,9.1995 23.0462,9.1995 C23.0942,9.1995 23.1412,9.1955 23.1892,9.1855 L26.2242,8.6005 C27.0522,8.4605 27.7172,8.2745 28.2222,7.8345 L33.6722,3.0005 C34.1332,2.5605 34.2932,2.0635 34.1362,1.6195 C33.9652,1.1405 33.5082,0.8665 32.7762,0.8065 C32.7552,0.8055 32.7352,0.8045 32.7142,0.8045 M32.7142,1.5545 C33.6642,1.6325 33.5362,2.0935 33.1752,2.4395 L27.7302,7.2685 C27.3602,7.5905 26.8082,7.7415 26.0822,7.8645 L23.0472,8.4495 L32.7142,1.5545" id="Fill-3" fill="#489DEA"></path>
                <path d="M60.9867,7.4349 C60.9117,7.4349 60.8387,7.4119 60.7767,7.3699 L53.2427,2.2429 C53.1557,2.1839 53.0967,2.0899 53.0827,1.9859 C53.0677,1.8819 53.0967,1.7769 53.1637,1.6949 L53.9397,0.7459 C54.0127,0.6559 54.1207,0.6079 54.2297,0.6079 C54.2867,0.6079 54.3427,0.6209 54.3967,0.6469 L66.6527,6.7399 C66.8087,6.8169 66.8907,6.9919 66.8507,7.1619 C66.8107,7.3309 66.6597,7.4509 66.4857,7.4509 L60.9867,7.4349 Z" id="Fill-5" fill="#FFFFFF"></path>
                <path d="M54.2299,0.2322 C54.0109,0.2322 53.7949,0.3292 53.6489,0.5082 L52.8739,1.4582 C52.7399,1.6212 52.6809,1.8322 52.7109,2.0402 C52.7419,2.2482 52.8579,2.4342 53.0319,2.5522 L60.5659,7.6802 C60.6889,7.7642 60.8349,7.8092 60.9859,7.8102 L66.4839,7.8252 L66.4859,7.8252 C66.8339,7.8252 67.1359,7.5862 67.2159,7.2482 C67.2959,6.9092 67.1319,6.5592 66.8199,6.4042 L54.5639,0.3112 C54.4579,0.2582 54.3429,0.2322 54.2299,0.2322 M54.2299,0.9822 L66.4859,7.0752 L60.9879,7.0602 L53.4539,1.9322 L54.2299,0.9822" id="Fill-7" fill="#489DEA"></path>
                <path d="M54.935,1.3333 L54.188,2.2973 L57.001,4.0953 C57.001,4.0953 55.996,3.4163 56.899,2.3093 C55.619,1.6593 54.935,1.3333 54.935,1.3333" id="Fill-9" fill-opacity="0.3" fill="#489DEA"></path>
                <path d="M32.433,1.7557 L32.742,2.2427 L30.452,4.2617 C30.452,4.2617 31.157,3.6487 30.651,3.0267 L32.433,1.7557 Z" id="Fill-11" fill-opacity="0.3" fill="#489DEA"></path>
                <polygon id="Stroke-13" stroke="#489DEA" stroke-linecap="round" stroke-linejoin="round" points="68.7357 12.1863 11.0587 12.2693 5.9207 21.7013 69.3517 21.6103"></polygon>
                <path d="M73.7348,18.8172 C73.7348,18.8172 73.5998,14.3692 72.5168,10.2312 C72.0378,8.3982 70.4328,7.6522 68.7828,7.3622 L63.3238,6.9812 C61.6578,6.9842 60.0218,6.4782 58.6468,5.5362 L54.9128,3.1302 C53.9158,2.4852 54.6898,1.3832 54.6898,0.9622 C54.6888,0.5022 54.1958,0.5002 53.9398,0.5002 L34.8678,0.5272 C34.3138,0.5282 33.4858,0.5502 33.0468,0.8882 C33.0468,0.8882 32.5698,1.1802 32.7098,1.4012 C32.8478,1.6222 33.3068,2.2892 32.7138,2.8642 L27.7298,7.2692 C27.3608,7.5902 26.8078,7.7412 26.0828,7.8642 L24.4348,8.1302 L24.4308,8.1282 L8.6578,10.5862 C4.7608,11.1932 1.7838,14.5152 1.9678,18.4552 C2.0138,19.4402 2.5058,20.3612 3.3058,20.9462 L3.3918,21.0092 C4.2048,21.6042 5.1898,21.9252 6.1968,21.9242 C7.0238,21.9232 7.6298,21.1972 7.6798,20.3722 C7.9168,16.5652 11.0758,13.5492 14.9418,13.5442 C18.0578,13.5392 20.6808,15.4812 21.7378,18.1742 C22.4848,20.0782 21.4978,21.9022 23.5418,21.8992 C29.0918,21.8912 46.0378,21.8672 52.1428,21.8582 C52.1418,21.3102 51.9028,19.4522 53.2238,17.1472 C54.4788,14.9592 56.8368,13.4832 59.5398,13.4792 C62.7598,13.4752 65.4978,15.5622 66.4628,18.4612 C67.0438,20.2072 68.3278,21.8352 70.1688,21.8322 C71.9838,21.8292 73.9578,20.6192 73.7348,18.8172" id="Fill-15" fill="#E9F5FD"></path>
                <path d="M73.7348,18.8172 C73.7348,18.8172 73.5998,14.3692 72.5168,10.2312 C72.0378,8.3982 70.4328,7.6522 68.7828,7.3622 L63.3238,6.9812 C61.6578,6.9842 60.0218,6.4782 58.6468,5.5362 L54.9128,3.1302 C53.9158,2.4852 54.6898,1.3832 54.6898,0.9622 C54.6888,0.5022 54.1958,0.5002 53.9398,0.5002 L34.8678,0.5272 C34.3138,0.5282 33.4858,0.5502 33.0468,0.8882 C33.0468,0.8882 32.5698,1.1802 32.7098,1.4012 C32.8478,1.6222 33.3068,2.2892 32.7138,2.8642 L27.7298,7.2692 C27.3608,7.5902 26.8078,7.7412 26.0828,7.8642 L24.4348,8.1302 L24.4308,8.1282 L8.6578,10.5862 C4.7608,11.1932 1.7838,14.5152 1.9678,18.4552 C2.0138,19.4402 2.5058,20.3612 3.3058,20.9462 L3.3918,21.0092 C4.2048,21.6042 5.1898,21.9252 6.1968,21.9242 C7.0238,21.9232 7.6298,21.1972 7.6798,20.3722 C7.9168,16.5652 11.0758,13.5492 14.9418,13.5442 C18.0578,13.5392 20.6808,15.4812 21.7378,18.1742 C22.4848,20.0782 21.4978,21.9022 23.5418,21.8992 C29.0918,21.8912 46.0378,21.8672 52.1428,21.8582 C52.1418,21.3102 51.9028,19.4522 53.2238,17.1472 C54.4788,14.9592 56.8368,13.4832 59.5398,13.4792 C62.7598,13.4752 65.4978,15.5622 66.4628,18.4612 C67.0438,20.2072 68.3278,21.8352 70.1688,21.8322 C71.9838,21.8292 73.9578,20.6192 73.7348,18.8172 Z" id="Stroke-17" stroke="#489DEA"></path>
                <path d="M9.3324,20.9129 C9.3374,24.0199 11.8604,26.5369 14.9694,26.5319 C18.0764,26.5269 20.5934,24.0039 20.5884,20.8969 C20.5844,17.7879 18.0604,15.2719 14.9524,15.2759 C11.8444,15.2809 9.3274,17.8039 9.3324,20.9129" id="Fill-19" fill="#B5D7EA"></path>
                <path d="M9.3324,20.9129 C9.3374,24.0199 11.8604,26.5369 14.9694,26.5319 C18.0764,26.5269 20.5934,24.0039 20.5884,20.8969 C20.5844,17.7879 18.0604,15.2719 14.9524,15.2759 C11.8444,15.2809 9.3274,17.8039 9.3324,20.9129 Z" id="Stroke-21" stroke="#489DEA" stroke-linecap="round" stroke-linejoin="round"></path>
                <path d="M10.4867,20.9109 C10.4907,23.3719 12.4957,25.3659 14.9667,25.3619 C17.4377,25.3579 19.4387,23.3589 19.4347,20.8979 C19.4307,18.4369 17.4247,16.4439 14.9547,16.4479 C12.4827,16.4509 10.4827,18.4499 10.4867,20.9109" id="Fill-23" fill="#B5D7EA"></path>
                <path d="M10.4867,20.9109 C10.4907,23.3719 12.4957,25.3659 14.9667,25.3619 C17.4377,25.3579 19.4387,23.3589 19.4347,20.8979 C19.4307,18.4369 17.4247,16.4439 14.9547,16.4479 C12.4827,16.4509 10.4827,18.4499 10.4867,20.9109 Z" id="Stroke-25" stroke="#489DEA" stroke-width="0.75" stroke-linecap="round" stroke-linejoin="round"></path>
                <path d="M13.3031,20.9056 C13.3051,21.8186 14.0481,22.5556 14.9631,22.5546 C15.8781,22.5526 16.6191,21.8136 16.6181,20.9016 C16.6161,19.9896 15.8731,19.2516 14.9581,19.2536 C14.0431,19.2546 13.3021,19.9946 13.3031,20.9056" id="Fill-27" fill="#489DEA"></path>
                <path d="M66.4769,22.8582 C66.1689,23.6922 66.8949,23.8042 67.5209,23.8032 L73.2689,23.7952 C73.9299,23.7942 74.5039,23.3322 74.6479,22.6872 L75.4779,18.9552 C75.6049,18.3882 75.1739,17.8512 74.5919,17.8522 L67.5119,17.8622 C66.8859,17.8632 66.2979,17.9332 66.6709,19.0282 C67.0809,20.2252 66.7859,22.0212 66.4769,22.8582 Z" id="Stroke-29" stroke="#489DEA" stroke-linecap="round" stroke-linejoin="round"></path>
                <path d="M74.3129,17.8753 L73.9039,17.8753 C73.9009,17.8943 73.9019,17.9133 73.8979,17.9313 L73.0679,21.6623 C72.9239,22.3083 72.3499,22.7693 71.6899,22.7703 L66.2329,22.7783 C66.2209,22.8123 66.2089,22.8483 66.1979,22.8803 C65.8899,23.7153 66.6159,23.8273 67.2409,23.8263 L72.9899,23.8173 C73.6509,23.8163 74.2249,23.3543 74.3689,22.7093 L75.1979,18.9783 C75.3259,18.4103 74.8949,17.8743 74.3129,17.8753" id="Fill-31" fill="#489DEA"></path>
                <path d="M66.4769,22.8582 C66.1689,23.6922 66.8949,23.8042 67.5209,23.8032 L73.2689,23.7952 C73.9299,23.7942 74.5039,23.3322 74.6479,22.6872 L75.4779,18.9552 C75.6049,18.3882 75.1739,17.8512 74.5919,17.8522 L67.5119,17.8622 C66.8859,17.8632 66.2979,17.9332 66.6709,19.0282 C67.0809,20.2252 66.7859,22.0212 66.4769,22.8582" id="Fill-33" fill="#C1E2F8"></path>
                <path d="M66.4769,22.8582 C66.1689,23.6922 66.8949,23.8042 67.5209,23.8032 L73.2689,23.7952 C73.9299,23.7942 74.5039,23.3322 74.6479,22.6872 L75.4779,18.9552 C75.6049,18.3882 75.1739,17.8512 74.5919,17.8522 L67.5119,17.8622 C66.8859,17.8632 66.2979,17.9332 66.6709,19.0282 C67.0809,20.2252 66.7859,22.0212 66.4769,22.8582 Z" id="Stroke-35" stroke="#489DEA" stroke-linecap="round" stroke-linejoin="round"></path>
                <path d="M70.9701,16.3357 C70.3481,16.3357 69.8411,15.8297 69.8411,15.2077 L69.8411,15.0917 C69.8401,14.7907 69.9571,14.5067 70.1701,14.2937 C70.3831,14.0797 70.6671,13.9617 70.9701,13.9607 L72.8981,13.9587 C73.0861,13.9587 73.2451,14.0987 73.2701,14.2857 L73.4801,15.9097 C73.4931,16.0167 73.4601,16.1247 73.3901,16.2057 C73.3191,16.2867 73.2161,16.3327 73.1091,16.3327 L70.9731,16.3357 L70.9701,16.3357 Z" id="Fill-37" fill="#E9F5FD"></path>
                <path d="M72.8978,13.5833 L72.8968,13.5833 L70.9688,13.5863 C70.5668,13.5863 70.1888,13.7433 69.9058,14.0283 C69.6218,14.3123 69.4648,14.6903 69.4658,15.0923 L69.4658,15.2083 C69.4668,16.0373 70.1418,16.7103 70.9708,16.7103 L73.1088,16.7083 C73.3238,16.7073 73.5288,16.6143 73.6708,16.4533 C73.8128,16.2913 73.8778,16.0753 73.8508,15.8623 L73.6418,14.2373 C73.5928,13.8633 73.2748,13.5833 72.8978,13.5833 M72.8978,14.3333 L73.1078,15.9583 L70.9718,15.9603 L70.9708,15.9603 C70.5538,15.9603 70.2158,15.6243 70.2158,15.2073 L70.2158,15.0913 C70.2148,14.6743 70.5518,14.3363 70.9698,14.3363 L72.8978,14.3333" id="Fill-39" fill="#489DEA"></path>
                <path d="M70.9672,13.7747 C70.3462,13.7747 69.8382,13.2687 69.8372,12.6477 L69.8372,12.5297 C69.8362,12.2297 69.9532,11.9457 70.1662,11.7327 C70.3792,11.5187 70.6632,11.3997 70.9662,11.3997 L72.4332,11.3977 C72.6132,11.3977 72.7672,11.5247 72.8012,11.7007 L73.1182,13.3257 C73.1402,13.4357 73.1112,13.5487 73.0402,13.6357 C72.9692,13.7217 72.8632,13.7727 72.7512,13.7727 L70.9692,13.7747 L70.9672,13.7747 Z" id="Fill-41" fill="#E9F5FD"></path>
                <path d="M72.433,11.0223 L72.432,11.0223 L70.965,11.0243 C70.563,11.0253 70.185,11.1823 69.902,11.4663 C69.618,11.7513 69.461,12.1293 69.462,12.5313 L69.462,12.6473 C69.463,13.4753 70.139,14.1493 70.967,14.1493 L72.751,14.1473 C72.976,14.1473 73.188,14.0463 73.329,13.8733 C73.472,13.7003 73.53,13.4733 73.487,13.2533 L73.169,11.6283 C73.1,11.2763 72.791,11.0223 72.433,11.0223 M72.433,11.7723 L72.75,13.3973 L70.968,13.3993 L70.967,13.3993 C70.55,13.3993 70.213,13.0623 70.212,12.6463 L70.212,12.5303 C70.211,12.1133 70.549,11.7753 70.966,11.7743 L72.433,11.7723" id="Fill-43" fill="#489DEA"></path>
                <path d="M59.5453,15.2122 C56.4373,15.2162 53.9203,17.7392 53.9253,20.8482 C53.9293,23.9562 56.4533,26.4722 59.5613,26.4672 C62.6683,26.4632 65.1853,23.9402 65.1803,20.8322 C65.1763,17.7232 62.6523,15.2082 59.5453,15.2122" id="Fill-45" fill="#B5D7EA"></path>
                <path d="M59.5453,15.2122 C56.4373,15.2162 53.9203,17.7392 53.9253,20.8482 C53.9293,23.9562 56.4533,26.4722 59.5613,26.4672 C62.6683,26.4632 65.1853,23.9402 65.1803,20.8322 C65.1763,17.7232 62.6523,15.2082 59.5453,15.2122 Z" id="Stroke-47" stroke="#489DEA" stroke-linecap="round" stroke-linejoin="round"></path>
                <path d="M59.5551,22.4905 C58.6401,22.4915 57.8971,21.7545 57.8961,20.8415 C57.8951,19.9305 58.6351,19.1905 59.5511,19.1895 C60.4651,19.1875 61.2081,19.9265 61.2091,20.8365 C61.2111,21.7495 60.4701,22.4895 59.5551,22.4905 M59.5461,16.3835 C57.0761,16.3865 55.0751,18.3855 55.0781,20.8465 C55.0811,23.3075 57.0881,25.3015 59.5601,25.2975 C62.0311,25.2945 64.0311,23.2945 64.0271,20.8345 C64.0231,18.3725 62.0171,16.3795 59.5461,16.3835" id="Fill-49" fill="#B5D7EA"></path>
                <path d="M59.5551,22.4905 C58.6401,22.4915 57.8971,21.7545 57.8961,20.8415 C57.8951,19.9305 58.6351,19.1905 59.5511,19.1895 C60.4651,19.1875 61.2081,19.9265 61.2091,20.8365 C61.2111,21.7495 60.4701,22.4895 59.5551,22.4905 Z M59.5461,16.3835 C57.0761,16.3865 55.0751,18.3855 55.0781,20.8465 C55.0811,23.3075 57.0881,25.3015 59.5601,25.2975 C62.0311,25.2945 64.0311,23.2945 64.0271,20.8345 C64.0231,18.3725 62.0171,16.3795 59.5461,16.3835 Z" id="Stroke-51" stroke="#489DEA" stroke-width="0.75" stroke-linecap="round" stroke-linejoin="round"></path>
                <path d="M59.5512,19.1893 C58.6352,19.1903 57.8952,19.9313 57.8962,20.8413 C57.8972,21.7543 58.6402,22.4913 59.5552,22.4903 C60.4702,22.4893 61.2112,21.7493 61.2092,20.8363 C61.2082,19.9263 60.4652,19.1883 59.5512,19.1893" id="Fill-53" fill="#489DEA"></path>
                <path d="M8.4418,23.1185 C8.8238,24.1825 7.4698,23.8675 6.8448,23.8685 L2.7458,23.8735 C2.0848,23.8745 1.5098,23.4145 1.3638,22.7705 L0.5228,19.0415 C0.3938,18.4735 0.8248,17.9365 1.4058,17.9355 L7.1038,17.9275 C7.7288,17.9265 8.5168,18.2335 8.1718,19.3195 C7.8278,20.4035 8.0788,22.1025 8.4418,23.1185 Z" id="Stroke-55" stroke="#489DEA" stroke-linecap="round" stroke-linejoin="round"></path>
                <path d="M8.4418,23.1136 C8.0658,22.1026 7.8278,20.3996 8.1718,19.3146 C8.5168,18.2296 7.7288,17.9226 7.1038,17.9236 L6.5048,17.9236 C6.4918,17.9836 6.4758,18.0466 6.4548,18.1116 C6.1648,19.0266 5.7988,20.3986 6.1078,21.8476 C6.1948,22.2546 5.9158,22.6596 5.4998,22.6596 L1.3408,22.6656 L1.3638,22.7656 C1.5098,23.4106 2.0848,23.8706 2.7458,23.8696 L6.8448,23.8636 C7.4698,23.8626 8.7388,23.9096 8.4418,23.1136" id="Fill-57" fill="#489DEA"></path>
                <path d="M8.4418,23.1185 C8.8238,24.1825 7.4698,23.8675 6.8448,23.8685 L2.7458,23.8735 C2.0848,23.8745 1.5098,23.4145 1.3638,22.7705 L0.5228,19.0415 C0.3938,18.4735 0.8248,17.9365 1.4058,17.9355 L7.1038,17.9275 C7.7288,17.9265 8.5168,18.2335 8.1718,19.3195 C7.8278,20.4035 8.0788,22.1025 8.4418,23.1185" id="Fill-59" fill="#C1E2F8"></path>
                <path d="M8.4418,23.1185 C8.8238,24.1825 7.4698,23.8675 6.8448,23.8685 L2.7458,23.8735 C2.0848,23.8745 1.5098,23.4145 1.3638,22.7705 L0.5228,19.0415 C0.3938,18.4735 0.8248,17.9365 1.4058,17.9355 L7.1038,17.9275 C7.7288,17.9265 8.5168,18.2335 8.1718,19.3195 C7.8278,20.4035 8.0788,22.1025 8.4418,23.1185 Z" id="Stroke-61" stroke="#489DEA" stroke-linecap="round" stroke-linejoin="round"></path>
                <path d="M2.7816,16.0896 C2.6576,16.0896 2.5426,16.0286 2.4716,15.9266 C2.4026,15.8246 2.3866,15.6946 2.4316,15.5796 C2.4426,15.5516 2.6946,14.9006 3.0376,14.3606 C3.3776,13.8236 3.8596,13.2936 3.8806,13.2716 C3.9506,13.1936 4.0516,13.1496 4.1556,13.1496 L6.8026,13.1456 C7.0986,13.1456 7.3786,13.2876 7.5516,13.5266 C7.7256,13.7676 7.7736,14.0686 7.6806,14.3516 L7.4666,15.1016 C7.2696,15.6996 6.7286,16.0926 6.1156,16.0926 L2.7816,16.0896 Z" id="Fill-63" fill="#E9F5FD"></path>
                <path d="M6.8051,12.7703 L6.8041,12.7703 L4.1561,12.7743 C3.9451,12.7743 3.7441,12.8633 3.6031,13.0183 C3.5811,13.0413 3.0771,13.5953 2.7201,14.1603 C2.3591,14.7313 2.0931,15.4163 2.0811,15.4443 C1.9931,15.6753 2.0231,15.9343 2.1621,16.1383 C2.3021,16.3423 2.5341,16.4643 2.7811,16.4643 L6.1151,16.4683 C6.8921,16.4673 7.5761,15.9713 7.8191,15.2333 L8.0451,14.4403 C8.1661,14.0773 8.0991,13.6423 7.8561,13.3073 C7.6131,12.9713 7.2201,12.7703 6.8051,12.7703 M6.8051,13.5203 C7.1771,13.5203 7.4401,13.8833 7.3251,14.2343 L7.1071,14.9993 C6.9651,15.4253 6.5661,15.7173 6.1161,15.7183 L2.7821,15.7143 C2.7821,15.7143 3.0281,15.0763 3.3541,14.5613 C3.6801,14.0453 4.1571,13.5243 4.1571,13.5243 L6.8041,13.5203 L6.8051,13.5203" id="Fill-65" fill="#489DEA"></path>
                <path d="M6.8139,13.5154 L5.7289,13.5174 C6.1019,13.5164 6.3659,13.8794 6.2489,14.2314 L6.0309,14.9954 C5.8949,15.4124 5.5089,15.6984 5.0729,15.7124 L6.1259,15.7134 C6.5749,15.7124 6.9749,15.4214 7.1159,14.9944 L7.3339,14.2304 C7.4499,13.8784 7.1859,13.5154 6.8139,13.5154" id="Fill-67" fill="#489DEA" opacity="0.3"></path>
                <path d="M50.1361,10.0525 C50.5311,10.0525 50.8501,9.7315 50.8501,9.3375 L50.8491,9.1845 C50.8491,8.7265 50.6701,8.2845 50.3531,7.9555 L46.0531,3.5875 C45.9271,3.4565 45.7501,3.3825 45.5701,3.3825 L36.7061,3.3955 C36.4831,3.3955 36.2651,3.4745 36.0931,3.6195 L29.7721,9.5015 C29.5491,9.7085 29.6971,10.0825 30.0001,10.0815 L50.1361,10.0525 Z" id="Fill-69" fill="#FFFFFF"></path>
                <path d="M50.1361,10.0525 C50.5311,10.0525 50.8501,9.7315 50.8501,9.3375 L50.8491,9.1845 C50.8491,8.7265 50.6701,8.2845 50.3531,7.9555 L46.0531,3.5875 C45.9271,3.4565 45.7501,3.3825 45.5701,3.3825 L36.7061,3.3955 C36.4831,3.3955 36.2651,3.4745 36.0931,3.6195 L29.7721,9.5015 C29.5491,9.7085 29.6971,10.0825 30.0001,10.0815 L50.1361,10.0525 Z" id="Stroke-71" stroke="#489DEA" stroke-width="0.75" stroke-linecap="round" stroke-linejoin="round"></path>
                <path d="M52.7992,21.5945 C52.7432,21.3795 52.5492,21.2285 52.3272,21.2285 L22.3402,21.2715 C22.1182,21.2715 21.9242,21.4245 21.8692,21.6385 L21.3932,23.5055 C21.3462,23.6905 21.4872,23.8695 21.6782,23.8695 L52.9972,23.8235 C53.1892,23.8235 53.3272,23.6445 53.2802,23.4595 L52.7992,21.5945 Z" id="Fill-73" fill="#C1E2F8"></path>
                <path d="M52.7992,21.5945 C52.7432,21.3795 52.5492,21.2285 52.3272,21.2285 L22.3402,21.2715 C22.1182,21.2715 21.9242,21.4245 21.8692,21.6385 L21.3932,23.5055 C21.3462,23.6905 21.4872,23.8695 21.6782,23.8695 L52.9972,23.8235 C53.1892,23.8235 53.3272,23.6445 53.2802,23.4595 L52.7992,21.5945 Z" id="Stroke-75" stroke="#489DEA" stroke-width="0.75" stroke-linecap="round" stroke-linejoin="round"></path>
                <path d="M22.14,20.6507 L21.393,23.5057 C21.346,23.6907 21.487,23.8697 21.678,23.8697 L52.997,23.8237 C53.189,23.8237 53.327,23.6447 53.281,23.4597 L52.723,21.3347" id="Stroke-77" stroke="#489DEA" stroke-linecap="round" stroke-linejoin="round"></path>
                <path d="M50.2357,11.9388 L46.9127,11.9438" id="Stroke-79" stroke="#489DEA" stroke-linecap="round" stroke-linejoin="round"></path>
                <path d="M24.2572,11.9759 L22.5962,11.9779" id="Stroke-81" stroke="#489DEA" stroke-linecap="round" stroke-linejoin="round"></path>
                <path d="M59.391,17.9153 C62.003,17.9113 64.197,19.6913 64.834,22.1043 C64.953,21.6463 65.024,21.1683 65.023,20.6733 C65.018,17.5633 62.495,15.0483 59.387,15.0523 C56.28,15.0573 53.763,17.5803 53.767,20.6893 C53.768,21.1843 53.839,21.6623 53.96,22.1203 C54.59,19.7053 56.78,17.9193 59.391,17.9153" id="Fill-83" fill-opacity="0.3" fill="#489DEA"></path>
                <path d="M14.7904,17.9793 C17.4024,17.9763 19.5964,19.7553 20.2334,22.1683 C20.3524,21.7103 20.4234,21.2323 20.4224,20.7373 C20.4174,17.6273 17.8944,15.1123 14.7864,15.1173 C11.6784,15.1213 9.1614,17.6443 9.1664,20.7533 C9.1674,21.2493 9.2384,21.7263 9.3584,22.1843 C9.9894,19.7693 12.1784,17.9833 14.7904,17.9793" id="Fill-85" fill-opacity="0.3" fill="#489DEA"></path>
                <path d="M54.0287,19.7425 C53.2787,23.7105 56.6997,27.1215 60.6677,26.3605 C62.8817,25.9355 64.6637,24.1455 65.0787,21.9295 C65.8197,17.9645 62.4057,14.5625 58.4447,15.3185 C56.2307,15.7405 54.4477,17.5275 54.0287,19.7425 Z" id="Stroke-87" stroke="#489DEA" stroke-width="1.75" stroke-linecap="round" stroke-linejoin="round"></path>
                <path d="M9.3324,20.9129 C9.3374,24.0199 11.8604,26.5369 14.9694,26.5319 C18.0764,26.5269 20.5934,24.0039 20.5884,20.8969 C20.5844,17.7879 18.0604,15.2719 14.9524,15.2759 C11.8444,15.2809 9.3274,17.8039 9.3324,20.9129 Z" id="Stroke-89" stroke="#489DEA" stroke-width="1.75" stroke-linecap="round" stroke-linejoin="round"></path>
                <path d="M66.8891,11.8045 C66.8891,12.0685 66.6761,12.2825 66.4111,12.2825 L64.8261,12.2845 C64.5621,12.2855 64.3481,12.0715 64.3471,11.8075 L64.3451,10.2225 C64.3451,9.9585 64.5591,9.7445 64.8231,9.7435 L66.4081,9.7415 C66.6721,9.7415 66.8861,9.9545 66.8861,10.2185 L66.8891,11.8045 Z" id="Stroke-91" stroke="#489DEA" stroke-width="0.75" stroke-linecap="round" stroke-linejoin="round"></path>
                <path d="M50.8822,14.7781 L50.8822,14.7711 C53.3012,12.2101 53.7612,11.9621 53.7602,10.9331 L53.7592,10.1561 C53.7582,9.6091 53.5442,9.0801 53.1642,8.6871 L47.2082,2.7621 C46.8312,2.3701 46.3062,2.1481 45.7622,2.1491 L36.7352,2.1621 C36.1842,2.1631 35.6492,2.3591 35.2272,2.7141 L28.1632,9.1081 C27.7642,9.4761 27.5352,9.9971 27.5372,10.5411 L27.5542,18.2531 C27.5562,19.1961 28.3202,19.9601 29.2652,19.9591 L48.3632,19.9311 C48.8232,19.9301 49.1882,19.5521 49.2002,19.0911 C49.2482,17.3211 49.8512,15.9081 50.8822,14.7781 Z" id="Stroke-93" stroke="#489DEA" stroke-width="0.75" stroke-linecap="round" stroke-linejoin="round"></path>
            </g>
        </g>
    </g>
</svg>