<?xml version="1.0" encoding="UTF-8"?>
<svg width="202px" height="110px" viewBox="0 0 202 110" version="1.1" xmlns="http://www.w3.org/2000/svg" xmlns:xlink="http://www.w3.org/1999/xlink">
    <!-- Generator: sketchtool 51.3 (57544) - http://www.bohemiancoding.com/sketch -->
    <title>78ACD1BE-1F6B-4F28-8095-FD95C4E17F34</title>
    <desc>Created with sketchtool.</desc>
    <defs>
        <rect id="path-1" x="0" y="0" width="208" height="123.299435"></rect>
        <rect id="path-3" x="67.2323232" y="109.84859" width="27.3131313" height="12.6101695"></rect>
    </defs>
    <g id="Page-1" stroke="none" stroke-width="1" fill="none" fill-rule="evenodd">
        <g id="Get-Started" transform="translate(-105.000000, -120.000000)">
            <g id="Guy-Hero" transform="translate(103.000000, 106.000000)">
                <g>
                    <g id="get-started">
                        <g id="Clipped">
                            <g>
                                <mask id="mask-2" fill="white">
                                    <use xlink:href="#path-1"></use>
                                </mask>
                                <g id="path-1"></g>
                                <g id="Group" mask="url(#mask-2)">
                                    <g transform="translate(2.101010, 4.903955)">
                                        <g id="Group" stroke="none" stroke-width="1" fill="none" fill-rule="evenodd" transform="translate(5.602694, 9.107345)">
                                            <ellipse id="Oval" fill="#C1E2F8" fill-rule="nonzero" opacity="0.35" cx="93.7680808" cy="93.8687006" rx="93.2008081" ry="93.2311864"></ellipse>
                                            <ellipse id="Oval" fill="#C1E2F8" fill-rule="nonzero" opacity="0.44" cx="93.7680808" cy="93.8687006" rx="69.6975084" ry="69.720226"></ellipse>
                                            <ellipse id="Oval" fill="#C1E2F8" fill-rule="nonzero" opacity="0.8" cx="93.7680808" cy="93.8687006" rx="32.3555556" ry="32.3661017"></ellipse>
                                        </g>
                                        <g id="Group" opacity="0.3" stroke="none" stroke-width="1" fill="none" fill-rule="evenodd" transform="translate(44.121212, 69.355932)">
                                            <path d="M3.5016835,1.52022599 C4.85543198,1.52022599 5.95286195,2.61801367 5.95286195,3.97220339 C5.95286195,5.32639311 4.85543198,6.42418079 3.5016835,6.42418079 C2.14793503,6.42418079 1.05050505,5.32639311 1.05050505,3.97220339 C1.05050505,2.61801367 2.14793503,1.52022599 3.5016835,1.52022599 Z M3.5016835,0.469378531 C1.5677571,0.469378531 0,2.03764664 0,3.97220339 C0,5.90676014 1.5677571,7.47502825 3.5016835,7.47502825 C5.4356099,7.47502825 7.003367,5.90676014 7.003367,3.97220339 C7.003367,2.03764664 5.4356099,0.469378531 3.5016835,0.469378531 Z" id="Shape" fill="#489DEA" fill-rule="nonzero"></path>
                                        </g>
                                        <path d="M42.440404,31.5954802 C42.2422738,31.7771346 41.9381976,31.7771346 41.7400673,31.5954802 C41.5515118,31.4000454 41.5515118,31.0903501 41.7400673,30.8949153 L43.1617508,29.4517514 C43.3619248,29.3159718 43.6302813,29.3414874 43.8012985,29.5125602 C43.9723156,29.6836332 43.9978229,29.9520772 43.8620875,30.1523164 L42.440404,31.5954802 Z M36.676633,37.3611299 C36.4757388,37.4800386 36.2198412,37.4477301 36.0547828,37.2826179 C35.8897243,37.1175057 35.8574264,36.8615247 35.9762963,36.660565 L37.3979798,35.1963842 C37.598874,35.0774755 37.8547716,35.109784 38.01983,35.2748962 C38.1848885,35.4400085 38.2171864,35.6959894 38.0983165,35.8969492 L36.676633,37.3611299 Z M42.9796633,33.9073446 C42.69731,33.9073446 42.4684175,33.6783775 42.4684175,33.3959322 C42.4684175,33.1134869 42.69731,32.8845198 42.9796633,32.8845198 L45.0176431,32.8845198 C45.2999964,32.8845198 45.5288889,33.1134869 45.5288889,33.3959322 C45.5288889,33.6783775 45.2999964,33.9073446 45.0176431,33.9073446 L42.9796633,33.9073446 Z M34.8347475,33.9073446 C34.5523942,33.9073446 34.3235017,33.6783775 34.3235017,33.3959322 C34.3235017,33.1134869 34.5523942,32.8845198 34.8347475,32.8845198 L36.8727273,32.8845198 C37.1550805,32.8845198 37.3839731,33.1134869 37.3839731,33.3959322 C37.3839731,33.6783775 37.1550805,33.9073446 36.8727273,33.9073446 L34.8347475,33.9073446 Z M41.7260606,35.9179661 C41.5375051,35.7225312 41.5375051,35.412836 41.7260606,35.2174011 C41.9241908,35.0357467 42.2282671,35.0357467 42.4263973,35.2174011 L43.8270707,36.660565 C43.9628061,36.8608042 43.9372988,37.1292482 43.7662817,37.3003211 C43.5952645,37.471394 43.326908,37.4969096 43.126734,37.3611299 L41.7260606,35.9179661 Z M35.9552862,30.1523164 C35.8364163,29.9513567 35.8687142,29.6953757 36.0337726,29.5302634 C36.1988311,29.3651512 36.4547287,29.3328428 36.6556229,29.4517514 L38.1193266,30.8528814 C38.2381965,31.0538411 38.2058986,31.3098221 38.0408401,31.4749343 C37.8757817,31.6400465 37.6198841,31.672355 37.4189899,31.5534463 L35.9552862,30.1523164 Z M39.4079461,36.4574011 C39.4079461,36.1749558 39.6368386,35.9459887 39.9191919,35.9459887 C40.2015452,35.9459887 40.4304377,36.1749558 40.4304377,36.4574011 L40.4304377,38.4890395 C40.4304377,38.7714849 40.2015452,39.000452 39.9191919,39.000452 C39.6368386,39.000452 39.4079461,38.7714849 39.4079461,38.4890395 L39.4079461,36.4574011 Z M39.4079461,28.3098305 C39.4079461,28.0273852 39.6368386,27.7984181 39.9191919,27.7984181 C40.2015452,27.7984181 40.4304377,28.0273852 40.4304377,28.3098305 L40.4304377,30.3484746 C40.4304377,30.6309199 40.2015452,30.859887 39.9191919,30.859887 C39.6368386,30.859887 39.4079461,30.6309199 39.4079461,30.3484746 L39.4079461,28.3098305 Z" id="Shape" stroke="none" fill="#489DEA" fill-rule="nonzero" opacity="0.3"></path>
                                        <path d="M138.190438,12.5050847 C138.190438,12.241985 138.403652,12.0287006 138.666667,12.0287006 C138.929681,12.0287006 139.142896,12.241985 139.142896,12.5050847 L139.142896,17.2829379 C139.142896,17.5460376 138.929681,17.759322 138.666667,17.759322 C138.403652,17.759322 138.190438,17.5460376 138.190438,17.2829379 L138.190438,12.5050847 Z M141.362963,15.0621469 C141.169571,14.8686912 141.169571,14.5550376 141.362963,14.3615819 C141.556355,14.1681262 141.869907,14.1681262 142.0633,14.3615819 C143.430324,15.7276534 143.83986,17.7830767 143.100867,19.5690384 C142.361874,21.355 140.619953,22.5196156 138.687677,22.5196156 C136.7554,22.5196156 135.01348,21.355 134.274487,19.5690384 C133.535494,17.7830767 133.94503,15.7276534 135.312054,14.3615819 C135.505446,14.1681263 135.818998,14.1681264 136.012391,14.361582 C136.205783,14.5550376 136.205783,14.8686912 136.012391,15.0621469 C134.522545,16.5534587 134.523076,18.9704759 136.013575,20.4611337 C137.504073,21.9517914 139.920304,21.9517914 141.410802,20.4611337 C142.901302,18.9704759 142.901832,16.5534587 141.411987,15.0621469 L141.362963,15.0621469 Z" id="Shape" stroke="none" fill="#489DEA" fill-rule="nonzero" opacity="0.5"></path>
                                        <path d="M5.37858586,81.9941243 C6.98816461,82.1750459 8.35049616,83.2652658 8.88026936,84.7963842 L9.1043771,84.7963842 C10.3834111,84.7990358 11.4982312,85.667955 11.8134894,86.9079346 C12.1287475,88.1479136 11.5643776,89.4440359 10.4420202,90.0576271 C10.2157508,90.1795044 9.93355454,90.094818 9.81171717,89.8684746 C9.68987981,89.6421311 9.77453868,89.3598434 10.0008081,89.2379661 C10.7408055,88.8238152 11.1095858,87.9634051 10.8992941,87.1416859 C10.6890026,86.3199666 9.9522856,85.7426555 9.1043771,85.7351412 L8.51609428,85.7351412 C8.30523858,85.73838 8.11976302,85.5963292 8.06787879,85.3918644 C7.74095055,84.0689217 6.62847841,83.0872508 5.27551248,82.927817 C3.92254656,82.7683831 2.61248263,83.4645814 1.98717999,84.6753132 C1.36187734,85.8860443 1.55231348,87.3577065 2.46518519,88.3692655 C2.54799482,88.4616729 2.59019364,88.5835011 2.58229096,88.7073498 C2.57438829,88.8311985 2.51704759,88.9466712 2.42316498,89.0277966 C2.23110548,89.1982623 1.9377467,89.182653 1.76484848,88.9927684 C0.585506788,87.6933296 0.337395453,85.7976905 1.1425636,84.2383393 C1.94773174,82.6789882 3.63667704,81.7841972 5.37858586,81.9941243 Z M6.77925926,87.7667797 L6.77925926,90.8422599 C6.77927347,90.9661121 6.72961501,91.0847927 6.64141089,91.171709 C6.55320677,91.2586246 6.43383153,91.3065096 6.31003367,91.3046328 C6.18686915,91.3065432 6.06818818,91.2584431 5.98108724,91.1713139 C5.89398631,91.0841839 5.84590157,90.9654647 5.84781145,90.8422599 L5.84781145,87.7667797 L4.7762963,88.8386441 C4.6511932,88.9562794 4.47285595,88.9982153 4.30846248,88.9486552 C4.14406901,88.8990951 4.01859459,88.7655681 3.97930423,88.5983727 C3.94001386,88.4311773 3.99287669,88.2557145 4.1179798,88.1380791 L5.98087542,86.2745763 C6.06774036,86.1864375 6.1863044,86.1368151 6.31003367,86.1368151 C6.43376294,86.1368151 6.55232698,86.1864375 6.63919192,86.2745763 L8.50909091,88.1380791 C8.60691037,88.2282726 8.6625566,88.3552837 8.6625566,88.4883616 C8.6625566,88.6214395 8.60691037,88.7484505 8.50909091,88.8386441 C8.42222598,88.9267828 8.30366192,88.9764053 8.17993266,88.9764053 C8.0562034,88.9764053 7.93763934,88.9267828 7.85077441,88.8386441 L6.77925926,87.7667797 Z" id="Shape" stroke="none" fill="#489DEA" fill-rule="nonzero" opacity="0.5"></path>
                                        <path d="M178.501818,37.8585311 L181.940471,40.0723164 C182.010998,40.11736 182.053682,40.1952802 182.053682,40.2789831 C182.053682,40.3626859 182.010998,40.4406061 181.940471,40.4856497 L178.501818,42.6924294 C178.426837,42.7409205 178.331428,42.7447915 178.252767,42.702534 C178.174106,42.6602765 178.124638,42.5785755 178.123636,42.4892655 L178.123636,38.0897175 C178.113516,37.9954341 178.15865,37.9037656 178.239536,37.854319 C178.320423,37.8048724 178.42256,37.8065127 178.501818,37.8585311 Z M178.585859,38.559096 L178.585859,42.0619209 L181.387205,40.2964972 L178.585859,38.559096 Z" id="Shape" stroke="none" fill="#489DEA" fill-rule="nonzero" opacity="0.6"></path>
                                        <g id="Group" opacity="0.3" stroke="none" stroke-width="1" fill="none" fill-rule="evenodd" transform="translate(172.983165, 69.355932)">
                                            <path d="M2.49319865,1.26101695 C3.17394075,1.26101695 3.72579125,1.81304732 3.72579125,2.4940113 C3.72579125,3.17497528 3.17394075,3.72700565 2.49319865,3.72700565 C1.81245656,3.72700565 1.26060606,3.17497528 1.26060606,2.4940113 C1.26060606,1.81304732 1.81245656,1.26101695 2.49319865,1.26101695 Z M2.49319865,0.560451977 C1.71077066,0.557616151 1.00380795,1.02691052 0.702419348,1.74920301 C0.401030738,2.47149549 0.56467082,3.30430028 1.11692957,3.8587479 C1.66918833,4.41319553 2.50112229,4.57991074 3.22426864,4.28104763 C3.94741498,3.98218451 4.41911945,3.27669946 4.41912458,2.4940113 C4.41913157,1.42886588 3.55799002,0.5643112 2.49319865,0.560451977 Z" id="Shape" fill="#489DEA" fill-rule="nonzero"></path>
                                        </g>
                                        <path d="M199.59596,101.532881 L199.59596,104.335141" id="Shape" stroke="#489DEA" stroke-width="0.7" fill="none" opacity="0.3" stroke-linecap="round"></path>
                                        <path d="M198.195286,102.934011 L200.996633,102.934011" id="Shape" stroke="#489DEA" stroke-width="0.7" fill="none" opacity="0.3" stroke-linecap="round"></path>
                                        <path d="M12.6060606,45.4876836 L12.6060606,48.2899435" id="Shape" stroke="#489DEA" stroke-width="0.7" fill="none" opacity="0.3" stroke-linecap="round"></path>
                                        <path d="M11.2053872,46.8888136 L14.006734,46.8888136" id="Shape" stroke="#489DEA" stroke-width="0.7" fill="none" opacity="0.3" stroke-linecap="round"></path>
                                    </g>
                                </g>
                            </g>
                        </g>
                        <g id="Asset-1modernGuy" transform="translate(56.707593, 30.824859)" fill-rule="nonzero">
                            <path d="M29.2072912,48.8698308 C29.2072912,48.8698308 29.8734224,59.1126924 29.2072912,63.1586227 C28.54116,67.2045531 27.5789705,66.6867195 20.393863,70.5562452 C13.2087555,74.4257703 10.680873,90.8655635 10.680873,90.8655635 L81.3135542,88.3276099 C81.3135542,88.3276099 75.9161832,75.7459619 72.3748704,72.4853174 C68.8335576,69.2246729 62.5081579,69.90184 60.8684503,68.2231487 C59.2287428,66.5444575 57.7029037,43.5606142 57.7029037,43.5606142 L29.2072912,48.8698308 Z" id="Shape" fill="#EFC39F"></path>
                            <path d="M29.8506487,54.1050712 L46.2135639,71.4781025 C46.2135639,71.4781025 49.3392564,71.7057217 54.4462623,70.3400067 C59.5532682,68.9742919 60.3503483,67.8305057 60.3503483,67.8305057 C60.3503483,67.8305057 58.528451,57.9802871 58.6821735,51.7207606 C58.8358961,45.4612341 29.8791158,52.2898085 29.8791158,52.2898085 L29.8506487,54.1050712 Z" id="Shape" fill="#B1836E" opacity="0.4" style="mix-blend-mode: multiply;"></path>
                            <path d="M64.4154566,26.676964 C65.4744345,28.9531555 64.5634858,36.5613255 62.8212965,37.1815876 C61.0791072,37.8018498 60.0713702,37.1815876 60.0713702,37.1815876 L58.7391078,25.9030589 C58.7391078,25.9030589 63.3792526,24.4690583 64.4154566,26.676964 Z" id="Shape" fill="#E0AA84"></path>
                            <path d="M21.9481691,27.1378928 C20.7696293,29.4140842 21.7830597,37.0222542 23.724519,37.6425163 C25.6659783,38.2627786 26.7875838,37.6425163 26.7875838,37.6425163 L28.2735689,26.3696782 C28.2735689,26.3696782 23.0982418,24.9072251 21.9481691,27.1378928 Z" id="Shape" fill="#EFC39F"></path>
                            <path d="M60.6577935,22.1644144 C60.6577935,22.1644144 61.0050926,25.9656542 61.0961875,28.150798 C61.1872823,30.3359417 62.1722456,42.4566613 61.6142895,44.960472 C61.0563335,47.4642826 51.058672,57.7981918 49.5669936,59.3972163 C48.0753152,60.9962408 40.1842224,59.8012403 38.9772155,59.1183828 C37.7702085,58.4355254 26.4516715,50.3834981 25.8823286,47.9252113 C25.3129857,45.4669245 25.3129857,29.48237 25.2560514,26.4493448 C25.1991172,23.4163197 25.5862703,11.7508384 28.6721088,9.16736112 C31.7579474,6.58388382 43.7540025,4.6946449 53.1538539,8.27395598 C58.3405678,10.2428616 60.7431949,19.1427702 60.6577935,22.1644144 Z" id="Shape" fill="#EFC39F"></path>
                            <path d="M27.7953208,65.3380761 C27.7953208,65.3380761 32.7884581,72.473936 46.2135639,71.4781025 C59.6386697,70.482269 60.6293263,65.2925522 60.6293263,65.2925522 C60.6293263,65.2925522 74.9539941,68.9913634 79.4176426,74.1355563 C83.8812903,79.2797489 89.0566175,91.9752066 89.0566175,91.9752066 L0,92.7206595 C0,92.7206595 4.21883095,78.9497008 8.86466908,73.8055083 C13.5105072,68.6613156 27.7953208,65.3380761 27.7953208,65.3380761 Z" id="Shape" fill="#489DEA"></path>
                            <path d="M60.5382314,22.5001527 C60.6293263,19.4785085 58.2266992,10.5956713 53.0172116,8.61538472 C50.1824962,7.57295371 47.2122517,6.94433181 44.19809,6.7489077 L44.19809,60.4670263 C46.4754616,60.6320502 48.7243661,60.5239311 49.4474316,59.7386451 C50.9448035,58.1396205 61.4605669,47.7886398 62.0128296,45.3019007 C62.5650922,42.8151615 61.0791072,30.6773705 60.9823189,28.4922267 C60.8855306,26.3070829 60.5382314,22.5001527 60.5382314,22.5001527 Z" id="Shape" fill="#C37E56" opacity="0.2" style="mix-blend-mode: multiply;"></path>
                            <path d="M25.4154674,36.4588968 C25.4154674,36.4588968 25.6147374,49.1315928 25.9848103,49.9965456 C27.2601384,53.0238802 35.3903552,59.6703593 39.7970693,62.1969318 C41.345682,63.090337 46.002907,62.9253131 48.0354612,62.4188605 C51.1668472,61.6335745 58.8985239,54.4521903 60.9139978,51.0379032 C62.9294716,47.623616 61.739545,36.5271826 61.739545,36.5271826 C61.739545,36.5271826 58.847283,40.9714464 55.7045102,44.9547815 C54.6853863,46.2579011 53.632102,47.5098064 52.6471387,48.551164 C51.377504,49.882736 50.2103511,50.8614983 49.3392564,51.1346413 C45.7011553,52.2442847 46.6861185,49.1088309 46.6861185,49.1088309 L41.9947329,49.1088309 C41.9947329,49.1088309 42.2680175,50.941165 40.4859742,51.2313794 C39.2505001,51.4362367 37.7018874,50.7818316 35.2081655,48.6592831 C33.4548561,46.897181 31.7921349,45.0472939 30.226415,43.1167569 C28.3703571,40.8064225 25.4154674,36.4588968 25.4154674,36.4588968 Z" id="Shape" fill="#89695E"></path>
                            <polygon id="Shape" fill="#B1836E" opacity="0.4" style="mix-blend-mode: multiply;" points="25.8310878 66.3396003 38.6640769 79.4618439 46.0940018 72.75277 52.5902044 78.7163917 62.6448002 66.7834576 58.9326845 64.3991471 45.6271407 72.1552693"></polygon>
                            <polygon id="Shape" fill="#489DEA" points="28.1483134 60.5182406 44.3916665 70.9602687 40.8332734 78.5684386 25.8310878 65.7364095"></polygon>
                            <polygon id="Shape" fill="#489DEA" points="47.329476 70.3627688 50.7341466 78.272534 62.6448002 66.7834576 60.4756037 62.009146"></polygon>
                            <path d="M42.4559007,75.8085566 C42.5356087,76.0304858 44.0785279,81.026726 44.0785279,81.026726 L40.258237,92.1857544 L53.0570656,92.1117782 L48.7243661,80.5544163 L50.1021759,77.0035572 L47.5515197,71.0399356 L44.4087468,70.9602687 L42.4559007,75.8085566 Z" id="Shape" fill="#000000"></path>
                            <path d="M28.421598,5.69047867 C28.421598,5.69047867 20.6443738,7.49436041 21.111235,14.4310539 C21.5780962,21.3677474 24.8233508,28.41256 24.8233508,28.41256 L25.7513798,28.5263695 C25.7513798,28.5263695 25.5179491,21.4758665 27.0267079,18.7785796 C28.5354666,16.0812927 31.6668526,15.085459 32.4810129,12.0638148 C33.2951733,9.04217058 32.9421807,8.14876544 32.9421807,8.14876544 C32.9421807,8.14876544 35.9596981,10.4989332 44.19809,12.0638148 C52.4364818,13.6286964 56.962758,15.7569354 57.2929768,17.1852455 C57.6231957,18.6135557 59.8493265,26.4721067 59.8493265,26.4721067 L61.7053844,26.9216546 C61.7053844,26.9216546 66.6928283,14.7269588 63.9087414,8.79748005 C61.1246547,2.86800125 51.6223215,-1.22914339 42.3420321,0.335738241 C33.0617427,1.90061988 28.421598,5.69047867 28.421598,5.69047867 Z" id="Shape" fill="#89695E"></path>
                            <path d="M52.7951679,24.1105581 C46.0996953,24.5544155 46.6291842,25.9087494 43.6856813,26.1022257 C41.4538572,26.2501781 40.0304999,23.9057009 33.7278739,23.8260342 C27.4252479,23.7463674 25.051088,25.607154 25.051088,25.607154 L24.8916719,27.9402503 C24.8916719,27.9402503 25.1307959,28.0825122 25.648898,29.209227 C26.4061241,30.8537753 26.9128393,35.9126108 34.0239322,35.9126108 C40.0418868,35.9126108 40.7649522,33.1185858 41.9207184,30.4440609 C43.0764844,27.7695359 44.5283089,29.1124889 45.3880167,30.956204 C46.2477244,32.7999191 46.321739,35.7418965 53.5182334,35.8500156 C59.2116625,35.9410632 60.2820271,32.6007523 61.619983,29.9603702 C61.8719909,29.4172097 62.1651048,28.8940635 62.4967711,28.3954885 L62.4227565,25.8973684 C62.4227565,25.8973684 59.4906405,23.6667007 52.7951679,24.1105581 Z M40.2126896,31.2521088 C38.8633469,34.3192768 37.7531282,34.7403723 33.8986767,34.9224676 C30.0442252,35.1045629 26.6281678,32.6462761 27.8067076,26.6314401 C28.0572185,25.3226301 33.6026184,24.9242965 37.3432014,25.4079873 C41.4766309,25.9315113 41.5620323,28.1849409 40.2126896,31.2521088 Z M57.9078672,33.4429431 C56.0176487,35.0533486 50.2729788,35.212682 48.2916655,33.1015144 C46.3103522,30.9903468 45.7239289,27.6614168 46.6861185,26.6598925 C48.0923955,25.2429634 54.2469923,24.6909869 57.8281592,25.5217968 C61.2100561,26.2786305 59.7810054,31.8325377 57.9078672,33.4429431 Z" id="Shape" fill="#000000"></path>
                            <path d="M30.2776559,45.6433294 C30.2776559,45.6433294 34.9178005,40.942994 43.2700611,40.4023985 C51.6223215,39.8618031 57.3043638,45.6604008 57.3043638,45.6604008 L30.2776559,45.6433294 Z" id="Shape" fill="#89695E"></path>
                        </g>
                        <path d="M44.1212121,123.166328 L161.777778,123.166328" id="Shape" stroke="#000000" stroke-width="1.4" stroke-linecap="round"></path>
                        <path d="M4.9023569,123.166328 L28.7138047,123.166328" id="Shape" stroke="#000000" stroke-width="1.4" stroke-linecap="round"></path>
                        <path d="M165.979798,123.166328 L169.481481,123.166328" id="Shape" stroke="#000000" stroke-width="1.4" stroke-linecap="round"></path>
                        <path d="M173.683502,123.166328 L184.888889,123.166328" id="Shape" stroke="#000000" stroke-width="1.4" stroke-linecap="round"></path>
                        <path d="M189.791246,123.166328 L195.393939,123.166328" id="Shape" stroke="#000000" stroke-width="1.4" stroke-linecap="round"></path>
                    </g>
                    <mask id="mask-4" fill="white">
                        <use xlink:href="#path-3"></use>
                    </mask>
                    <use id="Rectangle-2" fill="#D8D8D8" opacity="0" xlink:href="#path-3"></use>
                </g>
            </g>
        </g>
    </g>
</svg>