<?xml version="1.0" encoding="UTF-8"?>
<svg width="94px" height="36px" viewBox="0 0 76 33" version="1.1" xmlns="http://www.w3.org/2000/svg" xmlns:xlink="http://www.w3.org/1999/xlink">
    <!-- Generator: sketchtool 52.3 (67297) - http://www.bohemiancoding.com/sketch -->
    <title>0E10BC42-F1F9-4F3F-AC93-2ECDB67BA175@1x</title>
    <desc>Created with sketchtool.</desc>
    <g id="Page-1" stroke="none" stroke-width="1" fill="none" fill-rule="evenodd">
        <g id="Car-Model-Icons---Greyscale" transform="translate(-23.000000, -242.000000)">
            <g id="Group-97" transform="translate(23.000000, 243.000000)">
                <g id="Group-4" transform="translate(22.000000, 24.964700)">
                    <path d="M1.413,0.0163 L0.618,3.0373 C0.568,3.2343 0.716,3.4233 0.919,3.4233 L31.212,3.4233 C31.415,3.4233 31.562,3.2343 31.512,3.0373 L30.926,0.7873" id="Fill-1" fill="#CFCFD1"></path>
                    <path d="M1.413,0.0163 L0.618,3.0373 C0.568,3.2343 0.716,3.4233 0.919,3.4233 L31.212,3.4233 C31.415,3.4233 31.562,3.2343 31.512,3.0373 L30.926,0.7873" id="Stroke-3" stroke="#202020" stroke-linecap="round" stroke-linejoin="round"></path>
                </g>
                <path d="M21.995,10.6587 C21.843,10.6587 21.703,10.5657 21.646,10.4217 C21.584,10.2657 21.634,10.0877 21.767,9.9857 L33.136,1.2867 C33.202,1.2367 33.282,1.2097 33.364,1.2097 C33.374,1.2097 33.385,1.2097 33.395,1.2107 C33.991,1.2607 34.353,1.4577 34.473,1.7957 C34.584,2.1077 34.454,2.4627 34.109,2.7937 C32.012,4.9767 27.021,10.0937 26.218,10.2297 C26.218,10.2297 22.008,10.6587 21.995,10.6587" id="Fill-5" fill="#FFFFFF"></path>
                <path d="M33.3636,0.8345 C33.1996,0.8345 33.0396,0.8885 32.9076,0.9885 L21.5386,9.6885 C21.2726,9.8925 21.1746,10.2485 21.2976,10.5605 C21.4116,10.8485 21.6896,11.0335 21.9946,11.0335 C22.0196,11.0335 22.0456,11.0325 22.0716,11.0295 L26.2306,10.6055 C26.5566,10.5535 27.2916,10.4295 34.3906,3.0425 C34.8206,2.6325 34.9876,2.1235 34.8266,1.6705 C34.6536,1.1805 34.1816,0.8995 33.4256,0.8365 C33.4056,0.8355 33.3846,0.8345 33.3636,0.8345 M33.3636,1.5845 C34.3696,1.6685 34.2326,2.1555 33.8496,2.5225 C33.8496,2.5225 26.9226,9.7305 26.1556,9.8595 L21.9946,10.2835 L33.3636,1.5845" id="Fill-7" fill="#202020"></path>
                <path d="M69.9247,10.4556 C69.8927,10.4556 69.8607,10.4516 69.8277,10.4426 L65.2817,9.2286 C65.2057,9.2086 65.1367,9.1646 65.0877,9.1026 L59.7007,2.4526 C59.5887,2.3136 59.5897,2.1156 59.7017,1.9786 L60.5247,0.9756 C60.5917,0.8926 60.6887,0.8446 60.7937,0.8386 C60.8007,0.8376 60.8077,0.8376 60.8147,0.8376 C60.9127,0.8376 61.0067,0.8756 61.0767,0.9436 L70.1867,9.8116 C70.3087,9.9316 70.3347,10.1176 70.2507,10.2666 C70.1827,10.3856 70.0567,10.4556 69.9247,10.4556" id="Fill-9" fill="#FFFFFF"></path>
                <path d="M60.8148,0.4624 C60.8008,0.4624 60.7868,0.4624 60.7728,0.4634 C60.5628,0.4754 60.3678,0.5734 60.2348,0.7364 L59.4118,1.7404 C59.1868,2.0164 59.1848,2.4114 59.4088,2.6884 L64.7958,9.3384 C64.8958,9.4624 65.0318,9.5504 65.1858,9.5914 L69.7318,10.8054 C69.7948,10.8214 69.8608,10.8304 69.9248,10.8304 C70.1898,10.8304 70.4408,10.6894 70.5768,10.4504 C70.7458,10.1534 70.6918,9.7804 70.4478,9.5424 L61.3378,0.6744 C61.1978,0.5374 61.0098,0.4624 60.8148,0.4624 M60.8148,1.2124 L69.9248,10.0804 L65.3788,8.8664 L59.9918,2.2164 L60.8148,1.2124" id="Fill-11" fill="#202020"></path>
                <path d="M61.5331,1.9107 L60.6561,2.7107 L63.0621,5.5687 C63.0621,5.5687 62.2161,4.6787 63.1731,3.5077 L61.5331,1.9107 Z" id="Fill-13" fill-opacity="0.1" fill="#202020"></path>
                <path d="M33.0643,1.7964 L33.2183,2.5364 L30.6973,4.8904 C30.6973,4.8904 31.6233,3.7974 31.2313,3.2154 L33.0643,1.7964 Z" id="Fill-15" fill-opacity="0.1" fill="#202020"></path>
                <path d="M72.4388,11.8648 C71.9688,10.1058 70.9098,9.8248 69.1628,9.5148 L66.5708,9.1548 C64.8058,9.1548 60.6548,3.1818 60.6548,3.1818 C59.7938,2.2018 61.4198,1.9538 61.4198,0.9898 C61.4198,0.5038 60.8988,0.4998 60.6278,0.4998 L35.0058,0.4998 C34.4198,0.4998 34.1808,0.5228 33.7168,0.8798 C33.7168,0.8798 33.2278,1.2328 33.4298,1.7968 C33.5218,2.0568 33.8188,2.5248 33.1908,3.1338 L26.8088,9.2348 C26.3928,9.6328 25.8518,9.8608 25.2808,9.9378 C22.7078,10.2838 14.5508,11.6038 9.3488,12.5688 C4.9128,13.3908 1.8658,18.4528 2.0558,22.6258 C2.1018,23.6688 2.6218,24.6448 3.4678,25.2648 L3.5588,25.3328 C4.4178,25.9638 5.4618,26.3048 6.5278,26.3048 C7.4038,26.3048 8.0458,25.5378 8.1018,24.6638 C8.3568,20.6328 11.7068,17.4438 15.8008,17.4438 C19.1018,17.4438 21.8758,19.5048 22.9908,22.3588 C23.7778,24.3748 22.7308,26.3048 24.8948,26.3048 L52.3108,26.3048 C52.3108,25.7248 52.0598,23.7578 53.4618,21.3178 C54.7938,19.0028 57.2928,17.4438 60.1548,17.4438 C63.5658,17.4438 66.4608,19.6588 67.4788,22.7288 C68.0918,24.5788 69.4488,26.3048 71.3978,26.3048 C72.2298,26.3048 73.6428,26.5848 73.6428,23.6218 C73.6428,17.8958 73.0928,14.3088 72.4388,11.8648" id="Fill-17" fill="#ECECEC"></path>
                <path d="M72.4388,11.8648 C71.9688,10.1058 70.9098,9.8248 69.1628,9.5148 L66.5708,9.1548 C64.8058,9.1548 60.6548,3.1818 60.6548,3.1818 C59.7938,2.2018 61.4198,1.9538 61.4198,0.9898 C61.4198,0.5038 60.8988,0.4998 60.6278,0.4998 L35.0058,0.4998 C34.4198,0.4998 34.1808,0.5228 33.7168,0.8798 C33.7168,0.8798 33.2278,1.2328 33.4298,1.7968 C33.5218,2.0568 33.8188,2.5248 33.1908,3.1338 L26.8088,9.2348 C26.3928,9.6328 25.8518,9.8608 25.2808,9.9378 C22.7078,10.2838 14.5508,11.6038 9.3488,12.5688 C4.9128,13.3908 1.8658,18.4528 2.0558,22.6258 C2.1018,23.6688 2.6218,24.6448 3.4678,25.2648 L3.5588,25.3328 C4.4178,25.9638 5.4618,26.3048 6.5278,26.3048 C7.4038,26.3048 8.0458,25.5378 8.1018,24.6638 C8.3568,20.6328 11.7068,17.4438 15.8008,17.4438 C19.1018,17.4438 21.8758,19.5048 22.9908,22.3588 C23.7778,24.3748 22.7308,26.3048 24.8948,26.3048 L52.3108,26.3048 C52.3108,25.7248 52.0598,23.7578 53.4618,21.3178 C54.7938,19.0028 57.2928,17.4438 60.1548,17.4438 C63.5658,17.4438 66.4608,19.6588 67.4788,22.7288 C68.0918,24.5788 69.4488,26.3048 71.3978,26.3048 C72.2298,26.3048 73.6428,26.5848 73.6428,23.6218 C73.6428,17.8958 73.0928,14.3088 72.4388,11.8648 Z" id="Stroke-19" stroke="#202020"></path>
                <path d="M67.4877,27.3863 C67.1607,28.2693 67.9287,28.3883 68.5907,28.3883 L73.1307,28.3883 C73.8297,28.3883 74.4387,27.9003 74.5917,27.2173 L75.4767,23.2673 C75.6107,22.6663 75.1557,22.0983 74.5397,22.0983 L68.5907,22.0983 C67.9287,22.0983 67.3057,22.1703 67.6987,23.3303 C68.1317,24.5993 67.8147,26.5003 67.4877,27.3863 Z" id="Stroke-21" stroke="#202020" stroke-linecap="round" stroke-linejoin="round"></path>
                <path d="M74.2435,22.1216 L73.8115,22.1216 C73.8075,22.1416 73.8095,22.1606 73.8045,22.1806 L72.9205,26.1306 C72.7665,26.8126 72.1585,27.3016 71.4585,27.3016 L67.2285,27.3016 C67.2165,27.3386 67.2045,27.3756 67.1915,27.4096 C66.8655,28.2926 67.6325,28.4116 68.2945,28.4116 L72.8335,28.4116 C73.5345,28.4116 74.1425,27.9246 74.2955,27.2406 L75.1805,23.2906 C75.3145,22.6896 74.8605,22.1216 74.2435,22.1216" id="Fill-23" fill="#CFCFD1"></path>
                <path d="M74.2435,22.1216 L73.8115,22.1216 C73.8075,22.1416 73.8095,22.1606 73.8045,22.1806 L72.9205,26.1306 C72.7665,26.8126 72.1585,27.3016 71.4585,27.3016 L67.2285,27.3016 C67.2165,27.3386 67.2045,27.3756 67.1915,27.4096 C66.8655,28.2926 67.6325,28.4116 68.2945,28.4116 L72.8335,28.4116 C73.5345,28.4116 74.1425,27.9246 74.2955,27.2406 L75.1805,23.2906 C75.3145,22.6896 74.8605,22.1216 74.2435,22.1216 Z" id="Stroke-25" stroke="#202020" stroke-linecap="round" stroke-linejoin="round"></path>
                <path d="M67.4877,27.3863 C67.1607,28.2693 67.9287,28.3883 68.5907,28.3883 L73.1307,28.3883 C73.8297,28.3883 74.4387,27.9003 74.5917,27.2173 L75.4767,23.2673 C75.6107,22.6663 75.1557,22.0983 74.5397,22.0983 L68.5907,22.0983 C67.9287,22.0983 67.3057,22.1703 67.6987,23.3303 C68.1317,24.5993 67.8147,26.5003 67.4877,27.3863" id="Fill-27" fill="#CFCFD1"></path>
                <path d="M67.4877,27.3863 C67.1607,28.2693 67.9287,28.3883 68.5907,28.3883 L73.1307,28.3883 C73.8297,28.3883 74.4387,27.9003 74.5917,27.2173 L75.4767,23.2673 C75.6107,22.6663 75.1557,22.0983 74.5397,22.0983 L68.5907,22.0983 C67.9287,22.0983 67.3057,22.1703 67.6987,23.3303 C68.1317,24.5993 67.8147,26.5003 67.4877,27.3863 Z" id="Stroke-29" stroke="#202020" stroke-width="0.75" stroke-linecap="round" stroke-linejoin="round"></path>
                <path d="M8.9037,27.5738 C9.3057,28.7008 7.8737,28.3648 7.2117,28.3648 L2.8697,28.3648 C2.1707,28.3648 1.5627,27.8768 1.4087,27.1938 L0.5237,23.2438 C0.3887,22.6428 0.8457,22.0748 1.4617,22.0748 L7.4937,22.0748 C8.1557,22.0748 8.9897,22.4008 8.6237,23.5498 C8.2577,24.6978 8.5207,26.4978 8.9037,27.5738 Z" id="Stroke-31" stroke="#202020" stroke-linecap="round" stroke-linejoin="round"></path>
                <path d="M8.9037,27.5689 C8.5077,26.4979 8.2577,24.6929 8.6237,23.5449 C8.9897,22.3959 8.1557,22.0689 7.4937,22.0689 L6.8597,22.0689 C6.8467,22.1329 6.8287,22.1989 6.8067,22.2679 C6.4977,23.2369 6.1097,24.6889 6.4347,26.2239 C6.5257,26.6549 6.2287,27.0839 5.7887,27.0839 L1.3847,27.0839 L1.4087,27.1889 C1.5627,27.8719 2.1707,28.3599 2.8697,28.3599 L7.2117,28.3599 C7.8737,28.3599 9.2157,28.4119 8.9037,27.5689" id="Fill-33" fill="#000000"></path>
                <path d="M8.9037,27.5738 C9.3057,28.7008 7.8737,28.3648 7.2117,28.3648 L2.8697,28.3648 C2.1707,28.3648 1.5627,27.8768 1.4087,27.1938 L0.5237,23.2438 C0.3887,22.6428 0.8457,22.0748 1.4617,22.0748 L7.4937,22.0748 C8.1557,22.0748 8.9897,22.4008 8.6237,23.5498 C8.2577,24.6978 8.5207,26.4978 8.9037,27.5738" id="Fill-35" fill="#CFCFD1"></path>
                <path d="M8.9037,27.5738 C9.3057,28.7008 7.8737,28.3648 7.2117,28.3648 L2.8697,28.3648 C2.1707,28.3648 1.5627,27.8768 1.4087,27.1938 L0.5237,23.2438 C0.3887,22.6428 0.8457,22.0748 1.4617,22.0748 L7.4937,22.0748 C8.1557,22.0748 8.9897,22.4008 8.6237,23.5498 C8.2577,24.6978 8.5207,26.4978 8.9037,27.5738 Z" id="Stroke-37" stroke="#202020" stroke-width="0.75" stroke-linecap="round" stroke-linejoin="round"></path>
                <path d="M2.7889,20.4058 C2.6679,20.4058 2.5539,20.3458 2.4839,20.2478 C2.4139,20.1488 2.3959,20.0218 2.4359,19.9078 C2.4559,19.8508 2.9239,18.5068 3.2369,17.8298 C3.6079,17.0268 4.3559,16.0528 4.3879,16.0118 C4.4579,15.9208 4.5679,15.8668 4.6849,15.8668 L7.3429,15.8668 C7.6499,15.8668 7.9399,16.0148 8.1189,16.2628 C8.2959,16.5098 8.3449,16.8298 8.2479,17.1178 L7.5979,19.3828 C7.3919,20.0058 6.8269,20.4148 6.1869,20.4148 C6.1869,20.4148 2.7889,20.4058 2.7889,20.4058" id="Fill-39" fill="#FFFFFF"></path>
                <path d="M7.3431,15.4917 L4.6841,15.4917 C4.4521,15.4917 4.2331,15.5987 4.0911,15.7837 C4.0581,15.8257 3.2851,16.8327 2.8971,17.6727 C2.5761,18.3657 2.1011,19.7257 2.0811,19.7837 C2.0021,20.0127 2.0381,20.2657 2.1781,20.4647 C2.3181,20.6617 2.5451,20.7797 2.7881,20.7807 L6.1851,20.7897 C6.9891,20.7897 7.6971,20.2767 7.9491,19.5147 L8.6141,17.2057 C8.7391,16.8347 8.6711,16.3877 8.4231,16.0437 C8.1741,15.6977 7.7701,15.4917 7.3431,15.4917 M7.3431,16.2417 C7.7391,16.2417 8.0171,16.6267 7.8921,16.9987 L7.2371,19.2787 C7.0881,19.7307 6.6631,20.0397 6.1871,20.0397 L2.7901,20.0307 C2.7901,20.0307 3.2681,18.6547 3.5771,17.9867 C3.9351,17.2137 4.6841,16.2417 4.6841,16.2417 L7.3431,16.2417" id="Fill-41" fill="#202020"></path>
                <path d="M7.3529,16.2369 L6.2059,16.2369 C6.5999,16.2369 6.8779,16.6209 6.7549,16.9939 L6.0789,19.2789 C5.9329,19.7199 5.5249,20.0219 5.0619,20.0369 L6.1769,20.0399 C6.6529,20.0399 7.0779,19.7309 7.2279,19.2789 L7.9029,16.9939 C8.0269,16.6209 7.7489,16.2369 7.3529,16.2369" id="Fill-43" fill-opacity="0.1" fill="#202020"></path>
                <path d="M23.7533,15.7984 L21.9943,15.7984" id="Stroke-45" stroke="#202020" stroke-linecap="round" stroke-linejoin="round"></path>
                <path d="M65.9515,14.4634 C65.9515,14.7414 65.7255,14.9694 65.4455,14.9694 L63.7665,14.9694 C63.4865,14.9694 63.2605,14.7414 63.2605,14.4634 L63.2605,12.7844 C63.2605,12.5044 63.4865,12.2784 63.7665,12.2784 L65.4455,12.2784 C65.7255,12.2784 65.9515,12.5044 65.9515,12.7844 L65.9515,14.4634 Z" id="Stroke-47" stroke="#202020" stroke-width="0.75" stroke-linecap="round" stroke-linejoin="round"></path>
                <path d="M28.8807,11.939 C28.8807,11.362 29.1157,10.806 29.5307,10.406 L36.0877,2.786 C36.5047,2.383 37.0637,2.157 37.6427,2.157 L46.2977,2.157 C46.7967,2.157 47.2017,2.562 47.2017,3.38 L47.2017,23.667 C47.2017,23.847 46.7967,24.252 46.2977,24.252 L29.7857,24.252 C29.2857,24.252 28.8807,23.847 28.8807,23.347 L28.8807,11.939 Z" id="Stroke-49" stroke="#202020" stroke-width="0.75" stroke-linecap="round" stroke-linejoin="round"></path>
                <path d="M59.0619,11.4605 C59.4199,11.4605 59.6159,11.0425 59.3869,10.7675 L55.3339,4.1645 C55.0439,3.5975 54.3589,3.5355 53.7799,3.5355 L50.1229,3.5355 C49.6239,3.5355 49.2179,3.9405 49.2179,4.4405 L49.2349,10.5565 C49.2349,11.0565 49.6399,11.4605 50.1399,11.4605 L59.0619,11.4605 Z" id="Fill-51" fill="#FFFFFF"></path>
                <path d="M59.0619,11.4605 C59.4199,11.4605 59.6159,11.0425 59.3869,10.7675 L55.3339,4.1645 C55.0439,3.5975 54.3589,3.5355 53.7799,3.5355 L50.1229,3.5355 C49.6239,3.5355 49.2179,3.9405 49.2179,4.4405 L49.2349,10.5565 C49.2349,11.0565 49.6399,11.4605 50.1399,11.4605 L59.0619,11.4605 Z" id="Stroke-53" stroke="#202020" stroke-width="0.75" stroke-linecap="round" stroke-linejoin="round"></path>
                <path d="M45.6449,10.8872 C45.6449,11.2032 45.3869,11.4602 45.0709,11.4602 L31.1889,11.4602 C30.9799,11.4602 30.8779,11.2062 31.0279,11.0622 L37.2519,3.7652 C37.4019,3.6192 37.6069,3.5352 37.8169,3.5352 L45.0709,3.5352 C45.3869,3.5352 45.6449,3.7932 45.6449,4.1112 L45.6449,10.8872 Z" id="Fill-55" fill="#FFFFFF"></path>
                <path d="M45.6449,10.8872 C45.6449,11.2032 45.3869,11.4602 45.0709,11.4602 L31.1889,11.4602 C30.9799,11.4602 30.8779,11.2062 31.0279,11.0622 L37.2519,3.7652 C37.4019,3.6192 37.6069,3.5352 37.8169,3.5352 L45.0709,3.5352 C45.3869,3.5352 45.6449,3.7932 45.6449,4.1112 L45.6449,10.8872 Z" id="Stroke-57" stroke="#202020" stroke-width="0.75" stroke-linecap="round" stroke-linejoin="round"></path>
                <path d="M73.0927,16.5777 L70.7247,16.5777 C69.8697,16.5777 69.1747,17.2717 69.1747,18.1267 L69.1747,19.6277 C69.1747,20.4817 69.8697,21.1767 70.7247,21.1767 L73.0927,21.1767 C73.5067,21.1767 73.8427,20.8407 73.8427,20.4267 L73.8427,17.3277 C73.8427,16.9137 73.5067,16.5777 73.0927,16.5777 M73.0927,17.3277 L73.0927,20.4267 L70.7247,20.4267 C70.2817,20.4267 69.9247,20.0687 69.9247,19.6277 L69.9247,18.1267 C69.9247,17.6847 70.2817,17.3277 70.7247,17.3277 L73.0927,17.3277" id="Fill-59" fill="#202020"></path>
                <path d="M70.5214,15.5445 C69.8734,15.5445 69.3464,15.0185 69.3464,14.3705 L69.3464,14.2485 C69.3464,13.6015 69.8734,13.0745 70.5214,13.0745 L72.3304,13.0745 C72.5114,13.0745 72.6674,13.2055 72.6994,13.3845 L73.0044,15.1045 C73.0234,15.2135 72.9944,15.3255 72.9224,15.4105 C72.8514,15.4955 72.7464,15.5445 72.6354,15.5445 L70.5214,15.5445 Z" id="Fill-61" fill="#ECECEC"></path>
                <path d="M72.33,12.6997 L70.521,12.6997 C69.667,12.6997 68.972,13.3937 68.972,14.2487 L68.972,14.3707 C68.972,15.2247 69.667,15.9197 70.521,15.9197 L72.635,15.9197 C72.857,15.9197 73.067,15.8217 73.21,15.6517 C73.352,15.4817 73.412,15.2577 73.373,15.0387 L73.068,13.3177 C73.005,12.9607 72.693,12.6997 72.33,12.6997 M72.33,13.4497 L72.635,15.1697 L70.521,15.1697 C70.079,15.1697 69.722,14.8117 69.722,14.3707 L69.722,14.2487 C69.722,13.8067 70.079,13.4497 70.521,13.4497 L72.33,13.4497" id="Fill-63" fill="#202020"></path>
                <path d="M44.7528,13.5552 L41.2338,13.5552" id="Stroke-65" stroke="#202020" stroke-linecap="round" stroke-linejoin="round"></path>
                <path d="M63.308,10.2261 L63.318,10.2381 C63.319,10.2341 63.314,10.2301 63.308,10.2261" id="Fill-67" fill="#000000"></path>
                <path d="M60.1166,19.6275 C56.9856,19.6035 54.4276,22.1195 54.4016,25.2515 C54.3766,28.3805 56.8946,30.9395 60.0256,30.9645 C63.1556,30.9895 65.7136,28.4725 65.7386,25.3425 C65.7636,22.2105 63.2466,19.6525 60.1166,19.6275" id="Fill-69" fill="#737987"></path>
                <path d="M60.1166,19.6275 C56.9856,19.6035 54.4276,22.1195 54.4016,25.2515 C54.3766,28.3805 56.8946,30.9395 60.0256,30.9645 C63.1556,30.9895 65.7136,28.4725 65.7386,25.3425 C65.7636,22.2105 63.2466,19.6525 60.1166,19.6275 Z" id="Stroke-71" stroke="#284356" stroke-linecap="round" stroke-linejoin="round"></path>
                <path d="M60.0575,26.9585 C59.1355,26.9505 58.3945,26.2005 58.4015,25.2815 C58.4095,24.3645 59.1625,23.6255 60.0845,23.6335 C61.0055,23.6415 61.7465,24.3915 61.7395,25.3095 C61.7325,26.2285 60.9785,26.9655 60.0575,26.9585 M60.1065,20.8075 C57.6175,20.7875 55.5835,22.7815 55.5635,25.2605 C55.5435,27.7385 57.5455,29.7665 60.0355,29.7855 C62.5235,29.8065 64.5575,27.8125 64.5775,25.3325 C64.5965,22.8545 62.5955,20.8265 60.1065,20.8075" id="Fill-73" fill="#CFCFD1"></path>
                <path d="M60.0575,26.9585 C59.1355,26.9505 58.3945,26.2005 58.4015,25.2815 C58.4095,24.3645 59.1625,23.6255 60.0845,23.6335 C61.0055,23.6415 61.7465,24.3915 61.7395,25.3095 C61.7325,26.2285 60.9785,26.9655 60.0575,26.9585 Z M60.1065,20.8075 C57.6175,20.7875 55.5835,22.7815 55.5635,25.2605 C55.5435,27.7385 57.5455,29.7665 60.0355,29.7855 C62.5235,29.8065 64.5575,27.8125 64.5775,25.3325 C64.5965,22.8545 62.5955,20.8265 60.1065,20.8075 Z" id="Stroke-75" stroke="#202020" stroke-width="0.75" stroke-linecap="round" stroke-linejoin="round"></path>
                <path d="M60.0844,23.6333 C59.1624,23.6253 58.4094,24.3643 58.4014,25.2813 C58.3944,26.2003 59.1354,26.9503 60.0574,26.9583 C60.9794,26.9653 61.7324,26.2283 61.7394,25.3093 C61.7474,24.3913 61.0054,23.6413 60.0844,23.6333" id="Fill-77" fill="#202020"></path>
                <path d="M59.9364,22.3492 C62.5674,22.3702 64.7594,24.1832 65.3784,26.6202 C65.5034,26.1602 65.5784,25.6792 65.5824,25.1802 C65.6074,22.0482 63.0904,19.4912 59.9594,19.4652 C56.8294,19.4402 54.2694,21.9572 54.2454,25.0892 C54.2414,25.5882 54.3084,26.0702 54.4254,26.5322 C55.0834,24.1062 57.3054,22.3282 59.9364,22.3492" id="Fill-79" fill-opacity="0.1" fill="#202020"></path>
                <path d="M54.4017,25.2515 C54.3767,28.3805 56.8947,30.9385 60.0257,30.9645 C63.1547,30.9895 65.7137,28.4725 65.7387,25.3425 C65.7637,22.2105 63.2467,19.6525 60.1167,19.6275 C56.9857,19.6035 54.4267,22.1195 54.4017,25.2515 Z" id="Stroke-81" stroke="#202020" stroke-width="2" stroke-linecap="round" stroke-linejoin="round"></path>
                <path d="M15.9154,19.6275 C12.7854,19.6035 10.2264,22.1195 10.2014,25.2515 C10.1754,28.3805 12.6934,30.9395 15.8244,30.9645 C18.9544,30.9895 21.5124,28.4725 21.5384,25.3425 C21.5624,22.2105 19.0454,19.6525 15.9154,19.6275" id="Fill-83" fill="#737987"></path>
                <path d="M15.9154,19.6275 C12.7854,19.6035 10.2264,22.1195 10.2014,25.2515 C10.1754,28.3805 12.6934,30.9395 15.8244,30.9645 C18.9544,30.9895 21.5124,28.4725 21.5384,25.3425 C21.5624,22.2105 19.0454,19.6525 15.9154,19.6275 Z" id="Stroke-85" stroke="#284356" stroke-linecap="round" stroke-linejoin="round"></path>
                <path d="M15.8568,26.9585 C14.9348,26.9505 14.1928,26.2005 14.2008,25.2815 C14.2078,24.3645 14.9618,23.6255 15.8828,23.6335 C16.8048,23.6415 17.5458,24.3915 17.5388,25.3095 C17.5318,26.2285 16.7778,26.9655 15.8568,26.9585 M15.9058,20.8075 C13.4168,20.7875 11.3828,22.7815 11.3628,25.2605 C11.3428,27.7385 13.3448,29.7665 15.8338,29.7855 C18.3228,29.8065 20.3558,27.8125 20.3758,25.3325 C20.3958,22.8545 18.3948,20.8265 15.9058,20.8075" id="Fill-87" fill="#CFCFD1"></path>
                <path d="M15.8568,26.9585 C14.9348,26.9505 14.1928,26.2005 14.2008,25.2815 C14.2078,24.3645 14.9618,23.6255 15.8828,23.6335 C16.8048,23.6415 17.5458,24.3915 17.5388,25.3095 C17.5318,26.2285 16.7778,26.9655 15.8568,26.9585 Z M15.9058,20.8075 C13.4168,20.7875 11.3828,22.7815 11.3628,25.2605 C11.3428,27.7385 13.3448,29.7665 15.8338,29.7855 C18.3228,29.8065 20.3558,27.8125 20.3758,25.3325 C20.3958,22.8545 18.3948,20.8265 15.9058,20.8075 Z" id="Stroke-89" stroke="#202020" stroke-width="0.75" stroke-linecap="round" stroke-linejoin="round"></path>
                <path d="M15.8832,23.6333 C14.9622,23.6253 14.2082,24.3643 14.2002,25.2813 C14.1932,26.2003 14.9352,26.9503 15.8572,26.9583 C16.7782,26.9653 17.5312,26.2283 17.5392,25.3093 C17.5462,24.3913 16.8042,23.6413 15.8832,23.6333" id="Fill-91" fill="#202020"></path>
                <path d="M15.7352,22.3492 C18.3672,22.3702 20.5582,24.1832 21.1772,26.6202 C21.3022,26.1602 21.3772,25.6792 21.3812,25.1802 C21.4062,22.0482 18.8892,19.4912 15.7582,19.4652 C12.6282,19.4402 10.0692,21.9572 10.0442,25.0892 C10.0402,25.5882 10.1072,26.0702 10.2242,26.5322 C10.8832,24.1062 13.1042,22.3282 15.7352,22.3492" id="Fill-93" fill-opacity="0.1" fill="#202020"></path>
                <path d="M10.201,25.2515 C10.176,28.3805 12.694,30.9385 15.825,30.9645 C18.954,30.9895 21.513,28.4725 21.538,25.3425 C21.563,22.2105 19.046,19.6525 15.915,19.6275 C12.785,19.6035 10.226,22.1195 10.201,25.2515 Z" id="Stroke-95" stroke="#202020" stroke-width="2" stroke-linecap="round" stroke-linejoin="round"></path>
            </g>
        </g>
    </g>
</svg>