<?xml version="1.0" encoding="UTF-8"?>
<svg width="94px" height="36px" viewBox="0 0 86 38" version="1.1" xmlns="http://www.w3.org/2000/svg" xmlns:xlink="http://www.w3.org/1999/xlink">
    <!-- Generator: sketchtool 52.3 (67297) - http://www.bohemiancoding.com/sketch -->
    <title>95BBF01D-F0CD-44F7-A8F0-FFC7EA0C6490@1.5x</title>
    <desc>Created with sketchtool.</desc>
    <g id="Page-1" stroke="none" stroke-width="1" fill="none" fill-rule="evenodd">
        <g id="Car-Model-Icons---Greyscale" transform="translate(-145.000000, -363.000000)">
            <g id="MINIVAN" transform="translate(132.000000, 337.000000)">
                <g id="Group-91" transform="translate(13.000000, 26.000000)">
                    <path d="M28.7936,2.9326 C29.6566,1.6256 31.1076,0.8346 32.6736,0.8246 C41.6316,0.7626 71.9816,0.5496 79.2336,0.4996 C82.4566,0.4786 83.4016,1.7016 83.4236,4.9246 C83.4456,8.1476 83.5596,22.9086 83.5846,26.6516 C83.6106,30.3936 77.7756,32.5566 77.8946,32.1946 C78.1916,31.2816 78.3436,30.3016 78.3226,29.2836 C78.2286,24.6686 74.3936,20.8026 69.7786,20.6926 C64.8116,20.5726 60.7636,24.5886 60.7976,29.5286 C60.8076,30.9016 61.1316,32.1976 61.7006,33.3536 L24.7126,33.6076 C25.3056,32.3616 25.6166,30.9566 25.5576,29.4746 C25.3756,24.9116 21.5436,21.1446 16.9786,21.0546 C12.0276,20.9556 8.0016,24.9646 8.0356,29.8916 C8.0416,30.7906 8.1836,31.6596 8.4406,32.4746 C8.5756,32.9046 7.8396,33.7236 7.3666,33.7276 C5.8146,33.7386 4.8406,33.7446 4.6076,33.7456 C2.5286,33.7606 1.7856,31.5806 1.7706,29.3456 C1.7546,27.1106 1.7616,28.0426 1.7336,23.9896 C1.7146,21.2016 2.8586,18.6316 4.4956,17.7606 C5.2396,17.3636 15.0856,14.1596 18.8936,12.7656 C20.3266,12.2416 21.7886,10.9086 22.1656,10.5876 C23.0406,9.8446 28.8136,2.9096 28.7936,2.9326" id="Fill-1" fill="#ECECEC"></path>
                    <path d="M28.7936,2.9326 C29.6566,1.6256 31.1076,0.8346 32.6736,0.8246 C41.6316,0.7626 71.9816,0.5496 79.2336,0.4996 C82.4566,0.4786 83.4016,1.7016 83.4236,4.9246 C83.4456,8.1476 83.5596,22.9086 83.5846,26.6516 C83.6106,30.3936 77.7756,32.5566 77.8946,32.1946 C78.1916,31.2816 78.3436,30.3016 78.3226,29.2836 C78.2286,24.6686 74.3936,20.8026 69.7786,20.6926 C64.8116,20.5726 60.7636,24.5886 60.7976,29.5286 C60.8076,30.9016 61.1316,32.1976 61.7006,33.3536 L24.7126,33.6076 C25.3056,32.3616 25.6166,30.9566 25.5576,29.4746 C25.3756,24.9116 21.5436,21.1446 16.9786,21.0546 C12.0276,20.9556 8.0016,24.9646 8.0356,29.8916 C8.0416,30.7906 8.1836,31.6596 8.4406,32.4746 C8.5756,32.9046 7.8396,33.7236 7.3666,33.7276 C5.8146,33.7386 4.8406,33.7446 4.6076,33.7456 C2.5286,33.7606 1.7856,31.5806 1.7706,29.3456 C1.7546,27.1106 1.7616,28.0426 1.7336,23.9896 C1.7146,21.2016 2.8586,18.6316 4.4956,17.7606 C5.2396,17.3636 15.0856,14.1596 18.8936,12.7656 C20.3266,12.2416 21.7886,10.9086 22.1656,10.5876 C23.0406,9.8446 28.8136,2.9096 28.7936,2.9326 Z" id="Stroke-3" stroke="#202020"></path>
                    <path d="M79.1178,0.7538 C78.1008,0.7608 76.5128,0.7728 75.1598,0.7808 C78.3828,0.7588 79.3278,1.9828 79.3498,5.2068 C79.3718,8.4288 79.4848,24.8578 79.5108,28.6008 C79.5198,29.9468 78.7688,30.0188 77.8118,30.9128 C77.7638,31.6538 77.6248,32.3708 77.4028,33.0498 C77.2848,33.4118 83.1188,32.3178 83.0938,28.5758 C83.0678,24.8328 82.9528,8.1948 82.9308,4.9728 C82.9088,1.7478 82.3418,0.7318 79.1178,0.7538" id="Fill-5" fill-opacity="0.1" fill="#202020"></path>
                    <path d="M61.4518,31.1142 C61.3858,30.8632 61.1548,30.6872 60.8938,30.6882 L25.4088,30.9332 C25.1478,30.9342 24.9208,31.1142 24.8568,31.3662 L24.3088,33.5542 C24.2548,33.7712 24.4208,33.9812 24.6468,33.9792 L61.6988,33.7242 C61.9248,33.7222 62.0868,33.5112 62.0298,33.2962 L61.4518,31.1142 Z" id="Fill-7" fill="#CFCFD1"></path>
                    <path d="M61.4518,31.1142 C61.3858,30.8632 61.1548,30.6872 60.8938,30.6882 L25.4088,30.9332 C25.1478,30.9342 24.9208,31.1142 24.8568,31.3662 L24.3088,33.5542 C24.2548,33.7712 24.4208,33.9812 24.6468,33.9792 L61.6988,33.7242 C61.9248,33.7222 62.0868,33.5112 62.0298,33.2962 L61.4518,31.1142 Z" id="Stroke-9" stroke="#202020" stroke-linecap="round" stroke-linejoin="round"></path>
                    <path d="M2.2921,25.2831 C2.1881,25.2831 2.0871,25.2391 2.0171,25.1621 C1.9451,25.0851 1.9091,24.9801 1.9181,24.8761 L2.2081,21.5591 C2.2241,21.3661 2.3851,21.2181 2.5791,21.2171 L5.8281,21.1941 C6.1631,21.1941 6.4621,21.3461 6.6551,21.6111 C6.8481,21.8761 6.9011,22.2061 6.8001,22.5171 L6.2731,24.1561 C6.0601,24.8161 5.4531,25.2621 4.7621,25.2651 C4.7621,25.2651 2.2931,25.2831 2.2921,25.2831" id="Fill-11" fill="#ECECEC"></path>
                    <path d="M5.8346,20.8193 L5.8256,20.8193 L2.5766,20.8413 C2.1886,20.8433 1.8676,21.1403 1.8346,21.5263 L1.5446,24.8423 C1.5266,25.0523 1.5976,25.2613 1.7416,25.4173 C1.8836,25.5703 2.0836,25.6583 2.2926,25.6583 L2.2976,25.6583 L4.7656,25.6403 C5.6176,25.6343 6.3676,25.0853 6.6306,24.2723 L7.1576,22.6313 C7.2926,22.2133 7.2186,21.7483 6.9586,21.3903 C6.6976,21.0333 6.2776,20.8193 5.8346,20.8193 M5.8346,21.5693 C6.2686,21.5693 6.5766,21.9913 6.4436,22.4023 L5.9166,24.0423 C5.7546,24.5433 5.2876,24.8873 4.7606,24.8903 L2.2926,24.9083 L2.5816,21.5913 L5.8306,21.5693 L5.8346,21.5693" id="Fill-13" fill="#202020"></path>
                    <path d="M8.7702,32.8417 C9.2242,34.0857 7.6372,33.7257 6.9052,33.7307 L3.1622,33.7557 C2.3892,33.7617 1.7122,33.2267 1.5372,32.4717 L0.5282,28.1107 C0.3742,27.4457 0.8742,26.8147 1.5552,26.8097 L7.1692,26.7707 C7.9012,26.7657 8.8272,27.1207 8.4302,28.3937 C8.0342,29.6657 8.3382,31.6547 8.7702,32.8417" id="Fill-15" fill="#CFCFD1"></path>
                    <path d="M8.7702,32.8417 C9.2242,34.0857 7.6372,33.7257 6.9052,33.7307 L3.1622,33.7557 C2.3892,33.7617 1.7122,33.2267 1.5372,32.4717 L0.5282,28.1107 C0.3742,27.4457 0.8742,26.8147 1.5552,26.8097 L7.1692,26.7707 C7.9012,26.7657 8.8272,27.1207 8.4302,28.3937 C8.0342,29.6657 8.3382,31.6547 8.7702,32.8417 Z" id="Stroke-17" stroke="#202020" stroke-linecap="round" stroke-linejoin="round"></path>
                    <path d="M8.7702,32.8417 C8.3382,31.6547 8.0342,29.6657 8.4302,28.3937 C8.8272,27.1207 7.9012,26.7657 7.1692,26.7707 L4.7842,26.7867 C5.5162,26.7817 6.4422,27.1377 6.0442,28.4097 C5.6482,29.6827 5.9532,31.6717 6.3852,32.8587 C6.5852,33.4057 6.3892,33.6427 6.0442,33.7367 L6.9052,33.7307 C7.6372,33.7257 9.2242,34.0857 8.7702,32.8417" id="Fill-19" fill-opacity="0.1" fill="#202020"></path>
                    <path d="M77.6842,32.1347 C77.3302,33.1137 78.1802,33.2397 78.9132,33.2347 L82.4982,33.2097 C83.2732,33.2047 83.9422,32.6597 84.1072,31.9037 L85.0552,27.5287 C85.2002,26.8637 84.6922,26.2377 84.0102,26.2417 L78.8652,26.2777 C78.1322,26.2817 77.4442,26.3677 77.8882,27.6487 C78.3742,29.0467 78.0402,31.1527 77.6842,32.1347" id="Fill-21" fill="#CFCFD1"></path>
                    <path d="M77.6842,32.1347 C77.3302,33.1137 78.1802,33.2397 78.9132,33.2347 L82.4982,33.2097 C83.2732,33.2047 83.9422,32.6597 84.1072,31.9037 L85.0552,27.5287 C85.2002,26.8637 84.6922,26.2377 84.0102,26.2417 L78.8652,26.2777 C78.1322,26.2817 77.4442,26.3677 77.8882,27.6487 C78.3742,29.0467 78.0402,31.1527 77.6842,32.1347 Z" id="Stroke-23" stroke="#202020" stroke-linecap="round" stroke-linejoin="round"></path>
                    <path d="M84.0114,26.2685 L81.8824,26.2835 C82.5644,26.2785 83.0724,26.9035 82.9274,27.5695 L81.9794,31.9445 C81.8144,32.7015 81.1454,33.2465 80.3714,33.2505 L82.4994,33.2365 C83.2734,33.2315 83.9424,32.6865 84.1074,31.9295 L85.0554,27.5545 C85.1994,26.8885 84.6934,26.2635 84.0114,26.2685" id="Fill-25" fill-opacity="0.1" fill="#202020"></path>
                    <path d="M29.5011,5.5742 C27.6481,7.8452 27.5241,14.5812 27.5311,16.5932 L27.5321,16.6542 L27.6191,29.2812" id="Stroke-27" stroke="#202020" stroke-linecap="round" stroke-linejoin="round"></path>
                    <path d="M47.9879,27.9218 L47.8149,4.8498 C47.8079,3.7498 46.9099,2.8648 45.8119,2.87274619" id="Stroke-29" stroke="#202020" stroke-linecap="round" stroke-linejoin="round"></path>
                    <path d="M67.3463,20.5097 L67.1733,4.8497 C67.1653,3.7497 66.2693,2.8647 65.1703,2.87264619" id="Stroke-31" stroke="#202020" stroke-linecap="round" stroke-linejoin="round"></path>
                    <path d="M31.6794,7.4765 C32.9284,5.9465 34.8264,5.0135 38.1344,4.9915 L44.3324,4.9485 C44.7424,4.9455 45.0764,5.2745 45.0794,5.6845 L45.1444,15.2235 C45.1474,15.6345 44.8174,15.9665 44.4084,15.9695 L31.0184,16.0625 C30.6094,16.0655 30.2754,15.7345 30.2834,15.3235 C30.3194,13.5075 30.5244,8.8935 31.6794,7.4765" id="Fill-33" fill="#FFFFFF"></path>
                    <path d="M31.6794,7.4765 C32.9284,5.9465 34.8264,5.0135 38.1344,4.9915 L44.3324,4.9485 C44.7424,4.9455 45.0764,5.2745 45.0794,5.6845 L45.1444,15.2235 C45.1474,15.6345 44.8174,15.9665 44.4084,15.9695 L31.0184,16.0625 C30.6094,16.0655 30.2754,15.7345 30.2834,15.3235 C30.3194,13.5075 30.5244,8.8935 31.6794,7.4765 Z" id="Stroke-35" stroke="#202020" stroke-linecap="round" stroke-linejoin="round"></path>
                    <path d="M39.2921,6.2392 L45.0831,6.2002 L45.0801,5.7672 C45.0771,5.3572 44.7421,5.0282 44.3331,5.0312 L38.1351,5.0742 C34.8271,5.0962 32.9281,6.0292 31.6801,7.5592 C30.5251,8.9752 30.3191,13.5902 30.2831,15.4062 C30.2761,15.8172 30.6091,16.1472 31.0191,16.1442 L31.4511,16.1412 C31.5111,14.1142 31.7641,10.0412 32.8371,8.7242 C34.0851,7.1952 35.9841,6.2622 39.2921,6.2392" id="Fill-37" fill-opacity="0.1" fill="#202020"></path>
                    <path d="M26.2633,8.7255 C26.3013,8.6655 26.3913,8.7125 26.3673,8.7795 C25.6783,10.6695 25.4733,13.9425 25.3753,15.4035 C25.3483,15.7995 25.0133,16.1035 24.6163,16.1065 L22.0793,16.1235 C21.7783,16.1255 21.5973,15.7915 21.7633,15.5415 L26.2633,8.7255 Z" id="Stroke-39" stroke="#202020" stroke-linecap="round" stroke-linejoin="round"></path>
                    <path d="M43.2658,2.8964 L39.3748,2.9224" id="Stroke-41" stroke="#202020" stroke-linecap="round" stroke-linejoin="round"></path>
                    <path d="M29.6183,22.5488 L45.8523,22.4318" id="Stroke-43" stroke="#202020" stroke-linecap="round" stroke-linejoin="round"></path>
                    <path d="M50.5417,22.4052 L60.5557,22.3362" id="Stroke-45" stroke="#202020" stroke-linecap="round" stroke-linejoin="round"></path>
                    <path d="M26.2638,8.8085 C26.3018,8.7485 26.3918,8.7955 26.3678,8.8625 C25.6788,10.7525 25.4738,14.0255 25.3758,15.4865 C25.3498,15.8825 25.0138,16.1865 24.6168,16.1885 L22.0798,16.2055 C21.7788,16.2075 21.5978,15.8735 21.7638,15.6235 L26.2638,8.8085 Z" id="Fill-47" fill="#ECECEC"></path>
                    <path d="M26.2638,8.8085 C26.3018,8.7485 26.3918,8.7955 26.3678,8.8625 C25.6788,10.7525 25.4738,14.0255 25.3758,15.4865 C25.3498,15.8825 25.0138,16.1865 24.6168,16.1885 L22.0798,16.2055 C21.7788,16.2075 21.5978,15.8735 21.7638,15.6235 L26.2638,8.8085 Z" id="Stroke-49" stroke="#202020"></path>
                    <g id="Group-54" transform="translate(80.000000, 18.041500)">
                        <path d="M3.0934,6.8559 L1.5974,6.8669 C1.1714,6.8699 0.8234,6.4759 0.8204,5.9879 L0.7584,1.7239 C0.7544,1.2369 1.0974,0.8379 1.5234,0.8349 L3.0194,0.8249" id="Fill-51" fill="#ECECEC"></path>
                        <path d="M3.0934,6.8559 L1.5974,6.8669 C1.1714,6.8699 0.8234,6.4759 0.8204,5.9879 L0.7584,1.7239 C0.7544,1.2369 1.0974,0.8379 1.5234,0.8349 L3.0194,0.8249" id="Stroke-53" stroke="#202020" stroke-width="0.75" stroke-linecap="round" stroke-linejoin="round"></path>
                    </g>
                    <path d="M63.5378,16.0204 L51.5588,16.0204 C51.1448,16.0204 50.8088,15.6844 50.8088,15.2704 L50.8088,5.7404 C50.8088,5.3254 51.1448,4.9904 51.5588,4.9904 L63.5378,4.9904 C63.9518,4.9904 64.2878,5.3254 64.2878,5.7404 L64.2878,15.2704 C64.2878,15.6844 63.9518,16.0204 63.5378,16.0204" id="Fill-55" fill="#FFFFFF"></path>
                    <path d="M63.5378,16.0204 L51.5588,16.0204 C51.1448,16.0204 50.8088,15.6844 50.8088,15.2704 L50.8088,5.7404 C50.8088,5.3254 51.1448,4.9904 51.5588,4.9904 L63.5378,4.9904 C63.9518,4.9904 64.2878,5.3254 64.2878,5.7404 L64.2878,15.2704 C64.2878,15.6844 63.9518,16.0204 63.5378,16.0204 Z" id="Stroke-57" stroke="#202020"></path>
                    <path d="M77.11,16.0204 L70.664,16.0204 C70.25,16.0204 69.914,15.6844 69.914,15.2704 L69.914,5.7404 C69.914,5.3254 70.25,4.9904 70.664,4.9904 L77.11,4.9904 C77.524,4.9904 77.86,5.3254 77.86,5.7404 L77.86,15.2704 C77.86,15.6844 77.524,16.0204 77.11,16.0204" id="Fill-59" fill="#FFFFFF"></path>
                    <path d="M77.11,16.0204 L70.664,16.0204 C70.25,16.0204 69.914,15.6844 69.914,15.2704 L69.914,5.7404 C69.914,5.3254 70.25,4.9904 70.664,4.9904 L77.11,4.9904 C77.524,4.9904 77.86,5.3254 77.86,5.7404 L77.86,15.2704 C77.86,15.6844 77.524,16.0204 77.11,16.0204 Z" id="Stroke-61" stroke="#202020"></path>
                    <g id="Group-66" transform="translate(13.000000, 2.041500)">
                        <path d="M16.5011,0.0522 L0.7001,12.5282" id="Fill-63" fill="#ECECEC"></path>
                        <path d="M16.5011,0.0522 L0.7001,12.5282" id="Stroke-65" stroke="#202020" stroke-linecap="round"></path>
                    </g>
                    <path d="M62.7506,29.4824 C62.7506,25.7224 65.7996,22.6744 69.5606,22.6744 C73.3206,22.6744 76.3696,25.7224 76.3696,29.4824 C76.3696,33.2434 73.3206,36.2924 69.5606,36.2924 C65.7996,36.2924 62.7506,33.2434 62.7506,29.4824" id="Fill-67" fill="#CFCFD1"></path>
                    <path d="M62.7506,29.4824 C62.7506,25.7224 65.7996,22.6744 69.5606,22.6744 C73.3206,22.6744 76.3696,25.7224 76.3696,29.4824 C76.3696,33.2434 73.3206,36.2924 69.5606,36.2924 C65.7996,36.2924 62.7506,33.2434 62.7506,29.4824 Z" id="Stroke-69" stroke="#202020" stroke-width="1.5" stroke-linecap="round" stroke-linejoin="round"></path>
                    <path d="M74.0299,29.4833 C74.0299,31.9513 72.0289,33.9523 69.5599,33.9523 C67.0919,33.9523 65.0909,31.9513 65.0909,29.4833 C65.0909,27.0143 67.0919,25.0133 69.5599,25.0133 C72.0289,25.0133 74.0299,27.0143 74.0299,29.4833" id="Fill-71" fill="#CFCFD1"></path>
                    <path d="M74.0299,29.4833 C74.0299,31.9513 72.0289,33.9523 69.5599,33.9523 C67.0919,33.9523 65.0909,31.9513 65.0909,29.4833 C65.0909,27.0143 67.0919,25.0133 69.5599,25.0133 C72.0289,25.0133 74.0299,27.0143 74.0299,29.4833 Z" id="Stroke-73" stroke="#202020" stroke-width="0.75" stroke-linecap="round" stroke-linejoin="round"></path>
                    <path d="M71.8034,29.4833 C71.8034,30.7213 70.7994,31.7263 69.5604,31.7263 C68.3214,31.7263 67.3174,30.7213 67.3174,29.4833 C67.3174,28.2443 68.3214,27.2393 69.5604,27.2393 C70.7994,27.2393 71.8034,28.2443 71.8034,29.4833" id="Fill-75" fill="#202020"></path>
                    <path d="M69.5836,25.9628 C72.8786,25.9888 75.6236,28.2598 76.3976,31.3108 C76.5546,30.7338 76.6476,30.1328 76.6526,29.5078 C76.6846,25.5858 73.5326,22.3838 69.6126,22.3528 C65.6936,22.3208 62.4896,25.4728 62.4586,29.3938 C62.4536,30.0188 62.5376,30.6218 62.6856,31.1998 C63.5086,28.1618 66.2896,25.9368 69.5836,25.9628" id="Fill-77" fill-opacity="0.1" fill="#202020"></path>
                    <path d="M9.8654,29.4824 C9.8654,25.7224 12.9134,22.6744 16.6744,22.6744 C20.4354,22.6744 23.4844,25.7224 23.4844,29.4824 C23.4844,33.2434 20.4354,36.2924 16.6744,36.2924 C12.9134,36.2924 9.8654,33.2434 9.8654,29.4824" id="Fill-79" fill="#CFCFD1"></path>
                    <path d="M9.8654,29.4824 C9.8654,25.7224 12.9134,22.6744 16.6744,22.6744 C20.4354,22.6744 23.4844,25.7224 23.4844,29.4824 C23.4844,33.2434 20.4354,36.2924 16.6744,36.2924 C12.9134,36.2924 9.8654,33.2434 9.8654,29.4824 Z" id="Stroke-81" stroke="#202020" stroke-width="1.5" stroke-linecap="round" stroke-linejoin="round"></path>
                    <path d="M21.1442,29.4833 C21.1442,31.9513 19.1432,33.9523 16.6752,33.9523 C14.2062,33.9523 12.2052,31.9513 12.2052,29.4833 C12.2052,27.0143 14.2062,25.0133 16.6752,25.0133 C19.1432,25.0133 21.1442,27.0143 21.1442,29.4833" id="Fill-83" fill="#CFCFD1"></path>
                    <path d="M21.1442,29.4833 C21.1442,31.9513 19.1432,33.9523 16.6752,33.9523 C14.2062,33.9523 12.2052,31.9513 12.2052,29.4833 C12.2052,27.0143 14.2062,25.0133 16.6752,25.0133 C19.1432,25.0133 21.1442,27.0143 21.1442,29.4833 Z" id="Stroke-85" stroke="#202020" stroke-width="0.75" stroke-linecap="round" stroke-linejoin="round"></path>
                    <path d="M18.9181,29.4833 C18.9181,30.7213 17.9141,31.7263 16.6751,31.7263 C15.4361,31.7263 14.4311,30.7213 14.4311,29.4833 C14.4311,28.2443 15.4361,27.2393 16.6751,27.2393 C17.9141,27.2393 18.9181,28.2443 18.9181,29.4833" id="Fill-87" fill="#202020"></path>
                    <path d="M16.6984,25.9628 C19.9934,25.9888 22.7384,28.2598 23.5124,31.3108 C23.6684,30.7338 23.7624,30.1328 23.7674,29.5078 C23.7994,25.5858 20.6474,22.3838 16.7274,22.3528 C12.8084,22.3208 9.6054,25.4728 9.5734,29.3938 C9.5684,30.0188 9.6524,30.6218 9.7994,31.1998 C10.6234,28.1618 13.4044,25.9368 16.6984,25.9628" id="Fill-89" fill-opacity="0.1" fill="#202020"></path>
                </g>
            </g>
        </g>
    </g>
</svg>