<?xml version="1.0" encoding="UTF-8"?>
<svg width="94px" height="36px" viewBox="0 0 81 38" version="1.1" xmlns="http://www.w3.org/2000/svg" xmlns:xlink="http://www.w3.org/1999/xlink">
    <!-- Generator: sketchtool 52.3 (67297) - http://www.bohemiancoding.com/sketch -->
    <title>3C0D47C1-5EE4-4738-9599-308AEA77D241@1x</title>
    <desc>Created with sketchtool.</desc>
    <g id="Page-1" stroke="none" stroke-width="1" fill="none" fill-rule="evenodd">
        <g id="Car-Model-Icons---Greyscale" transform="translate(-145.000000, -108.000000)">
            <g id="Group-93" transform="translate(145.000000, 107.000000)">
                <polygon id="Fill-1" fill="#A5CECA" points="32.604 6.9418 31.023 6.3628 21.33 15.5288 22.752 16.2668 24.438 15.3188"></polygon>
                <g id="Group-92" transform="translate(0.000000, 0.613400)">
                    <path d="M3.7305,18.0564 L20.9635,15.6374 C21.1935,15.6054 21.4055,15.4934 21.5625,15.3224 L31.5315,4.4274 C31.7205,4.2204 31.9885,4.1014 32.2695,4.1014 L72.5245,4.1014 C72.9205,4.1014 73.2775,4.3344 73.4385,4.6954 L78.5715,16.2414 C78.5715,16.2414 79.0225,16.6394 79.0225,17.1594 L79.0225,25.0324 L79.5815,25.0324 C79.8935,25.0324 80.1845,25.3324 80.1845,25.5934 C80.1845,25.8064 77.8585,28.4314 77.0225,29.3684 C76.8335,29.5804 76.5655,29.6974 76.2805,29.6974 L2.9465,29.6974 C2.4445,29.6974 2.0205,29.3254 1.9545,28.8274 L1.6785,26.7224 C1.6675,26.6324 1.6675,26.5434 1.6795,26.4534 C1.8205,25.4634 2.7065,19.2674 2.8885,18.7944 C3.0865,18.2814 3.7305,18.0564 3.7305,18.0564" id="Fill-2" fill="#ECECEC"></path>
                    <path d="M3.7305,18.0564 L20.9635,15.6374 C21.1935,15.6054 21.4055,15.4934 21.5625,15.3224 L31.5315,4.4274 C31.7205,4.2204 31.9885,4.1014 32.2695,4.1014 L72.5245,4.1014 C72.9205,4.1014 73.2775,4.3344 73.4385,4.6954 L78.5715,16.2414 C78.5715,16.2414 79.0225,16.6394 79.0225,17.1594 L79.0225,25.0324 L79.5815,25.0324 C79.8935,25.0324 80.1845,25.3324 80.1845,25.5934 C80.1845,25.8064 77.8585,28.4314 77.0225,29.3684 C76.8335,29.5804 76.5655,29.6974 76.2805,29.6974 L2.9465,29.6974 C2.4445,29.6974 2.0205,29.3254 1.9545,28.8274 L1.6785,26.7224 C1.6675,26.6324 1.6675,26.5434 1.6795,26.4534 C1.8205,25.4634 2.7065,19.2674 2.8885,18.7944 C3.0865,18.2814 3.7305,18.0564 3.7305,18.0564 Z" id="Stroke-4" stroke="#202020" stroke-linecap="round" stroke-linejoin="round"></path>
                    <polygon id="Fill-6" fill="#E5E53C" points="57.1929 28.2444 24.7549 28.2444 19.2759 29.6274 58.9059 29.6274"></polygon>
                    <polygon id="Fill-8" fill="#FFFFFF" points="25.4917 16.407 7.7577 18.478 25.3337 17.287 75.7937 17.461 76.5797 14.458 75.2267 16.262"></polygon>
                    <polygon id="Fill-10" fill="#CFCFD1" points="10.9478 30.4841 78.7068 30.4841 80.4998 28.9351 80.4998 25.1101 10.6328 25.1101"></polygon>
                    <polygon id="Stroke-12" stroke="#202020" stroke-linecap="round" stroke-linejoin="round" points="10.9478 30.4841 78.7068 30.4841 80.4998 28.9351 80.4998 25.1101 10.6328 25.1101"></polygon>
                    <g id="Group-17" transform="translate(0.000000, 25.000000)">
                        <polyline id="Fill-14" fill="#CFCFD1" points="19.4873 0.1106 0.5003 0.1106 0.5003 2.7976 2.7413 5.4846 19.0643 5.4846"></polyline>
                        <polyline id="Stroke-16" stroke="#202020" stroke-linecap="round" stroke-linejoin="round" points="19.4873 0.1106 0.5003 0.1106 0.5003 2.7976 2.7413 5.4846 19.0643 5.4846"></polyline>
                    </g>
                    <path d="M58.9243,18.4407 C58.9243,18.5437 59.0093,18.6277 59.1113,18.6277 L62.4913,18.6277 C62.5943,18.6277 62.6793,18.5437 62.6793,18.4407 L62.6793,17.7137 C62.6793,17.6097 62.5943,17.5257 62.4913,17.5257 L59.1113,17.5257 C59.0093,17.5257 58.9243,17.6097 58.9243,17.7137 L58.9243,18.4407 Z" id="Fill-18" fill="#FFFFFF"></path>
                    <path d="M58.9243,18.4407 C58.9243,18.5437 59.0093,18.6277 59.1113,18.6277 L62.4913,18.6277 C62.5943,18.6277 62.6793,18.5437 62.6793,18.4407 L62.6793,17.7137 C62.6793,17.6097 62.5943,17.5257 62.4913,17.5257 L59.1113,17.5257 C59.0093,17.5257 58.9243,17.6097 58.9243,17.7137 L58.9243,18.4407 Z" id="Stroke-20" stroke="#202020" stroke-width="0.75" stroke-linecap="round" stroke-linejoin="round"></path>
                    <path d="M40.9468,18.4407 C40.9468,18.5437 41.0308,18.6277 41.1348,18.6277 L44.5138,18.6277 C44.6168,18.6277 44.7018,18.5437 44.7018,18.4407 L44.7018,17.7137 C44.7018,17.6097 44.6168,17.5257 44.5138,17.5257 L41.1348,17.5257 C41.0308,17.5257 40.9468,17.6097 40.9468,17.7137 L40.9468,18.4407 Z" id="Fill-22" fill="#FFFFFF"></path>
                    <path d="M40.9468,18.4407 C40.9468,18.5437 41.0308,18.6277 41.1348,18.6277 L44.5138,18.6277 C44.6168,18.6277 44.7018,18.5437 44.7018,18.4407 L44.7018,17.7137 C44.7018,17.6097 44.6168,17.5257 44.5138,17.5257 L41.1348,17.5257 C41.0308,17.5257 40.9468,17.6097 40.9468,17.7137 L40.9468,18.4407 Z" id="Stroke-24" stroke="#202020" stroke-width="0.75" stroke-linecap="round" stroke-linejoin="round"></path>
                    <path d="M44.563,14.7878 C44.559,15.2228 44.204,15.5728 43.769,15.5688 L25.717,15.4128 C25.432,15.4098 25.293,15.0608 25.5,14.8628 L34.105,6.7898 C34.313,6.5918 34.595,6.4798 34.883,6.4828 L43.842,6.5658 C44.277,6.5698 44.626,6.9258 44.624,7.3608 L44.563,14.7878 Z" id="Fill-26" fill="#FFFFFF"></path>
                    <path d="M44.563,14.7878 C44.559,15.2228 44.204,15.5728 43.769,15.5688 L25.717,15.4128 C25.432,15.4098 25.293,15.0608 25.5,14.8628 L34.105,6.7898 C34.313,6.5918 34.595,6.4798 34.883,6.4828 L43.842,6.5658 C44.277,6.5698 44.626,6.9258 44.624,7.3608 L44.563,14.7878 Z" id="Stroke-28" stroke="#202020" stroke-width="0.75" stroke-linecap="round" stroke-linejoin="round"></path>
                    <g id="Group-33" transform="translate(35.000000, 3.000000)">
                        <path d="M0.3706,0.633 L34.2456,0.633" id="Fill-30" fill="#ECECEC"></path>
                        <path d="M0.3706,0.633 L34.2456,0.633" id="Stroke-32" stroke="#202020" stroke-linecap="round" stroke-linejoin="round"></path>
                    </g>
                    <polygon id="Fill-34" fill="#CFCFD1" points="65.1206 3.2946 63.5076 2.0276 62.9376 0.7616 62.2676 0.7616 61.3906 0.7616 60.6636 0.7616 60.1496 2.0276 58.5896 3.2946"></polygon>
                    <polygon id="Stroke-36" stroke="#202020" stroke-width="0.75" stroke-linecap="round" stroke-linejoin="round" points="65.1206 3.2946 63.5076 2.0276 62.9376 0.7616 62.2676 0.7616 61.3906 0.7616 60.6636 0.7616 60.1496 2.0276 58.5896 3.2946"></polygon>
                    <polygon id="Fill-38" fill="#CFCFD1" points="50.2759 3.2946 48.6629 2.0276 48.0919 0.7616 47.4219 0.7616 46.5449 0.7616 45.8179 0.7616 45.3049 2.0276 43.7439 3.2946"></polygon>
                    <polygon id="Stroke-40" stroke="#202020" stroke-width="0.75" stroke-linecap="round" stroke-linejoin="round" points="50.2759 3.2946 48.6629 2.0276 48.0919 0.7616 47.4219 0.7616 46.5449 0.7616 45.8179 0.7616 45.3049 2.0276 43.7439 3.2946"></polygon>
                    <polygon id="Fill-42" fill="#FFFFFF" points="64.898 6.6653 71.185 6.6653 74.994 15.6533 67.087 15.6533"></polygon>
                    <polygon id="Stroke-44" stroke="#202020" stroke-width="0.75" stroke-linecap="round" stroke-linejoin="round" points="64.898 6.6653 71.185 6.6653 74.994 15.6533 67.087 15.6533"></polygon>
                    <polygon id="Fill-46" fill="#FFFFFF" points="48.2583 6.6653 60.8773 6.6653 62.0663 15.6033 48.7923 15.6033"></polygon>
                    <polygon id="Stroke-48" stroke="#202020" stroke-width="0.75" stroke-linecap="round" stroke-linejoin="round" points="48.2583 6.6653 60.8773 6.6653 62.0663 15.6033 48.7923 15.6033"></polygon>
                    <g id="Group-53" transform="translate(46.000000, 4.000000)">
                        <path d="M0.5386,26.5173 L0.5386,0.1013" id="Fill-50" fill="#FFFFFF"></path>
                        <path d="M0.5386,26.5173 L0.5386,0.1013" id="Stroke-52" stroke="#202020" stroke-width="0.75" stroke-linecap="round" stroke-linejoin="round"></path>
                    </g>
                    <g id="Group-57" transform="translate(24.000000, 15.000000)">
                        <path d="M1.3511,9.4778 L1.3511,0.2548" id="Fill-54" fill="#FFFFFF"></path>
                        <path d="M1.3511,9.4778 L1.3511,0.2548" id="Stroke-56" stroke="#202020" stroke-width="0.75" stroke-linecap="round" stroke-linejoin="round"></path>
                    </g>
                    <path d="M62.6792,4.1018 L65.2682,18.1188 C65.3052,18.3158 65.3152,18.5168 65.2982,18.7168 L64.3972,29.6978" id="Stroke-58" stroke="#202020" stroke-width="0.75" stroke-linecap="round" stroke-linejoin="round"></path>
                    <path d="M21.6729,19.675 L22.8419,19.675 C23.0739,19.675 23.2639,19.485 23.2639,19.253 L23.2639,18.79 C23.2639,18.558 23.0739,18.367 22.8419,18.367 L21.6729,18.367 C21.4399,18.367 21.2509,18.558 21.2509,18.79 L21.2509,19.253 C21.2509,19.485 21.4399,19.675 21.6729,19.675" id="Fill-60" fill="#FFFFFF"></path>
                    <path d="M21.6729,19.675 L22.8419,19.675 C23.0739,19.675 23.2639,19.485 23.2639,19.253 L23.2639,18.79 C23.2639,18.558 23.0739,18.367 22.8419,18.367 L21.6729,18.367 C21.4399,18.367 21.2509,18.558 21.2509,18.79 L21.2509,19.253 C21.2509,19.485 21.4399,19.675 21.6729,19.675 Z" id="Stroke-62" stroke="#202020" stroke-width="0.75" stroke-linecap="round" stroke-linejoin="round"></path>
                    <path d="M60.0718,30.7722 C60.0718,27.0582 63.0838,24.0462 66.7998,24.0462 C70.5148,24.0462 73.5278,27.0582 73.5278,30.7722 C73.5278,34.4882 70.5148,37.5002 66.7998,37.5002 C63.0838,37.5002 60.0718,34.4882 60.0718,30.7722" id="Fill-64" fill="#A2A3AA"></path>
                    <path d="M60.0718,30.7722 C60.0718,27.0582 63.0838,24.0462 66.7998,24.0462 C70.5148,24.0462 73.5278,27.0582 73.5278,30.7722 C73.5278,34.4882 70.5148,37.5002 66.7998,37.5002 C63.0838,37.5002 60.0718,34.4882 60.0718,30.7722 Z" id="Stroke-66" stroke="#202020" stroke-linecap="round" stroke-linejoin="round"></path>
                    <path d="M71.2153,30.7732 C71.2153,33.2122 69.2383,35.1892 66.7993,35.1892 C64.3613,35.1892 62.3833,33.2122 62.3833,30.7732 C62.3833,28.3342 64.3613,26.3572 66.7993,26.3572 C69.2383,26.3572 71.2153,28.3342 71.2153,30.7732" id="Fill-68" fill="#CFCFD1"></path>
                    <path d="M71.2153,30.7732 C71.2153,33.2122 69.2383,35.1892 66.7993,35.1892 C64.3613,35.1892 62.3833,33.2122 62.3833,30.7732 C62.3833,28.3342 64.3613,26.3572 66.7993,26.3572 C69.2383,26.3572 71.2153,28.3342 71.2153,30.7732 Z" id="Stroke-70" stroke="#202020" stroke-width="0.75" stroke-linecap="round" stroke-linejoin="round"></path>
                    <path d="M69.0161,30.7732 C69.0161,31.9972 68.0241,32.9892 66.7991,32.9892 C65.5761,32.9892 64.5821,31.9972 64.5821,30.7732 C64.5821,29.5482 65.5761,28.5562 66.7991,28.5562 C68.0241,28.5562 69.0161,29.5482 69.0161,30.7732" id="Fill-72" fill="#202020"></path>
                    <path d="M66.8228,27.2952 C70.0788,27.3212 72.7908,29.5652 73.5558,32.5782 C73.7098,32.0092 73.8018,31.4152 73.8078,30.7972 C73.8388,26.9232 70.7238,23.7592 66.8518,23.7282 C62.9798,23.6972 59.8148,26.8102 59.7838,30.6852 C59.7788,31.3022 59.8618,31.8982 60.0068,32.4692 C60.8208,29.4682 63.5688,27.2692 66.8228,27.2952" id="Fill-74" fill-opacity="0.1" fill="#202020"></path>
                    <path d="M9.1885,30.7722 C9.1885,27.0582 12.2005,24.0462 15.9165,24.0462 C19.6315,24.0462 22.6445,27.0582 22.6445,30.7722 C22.6445,34.4882 19.6315,37.5002 15.9165,37.5002 C12.2005,37.5002 9.1885,34.4882 9.1885,30.7722" id="Fill-76" fill="#A2A3AA"></path>
                    <path d="M9.1885,30.7722 C9.1885,27.0582 12.2005,24.0462 15.9165,24.0462 C19.6315,24.0462 22.6445,27.0582 22.6445,30.7722 C22.6445,34.4882 19.6315,37.5002 15.9165,37.5002 C12.2005,37.5002 9.1885,34.4882 9.1885,30.7722 Z" id="Stroke-78" stroke="#202020" stroke-linecap="round" stroke-linejoin="round"></path>
                    <path d="M20.3325,30.7732 C20.3325,33.2122 18.3545,35.1892 15.9165,35.1892 C13.4775,35.1892 11.5005,33.2122 11.5005,30.7732 C11.5005,28.3342 13.4775,26.3572 15.9165,26.3572 C18.3545,26.3572 20.3325,28.3342 20.3325,30.7732" id="Fill-80" fill="#CFCFD1"></path>
                    <path d="M20.3325,30.7732 C20.3325,33.2122 18.3545,35.1892 15.9165,35.1892 C13.4775,35.1892 11.5005,33.2122 11.5005,30.7732 C11.5005,28.3342 13.4775,26.3572 15.9165,26.3572 C18.3545,26.3572 20.3325,28.3342 20.3325,30.7732 Z" id="Stroke-82" stroke="#202020" stroke-width="0.75" stroke-linecap="round" stroke-linejoin="round"></path>
                    <path d="M18.1328,30.7732 C18.1328,31.9972 17.1408,32.9892 15.9168,32.9892 C14.6918,32.9892 13.6998,31.9972 13.6998,30.7732 C13.6998,29.5482 14.6918,28.5562 15.9168,28.5562 C17.1408,28.5562 18.1328,29.5482 18.1328,30.7732" id="Fill-84" fill="#202020"></path>
                    <path d="M15.94,27.2952 C19.195,27.3212 21.907,29.5652 22.672,32.5782 C22.827,32.0092 22.919,31.4152 22.924,30.7972 C22.956,26.9232 19.841,23.7592 15.968,23.7282 C12.097,23.6972 8.931,26.8102 8.9,30.6852 C8.895,31.3022 8.979,31.8982 9.124,32.4692 C9.938,29.4682 12.685,27.2692 15.94,27.2952" id="Fill-86" fill-opacity="0.1" fill="#202020"></path>
                    <path d="M78.6314,16.1286 L77.2724,16.1286 C76.4424,16.1286 75.9594,16.7306 75.8624,17.2896 L75.2334,19.9736 C75.1634,20.1766 75.0504,20.6606 75.3474,21.1116 C75.5224,21.3776 75.8874,21.6936 76.6374,21.6936 L78.6314,21.6936 C79.0454,21.6936 79.3814,21.3576 79.3814,20.9436 L79.3814,16.8786 C79.3814,16.4636 79.0454,16.1286 78.6314,16.1286 M78.6314,16.8786 L78.6314,20.9436 L76.6374,20.9436 C75.6284,20.9436 75.9524,20.1906 75.9524,20.1906 L76.6014,17.4176 C76.6014,17.4176 76.6944,16.8786 77.2724,16.8786 L78.6314,16.8786" id="Fill-88" fill="#202020"></path>
                    <path d="M2.461,23.2903 L3.646,23.2903 C4.161,23.2903 4.592,22.8983 4.641,22.3853 L4.878,19.8923 C4.932,19.3263 4.502,18.8283 3.934,18.7993 L3.148,18.7593" id="Stroke-90" stroke="#202020" stroke-width="0.75" stroke-linecap="round" stroke-linejoin="round"></path>
                </g>
            </g>
        </g>
    </g>
</svg>