<?xml version="1.0" encoding="UTF-8"?>
<svg width="112px" height="112px" viewBox="0 0 112 112" version="1.1" xmlns="http://www.w3.org/2000/svg" xmlns:xlink="http://www.w3.org/1999/xlink">
    <!-- Generator: sketchtool 51.3 (57544) - http://www.bohemiancoding.com/sketch -->
    <title>D2464C16-3AB8-4BDF-AA6B-3B22E04DB0C8@1x</title>
    <desc>Created with sketchtool.</desc>
    <defs></defs>
    <g id="Page-1" stroke="none" stroke-width="1" fill="none" fill-rule="evenodd">
        <g id="Body-Type" transform="translate(-24.000000, -224.000000)">
            <g id="Box---Body-Type" transform="translate(24.000000, 224.000000)">
                <rect id="Rectangle" stroke="#D8D8D8" stroke-width="0.8" fill="#FFFFFF" x="0.4" y="0.4" width="111.2" height="111.2"></rect>
                <g id="Box-Text" transform="translate(2.400000, 78.400000)" stroke-width="1">
                    <g id="TEXT">
                        <rect id="white-bg" fill="#FFFFFF" x="0" y="0" width="107" height="16.8"></rect>
                        <text font-family="Roboto-Regular, Roboto" font-size="14.4" font-weight="normal" fill="#989898">
                            <tspan x="56" y="13" text-anchor="middle">SUV</tspan>
                        </text>
                        <g id="color-/-grey" style="mix-blend-mode: overlay;" fill="#1294EF">
                            <rect id="color" x="0" y="0" width="107.128144" height="17.2"></rect>
                        </g>
                    </g>
                </g>
                <g id="SUV-icon" transform="translate(25.600000, 38.400000)" stroke-width="1">
                    <g id="Group">
                        <rect id="white-bg" fill="#FFFFFF" x="0" y="0" width="60.8" height="25.6"></rect>
                        <path d="M32.16,11.92 L33.52,11.92 M44.56,11.92 L46,11.92 M54.64,19.2 L56.16,19.2 C57.68,19.04 58.88,17.76 58.88,16.24 L58.88,10.4 C58.88,9.92 58.8,9.36 58.56,8.96 C57.36,6.56 55.76,4.32 54,2.32 C53.28,1.52 52.24,0.96 51.12,0.96 L28.16,0.96 C27.12,0.96 26.16,1.36 25.36,2.08 L20.16,7.04 C19.44,7.76 18.4,8.24 17.36,8.32 C14.88,8.48 9.2,8.8 6.32,9.12 C4.64,9.28 3.36,10.72 3.36,12.48 L3.36,14.64 L1.92,14.64 L1.92,16.4 C1.92,17.68 2.8,18.72 4.08,18.96 L8.08,19.36 M42.72,20.64 L20.32,20.64" id="Shape" stroke="#000000" stroke-width="1.44" stroke-linecap="round" stroke-linejoin="round"></path>
                        <path d="M8.08,19.36 C8.08,19.52 8,19.76 8,19.92 C8,22.32 10,24.32 12.4,24.32 C14.8,24.32 16.8,22.4 16.8,20 C16.8,17.6 14.8,15.6 12.4,15.6 C10.16,15.6 8.32,17.28 8.08,19.36 M42.72,20.64 C43.04,22.8 44.88,24.4 47.04,24.4 C49.44,24.4 51.44,22.4 51.44,20 C51.44,17.6 49.44,15.6 47.04,15.6 C44.64,15.6 42.64,17.6 42.64,20 C42.72,20.16 42.72,20.4 42.72,20.64 M24.72,8.96 L58.24,8.96 M35.36,3.28 L35.36,8.8 M47.76,3.28 L47.76,8.8 M6.48,12.08 C6.48,12.08 6.64,14.64 4.56,14.64 L3.44,14.64 M58.24,12.64 C57.12,12.4 56.24,11.68 55.76,10.64 L55.6,9.36" id="Shape" stroke="#000000" stroke-width="1.44" stroke-linecap="round" stroke-linejoin="round"></path>
                        <g id="color-/-grey" style="mix-blend-mode: screen;" fill="#1294EF">
                            <rect id="color" x="0" y="0" width="61.0730539" height="26.3058824"></rect>
                        </g>
                    </g>
                </g>
            </g>
        </g>
    </g>
</svg>