<?xml version="1.0" encoding="UTF-8"?>
<svg width="94px" height="36px" viewBox="0 0 82 38" version="1.1" xmlns="http://www.w3.org/2000/svg" xmlns:xlink="http://www.w3.org/1999/xlink">
    <!-- Generator: sketchtool 52.3 (67297) - http://www.bohemiancoding.com/sketch -->
    <title>15D94112-DB62-45CE-9774-F7247D96636F@1x</title>
    <desc>Created with sketchtool.</desc>
    <g id="Page-1" stroke="none" stroke-width="1" fill="none" fill-rule="evenodd">
        <g id="Car-Model-Icons" transform="translate(-145.000000, -107.000000)">
            <g id="SUV" transform="translate(145.000000, 107.000000)">
                <path d="M3.7304,17.6698 L20.9634,15.2508 C21.1934,15.2188 21.4054,15.1068 21.5624,14.9358 L31.5314,4.0408 C31.7204,3.8338 31.9884,3.7148 32.2694,3.7148 L72.5244,3.7148 C72.9194,3.7148 73.2784,3.9478 73.4384,4.3088 L78.5724,15.8548 C78.5724,15.8548 79.0234,16.2528 79.0234,16.7728 L79.0234,24.6458 L79.5814,24.6458 C79.8934,24.6458 80.1834,24.9458 80.1834,25.2068 C80.1834,25.4198 77.8584,28.0448 77.0224,28.9818 C76.8334,29.1938 76.5654,29.3108 76.2814,29.3108 L2.9464,29.3108 C2.4444,29.3108 2.0194,28.9388 1.9554,28.4408 L1.6784,26.3358 C1.6674,26.2458 1.6674,26.1568 1.6794,26.0668 C1.8204,25.0768 2.7064,18.8808 2.8874,18.4078 C3.0864,17.8948 3.7304,17.6698 3.7304,17.6698" id="Fill-2" fill="#E9F5FD"></path>
                <path d="M3.7304,17.6698 L20.9634,15.2508 C21.1934,15.2188 21.4054,15.1068 21.5624,14.9358 L31.5314,4.0408 C31.7204,3.8338 31.9884,3.7148 32.2694,3.7148 L72.5244,3.7148 C72.9194,3.7148 73.2784,3.9478 73.4384,4.3088 L78.5724,15.8548 C78.5724,15.8548 79.0234,16.2528 79.0234,16.7728 L79.0234,24.6458 L79.5814,24.6458 C79.8934,24.6458 80.1834,24.9458 80.1834,25.2068 C80.1834,25.4198 77.8584,28.0448 77.0224,28.9818 C76.8334,29.1938 76.5654,29.3108 76.2814,29.3108 L2.9464,29.3108 C2.4444,29.3108 2.0194,28.9388 1.9554,28.4408 L1.6784,26.3358 C1.6674,26.2458 1.6674,26.1568 1.6794,26.0668 C1.8204,25.0768 2.7064,18.8808 2.8874,18.4078 C3.0864,17.8948 3.7304,17.6698 3.7304,17.6698 Z" id="Stroke-4" stroke="#489DEA" stroke-linecap="round" stroke-linejoin="round"></path>
                <polygon id="Fill-6" fill="#E5E53C" points="57.1933 27.8578 24.7543 27.8578 19.2753 29.2408 58.9053 29.2408"></polygon>
                <polygon id="Fill-10" fill="#C1E2F8" points="10.9482 30.0975 78.7062 30.0975 80.5002 28.5485 80.5002 24.7235 10.6332 24.7235"></polygon>
                <polygon id="Stroke-12" stroke="#489DEA" stroke-linecap="round" stroke-linejoin="round" points="10.9482 30.0975 78.7062 30.0975 80.5002 28.5485 80.5002 24.7235 10.6332 24.7235"></polygon>
                <polyline id="Fill-14" fill="#C1E2F8" points="19.4872 24.724 0.5002 24.724 0.5002 27.411 2.7412 30.098 19.0632 30.098"></polyline>
                <polyline id="Stroke-16" stroke="#489DEA" stroke-linecap="round" stroke-linejoin="round" points="19.4872 24.724 0.5002 24.724 0.5002 27.411 2.7412 30.098 19.0632 30.098"></polyline>
                <path d="M46.539,30.1307 L46.539,3.7147" id="Fill-50" fill="#FFFFFF"></path>
                <path d="M46.539,30.1307 L46.539,3.7147" id="Stroke-52" stroke="#489DEA" stroke-width="0.75" stroke-linecap="round" stroke-linejoin="round"></path>
                <path d="M25.3505,24.0912 L25.3505,14.8682" id="Fill-54" fill="#FFFFFF"></path>
                <path d="M25.3505,24.0912 L25.3505,14.8682" id="Stroke-56" stroke="#489DEA" stroke-width="0.75" stroke-linecap="round" stroke-linejoin="round"></path>
                <path d="M62.6786,3.7152 L65.2686,17.7322 C65.3046,17.9292 65.3156,18.1302 65.2986,18.3302 L64.3966,29.3112" id="Stroke-58" stroke="#489DEA" stroke-width="0.75" stroke-linecap="round" stroke-linejoin="round"></path>
                <path d="M60.0722,30.3856 C60.0722,26.6716 63.0842,23.6596 66.8002,23.6596 C70.5142,23.6596 73.5272,26.6716 73.5272,30.3856 C73.5272,34.1016 70.5142,37.1136 66.8002,37.1136 C63.0842,37.1136 60.0722,34.1016 60.0722,30.3856" id="Fill-64" fill="#489DEA"></path>
                <path d="M60.0722,30.3856 C60.0722,26.6716 63.0842,23.6596 66.8002,23.6596 C70.5142,23.6596 73.5272,26.6716 73.5272,30.3856 C73.5272,34.1016 70.5142,37.1136 66.8002,37.1136 C63.0842,37.1136 60.0722,34.1016 60.0722,30.3856 Z" id="Stroke-66" stroke="#489DEA" stroke-linecap="round" stroke-linejoin="round"></path>
                <path d="M71.2158,30.3866 C71.2158,32.8256 69.2378,34.8026 66.7998,34.8026 C64.3608,34.8026 62.3838,32.8256 62.3838,30.3866 C62.3838,27.9476 64.3608,25.9706 66.7998,25.9706 C69.2378,25.9706 71.2158,27.9476 71.2158,30.3866" id="Fill-68" fill="#B5D7EA"></path>
                <path d="M71.2158,30.3866 C71.2158,32.8256 69.2378,34.8026 66.7998,34.8026 C64.3608,34.8026 62.3838,32.8256 62.3838,30.3866 C62.3838,27.9476 64.3608,25.9706 66.7998,25.9706 C69.2378,25.9706 71.2158,27.9476 71.2158,30.3866 Z" id="Stroke-70" stroke="#489DEA" stroke-width="0.75" stroke-linecap="round" stroke-linejoin="round"></path>
                <path d="M69.0165,30.3866 C69.0165,31.6106 68.0235,32.6026 66.7995,32.6026 C65.5755,32.6026 64.5825,31.6106 64.5825,30.3866 C64.5825,29.1616 65.5755,28.1696 66.7995,28.1696 C68.0235,28.1696 69.0165,29.1616 69.0165,30.3866" id="Fill-72" fill="#489DEA"></path>
                <path d="M66.8232,26.9086 C70.0782,26.9346 72.7902,29.1786 73.5552,32.1916 C73.7102,31.6226 73.8022,31.0286 73.8072,30.4106 C73.8392,26.5366 70.7242,23.3726 66.8512,23.3416 C62.9802,23.3106 59.8142,26.4236 59.7832,30.2986 C59.7782,30.9156 59.8612,31.5116 60.0072,32.0826 C60.8202,29.0816 63.5682,26.8826 66.8232,26.9086" id="Fill-74" fill-opacity="0.3" fill="#489DEA"></path>
                <path d="M9.1884,30.3856 C9.1884,26.6716 12.2004,23.6596 15.9164,23.6596 C19.6314,23.6596 22.6444,26.6716 22.6444,30.3856 C22.6444,34.1016 19.6314,37.1136 15.9164,37.1136 C12.2004,37.1136 9.1884,34.1016 9.1884,30.3856" id="Fill-76" fill="#489DEA"></path>
                <path d="M9.1884,30.3856 C9.1884,26.6716 12.2004,23.6596 15.9164,23.6596 C19.6314,23.6596 22.6444,26.6716 22.6444,30.3856 C22.6444,34.1016 19.6314,37.1136 15.9164,37.1136 C12.2004,37.1136 9.1884,34.1016 9.1884,30.3856 Z" id="Stroke-78" stroke="#489DEA" stroke-linecap="round" stroke-linejoin="round"></path>
                <path d="M20.332,30.3866 C20.332,32.8256 18.355,34.8026 15.916,34.8026 C13.478,34.8026 11.5,32.8256 11.5,30.3866 C11.5,27.9476 13.478,25.9706 15.916,25.9706 C18.355,25.9706 20.332,27.9476 20.332,30.3866" id="Fill-80" fill="#B5D7EA"></path>
                <path d="M20.332,30.3866 C20.332,32.8256 18.355,34.8026 15.916,34.8026 C13.478,34.8026 11.5,32.8256 11.5,30.3866 C11.5,27.9476 13.478,25.9706 15.916,25.9706 C18.355,25.9706 20.332,27.9476 20.332,30.3866 Z" id="Stroke-82" stroke="#489DEA" stroke-width="0.75" stroke-linecap="round" stroke-linejoin="round"></path>
                <path d="M18.1328,30.3866 C18.1328,31.6106 17.1408,32.6026 15.9158,32.6026 C14.6928,32.6026 13.6988,31.6106 13.6988,30.3866 C13.6988,29.1616 14.6928,28.1696 15.9158,28.1696 C17.1408,28.1696 18.1328,29.1616 18.1328,30.3866" id="Fill-84" fill="#489DEA"></path>
                <path d="M15.9394,26.9086 C19.1954,26.9346 21.9074,29.1786 22.6724,32.1916 C22.8274,31.6226 22.9194,31.0286 22.9244,30.4106 C22.9554,26.5366 19.8414,23.3726 15.9684,23.3416 C12.0964,23.3106 8.9314,26.4236 8.9004,30.2986 C8.8954,30.9156 8.9784,31.5116 9.1234,32.0826 C9.9374,29.0816 12.6854,26.8826 15.9394,26.9086" id="Fill-86" fill-opacity="0.3" fill="#489DEA"></path>
                <g id="Group-3" transform="translate(2.000000, 0.000000)">
                    <polygon id="Fill-8" fill-opacity="0.8" fill="#FFFFFF" points="23.4921 16.0204 5.7581 18.0914 23.3341 16.9004 73.7941 17.0744 74.5791 14.0714 73.2271 15.8754"></polygon>
                    <path d="M56.9247,18.0541 C56.9247,18.1571 57.0087,18.2411 57.1117,18.2411 L60.4907,18.2411 C60.5947,18.2411 60.6787,18.1571 60.6787,18.0541 L60.6787,17.3271 C60.6787,17.2231 60.5947,17.1391 60.4907,17.1391 L57.1117,17.1391 C57.0087,17.1391 56.9247,17.2231 56.9247,17.3271 L56.9247,18.0541 Z" id="Fill-18" fill="#FFFFFF"></path>
                    <path d="M56.9247,18.0541 C56.9247,18.1571 57.0087,18.2411 57.1117,18.2411 L60.4907,18.2411 C60.5947,18.2411 60.6787,18.1571 60.6787,18.0541 L60.6787,17.3271 C60.6787,17.2231 60.5947,17.1391 60.4907,17.1391 L57.1117,17.1391 C57.0087,17.1391 56.9247,17.2231 56.9247,17.3271 L56.9247,18.0541 Z" id="Stroke-20" stroke="#489DEA" stroke-width="0.75" stroke-linecap="round" stroke-linejoin="round"></path>
                    <path d="M38.9472,18.0541 C38.9472,18.1571 39.0312,18.2411 39.1342,18.2411 L42.5132,18.2411 C42.6172,18.2411 42.7012,18.1571 42.7012,18.0541 L42.7012,17.3271 C42.7012,17.2231 42.6172,17.1391 42.5132,17.1391 L39.1342,17.1391 C39.0312,17.1391 38.9472,17.2231 38.9472,17.3271 L38.9472,18.0541 Z" id="Fill-22" fill="#FFFFFF"></path>
                    <path d="M38.9472,18.0541 C38.9472,18.1571 39.0312,18.2411 39.1342,18.2411 L42.5132,18.2411 C42.6172,18.2411 42.7012,18.1571 42.7012,18.0541 L42.7012,17.3271 C42.7012,17.2231 42.6172,17.1391 42.5132,17.1391 L39.1342,17.1391 C39.0312,17.1391 38.9472,17.2231 38.9472,17.3271 L38.9472,18.0541 Z" id="Stroke-24" stroke="#489DEA" stroke-width="0.75" stroke-linecap="round" stroke-linejoin="round"></path>
                    <path d="M42.5624,14.4012 C42.5594,14.8362 42.2044,15.1862 41.7684,15.1822 L23.7164,15.0262 C23.4314,15.0232 23.2924,14.6742 23.5004,14.4762 L32.1044,6.4032 C32.3124,6.2052 32.5954,6.0932 32.8824,6.0962 L41.8414,6.1792 C42.2774,6.1832 42.6264,6.5392 42.6234,6.9742 L42.5624,14.4012 Z" id="Fill-26" fill="#FFFFFF"></path>
                    <path d="M42.5624,14.4012 C42.5594,14.8362 42.2044,15.1862 41.7684,15.1822 L23.7164,15.0262 C23.4314,15.0232 23.2924,14.6742 23.5004,14.4762 L32.1044,6.4032 C32.3124,6.2052 32.5954,6.0932 32.8824,6.0962 L41.8414,6.1792 C42.2774,6.1832 42.6264,6.5392 42.6234,6.9742 L42.5624,14.4012 Z" id="Stroke-28" stroke="#489DEA" stroke-width="0.75" stroke-linecap="round" stroke-linejoin="round"></path>
                    <path d="M33.371,3.2464 L67.246,3.2464" id="Fill-30" fill="#E9F5FD"></path>
                    <path d="M33.371,3.2464 L67.246,3.2464" id="Stroke-32" stroke="#489DEA" stroke-linecap="round" stroke-linejoin="round"></path>
                    <polygon id="Fill-34" fill="#C1E2F8" points="63.121 2.908 61.508 1.641 60.937 0.375 60.267 0.375 59.39 0.375 58.663 0.375 58.15 1.641 56.59 2.908"></polygon>
                    <polygon id="Stroke-36" stroke="#489DEA" stroke-width="0.75" stroke-linecap="round" stroke-linejoin="round" points="63.121 2.908 61.508 1.641 60.937 0.375 60.267 0.375 59.39 0.375 58.663 0.375 58.15 1.641 56.59 2.908"></polygon>
                    <polygon id="Fill-38" fill="#C1E2F8" points="48.2753 2.908 46.6633 1.641 46.0923 0.375 45.4223 0.375 44.5453 0.375 43.8183 0.375 43.3043 1.641 41.7443 2.908"></polygon>
                    <polygon id="Stroke-40" stroke="#489DEA" stroke-width="0.75" stroke-linecap="round" stroke-linejoin="round" points="48.2753 2.908 46.6633 1.641 46.0923 0.375 45.4223 0.375 44.5453 0.375 43.8183 0.375 43.3043 1.641 41.7443 2.908"></polygon>
                    <polygon id="Fill-42" fill="#FFFFFF" points="62.8974 6.2787 69.1844 6.2787 72.9944 15.2667 65.0864 15.2667"></polygon>
                    <polygon id="Stroke-44" stroke="#489DEA" stroke-width="0.75" stroke-linecap="round" stroke-linejoin="round" points="62.8974 6.2787 69.1844 6.2787 72.9944 15.2667 65.0864 15.2667"></polygon>
                    <polygon id="Fill-46" fill="#FFFFFF" points="46.2578 6.2787 58.8768 6.2787 60.0668 15.2167 46.7928 15.2167"></polygon>
                    <polygon id="Stroke-48" stroke="#489DEA" stroke-width="0.75" stroke-linecap="round" stroke-linejoin="round" points="46.2578 6.2787 58.8768 6.2787 60.0668 15.2167 46.7928 15.2167"></polygon>
                    <path d="M19.6728,19.2884 L20.8418,19.2884 C21.0738,19.2884 21.2648,19.0984 21.2648,18.8664 L21.2648,18.4034 C21.2648,18.1714 21.0738,17.9804 20.8418,17.9804 L19.6728,17.9804 C19.4398,17.9804 19.2498,18.1714 19.2498,18.4034 L19.2498,18.8664 C19.2498,19.0984 19.4398,19.2884 19.6728,19.2884" id="Fill-60" fill="#FFFFFF"></path>
                    <path d="M19.6728,19.2884 L20.8418,19.2884 C21.0738,19.2884 21.2648,19.0984 21.2648,18.8664 L21.2648,18.4034 C21.2648,18.1714 21.0738,17.9804 20.8418,17.9804 L19.6728,17.9804 C19.4398,17.9804 19.2498,18.1714 19.2498,18.4034 L19.2498,18.8664 C19.2498,19.0984 19.4398,19.2884 19.6728,19.2884 Z" id="Stroke-62" stroke="#489DEA" stroke-width="0.75" stroke-linecap="round" stroke-linejoin="round"></path>
                    <path d="M76.6308,15.742 L75.2728,15.742 C74.4428,15.742 73.9598,16.344 73.8618,16.903 L73.2338,19.587 C73.1628,19.791 73.0508,20.275 73.3468,20.725 C73.5218,20.991 73.8878,21.307 74.6368,21.307 L76.6308,21.307 C77.0448,21.307 77.3808,20.971 77.3808,20.557 L77.3808,16.492 C77.3808,16.077 77.0448,15.742 76.6308,15.742 M76.6308,16.492 L76.6308,20.557 L74.6368,20.557 C73.6288,20.557 73.9528,19.804 73.9528,19.804 L74.6018,17.031 C74.6018,17.031 74.6948,16.492 75.2728,16.492 L76.6308,16.492" id="Fill-88" fill="#489DEA"></path>
                    <path d="M0.4609,22.9037 L1.6459,22.9037 C2.1609,22.9037 2.5919,22.5117 2.6409,21.9987 L2.8779,19.5057 C2.9319,18.9397 2.5019,18.4417 1.9339,18.4127 L1.1479,18.3727" id="Stroke-90" stroke="#489DEA" stroke-width="0.75" stroke-linecap="round" stroke-linejoin="round"></path>
                </g>
            </g>
        </g>
    </g>
</svg>