<?xml version="1.0" encoding="UTF-8"?>
<svg width="94px" height="36px" viewBox="0 0 87 34" version="1.1" xmlns="http://www.w3.org/2000/svg" xmlns:xlink="http://www.w3.org/1999/xlink">
    <!-- Generator: sketchtool 52.3 (67297) - http://www.bohemiancoding.com/sketch -->
    <title>6B6FCB28-54C7-4470-BBC5-768BAF39ACB1@1x</title>
    <desc>Created with sketchtool.</desc>
    <g id="Page-1" stroke="none" stroke-width="1" fill="none" fill-rule="evenodd">
        <g id="Car-Model-Icons---Greyscale" transform="translate(-17.000000, -367.000000)">
            <g id="Group-69" transform="translate(17.000000, 367.000000)">
                <polygon id="Fill-1" fill="#A5CECA" points="35.3936 3.7837 32.6256 3.1487 19.2476 11.4527 20.8046 12.2617 22.6496 11.2227"></polygon>
                <g id="Group-68" transform="translate(0.000000, 0.302600)">
                    <path d="M3.4634,14.7252 L19.0274,11.9232 C19.1644,11.8992 19.2954,11.8452 19.4114,11.7672 L34.9834,0.3702 C35.1484,0.2572 35.3434,0.1982 35.5434,0.1982 L72.4954,0.1982 C72.7454,0.1982 72.9864,0.2912 73.1714,0.4602 L83.9824,11.2172 C83.9824,11.2172 84.4754,11.6532 84.4754,12.2222 L84.4754,20.8402 L85.0874,20.8402 C85.4284,20.8402 85.7464,21.1692 85.7464,21.4542 L85.7464,26.8452 C85.7464,27.3982 85.2984,27.8452 84.7464,27.8452 L2.0274,27.8472 C1.4544,27.8472 0.9744,27.4132 0.9174,26.8422 L0.5024,22.7262 C0.5124,22.6042 0.5224,22.4922 0.5324,22.3702 C0.8264,21.3422 2.3454,16.0402 2.5414,15.5332 C2.7584,14.9712 3.4634,14.7252 3.4634,14.7252" id="Fill-2" fill="#ECECEC"></path>
                    <path d="M3.4634,14.7252 L19.0274,11.9232 C19.1644,11.8992 19.2954,11.8452 19.4114,11.7672 L34.9834,0.3702 C35.1484,0.2572 35.3434,0.1982 35.5434,0.1982 L72.4954,0.1982 C72.7454,0.1982 72.9864,0.2912 73.1714,0.4602 L83.9824,11.2172 C83.9824,11.2172 84.4754,11.6532 84.4754,12.2222 L84.4754,20.8402 L85.0874,20.8402 C85.4284,20.8402 85.7464,21.1692 85.7464,21.4542 L85.7464,26.8452 C85.7464,27.3982 85.2984,27.8452 84.7464,27.8452 L2.0274,27.8472 C1.4544,27.8472 0.9744,27.4132 0.9174,26.8422 L0.5024,22.7262 C0.5124,22.6042 0.5224,22.4922 0.5324,22.3702 C0.8264,21.3422 2.3454,16.0402 2.5414,15.5332 C2.7584,14.9712 3.4634,14.7252 3.4634,14.7252 Z" id="Stroke-4" stroke="#202020"></path>
                    <path d="M16.9468,16.8561 C17.8878,17.2211 18.7528,17.7351 19.5128,18.3741 L16.5118,23.5221 L13.0618,23.5221 L16.9468,16.8561 Z" id="Fill-6" fill="#F4F4F6"></path>
                    <path d="M6.5103,25.0416 C6.5103,21.0626 9.7373,17.8346 13.7183,17.8346 C17.6993,17.8346 20.9273,21.0626 20.9273,25.0416 C20.9273,29.0226 17.6993,32.2496 13.7183,32.2496 C9.7373,32.2496 6.5103,29.0226 6.5103,25.0416" id="Fill-8" fill="#CFCFD1"></path>
                    <path d="M6.5103,25.0416 C6.5103,21.0626 9.7373,17.8346 13.7183,17.8346 C17.6993,17.8346 20.9273,21.0626 20.9273,25.0416 C20.9273,29.0226 17.6993,32.2496 13.7183,32.2496 C9.7373,32.2496 6.5103,29.0226 6.5103,25.0416 Z" id="Stroke-10" stroke="#202020" stroke-linecap="round" stroke-linejoin="round"></path>
                    <path d="M83.1509,10.4508 C83.3599,10.6448 83.3009,10.7638 83.0199,10.7158 L80.8719,10.3448 C80.5899,10.2968 80.1959,10.0908 79.9959,9.8868 L73.2009,3.1688 C73.0009,2.9658 72.8319,2.6268 73.1169,2.6268 L73.7429,2.2128 C74.0279,2.2128 74.4329,2.3708 74.6429,2.5648" id="Fill-12" fill="#FFFFFF"></path>
                    <path d="M83.961,13.6774 L82.602,13.6774 C81.772,13.6774 81.29,14.2804 81.192,14.8394 L80.564,17.5234 C80.493,17.7264 80.38,18.2104 80.677,18.6604 C80.852,18.9264 81.217,19.2424 81.967,19.2424 L83.961,19.2424 C84.375,19.2424 84.711,18.9064 84.711,18.4924 L84.711,14.4274 C84.711,14.0134 84.375,13.6774 83.961,13.6774 M83.961,14.4274 L83.961,18.4924 L81.967,18.4924 C80.959,18.4924 81.283,17.7394 81.283,17.7394 L81.932,14.9674 C81.932,14.9674 82.025,14.4274 82.602,14.4274 L83.961,14.4274" id="Fill-14" fill="#202020"></path>
                    <path d="M20.1856,15.8209 C20.1856,15.8689 20.2246,15.9079 20.2716,15.9079 L21.1046,15.9079 C21.1526,15.9079 21.1916,15.8689 21.1916,15.8209 L21.1916,15.6319 C21.1916,15.5849 21.1526,15.5459 21.1046,15.5459 L20.2716,15.5459 C20.2246,15.5459 20.1856,15.5849 20.1856,15.6319 L20.1856,15.8209 Z" id="Fill-16" fill="#FFFFFF"></path>
                    <path d="M83.982,11.2174 L84.288,11.1344 L83.107,10.1084 L81.014,9.7024 C80.462,9.5964 79.953,9.3304 79.549,8.9404 L73.579,3.1524 L73.146,3.5324 C80.078,10.6264 80.224,10.6994 80.341,10.7584 C80.427,10.8014 80.184,10.4574 83.982,11.2174" id="Fill-18" fill="#202020"></path>
                    <path d="M73.3887,3.6129 C73.4207,3.6129 73.5037,3.6789 73.5367,3.6719 L75.0337,2.8359 C75.2667,2.7819 75.0757,1.9379 74.8417,1.9919 L72.9257,2.6839 C72.4887,2.8169 72.8367,3.1279 72.9987,3.3749 C73.1127,3.5459 73.1917,3.6129 73.3887,3.6129" id="Fill-20" fill-opacity="0.1" fill="#202020"></path>
                    <path d="M26.2564,12.2936 L75.1874,12.2936 C75.9894,12.2936 76.4654,11.3956 76.0144,10.7316 L70.7484,2.9806 C70.5624,2.7076 70.2524,2.5436 69.9214,2.5436 L36.2914,2.5436 C36.0704,2.5436 35.8554,2.6166 35.6804,2.7526 L25.6454,10.5026 C24.8904,11.0856 25.3024,12.2936 26.2564,12.2936" id="Fill-22" fill="#FFFFFF"></path>
                    <path d="M26.2564,12.2936 L75.1874,12.2936 C75.9894,12.2936 76.4654,11.3956 76.0144,10.7316 L70.7484,2.9806 C70.5624,2.7076 70.2524,2.5436 69.9214,2.5436 L36.2914,2.5436 C36.0704,2.5436 35.8554,2.6166 35.6804,2.7526 L25.6454,10.5026 C24.8904,11.0856 25.3024,12.2936 26.2564,12.2936 Z" id="Stroke-24" stroke="#202020" stroke-width="0.75" stroke-linecap="round" stroke-linejoin="round"></path>
                    <path d="M1.5786,20.4957 L4.4006,20.5497 C5.0536,20.5547 5.6386,20.0257 5.8486,19.2477 L6.1776,17.8527 C6.3526,17.2107 5.9766,16.5427 5.4356,16.5387 L2.4506,16.5047" id="Stroke-26" stroke="#202020" stroke-width="0.75" stroke-linecap="round" stroke-linejoin="round"></path>
                    <path d="M21.6241,15.8903 L19.9511,15.8763" id="Stroke-28" stroke="#202020" stroke-linecap="round" stroke-linejoin="round"></path>
                    <path d="M73.8257,1.6686 L72.2007,2.3766 L80.1557,10.5726 C80.3447,10.7676 80.6037,10.8766 80.8737,10.8766 L83.6477,10.8766" id="Stroke-30" stroke="#202020" stroke-linecap="round" stroke-linejoin="round"></path>
                    <path d="M26.2564,12.2936 L75.1874,12.2936 C75.9894,12.2936 76.4654,11.3956 76.0144,10.7316 L70.7484,2.9806 C70.5624,2.7076 70.2524,2.5436 69.9214,2.5436 L36.2914,2.5436 C36.0704,2.5436 35.8554,2.6166 35.6804,2.7526 L25.6454,10.5026 C24.8904,11.0856 25.3024,12.2936 26.2564,12.2936 Z" id="Stroke-32" stroke="#202020" stroke-linecap="round" stroke-linejoin="round"></path>
                    <polyline id="Stroke-34" stroke="#202020" stroke-linecap="round" stroke-linejoin="round" points="48.8257 2.6686 48.8257 12.1686 48.2837 27.7106"></polyline>
                    <path d="M66.0757,2.6686 L68.8257,12.2936" id="Stroke-36" stroke="#202020" stroke-linecap="round" stroke-linejoin="round"></path>
                    <path d="M62.4507,14.8561 L66.1387,14.8561" id="Stroke-38" stroke="#202020" stroke-linecap="round" stroke-linejoin="round"></path>
                    <path d="M81.8038,22.6891 L85.4918,22.6891" id="Stroke-40" stroke="#202020" stroke-linecap="round" stroke-linejoin="round"></path>
                    <path d="M0.7007,22.6891 L3.4717,22.6891" id="Stroke-42" stroke="#202020" stroke-linecap="round" stroke-linejoin="round"></path>
                    <path d="M42.8882,14.8561 L46.5762,14.8561" id="Stroke-44" stroke="#202020" stroke-linecap="round" stroke-linejoin="round"></path>
                    <path d="M23.9507,22.5436 L61.6177,22.5436" id="Stroke-46" stroke="#202020" stroke-linecap="round" stroke-linejoin="round"></path>
                    <path d="M18.4502,25.0426 C18.4502,27.6556 16.3312,29.7736 13.7192,29.7736 C11.1052,29.7736 8.9872,27.6556 8.9872,25.0426 C8.9872,22.4296 11.1052,20.3116 13.7192,20.3116 C16.3312,20.3116 18.4502,22.4296 18.4502,25.0426" id="Fill-48" fill="#CFCFD1"></path>
                    <path d="M18.4502,25.0426 C18.4502,27.6556 16.3312,29.7736 13.7192,29.7736 C11.1052,29.7736 8.9872,27.6556 8.9872,25.0426 C8.9872,22.4296 11.1052,20.3116 13.7192,20.3116 C16.3312,20.3116 18.4502,22.4296 18.4502,25.0426 Z" id="Stroke-50" stroke="#202020" stroke-width="0.75" stroke-linecap="round" stroke-linejoin="round"></path>
                    <path d="M16.0938,25.0426 C16.0938,26.3546 15.0308,27.4176 13.7188,27.4176 C12.4068,27.4176 11.3438,26.3546 11.3438,25.0426 C11.3438,23.7306 12.4068,22.6676 13.7188,22.6676 C15.0308,22.6676 16.0938,23.7306 16.0938,25.0426" id="Fill-52" fill="#202020"></path>
                    <path d="M13.7437,21.316 C17.2317,21.344 20.1377,23.748 20.9577,26.977 C21.1227,26.367 21.2227,25.73 21.2277,25.069 C21.2607,20.918 17.9237,17.528 13.7747,17.494 C9.6257,17.461 6.2347,20.796 6.2017,24.948 C6.1957,25.609 6.2857,26.248 6.4407,26.86 C7.3127,23.644 10.2567,21.289 13.7437,21.316" id="Fill-54" fill-opacity="0.1" fill="#202020"></path>
                    <path d="M64.8853,25.2916 C64.8853,21.3126 68.1123,18.0846 72.0933,18.0846 C76.0743,18.0846 79.3023,21.3126 79.3023,25.2916 C79.3023,29.2726 76.0743,32.4996 72.0933,32.4996 C68.1123,32.4996 64.8853,29.2726 64.8853,25.2916" id="Fill-56" fill="#CFCFD1"></path>
                    <path d="M64.8853,25.2916 C64.8853,21.3126 68.1123,18.0846 72.0933,18.0846 C76.0743,18.0846 79.3023,21.3126 79.3023,25.2916 C79.3023,29.2726 76.0743,32.4996 72.0933,32.4996 C68.1123,32.4996 64.8853,29.2726 64.8853,25.2916 Z" id="Stroke-58" stroke="#202020" stroke-linecap="round" stroke-linejoin="round"></path>
                    <path d="M76.8252,25.2926 C76.8252,27.9056 74.7062,30.0236 72.0942,30.0236 C69.4802,30.0236 67.3622,27.9056 67.3622,25.2926 C67.3622,22.6796 69.4802,20.5616 72.0942,20.5616 C74.7062,20.5616 76.8252,22.6796 76.8252,25.2926" id="Fill-60" fill="#CFCFD1"></path>
                    <path d="M76.8252,25.2926 C76.8252,27.9056 74.7062,30.0236 72.0942,30.0236 C69.4802,30.0236 67.3622,27.9056 67.3622,25.2926 C67.3622,22.6796 69.4802,20.5616 72.0942,20.5616 C74.7062,20.5616 76.8252,22.6796 76.8252,25.2926 Z" id="Stroke-62" stroke="#202020" stroke-width="0.75" stroke-linecap="round" stroke-linejoin="round"></path>
                    <path d="M74.4688,25.2926 C74.4688,26.6046 73.4058,27.6676 72.0938,27.6676 C70.7818,27.6676 69.7188,26.6046 69.7188,25.2926 C69.7188,23.9806 70.7818,22.9176 72.0938,22.9176 C73.4058,22.9176 74.4688,23.9806 74.4688,25.2926" id="Fill-64" fill="#202020"></path>
                    <path d="M72.1187,21.566 C75.6067,21.594 78.5127,23.998 79.3327,27.227 C79.4977,26.617 79.5977,25.98 79.6027,25.319 C79.6357,21.168 76.2987,17.778 72.1497,17.744 C68.0007,17.711 64.6097,21.046 64.5767,25.198 C64.5707,25.859 64.6607,26.498 64.8157,27.11 C65.6877,23.894 68.6317,21.539 72.1187,21.566" id="Fill-66" fill-opacity="0.1" fill="#202020"></path>
                </g>
            </g>
        </g>
    </g>
</svg>