<?xml version="1.0" encoding="UTF-8"?>
<svg width="94px" height="36px" viewBox="0 0 76 28" version="1.1" xmlns="http://www.w3.org/2000/svg" xmlns:xlink="http://www.w3.org/1999/xlink">
    <!-- Generator: sketchtool 52.3 (67297) - http://www.bohemiancoding.com/sketch -->
    <title>EBF69445-FCAA-43FE-8173-D141E1C655E8@1x</title>
    <desc>Created with sketchtool.</desc>
    <g id="Page-1" stroke="none" stroke-width="1" fill="none" fill-rule="evenodd">
        <g id="Car-Model-Icons" transform="translate(-277.000000, -243.000000)">
            <g id="CONVERTIBLE" transform="translate(277.000000, 243.000000)">
                <path d="M59.6514,15.8202 C56.5434,15.8242 54.0274,18.3472 54.0314,21.4572 C54.0364,24.5642 56.5594,27.0802 59.6684,27.0762 C62.7754,27.0712 65.2914,24.5482 65.2874,21.4412 C65.2824,18.3312 62.7584,15.8162 59.6514,15.8202" id="Fill-1" fill="#B5D7EA"></path>
                <path d="M59.6514,15.8202 C56.5434,15.8242 54.0274,18.3472 54.0314,21.4572 C54.0364,24.5642 56.5594,27.0802 59.6684,27.0762 C62.7754,27.0712 65.2914,24.5482 65.2874,21.4412 C65.2824,18.3312 62.7584,15.8162 59.6514,15.8202 Z" id="Stroke-3" stroke="#489DEA" stroke-linecap="round" stroke-linejoin="round"></path>
                <path d="M59.6621,23.0985 C58.7471,23.0995 58.0041,22.3625 58.0021,21.4505 C58.0011,20.5385 58.7421,19.7985 59.6571,19.7975 C60.5721,19.7965 61.3151,20.5345 61.3161,21.4455 C61.3171,22.3575 60.5761,23.0975 59.6621,23.0985 M59.6531,16.9915 C57.1821,16.9945 55.1821,18.9945 55.1841,21.4545 C55.1881,23.9155 57.1941,25.9095 59.6661,25.9055 C62.1371,25.9025 64.1371,23.9025 64.1331,21.4425 C64.1301,18.9805 62.1241,16.9885 59.6531,16.9915" id="Fill-5" fill="#B5D7EA"></path>
                <path d="M59.6621,23.0985 C58.7471,23.0995 58.0041,22.3625 58.0021,21.4505 C58.0011,20.5385 58.7421,19.7985 59.6571,19.7975 C60.5721,19.7965 61.3151,20.5345 61.3161,21.4455 C61.3171,22.3575 60.5761,23.0975 59.6621,23.0985 Z M59.6531,16.9915 C57.1821,16.9945 55.1821,18.9945 55.1841,21.4545 C55.1881,23.9155 57.1941,25.9095 59.6661,25.9055 C62.1371,25.9025 64.1371,23.9025 64.1331,21.4425 C64.1301,18.9805 62.1241,16.9885 59.6531,16.9915 Z" id="Stroke-7" stroke="#489DEA" stroke-width="0.75" stroke-linecap="round" stroke-linejoin="round"></path>
                <path d="M59.6572,19.7972 C58.7422,19.7982 58.0012,20.5392 58.0022,21.4502 C58.0042,22.3622 58.7472,23.1002 59.6622,23.0982 C60.5762,23.0972 61.3172,22.3572 61.3162,21.4452 C61.3152,20.5342 60.5722,19.7962 59.6572,19.7972" id="Fill-9" fill="#489DEA"></path>
                <path d="M59.498,18.5233 C62.11,18.5203 64.304,20.2993 64.94,22.7123 C65.06,22.2543 65.13,21.7763 65.129,21.2813 C65.125,18.1713 62.602,15.6563 59.493,15.6613 C56.386,15.6653 53.869,18.1883 53.874,21.2973 C53.875,21.7933 53.946,22.2703 54.066,22.7283 C54.697,20.3133 56.886,18.5273 59.498,18.5233" id="Fill-11" fill-opacity="0.3" fill="#489DEA"></path>
                <path d="M54.1357,20.3504 C53.3857,24.3184 56.8067,27.7294 60.7737,26.9684 C62.9887,26.5434 64.7707,24.7534 65.1847,22.5374 C65.9257,18.5724 62.5117,15.1704 58.5517,15.9264 C56.3377,16.3484 54.5537,18.1364 54.1357,20.3504 Z" id="Stroke-13" stroke="#489DEA" stroke-width="1.75" stroke-linecap="round" stroke-linejoin="round"></path>
                <path d="M15.1474,15.8998 C12.0394,15.9038 9.5224,18.4268 9.5274,21.5358 C9.5324,24.6438 12.0554,27.1598 15.1644,27.1548 C18.2714,27.1508 20.7874,24.6268 20.7824,21.5198 C20.7784,18.4108 18.2544,15.8958 15.1474,15.8998" id="Fill-15" fill="#B5D7EA"></path>
                <path d="M15.1474,15.8998 C12.0394,15.9038 9.5224,18.4268 9.5274,21.5358 C9.5324,24.6438 12.0554,27.1598 15.1644,27.1548 C18.2714,27.1508 20.7874,24.6268 20.7824,21.5198 C20.7784,18.4108 18.2544,15.8958 15.1474,15.8998 Z" id="Stroke-17" stroke="#489DEA" stroke-linecap="round" stroke-linejoin="round"></path>
                <path d="M15.1582,23.1776 C14.2422,23.1786 13.5002,22.4416 13.4982,21.5296 C13.4972,20.6176 14.2382,19.8776 15.1532,19.8766 C16.0672,19.8756 16.8102,20.6136 16.8122,21.5246 C16.8132,22.4366 16.0722,23.1766 15.1582,23.1776 M15.1492,17.0706 C12.6782,17.0746 10.6772,19.0736 10.6802,21.5346 C10.6842,23.9946 12.6902,25.9886 15.1622,25.9856 C17.6332,25.9816 19.6332,23.9826 19.6292,21.5216 C19.6262,19.0606 17.6202,17.0676 15.1492,17.0706" id="Fill-19" fill="#B5D7EA"></path>
                <path d="M15.1582,23.1776 C14.2422,23.1786 13.5002,22.4416 13.4982,21.5296 C13.4972,20.6176 14.2382,19.8776 15.1532,19.8766 C16.0672,19.8756 16.8102,20.6136 16.8122,21.5246 C16.8132,22.4366 16.0722,23.1766 15.1582,23.1776 Z M15.1492,17.0706 C12.6782,17.0746 10.6772,19.0736 10.6802,21.5346 C10.6842,23.9946 12.6902,25.9886 15.1622,25.9856 C17.6332,25.9816 19.6332,23.9826 19.6292,21.5216 C19.6262,19.0606 17.6202,17.0676 15.1492,17.0706 Z" id="Stroke-21" stroke="#489DEA" stroke-width="0.75" stroke-linecap="round" stroke-linejoin="round"></path>
                <path d="M15.1533,19.8768 C14.2383,19.8778 13.4973,20.6178 13.4983,21.5288 C13.5003,22.4418 14.2423,23.1788 15.1583,23.1778 C16.0723,23.1768 16.8133,22.4368 16.8123,21.5238 C16.8103,20.6138 16.0673,19.8758 15.1533,19.8768" id="Fill-23" fill="#489DEA"></path>
                <path d="M14.9931,18.6029 C17.6061,18.5989 19.8001,20.3779 20.4361,22.7919 C20.5551,22.3339 20.6261,21.8559 20.6251,21.3599 C20.6211,18.2509 18.0971,15.7359 14.9891,15.7399 C11.8821,15.7449 9.3651,18.2679 9.3701,21.3769 C9.3701,21.8719 9.4411,22.3499 9.5621,22.8079 C10.1931,20.3929 12.3821,18.6059 14.9931,18.6029" id="Fill-25" fill-opacity="0.3" fill="#489DEA"></path>
                <path d="M9.6308,20.43 C8.8808,24.398 12.3028,27.809 16.2698,27.048 C18.4838,26.623 20.2668,24.833 20.6808,22.617 C21.4218,18.652 18.0078,15.25 14.0478,16.006 C11.8338,16.428 10.0498,18.215 9.6308,20.43 Z" id="Stroke-27" stroke="#489DEA" stroke-width="1.75" stroke-linecap="round" stroke-linejoin="round"></path>
                <path d="M50.6914,3.9061 C50.2614,3.0921 49.1164,3.0451 48.5434,3.7651 C48.2314,4.1571 47.9564,4.7061 48.0454,5.3701 C48.2324,6.7591 48.6524,7.2781 48.6524,7.2781 L50.8814,7.5161 C50.8814,7.5161 51.1014,5.0201 50.8684,4.3251 C50.8194,4.1791 50.7614,4.0381 50.6914,3.9061" id="Fill-29" fill="#C1E2F8"></path>
                <path d="M50.6914,3.9061 C50.2614,3.0921 49.1164,3.0451 48.5434,3.7651 C48.2314,4.1571 47.9564,4.7061 48.0454,5.3701 C48.2324,6.7591 48.6524,7.2781 48.6524,7.2781 L50.8814,7.5161 C50.8814,7.5161 51.1014,5.0201 50.8684,4.3251 C50.8194,4.1791 50.7614,4.0381 50.6914,3.9061 Z" id="Stroke-31" stroke="#489DEA" stroke-width="0.75"></path>
                <path d="M61.3984,5.1205 C61.3984,5.1205 62.1244,3.5395 60.6424,3.4465 C59.1614,3.3545 57.6464,5.6025 57.5924,5.6335 C57.5394,5.6645 61.3984,5.1205 61.3984,5.1205" id="Fill-33" fill="#C1E2F8"></path>
                <path d="M61.3984,5.1205 C61.3984,5.1205 62.1244,3.5395 60.6424,3.4465 C59.1614,3.3545 57.6464,5.6025 57.5924,5.6335 C57.5394,5.6645 61.3984,5.1205 61.3984,5.1205 Z" id="Stroke-35" stroke="#489DEA" stroke-width="0.75"></path>
                <path d="M18.3545,7.4808 C18.3545,7.4808 30.3885,-0.1022 31.3995,0.5388 C32.4115,1.1798 32.6575,1.7468 32.2625,1.9938 C31.8685,2.2408 24.8515,6.2658 23.9635,7.2008" id="Stroke-37" stroke="#489DEA" fill="#FFFFFF" stroke-linecap="round" stroke-linejoin="round"></path>
                <path d="M46.5273,6.9667 C46.5273,6.9667 46.6353,5.8387 46.9413,5.6437 C47.2463,5.4497 66.8363,4.7897 68.7793,5.8447 C70.7233,6.8997 47.3633,7.5397 46.5273,6.9667" id="Fill-39" fill="#C1E2F8"></path>
                <path d="M46.5273,6.9667 C46.5273,6.9667 46.6353,5.8387 46.9413,5.6437 C47.2463,5.4497 66.8363,4.7897 68.7793,5.8447 C70.7233,6.8997 47.3633,7.5397 46.5273,6.9667 Z" id="Stroke-41" stroke="#489DEA"></path>
                <path d="M24.3379,7.5433 C24.3379,7.5433 1.2899,6.5143 2.2279,18.8973 C2.3019,19.8793 2.7609,20.8003 3.5589,21.3853 L3.6439,21.4483 C4.4529,22.0423 5.4359,22.3633 6.4399,22.3633 C7.2649,22.3633 7.8689,21.6413 7.9219,20.8183 C8.1619,17.0223 11.3169,14.0193 15.1729,14.0193 C18.2799,14.0193 20.8949,15.9593 21.9439,18.6473 C22.6869,20.5453 21.6989,22.3633 23.7369,22.3633 L52.2619,22.3633 C52.2619,21.8173 52.0249,19.9643 53.3469,17.6673 C54.6009,15.4863 56.9539,14.0193 59.6499,14.0193 C62.8619,14.0193 65.5889,16.1043 66.5469,18.9963 C67.1239,20.7383 68.4019,22.3633 70.2369,22.3633 C72.0489,22.3633 74.0189,21.1593 73.7999,19.3623 C73.7999,19.3623 73.6709,14.9253 72.5979,10.7973 C72.1209,8.9693 70.5229,6.7273 68.8769,6.4353 L24.3379,7.5433 Z" id="Fill-43" fill="#E9F5FD"></path>
                <path d="M45.7021,11.2132 L42.3881,11.2132" id="Stroke-45" stroke="#489DEA" stroke-linecap="round" stroke-linejoin="round"></path>
                <path d="M70.8681,14.7733 C70.2461,14.7733 69.7401,14.2673 69.7401,13.6463 L69.7401,13.5303 C69.7401,12.9083 70.2461,12.4033 70.8681,12.4033 L72.7911,12.4033 C72.9791,12.4033 73.1391,12.5433 73.1631,12.7313 L73.3691,14.3513 C73.3831,14.4583 73.3491,14.5653 73.2781,14.6463 C73.2071,14.7273 73.1041,14.7733 72.9971,14.7733 L70.8681,14.7733 Z" id="Fill-47" fill="#E9F5FD"></path>
                <path d="M72.791,12.0282 L70.868,12.0282 C70.039,12.0282 69.365,12.7022 69.365,13.5302 L69.365,13.6462 C69.365,14.4742 70.039,15.1482 70.868,15.1482 L72.997,15.1482 C73.213,15.1482 73.418,15.0562 73.561,14.8942 C73.703,14.7322 73.769,14.5172 73.741,14.3032 L73.535,12.6832 C73.487,12.3092 73.169,12.0282 72.791,12.0282 M72.791,12.7782 L72.997,14.3982 L70.868,14.3982 C70.452,14.3982 70.115,14.0612 70.115,13.6462 L70.115,13.5302 C70.115,13.1142 70.452,12.7782 70.868,12.7782 L72.791,12.7782" id="Fill-49" fill="#489DEA"></path>
                <g id="Group-54" transform="translate(2.000000, 13.030100)">
                    <path d="M0.7168,2.6221 L4.6718,2.6311 C5.1208,2.6311 5.5208,2.3401 5.6608,1.9141 L5.8798,1.1531 C5.9958,0.8021 5.7338,0.4401 5.3628,0.4401 L1.9338,0.2621" id="Fill-51" fill="#E9F5FD"></path>
                    <path d="M0.7168,2.6221 L4.6718,2.6311 C5.1208,2.6311 5.5208,2.3401 5.6608,1.9141 L5.8798,1.1531 C5.9958,0.8021 5.7338,0.4401 5.3628,0.4401 L1.9338,0.2621" id="Stroke-53" stroke="#489DEA" stroke-width="0.75" stroke-linecap="round" stroke-linejoin="round"></path>
                </g>
                <path d="M7.3711,13.4652 L6.2901,13.4652 C6.6621,13.4652 6.9241,13.8272 6.8081,14.1782 L6.5891,14.9402 C6.4521,15.3552 6.0671,15.6402 5.6321,15.6532 L6.6821,15.6562 C7.1301,15.6562 7.5301,15.3652 7.6711,14.9402 L7.8891,14.1782 C8.0051,13.8272 7.7431,13.4652 7.3711,13.4652" id="Fill-55" fill-opacity="0.3" fill="#489DEA"></path>
                <path d="M26.6748,7.6678 C26.6748,7.6678 24.5908,8.8618 25.6688,19.6048 C25.7038,19.9628 26.0028,20.2408 26.3628,20.2428 C29.5228,20.2578 43.5698,20.3108 44.8568,20.0308 C46.3088,19.7168 46.5078,18.3628 46.7468,17.7098 C46.9868,17.0578 48.7228,11.3768 48.6818,10.2468 C48.6438,9.2178 47.2438,7.2938 47.2438,7.2938" id="Stroke-57" stroke="#489DEA" stroke-linecap="round" stroke-linejoin="round"></path>
                <path d="M24.3379,7.5433 C24.3379,7.5433 1.2899,6.5143 2.2279,18.8973 C2.3019,19.8793 2.7609,20.8003 3.5589,21.3853 L3.6439,21.4483 C4.4529,22.0423 5.4359,22.3633 6.4399,22.3633 C7.2649,22.3633 7.8689,21.6413 7.9219,20.8183 C8.1619,17.0223 11.3169,14.0193 15.1729,14.0193 C18.2799,14.0193 20.8949,15.9593 21.9439,18.6473 C22.6869,20.5453 21.6989,22.3633 23.7369,22.3633 L52.2619,22.3633 C52.2619,21.8173 52.0249,19.9643 53.3469,17.6673 C54.6009,15.4863 56.9539,14.0193 59.6499,14.0193 C62.8619,14.0193 65.5889,16.1043 66.5469,18.9963 C67.1239,20.7383 68.4019,22.3633 70.2369,22.3633 C72.0489,22.3633 74.0189,21.1593 73.7999,19.3623 C73.7999,19.3623 73.6709,14.9253 72.5979,10.7973 C72.1209,8.9693 70.5229,6.7273 68.8769,6.4353 L24.3379,7.5433 Z" id="Stroke-59" stroke="#489DEA"></path>
                <path d="M8.415,22.7811 C8.794,23.8431 7.444,23.5261 6.82,23.5261 L2.732,23.5261 C2.073,23.5261 1.501,23.0671 1.356,22.4241 L0.522,18.7031 C0.395,18.1371 0.825,17.6021 1.404,17.6021 L7.087,17.6021 C7.71,17.6021 8.496,17.9101 8.15,18.9911 C7.806,20.0731 8.053,21.7681 8.415,22.7811" id="Fill-61" fill="#C1E2F8"></path>
                <path d="M8.415,22.7811 C8.794,23.8431 7.444,23.5261 6.82,23.5261 L2.732,23.5261 C2.073,23.5261 1.501,23.0671 1.356,22.4241 L0.522,18.7031 C0.395,18.1371 0.825,17.6021 1.404,17.6021 L7.087,17.6021 C7.71,17.6021 8.496,17.9101 8.15,18.9911 C7.806,20.0731 8.053,21.7681 8.415,22.7811 Z" id="Stroke-63" stroke="#489DEA" stroke-linecap="round" stroke-linejoin="round"></path>
                <path d="M8.415,22.7762 C8.041,21.7682 7.806,20.0682 8.15,18.9872 C8.496,17.9052 7.71,17.5982 7.087,17.5982 L6.49,17.5982 C6.477,17.6572 6.461,17.7192 6.439,17.7852 C6.148,18.6972 5.782,20.0642 6.089,21.5102 C6.174,21.9162 5.894,22.3192 5.48,22.3192 L1.334,22.3192 L1.356,22.4192 C1.501,23.0622 2.073,23.5222 2.732,23.5222 L6.82,23.5222 C7.444,23.5222 8.709,23.5702 8.415,22.7762" id="Fill-65" fill-opacity="0.3" fill="#489DEA"></path>
                <path d="M66.4951,22.9056 C66.1871,23.7376 66.9111,23.8496 67.5351,23.8496 L73.2681,23.8496 C73.9281,23.8496 74.5001,23.3896 74.6441,22.7466 L75.4771,19.0266 C75.6041,18.4606 75.1771,17.9256 74.5961,17.9256 L67.5351,17.9256 C66.9111,17.9256 66.3241,17.9936 66.6951,19.0866 C67.1011,20.2806 66.8051,22.0716 66.4951,22.9056 Z" id="Stroke-67" stroke="#489DEA" stroke-linecap="round" stroke-linejoin="round"></path>
                <path d="M74.3174,17.9476 L73.9094,17.9476 C73.9064,17.9666 73.9074,17.9846 73.9034,18.0026 L73.0704,21.7226 C72.9254,22.3656 72.3534,22.8256 71.6944,22.8256 L66.2524,22.8256 C66.2404,22.8606 66.2284,22.8956 66.2164,22.9276 C65.9094,23.7596 66.6314,23.8716 67.2554,23.8716 L72.9894,23.8716 C73.6484,23.8716 74.2214,23.4116 74.3664,22.7686 L75.1984,19.0486 C75.3264,18.4826 74.8974,17.9476 74.3174,17.9476" id="Fill-69" fill="#489DEA"></path>
                <path d="M66.4951,22.9056 C66.1871,23.7376 66.9111,23.8496 67.5351,23.8496 L73.2681,23.8496 C73.9281,23.8496 74.5001,23.3896 74.6441,22.7466 L75.4771,19.0266 C75.6041,18.4606 75.1771,17.9256 74.5961,17.9256 L67.5351,17.9256 C66.9111,17.9256 66.3241,17.9936 66.6951,19.0866 C67.1011,20.2806 66.8051,22.0716 66.4951,22.9056" id="Fill-71" fill="#C1E2F8"></path>
                <path d="M66.4951,22.9056 C66.1871,23.7376 66.9111,23.8496 67.5351,23.8496 L73.2681,23.8496 C73.9281,23.8496 74.5001,23.3896 74.6441,22.7466 L75.4771,19.0266 C75.6041,18.4606 75.1771,17.9256 74.5961,17.9256 L67.5351,17.9256 C66.9111,17.9256 66.3241,17.9936 66.6951,19.0866 C67.1011,20.2806 66.8051,22.0716 66.4951,22.9056 Z" id="Stroke-73" stroke="#489DEA" stroke-linecap="round" stroke-linejoin="round"></path>
            </g>
        </g>
    </g>
</svg>