<?xml version="1.0" encoding="UTF-8"?>
<svg width="94px" height="36px" viewBox="0 0 76 47" version="1.1" xmlns="http://www.w3.org/2000/svg" xmlns:xlink="http://www.w3.org/1999/xlink">
    <!-- Generator: sketchtool 52.3 (67297) - http://www.bohemiancoding.com/sketch -->
    <title>E8A36223-039C-4EBD-B3FC-AC4E7516C175@1x</title>
    <desc>Created with sketchtool.</desc>
    <g id="Page-1" stroke="none" stroke-width="1" fill="none" fill-rule="evenodd">
        <g id="Car-Model-Icons" transform="translate(-277.000000, -354.000000)">
            <g id="DIESEL" transform="translate(259.000000, 337.000000)">
                <g transform="translate(18.000000, 17.000000)">
                    <path d="M59.7579,10.9949 C59.7609,14.5239 62.6379,17.3849 66.1889,17.3889 L66.1889,0.0529 C66.1889,0.0529 59.7559,7.4629 59.7579,10.9949" id="Fill-1" fill="#E9F5FD"></path>
                    <path d="M66.1886,0.0525 L66.1886,17.3885 C66.1926,17.3885 66.1976,17.3895 66.2016,17.3895 C69.7566,17.3865 72.6376,14.5185 72.6346,10.9865 C72.6316,7.4525 66.1886,0.0525 66.1886,0.0525" id="Fill-3" fill="#E9F5FD" opacity="0.517089844"></path>
                    <path d="M66.1798,0.0525 C66.1798,0.0525 59.7468,7.4625 59.7498,10.9945 C59.7528,14.5245 62.6298,17.3835 66.1798,17.3885 C66.1848,17.3885 66.1888,17.3895 66.1938,17.3895 C69.7478,17.3865 72.6288,14.5185 72.6268,10.9855 C72.6238,7.4525 66.1798,0.0525 66.1798,0.0525 Z" id="Stroke-5" stroke="#489DEA" stroke-linecap="round" stroke-linejoin="round"></path>
                    <path d="M63.3946,10.862 L63.3946,13.742" id="Fill-7" fill="#E9F5FD"></path>
                    <path d="M63.3946,10.862 L63.3946,13.742" id="Stroke-9" stroke="#489DEA" stroke-linecap="round"></path>
                    <path d="M23.0473,28.1271 C22.9003,28.1271 22.7623,28.0401 22.7023,27.9001 C22.6333,27.7381 22.6863,27.5491 22.8293,27.4471 L32.4973,20.5521 C32.5613,20.5061 32.6373,20.4821 32.7153,20.4821 C32.7253,20.4821 32.7353,20.4821 32.7453,20.4831 C33.3173,20.5301 33.6653,20.7201 33.7823,21.0471 C33.8903,21.3521 33.7673,21.6941 33.4353,22.0131 L27.9793,26.8521 C27.5353,27.2381 26.9253,27.4041 26.1453,27.5371 L23.1183,28.1201 C23.0943,28.1251 23.0703,28.1271 23.0473,28.1271" id="Fill-1" fill="#FFFFFF"></path>
                    <path d="M32.7142,20.1071 C32.5592,20.1071 32.4062,20.1551 32.2792,20.2471 L22.6112,27.1411 C22.3242,27.3461 22.2192,27.7231 22.3582,28.0471 C22.4782,28.3271 22.7512,28.5021 23.0462,28.5021 C23.0942,28.5021 23.1412,28.4981 23.1892,28.4881 L26.2242,27.9031 C27.0522,27.7631 27.7172,27.5771 28.2222,27.1371 L33.6722,22.3031 C34.1332,21.8631 34.2932,21.3661 34.1362,20.9221 C33.9652,20.4431 33.5082,20.1691 32.7762,20.1091 C32.7552,20.1081 32.7352,20.1071 32.7142,20.1071 M32.7142,20.8571 C33.6642,20.9351 33.5362,21.3961 33.1752,21.7421 L27.7302,26.5711 C27.3602,26.8931 26.8082,27.0441 26.0822,27.1671 L23.0472,27.7521 L32.7142,20.8571" id="Fill-3" fill="#489DEA"></path>
                    <path d="M60.9867,26.7375 C60.9117,26.7375 60.8387,26.7145 60.7767,26.6725 L53.2427,21.5455 C53.1557,21.4865 53.0967,21.3925 53.0827,21.2885 C53.0677,21.1845 53.0967,21.0795 53.1637,20.9975 L53.9397,20.0485 C54.0127,19.9585 54.1207,19.9105 54.2297,19.9105 C54.2867,19.9105 54.3427,19.9235 54.3967,19.9495 L66.6527,26.0425 C66.8087,26.1195 66.8907,26.2945 66.8507,26.4645 C66.8107,26.6335 66.6597,26.7535 66.4857,26.7535 L60.9867,26.7375 Z" id="Fill-5" fill="#FFFFFF"></path>
                    <path d="M54.2299,19.5348 C54.0109,19.5348 53.7949,19.6318 53.6489,19.8108 L52.8739,20.7608 C52.7399,20.9238 52.6809,21.1348 52.7109,21.3428 C52.7419,21.5508 52.8579,21.7368 53.0319,21.8548 L60.5659,26.9828 C60.6889,27.0668 60.8349,27.1118 60.9859,27.1128 L66.4839,27.1278 L66.4859,27.1278 C66.8339,27.1278 67.1359,26.8888 67.2159,26.5508 C67.2959,26.2118 67.1319,25.8618 66.8199,25.7068 L54.5639,19.6138 C54.4579,19.5608 54.3429,19.5348 54.2299,19.5348 M54.2299,20.2848 L66.4859,26.3778 L60.9879,26.3628 L53.4539,21.2348 L54.2299,20.2848" id="Fill-7" fill="#489DEA"></path>
                    <path d="M54.935,20.6359 L54.188,21.5999 L57.001,23.3979 C57.001,23.3979 55.996,22.7189 56.899,21.6119 C55.619,20.9619 54.935,20.6359 54.935,20.6359" id="Fill-9" fill-opacity="0.3" fill="#489DEA"></path>
                    <path d="M32.433,21.0583 L32.742,21.5453 L30.452,23.5643 C30.452,23.5643 31.157,22.9513 30.651,22.3293 L32.433,21.0583 Z" id="Fill-11" fill-opacity="0.3" fill="#489DEA"></path>
                    <polygon id="Stroke-13" stroke="#489DEA" stroke-linecap="round" stroke-linejoin="round" points="68.7357 31.4889 11.0587 31.5719 5.9207 41.0039 69.3517 40.9129"></polygon>
                    <path d="M73.7348,38.1198 C73.7348,38.1198 73.5998,33.6718 72.5168,29.5338 C72.0378,27.7008 70.4328,26.9548 68.7828,26.6648 L63.3238,26.2838 C61.6578,26.2868 60.0218,25.7808 58.6468,24.8388 L54.9128,22.4328 C53.9158,21.7878 54.6898,20.6858 54.6898,20.2648 C54.6888,19.8048 54.1958,19.8028 53.9398,19.8028 L34.8678,19.8298 C34.3138,19.8308 33.4858,19.8528 33.0468,20.1908 C33.0468,20.1908 32.5698,20.4828 32.7098,20.7038 C32.8478,20.9248 33.3068,21.5918 32.7138,22.1668 L27.7298,26.5718 C27.3608,26.8928 26.8078,27.0438 26.0828,27.1668 L24.4348,27.4328 L24.4308,27.4308 L8.6578,29.8888 C4.7608,30.4958 1.7838,33.8178 1.9678,37.7578 C2.0138,38.7428 2.5058,39.6638 3.3058,40.2488 L3.3918,40.3118 C4.2048,40.9068 5.1898,41.2278 6.1968,41.2268 C7.0238,41.2258 7.6298,40.4998 7.6798,39.6748 C7.9168,35.8678 11.0758,32.8518 14.9418,32.8468 C18.0578,32.8418 20.6808,34.7838 21.7378,37.4768 C22.4848,39.3808 21.4978,41.2048 23.5418,41.2018 C29.0918,41.1938 46.0378,41.1698 52.1428,41.1608 C52.1418,40.6128 51.9028,38.7548 53.2238,36.4498 C54.4788,34.2618 56.8368,32.7858 59.5398,32.7818 C62.7598,32.7778 65.4978,34.8648 66.4628,37.7638 C67.0438,39.5098 68.3278,41.1378 70.1688,41.1348 C71.9838,41.1318 73.9578,39.9218 73.7348,38.1198" id="Fill-15" fill="#E9F5FD"></path>
                    <path d="M73.7348,38.1198 C73.7348,38.1198 73.5998,33.6718 72.5168,29.5338 C72.0378,27.7008 70.4328,26.9548 68.7828,26.6648 L63.3238,26.2838 C61.6578,26.2868 60.0218,25.7808 58.6468,24.8388 L54.9128,22.4328 C53.9158,21.7878 54.6898,20.6858 54.6898,20.2648 C54.6888,19.8048 54.1958,19.8028 53.9398,19.8028 L34.8678,19.8298 C34.3138,19.8308 33.4858,19.8528 33.0468,20.1908 C33.0468,20.1908 32.5698,20.4828 32.7098,20.7038 C32.8478,20.9248 33.3068,21.5918 32.7138,22.1668 L27.7298,26.5718 C27.3608,26.8928 26.8078,27.0438 26.0828,27.1668 L24.4348,27.4328 L24.4308,27.4308 L8.6578,29.8888 C4.7608,30.4958 1.7838,33.8178 1.9678,37.7578 C2.0138,38.7428 2.5058,39.6638 3.3058,40.2488 L3.3918,40.3118 C4.2048,40.9068 5.1898,41.2278 6.1968,41.2268 C7.0238,41.2258 7.6298,40.4998 7.6798,39.6748 C7.9168,35.8678 11.0758,32.8518 14.9418,32.8468 C18.0578,32.8418 20.6808,34.7838 21.7378,37.4768 C22.4848,39.3808 21.4978,41.2048 23.5418,41.2018 C29.0918,41.1938 46.0378,41.1698 52.1428,41.1608 C52.1418,40.6128 51.9028,38.7548 53.2238,36.4498 C54.4788,34.2618 56.8368,32.7858 59.5398,32.7818 C62.7598,32.7778 65.4978,34.8648 66.4628,37.7638 C67.0438,39.5098 68.3278,41.1378 70.1688,41.1348 C71.9838,41.1318 73.9578,39.9218 73.7348,38.1198 Z" id="Stroke-17" stroke="#489DEA"></path>
                    <path d="M9.3324,40.2155 C9.3374,43.3225 11.8604,45.8395 14.9694,45.8345 C18.0764,45.8295 20.5934,43.3065 20.5884,40.1995 C20.5844,37.0905 18.0604,34.5745 14.9524,34.5785 C11.8444,34.5835 9.3274,37.1065 9.3324,40.2155" id="Fill-19" fill="#B5D7EA"></path>
                    <path d="M9.3324,40.2155 C9.3374,43.3225 11.8604,45.8395 14.9694,45.8345 C18.0764,45.8295 20.5934,43.3065 20.5884,40.1995 C20.5844,37.0905 18.0604,34.5745 14.9524,34.5785 C11.8444,34.5835 9.3274,37.1065 9.3324,40.2155 Z" id="Stroke-21" stroke="#489DEA" stroke-linecap="round" stroke-linejoin="round"></path>
                    <path d="M10.4867,40.2135 C10.4907,42.6745 12.4957,44.6685 14.9667,44.6645 C17.4377,44.6605 19.4387,42.6615 19.4347,40.2005 C19.4307,37.7395 17.4247,35.7465 14.9547,35.7505 C12.4827,35.7535 10.4827,37.7525 10.4867,40.2135" id="Fill-23" fill="#B5D7EA"></path>
                    <path d="M10.4867,40.2135 C10.4907,42.6745 12.4957,44.6685 14.9667,44.6645 C17.4377,44.6605 19.4387,42.6615 19.4347,40.2005 C19.4307,37.7395 17.4247,35.7465 14.9547,35.7505 C12.4827,35.7535 10.4827,37.7525 10.4867,40.2135 Z" id="Stroke-25" stroke="#489DEA" stroke-width="0.75" stroke-linecap="round" stroke-linejoin="round"></path>
                    <path d="M13.3031,40.2082 C13.3051,41.1212 14.0481,41.8582 14.9631,41.8572 C15.8781,41.8552 16.6191,41.1162 16.6181,40.2042 C16.6161,39.2922 15.8731,38.5542 14.9581,38.5562 C14.0431,38.5572 13.3021,39.2972 13.3031,40.2082" id="Fill-27" fill="#489DEA"></path>
                    <path d="M66.4769,42.1608 C66.1689,42.9948 66.8949,43.1068 67.5209,43.1058 L73.2689,43.0978 C73.9299,43.0968 74.5039,42.6348 74.6479,41.9898 L75.4779,38.2578 C75.6049,37.6908 75.1739,37.1538 74.5919,37.1548 L67.5119,37.1648 C66.8859,37.1658 66.2979,37.2358 66.6709,38.3308 C67.0809,39.5278 66.7859,41.3238 66.4769,42.1608 Z" id="Stroke-29" stroke="#489DEA" stroke-linecap="round" stroke-linejoin="round"></path>
                    <path d="M74.3129,37.1779 L73.9039,37.1779 C73.9009,37.1969 73.9019,37.2159 73.8979,37.2339 L73.0679,40.9649 C72.9239,41.6109 72.3499,42.0719 71.6899,42.0729 L66.2329,42.0809 C66.2209,42.1149 66.2089,42.1509 66.1979,42.1829 C65.8899,43.0179 66.6159,43.1299 67.2409,43.1289 L72.9899,43.1199 C73.6509,43.1189 74.2249,42.6569 74.3689,42.0119 L75.1979,38.2809 C75.3259,37.7129 74.8949,37.1769 74.3129,37.1779" id="Fill-31" fill="#489DEA"></path>
                    <path d="M66.4769,42.1608 C66.1689,42.9948 66.8949,43.1068 67.5209,43.1058 L73.2689,43.0978 C73.9299,43.0968 74.5039,42.6348 74.6479,41.9898 L75.4779,38.2578 C75.6049,37.6908 75.1739,37.1538 74.5919,37.1548 L67.5119,37.1648 C66.8859,37.1658 66.2979,37.2358 66.6709,38.3308 C67.0809,39.5278 66.7859,41.3238 66.4769,42.1608" id="Fill-33" fill="#C1E2F8"></path>
                    <path d="M66.4769,42.1608 C66.1689,42.9948 66.8949,43.1068 67.5209,43.1058 L73.2689,43.0978 C73.9299,43.0968 74.5039,42.6348 74.6479,41.9898 L75.4779,38.2578 C75.6049,37.6908 75.1739,37.1538 74.5919,37.1548 L67.5119,37.1648 C66.8859,37.1658 66.2979,37.2358 66.6709,38.3308 C67.0809,39.5278 66.7859,41.3238 66.4769,42.1608 Z" id="Stroke-35" stroke="#489DEA" stroke-linecap="round" stroke-linejoin="round"></path>
                    <path d="M70.9701,35.6383 C70.3481,35.6383 69.8411,35.1323 69.8411,34.5103 L69.8411,34.3943 C69.8401,34.0933 69.9571,33.8093 70.1701,33.5963 C70.3831,33.3823 70.6671,33.2643 70.9701,33.2633 L72.8981,33.2613 C73.0861,33.2613 73.2451,33.4013 73.2701,33.5883 L73.4801,35.2123 C73.4931,35.3193 73.4601,35.4273 73.3901,35.5083 C73.3191,35.5893 73.2161,35.6353 73.1091,35.6353 L70.9731,35.6383 L70.9701,35.6383 Z" id="Fill-37" fill="#E9F5FD"></path>
                    <path d="M72.8978,32.8859 L72.8968,32.8859 L70.9688,32.8889 C70.5668,32.8889 70.1888,33.0459 69.9058,33.3309 C69.6218,33.6149 69.4648,33.9929 69.4658,34.3949 L69.4658,34.5109 C69.4668,35.3399 70.1418,36.0129 70.9708,36.0129 L73.1088,36.0109 C73.3238,36.0099 73.5288,35.9169 73.6708,35.7559 C73.8128,35.5939 73.8778,35.3779 73.8508,35.1649 L73.6418,33.5399 C73.5928,33.1659 73.2748,32.8859 72.8978,32.8859 M72.8978,33.6359 L73.1078,35.2609 L70.9718,35.2629 L70.9708,35.2629 C70.5538,35.2629 70.2158,34.9269 70.2158,34.5099 L70.2158,34.3939 C70.2148,33.9769 70.5518,33.6389 70.9698,33.6389 L72.8978,33.6359" id="Fill-39" fill="#489DEA"></path>
                    <path d="M70.9672,33.0773 C70.3462,33.0773 69.8382,32.5713 69.8372,31.9503 L69.8372,31.8323 C69.8362,31.5323 69.9532,31.2483 70.1662,31.0353 C70.3792,30.8213 70.6632,30.7023 70.9662,30.7023 L72.4332,30.7003 C72.6132,30.7003 72.7672,30.8273 72.8012,31.0033 L73.1182,32.6283 C73.1402,32.7383 73.1112,32.8513 73.0402,32.9383 C72.9692,33.0243 72.8632,33.0753 72.7512,33.0753 L70.9692,33.0773 L70.9672,33.0773 Z" id="Fill-41" fill="#E9F5FD"></path>
                    <path d="M72.433,30.3249 L72.432,30.3249 L70.965,30.3269 C70.563,30.3279 70.185,30.4849 69.902,30.7689 C69.618,31.0539 69.461,31.4319 69.462,31.8339 L69.462,31.9499 C69.463,32.7779 70.139,33.4519 70.967,33.4519 L72.751,33.4499 C72.976,33.4499 73.188,33.3489 73.329,33.1759 C73.472,33.0029 73.53,32.7759 73.487,32.5559 L73.169,30.9309 C73.1,30.5789 72.791,30.3249 72.433,30.3249 M72.433,31.0749 L72.75,32.6999 L70.968,32.7019 L70.967,32.7019 C70.55,32.7019 70.213,32.3649 70.212,31.9489 L70.212,31.8329 C70.211,31.4159 70.549,31.0779 70.966,31.0769 L72.433,31.0749" id="Fill-43" fill="#489DEA"></path>
                    <path d="M59.5453,34.5148 C56.4373,34.5188 53.9203,37.0418 53.9253,40.1508 C53.9293,43.2588 56.4533,45.7748 59.5613,45.7698 C62.6683,45.7658 65.1853,43.2428 65.1803,40.1348 C65.1763,37.0258 62.6523,34.5108 59.5453,34.5148" id="Fill-45" fill="#B5D7EA"></path>
                    <path d="M59.5453,34.5148 C56.4373,34.5188 53.9203,37.0418 53.9253,40.1508 C53.9293,43.2588 56.4533,45.7748 59.5613,45.7698 C62.6683,45.7658 65.1853,43.2428 65.1803,40.1348 C65.1763,37.0258 62.6523,34.5108 59.5453,34.5148 Z" id="Stroke-47" stroke="#489DEA" stroke-linecap="round" stroke-linejoin="round"></path>
                    <path d="M59.5551,41.7931 C58.6401,41.7941 57.8971,41.0571 57.8961,40.1441 C57.8951,39.2331 58.6351,38.4931 59.5511,38.4921 C60.4651,38.4901 61.2081,39.2291 61.2091,40.1391 C61.2111,41.0521 60.4701,41.7921 59.5551,41.7931 M59.5461,35.6861 C57.0761,35.6891 55.0751,37.6881 55.0781,40.1491 C55.0811,42.6101 57.0881,44.6041 59.5601,44.6001 C62.0311,44.5971 64.0311,42.5971 64.0271,40.1371 C64.0231,37.6751 62.0171,35.6821 59.5461,35.6861" id="Fill-49" fill="#B5D7EA"></path>
                    <path d="M59.5551,41.7931 C58.6401,41.7941 57.8971,41.0571 57.8961,40.1441 C57.8951,39.2331 58.6351,38.4931 59.5511,38.4921 C60.4651,38.4901 61.2081,39.2291 61.2091,40.1391 C61.2111,41.0521 60.4701,41.7921 59.5551,41.7931 Z M59.5461,35.6861 C57.0761,35.6891 55.0751,37.6881 55.0781,40.1491 C55.0811,42.6101 57.0881,44.6041 59.5601,44.6001 C62.0311,44.5971 64.0311,42.5971 64.0271,40.1371 C64.0231,37.6751 62.0171,35.6821 59.5461,35.6861 Z" id="Stroke-51" stroke="#489DEA" stroke-width="0.75" stroke-linecap="round" stroke-linejoin="round"></path>
                    <path d="M59.5512,38.4919 C58.6352,38.4929 57.8952,39.2339 57.8962,40.1439 C57.8972,41.0569 58.6402,41.7939 59.5552,41.7929 C60.4702,41.7919 61.2112,41.0519 61.2092,40.1389 C61.2082,39.2289 60.4652,38.4909 59.5512,38.4919" id="Fill-53" fill="#489DEA"></path>
                    <path d="M8.4418,42.4211 C8.8238,43.4851 7.4698,43.1701 6.8448,43.1711 L2.7458,43.1761 C2.0848,43.1771 1.5098,42.7171 1.3638,42.0731 L0.5228,38.3441 C0.3938,37.7761 0.8248,37.2391 1.4058,37.2381 L7.1038,37.2301 C7.7288,37.2291 8.5168,37.5361 8.1718,38.6221 C7.8278,39.7061 8.0788,41.4051 8.4418,42.4211 Z" id="Stroke-55" stroke="#489DEA" stroke-linecap="round" stroke-linejoin="round"></path>
                    <path d="M8.4418,42.4162 C8.0658,41.4052 7.8278,39.7022 8.1718,38.6172 C8.5168,37.5322 7.7288,37.2252 7.1038,37.2262 L6.5048,37.2262 C6.4918,37.2862 6.4758,37.3492 6.4548,37.4142 C6.1648,38.3292 5.7988,39.7012 6.1078,41.1502 C6.1948,41.5572 5.9158,41.9622 5.4998,41.9622 L1.3408,41.9682 L1.3638,42.0682 C1.5098,42.7132 2.0848,43.1732 2.7458,43.1722 L6.8448,43.1662 C7.4698,43.1652 8.7388,43.2122 8.4418,42.4162" id="Fill-57" fill="#489DEA"></path>
                    <path d="M8.4418,42.4211 C8.8238,43.4851 7.4698,43.1701 6.8448,43.1711 L2.7458,43.1761 C2.0848,43.1771 1.5098,42.7171 1.3638,42.0731 L0.5228,38.3441 C0.3938,37.7761 0.8248,37.2391 1.4058,37.2381 L7.1038,37.2301 C7.7288,37.2291 8.5168,37.5361 8.1718,38.6221 C7.8278,39.7061 8.0788,41.4051 8.4418,42.4211" id="Fill-59" fill="#C1E2F8"></path>
                    <path d="M8.4418,42.4211 C8.8238,43.4851 7.4698,43.1701 6.8448,43.1711 L2.7458,43.1761 C2.0848,43.1771 1.5098,42.7171 1.3638,42.0731 L0.5228,38.3441 C0.3938,37.7761 0.8248,37.2391 1.4058,37.2381 L7.1038,37.2301 C7.7288,37.2291 8.5168,37.5361 8.1718,38.6221 C7.8278,39.7061 8.0788,41.4051 8.4418,42.4211 Z" id="Stroke-61" stroke="#489DEA" stroke-linecap="round" stroke-linejoin="round"></path>
                    <path d="M2.7816,35.3922 C2.6576,35.3922 2.5426,35.3312 2.4716,35.2292 C2.4026,35.1272 2.3866,34.9972 2.4316,34.8822 C2.4426,34.8542 2.6946,34.2032 3.0376,33.6632 C3.3776,33.1262 3.8596,32.5962 3.8806,32.5742 C3.9506,32.4962 4.0516,32.4522 4.1556,32.4522 L6.8026,32.4482 C7.0986,32.4482 7.3786,32.5902 7.5516,32.8292 C7.7256,33.0702 7.7736,33.3712 7.6806,33.6542 L7.4666,34.4042 C7.2696,35.0022 6.7286,35.3952 6.1156,35.3952 L2.7816,35.3922 Z" id="Fill-63" fill="#E9F5FD"></path>
                    <path d="M6.8051,32.0729 L6.8041,32.0729 L4.1561,32.0769 C3.9451,32.0769 3.7441,32.1659 3.6031,32.3209 C3.5811,32.3439 3.0771,32.8979 2.7201,33.4629 C2.3591,34.0339 2.0931,34.7189 2.0811,34.7469 C1.9931,34.9779 2.0231,35.2369 2.1621,35.4409 C2.3021,35.6449 2.5341,35.7669 2.7811,35.7669 L6.1151,35.7709 C6.8921,35.7699 7.5761,35.2739 7.8191,34.5359 L8.0451,33.7429 C8.1661,33.3799 8.0991,32.9449 7.8561,32.6099 C7.6131,32.2739 7.2201,32.0729 6.8051,32.0729 M6.8051,32.8229 C7.1771,32.8229 7.4401,33.1859 7.3251,33.5369 L7.1071,34.3019 C6.9651,34.7279 6.5661,35.0199 6.1161,35.0209 L2.7821,35.0169 C2.7821,35.0169 3.0281,34.3789 3.3541,33.8639 C3.6801,33.3479 4.1571,32.8269 4.1571,32.8269 L6.8041,32.8229 L6.8051,32.8229" id="Fill-65" fill="#489DEA"></path>
                    <path d="M6.8139,32.818 L5.7289,32.82 C6.1019,32.819 6.3659,33.182 6.2489,33.534 L6.0309,34.298 C5.8949,34.715 5.5089,35.001 5.0729,35.015 L6.1259,35.016 C6.5749,35.015 6.9749,34.724 7.1159,34.297 L7.3339,33.533 C7.4499,33.181 7.1859,32.818 6.8139,32.818" id="Fill-67" fill="#489DEA" opacity="0.3"></path>
                    <path d="M50.1361,29.3551 C50.5311,29.3551 50.8501,29.0341 50.8501,28.6401 L50.8491,28.4871 C50.8491,28.0291 50.6701,27.5871 50.3531,27.2581 L46.0531,22.8901 C45.9271,22.7591 45.7501,22.6851 45.5701,22.6851 L36.7061,22.6981 C36.4831,22.6981 36.2651,22.7771 36.0931,22.9221 L29.7721,28.8041 C29.5491,29.0111 29.6971,29.3851 30.0001,29.3841 L50.1361,29.3551 Z" id="Fill-69" fill="#FFFFFF"></path>
                    <path d="M50.1361,29.3551 C50.5311,29.3551 50.8501,29.0341 50.8501,28.6401 L50.8491,28.4871 C50.8491,28.0291 50.6701,27.5871 50.3531,27.2581 L46.0531,22.8901 C45.9271,22.7591 45.7501,22.6851 45.5701,22.6851 L36.7061,22.6981 C36.4831,22.6981 36.2651,22.7771 36.0931,22.9221 L29.7721,28.8041 C29.5491,29.0111 29.6971,29.3851 30.0001,29.3841 L50.1361,29.3551 Z" id="Stroke-71" stroke="#489DEA" stroke-width="0.75" stroke-linecap="round" stroke-linejoin="round"></path>
                    <path d="M52.7992,40.8971 C52.7432,40.6821 52.5492,40.5311 52.3272,40.5311 L22.3402,40.5741 C22.1182,40.5741 21.9242,40.7271 21.8692,40.9411 L21.3932,42.8081 C21.3462,42.9931 21.4872,43.1721 21.6782,43.1721 L52.9972,43.1261 C53.1892,43.1261 53.3272,42.9471 53.2802,42.7621 L52.7992,40.8971 Z" id="Fill-73" fill="#C1E2F8"></path>
                    <path d="M52.7992,40.8971 C52.7432,40.6821 52.5492,40.5311 52.3272,40.5311 L22.3402,40.5741 C22.1182,40.5741 21.9242,40.7271 21.8692,40.9411 L21.3932,42.8081 C21.3462,42.9931 21.4872,43.1721 21.6782,43.1721 L52.9972,43.1261 C53.1892,43.1261 53.3272,42.9471 53.2802,42.7621 L52.7992,40.8971 Z" id="Stroke-75" stroke="#489DEA" stroke-width="0.75" stroke-linecap="round" stroke-linejoin="round"></path>
                    <path d="M22.14,39.9533 L21.393,42.8083 C21.346,42.9933 21.487,43.1723 21.678,43.1723 L52.997,43.1263 C53.189,43.1263 53.327,42.9473 53.281,42.7623 L52.723,40.6373" id="Stroke-77" stroke="#489DEA" stroke-linecap="round" stroke-linejoin="round"></path>
                    <path d="M50.2357,31.2414 L46.9127,31.2464" id="Stroke-79" stroke="#489DEA" stroke-linecap="round" stroke-linejoin="round"></path>
                    <path d="M24.2572,31.2785 L22.5962,31.2805" id="Stroke-81" stroke="#489DEA" stroke-linecap="round" stroke-linejoin="round"></path>
                    <path d="M59.391,37.2179 C62.003,37.2139 64.197,38.9939 64.834,41.4069 C64.953,40.9489 65.024,40.4709 65.023,39.9759 C65.018,36.8659 62.495,34.3509 59.387,34.3549 C56.28,34.3599 53.763,36.8829 53.767,39.9919 C53.768,40.4869 53.839,40.9649 53.96,41.4229 C54.59,39.0079 56.78,37.2219 59.391,37.2179" id="Fill-83" fill-opacity="0.3" fill="#489DEA"></path>
                    <path d="M14.7904,37.2819 C17.4024,37.2789 19.5964,39.0579 20.2334,41.4709 C20.3524,41.0129 20.4234,40.5349 20.4224,40.0399 C20.4174,36.9299 17.8944,34.4149 14.7864,34.4199 C11.6784,34.4239 9.1614,36.9469 9.1664,40.0559 C9.1674,40.5519 9.2384,41.0289 9.3584,41.4869 C9.9894,39.0719 12.1784,37.2859 14.7904,37.2819" id="Fill-85" fill-opacity="0.3" fill="#489DEA"></path>
                    <path d="M54.0287,39.0451 C53.2787,43.0131 56.6997,46.4241 60.6677,45.6631 C62.8817,45.2381 64.6637,43.4481 65.0787,41.2321 C65.8197,37.2671 62.4057,33.8651 58.4447,34.6211 C56.2307,35.0431 54.4477,36.8301 54.0287,39.0451 Z" id="Stroke-87" stroke="#489DEA" stroke-width="1.75" stroke-linecap="round" stroke-linejoin="round"></path>
                    <path d="M9.3324,40.2155 C9.3374,43.3225 11.8604,45.8395 14.9694,45.8345 C18.0764,45.8295 20.5934,43.3065 20.5884,40.1995 C20.5844,37.0905 18.0604,34.5745 14.9524,34.5785 C11.8444,34.5835 9.3274,37.1065 9.3324,40.2155 Z" id="Stroke-89" stroke="#489DEA" stroke-width="1.75" stroke-linecap="round" stroke-linejoin="round"></path>
                    <path d="M66.8891,31.1071 C66.8891,31.3711 66.6761,31.5851 66.4111,31.5851 L64.8261,31.5871 C64.5621,31.5881 64.3481,31.3741 64.3471,31.1101 L64.3451,29.5251 C64.3451,29.2611 64.5591,29.0471 64.8231,29.0461 L66.4081,29.0441 C66.6721,29.0441 66.8861,29.2571 66.8861,29.5211 L66.8891,31.1071 Z" id="Stroke-91" stroke="#489DEA" stroke-width="0.75" stroke-linecap="round" stroke-linejoin="round"></path>
                    <path d="M50.8822,34.0807 L50.8822,34.0737 C53.3012,31.5127 53.7612,31.2647 53.7602,30.2357 L53.7592,29.4587 C53.7582,28.9117 53.5442,28.3827 53.1642,27.9897 L47.2082,22.0647 C46.8312,21.6727 46.3062,21.4507 45.7622,21.4517 L36.7352,21.4647 C36.1842,21.4657 35.6492,21.6617 35.2272,22.0167 L28.1632,28.4107 C27.7642,28.7787 27.5352,29.2997 27.5372,29.8437 L27.5542,37.5557 C27.5562,38.4987 28.3202,39.2627 29.2652,39.2617 L48.3632,39.2337 C48.8232,39.2327 49.1882,38.8547 49.2002,38.3937 C49.2482,36.6237 49.8512,35.2107 50.8822,34.0807 Z" id="Stroke-93" stroke="#489DEA" stroke-width="0.75" stroke-linecap="round" stroke-linejoin="round"></path>
                </g>
            </g>
        </g>
    </g>
</svg>