<?xml version="1.0" encoding="UTF-8"?>
<svg width="94px" height="36px" viewBox="0 0 76 32" version="1.1" xmlns="http://www.w3.org/2000/svg" xmlns:xlink="http://www.w3.org/1999/xlink">
    <!-- Generator: sketchtool 52.3 (67297) - http://www.bohemiancoding.com/sketch -->
    <title>67CD0FF1-39B8-4F13-BE84-4D6F5A73ABBB@1x</title>
    <desc>Created with sketchtool.</desc>
    <g id="Page-1" stroke="none" stroke-width="1" fill="none" fill-rule="evenodd">
        <g id="Car-Model-Icons" transform="translate(-23.000000, -240.000000)">
            <g id="HATCHBACK" transform="translate(23.000000, 240.000000)">
                <g id="Group-4" transform="translate(22.000000, 24.964700)">
                    <path d="M1.4129,0.0163 L0.6179,3.0373 C0.5679,3.2333 0.7159,3.4233 0.9189,3.4233 L31.2119,3.4233 C31.4159,3.4233 31.5619,3.2333 31.5129,3.0373 L30.9269,0.7873" id="Fill-1" fill="#C1E2F8"></path>
                    <path d="M1.4129,0.0163 L0.6179,3.0373 C0.5679,3.2333 0.7159,3.4233 0.9189,3.4233 L31.2119,3.4233 C31.4159,3.4233 31.5619,3.2333 31.5129,3.0373 L30.9269,0.7873" id="Stroke-3" stroke="#489DEA" stroke-linecap="round" stroke-linejoin="round"></path>
                </g>
                <path d="M21.9949,10.6587 C21.8429,10.6587 21.7029,10.5657 21.6459,10.4217 C21.5849,10.2657 21.6339,10.0877 21.7669,9.9857 L33.1369,1.2867 C33.2019,1.2367 33.2819,1.2097 33.3639,1.2097 C33.3749,1.2097 33.3849,1.2097 33.3949,1.2107 C33.9909,1.2607 34.3529,1.4567 34.4739,1.7947 C34.5839,2.1077 34.4549,2.4627 34.1079,2.7937 C32.0119,4.9767 27.0199,10.0947 26.2179,10.2297 C26.2179,10.2297 22.0079,10.6587 21.9949,10.6587" id="Fill-5" fill="#FFFFFF"></path>
                <path d="M33.3641,0.8345 C33.1991,0.8345 33.0391,0.8885 32.9081,0.9885 L21.5391,9.6885 C21.2721,9.8925 21.1741,10.2485 21.2981,10.5605 C21.4121,10.8485 21.6901,11.0335 21.9951,11.0335 C22.0201,11.0335 22.0461,11.0325 22.0711,11.0295 L26.2311,10.6055 C26.5561,10.5525 27.2921,10.4285 34.3901,3.0425 C34.8201,2.6325 34.9871,2.1235 34.8271,1.6695 C34.6531,1.1805 34.1811,0.8995 33.4261,0.8365 C33.4051,0.8345 33.3851,0.8345 33.3641,0.8345 M33.3641,1.5845 C34.3701,1.6675 34.2331,2.1555 33.8491,2.5225 C33.8491,2.5225 26.9231,9.7305 26.1551,9.8595 L21.9951,10.2835 L33.3641,1.5845" id="Fill-7" fill="#489DEA"></path>
                <path d="M69.9246,10.4551 C69.8926,10.4551 69.8606,10.4511 69.8276,10.4421 L65.2816,9.2291 C65.2056,9.2081 65.1376,9.1641 65.0876,9.1021 L59.7006,2.4521 C59.5886,2.3141 59.5896,2.1161 59.7016,1.9781 L60.5246,0.9751 C60.5906,0.8931 60.6886,0.8431 60.7926,0.8371 C60.8006,0.8371 60.8076,0.8371 60.8146,0.8371 C60.9116,0.8371 61.0056,0.8751 61.0756,0.9431 L70.1866,9.8111 C70.3086,9.9301 70.3346,10.1171 70.2506,10.2651 C70.1826,10.3851 70.0576,10.4551 69.9246,10.4551" id="Fill-9" fill="#FFFFFF"></path>
                <path d="M60.8143,0.462 C60.8003,0.462 60.7873,0.462 60.7723,0.463 C60.5633,0.475 60.3683,0.574 60.2343,0.737 L59.4123,1.741 C59.1863,2.016 59.1853,2.412 59.4093,2.689 L64.7953,9.339 C64.8953,9.462 65.0323,9.55 65.1853,9.591 L69.7313,10.805 C69.7953,10.822 69.8603,10.831 69.9243,10.831 C70.1893,10.831 70.4413,10.69 70.5773,10.451 C70.7453,10.154 70.6923,9.781 70.4483,9.543 L61.3373,0.674 C61.1973,0.538 61.0093,0.462 60.8143,0.462 M60.8143,1.212 L69.9243,10.08 L65.3783,8.867 L59.9923,2.216 L60.8143,1.212" id="Fill-11" fill="#489DEA"></path>
                <path d="M61.533,1.9112 L60.656,2.7102 L63.062,5.5692 C63.062,5.5692 62.216,4.6782 63.173,3.5072 L61.533,1.9112 Z" id="Fill-13" fill-opacity="0.3" fill="#489DEA"></path>
                <path d="M33.0643,1.7969 L33.2183,2.5369 L30.6973,4.8899 C30.6973,4.8899 31.6233,3.7969 31.2323,3.2149 L33.0643,1.7969 Z" id="Fill-15" fill-opacity="0.3" fill="#489DEA"></path>
                <path d="M72.4393,11.8643 C71.9683,10.1063 70.9103,9.8253 69.1633,9.5153 L66.5713,9.1553 C64.8063,9.1553 60.6553,3.1823 60.6553,3.1823 C59.7933,2.2013 61.4203,1.9543 61.4203,0.9903 C61.4203,0.5033 60.8993,0.5003 60.6273,0.5003 L35.0053,0.5003 C34.4203,0.5003 34.1813,0.5233 33.7163,0.8793 C33.7163,0.8793 33.2283,1.2333 33.4293,1.7973 C33.5223,2.0573 33.8193,2.5253 33.1913,3.1333 L26.8083,9.2353 C26.3923,9.6333 25.8513,9.8613 25.2813,9.9383 C22.7073,10.2833 14.5503,11.6043 9.3493,12.5683 C4.9133,13.3913 1.8663,18.4523 2.0553,22.6253 C2.1023,23.6693 2.6223,24.6453 3.4673,25.2653 L3.5593,25.3323 C4.4183,25.9633 5.4613,26.3043 6.5273,26.3043 C7.4033,26.3043 8.0453,25.5383 8.1013,24.6633 C8.3573,20.6323 11.7073,17.4443 15.8003,17.4443 C19.1013,17.4443 21.8763,19.5043 22.9913,22.3593 C23.7783,24.3753 22.7303,26.3043 24.8943,26.3043 L52.3103,26.3043 C52.3103,25.7253 52.0593,23.7573 53.4613,21.3183 C54.7933,19.0033 57.2923,17.4443 60.1553,17.4443 C63.5663,17.4443 66.4603,19.6583 67.4783,22.7293 C68.0913,24.5793 69.4493,26.3043 71.3973,26.3043 C72.2293,26.3043 73.6423,26.5853 73.6423,23.6213 C73.6423,17.8953 73.0923,14.3093 72.4393,11.8643" id="Fill-17" fill="#E9F5FD"></path>
                <path d="M72.4393,11.8643 C71.9683,10.1063 70.9103,9.8253 69.1633,9.5153 L66.5713,9.1553 C64.8063,9.1553 60.6553,3.1823 60.6553,3.1823 C59.7933,2.2013 61.4203,1.9543 61.4203,0.9903 C61.4203,0.5033 60.8993,0.5003 60.6273,0.5003 L35.0053,0.5003 C34.4203,0.5003 34.1813,0.5233 33.7163,0.8793 C33.7163,0.8793 33.2283,1.2333 33.4293,1.7973 C33.5223,2.0573 33.8193,2.5253 33.1913,3.1333 L26.8083,9.2353 C26.3923,9.6333 25.8513,9.8613 25.2813,9.9383 C22.7073,10.2833 14.5503,11.6043 9.3493,12.5683 C4.9133,13.3913 1.8663,18.4523 2.0553,22.6253 C2.1023,23.6693 2.6223,24.6453 3.4673,25.2653 L3.5593,25.3323 C4.4183,25.9633 5.4613,26.3043 6.5273,26.3043 C7.4033,26.3043 8.0453,25.5383 8.1013,24.6633 C8.3573,20.6323 11.7073,17.4443 15.8003,17.4443 C19.1013,17.4443 21.8763,19.5043 22.9913,22.3593 C23.7783,24.3753 22.7303,26.3043 24.8943,26.3043 L52.3103,26.3043 C52.3103,25.7253 52.0593,23.7573 53.4613,21.3183 C54.7933,19.0033 57.2923,17.4443 60.1553,17.4443 C63.5663,17.4443 66.4603,19.6583 67.4783,22.7293 C68.0913,24.5793 69.4493,26.3043 71.3973,26.3043 C72.2293,26.3043 73.6423,26.5853 73.6423,23.6213 C73.6423,17.8953 73.0923,14.3093 72.4393,11.8643 Z" id="Stroke-19" stroke="#489DEA"></path>
                <path d="M67.4881,27.3858 C67.1611,28.2688 67.9281,28.3878 68.5911,28.3878 L73.1311,28.3878 C73.8301,28.3878 74.4381,27.8998 74.5921,27.2178 L75.4761,23.2668 C75.6111,22.6658 75.1561,22.0978 74.5401,22.0978 L68.5911,22.0978 C67.9281,22.0978 67.3051,22.1708 67.6991,23.3308 C68.1321,24.5988 67.8151,26.4998 67.4881,27.3858 Z" id="Stroke-21" stroke="#489DEA" stroke-linecap="round" stroke-linejoin="round"></path>
                <path d="M74.2439,22.1216 L73.8109,22.1216 C73.8079,22.1416 73.8089,22.1606 73.8049,22.1796 L72.9209,26.1306 C72.7659,26.8136 72.1579,27.3016 71.4589,27.3016 L67.2289,27.3016 C67.2169,27.3376 67.2049,27.3756 67.1919,27.4096 C66.8649,28.2926 67.6329,28.4116 68.2949,28.4116 L72.8339,28.4116 C73.5339,28.4116 74.1419,27.9236 74.2959,27.2406 L75.1809,23.2906 C75.3149,22.6896 74.8599,22.1216 74.2439,22.1216" id="Fill-23" fill="#C1E2F8"></path>
                <path d="M74.2439,22.1216 L73.8109,22.1216 C73.8079,22.1416 73.8089,22.1606 73.8049,22.1796 L72.9209,26.1306 C72.7659,26.8136 72.1579,27.3016 71.4589,27.3016 L67.2289,27.3016 C67.2169,27.3376 67.2049,27.3756 67.1919,27.4096 C66.8649,28.2926 67.6329,28.4116 68.2949,28.4116 L72.8339,28.4116 C73.5339,28.4116 74.1419,27.9236 74.2959,27.2406 L75.1809,23.2906 C75.3149,22.6896 74.8599,22.1216 74.2439,22.1216 Z" id="Stroke-25" stroke="#489DEA" stroke-linecap="round" stroke-linejoin="round"></path>
                <path d="M67.4881,27.3858 C67.1611,28.2688 67.9281,28.3878 68.5911,28.3878 L73.1311,28.3878 C73.8301,28.3878 74.4381,27.8998 74.5921,27.2178 L75.4761,23.2668 C75.6111,22.6658 75.1561,22.0978 74.5401,22.0978 L68.5911,22.0978 C67.9281,22.0978 67.3051,22.1708 67.6991,23.3308 C68.1321,24.5988 67.8151,26.4998 67.4881,27.3858" id="Fill-27" fill="#C1E2F8"></path>
                <path d="M67.4881,27.3858 C67.1611,28.2688 67.9281,28.3878 68.5911,28.3878 L73.1311,28.3878 C73.8301,28.3878 74.4381,27.8998 74.5921,27.2178 L75.4761,23.2668 C75.6111,22.6658 75.1561,22.0978 74.5401,22.0978 L68.5911,22.0978 C67.9281,22.0978 67.3051,22.1708 67.6991,23.3308 C68.1321,24.5988 67.8151,26.4998 67.4881,27.3858 Z" id="Stroke-29" stroke="#489DEA" stroke-width="0.75" stroke-linecap="round" stroke-linejoin="round"></path>
                <path d="M8.9031,27.5733 C9.3061,28.7003 7.8741,28.3653 7.2121,28.3653 L2.8701,28.3653 C2.1711,28.3653 1.5621,27.8773 1.4091,27.1943 L0.5241,23.2433 C0.3881,22.6423 0.8451,22.0743 1.4611,22.0743 L7.4941,22.0743 C8.1551,22.0743 8.9901,22.4013 8.6241,23.5503 C8.2571,24.6983 8.5201,26.4973 8.9031,27.5733 Z" id="Stroke-31" stroke="#489DEA" stroke-linecap="round" stroke-linejoin="round"></path>
                <path d="M8.9031,27.5684 C8.5071,26.4974 8.2571,24.6924 8.6241,23.5444 C8.9901,22.3964 8.1551,22.0694 7.4941,22.0694 L6.8601,22.0694 C6.8461,22.1324 6.8291,22.1984 6.8071,22.2684 C6.4981,23.2364 6.1091,24.6884 6.4341,26.2244 C6.5251,26.6544 6.2291,27.0834 5.7891,27.0834 L1.3851,27.0834 L1.4091,27.1884 C1.5621,27.8724 2.1711,28.3604 2.8701,28.3604 L7.2121,28.3604 C7.8741,28.3604 9.2151,28.4114 8.9031,27.5684" id="Fill-33" fill="#000000"></path>
                <path d="M8.9031,27.5733 C9.3061,28.7003 7.8741,28.3653 7.2121,28.3653 L2.8701,28.3653 C2.1711,28.3653 1.5621,27.8773 1.4091,27.1943 L0.5241,23.2433 C0.3881,22.6423 0.8451,22.0743 1.4611,22.0743 L7.4941,22.0743 C8.1551,22.0743 8.9901,22.4013 8.6241,23.5503 C8.2571,24.6983 8.5201,26.4973 8.9031,27.5733" id="Fill-35" fill="#C1E2F8"></path>
                <path d="M8.9031,27.5733 C9.3061,28.7003 7.8741,28.3653 7.2121,28.3653 L2.8701,28.3653 C2.1711,28.3653 1.5621,27.8773 1.4091,27.1943 L0.5241,23.2433 C0.3881,22.6423 0.8451,22.0743 1.4611,22.0743 L7.4941,22.0743 C8.1551,22.0743 8.9901,22.4013 8.6241,23.5503 C8.2571,24.6983 8.5201,26.4973 8.9031,27.5733 Z" id="Stroke-37" stroke="#489DEA" stroke-width="0.75" stroke-linecap="round" stroke-linejoin="round"></path>
                <path d="M2.7889,20.4053 C2.6679,20.4053 2.5549,20.3463 2.4839,20.2473 C2.4139,20.1483 2.3959,20.0213 2.4349,19.9073 C2.4559,19.8503 2.9239,18.5063 3.2379,17.8293 C3.6079,17.0273 4.3549,16.0533 4.3879,16.0123 C4.4589,15.9213 4.5679,15.8663 4.6849,15.8663 L7.3439,15.8663 C7.6499,15.8663 7.9399,16.0153 8.1189,16.2633 C8.2989,16.5143 8.3469,16.8253 8.2479,17.1183 L7.5979,19.3823 C7.3929,20.0053 6.8269,20.4143 6.1869,20.4143 L2.7889,20.4053 Z" id="Fill-39" fill="#FFFFFF"></path>
                <path d="M7.3436,15.4917 L4.6846,15.4917 C4.4516,15.4917 4.2326,15.5997 4.0906,15.7837 C4.0576,15.8257 3.2846,16.8317 2.8976,17.6727 C2.5756,18.3657 2.1016,19.7257 2.0816,19.7837 C2.0016,20.0127 2.0376,20.2657 2.1776,20.4637 C2.3186,20.6617 2.5456,20.7797 2.7876,20.7807 L6.1856,20.7887 C6.9896,20.7887 7.6976,20.2767 7.9486,19.5147 L8.6136,17.2057 C8.7386,16.8337 8.6706,16.3877 8.4226,16.0437 C8.1736,15.6987 7.7706,15.4917 7.3436,15.4917 M7.3436,16.2417 C7.7386,16.2417 8.0176,16.6267 7.8926,16.9987 L7.2376,19.2787 C7.0876,19.7307 6.6626,20.0387 6.1876,20.0387 L2.7896,20.0307 C2.7896,20.0307 3.2686,18.6547 3.5776,17.9867 C3.9356,17.2137 4.6846,16.2417 4.6846,16.2417 L7.3436,16.2417" id="Fill-41" fill="#489DEA"></path>
                <path d="M7.3533,16.2369 L6.2053,16.2369 C6.5993,16.2369 6.8783,16.6209 6.7543,16.9939 L6.0793,19.2789 C5.9333,19.7199 5.5253,20.0219 5.0623,20.0359 L6.1763,20.0389 C6.6533,20.0389 7.0783,19.7309 7.2273,19.2789 L7.9023,16.9939 C8.0273,16.6209 7.7493,16.2369 7.3533,16.2369" id="Fill-43" fill-opacity="0.2" fill="#489DEA"></path>
                <path d="M23.7527,15.7979 L21.9937,15.7979" id="Stroke-45" stroke="#489DEA" stroke-linecap="round" stroke-linejoin="round"></path>
                <path d="M65.951,14.4634 C65.951,14.7424 65.725,14.9694 65.445,14.9694 L63.766,14.9694 C63.486,14.9694 63.261,14.7424 63.261,14.4634 L63.261,12.7844 C63.261,12.5044 63.486,12.2784 63.766,12.2784 L65.445,12.2784 C65.725,12.2784 65.951,12.5044 65.951,12.7844 L65.951,14.4634 Z" id="Stroke-47" stroke="#489DEA" stroke-width="0.75" stroke-linecap="round" stroke-linejoin="round"></path>
                <path d="M28.8807,11.939 C28.8807,11.362 29.1147,10.806 29.5307,10.405 L36.0877,2.786 C36.5047,2.383 37.0637,2.157 37.6437,2.157 L46.2977,2.157 C46.7967,2.157 47.2017,2.562 47.2017,3.381 L47.2017,23.667 C47.2017,23.847 46.7967,24.252 46.2977,24.252 L29.7857,24.252 C29.2857,24.252 28.8807,23.847 28.8807,23.347 L28.8807,11.939 Z" id="Stroke-49" stroke="#489DEA" stroke-width="0.75" stroke-linecap="round" stroke-linejoin="round"></path>
                <path d="M59.0623,11.461 C59.4203,11.461 59.6163,11.042 59.3863,10.767 L55.3343,4.165 C55.0433,3.597 54.3583,3.536 53.7803,3.536 L50.1233,3.536 C49.6233,3.536 49.2183,3.941 49.2183,4.44 L49.2343,10.556 C49.2343,11.056 49.6393,11.461 50.1393,11.461 L59.0623,11.461 Z" id="Fill-51" fill="#FFFFFF"></path>
                <path d="M59.0623,11.461 C59.4203,11.461 59.6163,11.042 59.3863,10.767 L55.3343,4.165 C55.0433,3.597 54.3583,3.536 53.7803,3.536 L50.1233,3.536 C49.6233,3.536 49.2183,3.941 49.2183,4.44 L49.2343,10.556 C49.2343,11.056 49.6393,11.461 50.1393,11.461 L59.0623,11.461 Z" id="Stroke-53" stroke="#489DEA" stroke-width="0.75" stroke-linecap="round" stroke-linejoin="round"></path>
                <path d="M45.6443,10.8868 C45.6443,11.2038 45.3873,11.4608 45.0713,11.4608 L31.1893,11.4608 C30.9803,11.4608 30.8773,11.2068 31.0283,11.0618 L37.2523,3.7648 C37.4023,3.6188 37.6073,3.5358 37.8173,3.5358 L45.0713,3.5358 C45.3873,3.5358 45.6443,3.7938 45.6443,4.1108 L45.6443,10.8868 Z" id="Fill-55" fill="#FFFFFF"></path>
                <path d="M45.6443,10.8868 C45.6443,11.2038 45.3873,11.4608 45.0713,11.4608 L31.1893,11.4608 C30.9803,11.4608 30.8773,11.2068 31.0283,11.0618 L37.2523,3.7648 C37.4023,3.6188 37.6073,3.5358 37.8173,3.5358 L45.0713,3.5358 C45.3873,3.5358 45.6443,3.7938 45.6443,4.1108 L45.6443,10.8868 Z" id="Stroke-57" stroke="#489DEA" stroke-width="0.75" stroke-linecap="round" stroke-linejoin="round"></path>
                <path d="M73.0926,16.5772 L70.7246,16.5772 C69.8696,16.5772 69.1746,17.2722 69.1746,18.1262 L69.1746,19.6272 C69.1746,20.4812 69.8696,21.1772 70.7246,21.1772 L73.0926,21.1772 C73.5066,21.1772 73.8426,20.8412 73.8426,20.4272 L73.8426,17.3272 C73.8426,16.9132 73.5066,16.5772 73.0926,16.5772 M73.0926,17.3272 L73.0926,20.4272 L70.7246,20.4272 C70.2816,20.4272 69.9246,20.0692 69.9246,19.6272 L69.9246,18.1262 C69.9246,17.6852 70.2816,17.3272 70.7246,17.3272 L73.0926,17.3272" id="Fill-59" fill="#489DEA"></path>
                <path d="M70.5213,15.545 C69.8743,15.545 69.3463,15.018 69.3463,14.371 L69.3463,14.249 C69.3463,13.601 69.8743,13.074 70.5213,13.074 L72.3303,13.074 C72.5113,13.074 72.6673,13.205 72.6993,13.384 L73.0033,15.105 C73.0233,15.214 72.9933,15.326 72.9213,15.411 C72.8503,15.496 72.7463,15.545 72.6343,15.545 L70.5213,15.545 Z" id="Fill-61" fill="#E9F5FD"></path>
                <path d="M72.3299,12.6993 L70.5209,12.6993 C69.6669,12.6993 68.9719,13.3943 68.9719,14.2483 L68.9719,14.3703 C68.9719,15.2253 69.6669,15.9203 70.5209,15.9203 L72.6349,15.9203 C72.8569,15.9203 73.0669,15.8223 73.2099,15.6523 C73.3519,15.4813 73.4119,15.2573 73.3739,15.0383 L73.0679,13.3183 C73.0049,12.9603 72.6929,12.6993 72.3299,12.6993 M72.3299,13.4493 L72.6349,15.1703 L70.5209,15.1703 C70.0789,15.1703 69.7219,14.8123 69.7219,14.3703 L69.7219,14.2483 C69.7219,13.8063 70.0789,13.4493 70.5209,13.4493 L72.3299,13.4493" id="Fill-63" fill="#489DEA"></path>
                <path d="M44.7527,13.5547 L41.2337,13.5547" id="Stroke-65" stroke="#489DEA" stroke-linecap="round" stroke-linejoin="round"></path>
                <path d="M63.3074,10.2256 L63.3184,10.2376 C63.3194,10.2336 63.3144,10.2296 63.3074,10.2256" id="Fill-67" fill="#000000"></path>
                <path d="M60.116,19.628 C56.986,19.603 54.427,22.119 54.402,25.251 C54.377,28.381 56.894,30.94 60.025,30.964 C63.155,30.99 65.714,28.472 65.739,25.342 C65.763,22.211 63.247,19.653 60.116,19.628" id="Fill-69" fill="#737987"></path>
                <path d="M60.116,19.628 C56.986,19.603 54.427,22.119 54.402,25.251 C54.377,28.381 56.894,30.94 60.025,30.964 C63.155,30.99 65.714,28.472 65.739,25.342 C65.763,22.211 63.247,19.653 60.116,19.628 Z" id="Stroke-71" stroke="#284356" stroke-linecap="round" stroke-linejoin="round"></path>
                <path d="M60.0574,26.9585 C59.1354,26.9515 58.3944,26.2015 58.4014,25.2825 C58.4094,24.3645 59.1624,23.6255 60.0834,23.6335 C61.0054,23.6405 61.7464,24.3915 61.7404,25.3095 C61.7324,26.2275 60.9784,26.9655 60.0574,26.9585 M60.1074,20.8075 C57.6184,20.7875 55.5834,22.7815 55.5644,25.2605 C55.5434,27.7395 57.5454,29.7665 60.0354,29.7865 C62.5234,29.8065 64.5564,27.8115 64.5774,25.3335 C64.5964,22.8535 62.5954,20.8275 60.1074,20.8075" id="Fill-73" fill="#B5D7EA"></path>
                <path d="M60.0574,26.9585 C59.1354,26.9515 58.3944,26.2015 58.4014,25.2825 C58.4094,24.3645 59.1624,23.6255 60.0834,23.6335 C61.0054,23.6405 61.7464,24.3915 61.7404,25.3095 C61.7324,26.2275 60.9784,26.9655 60.0574,26.9585 Z M60.1074,20.8075 C57.6184,20.7875 55.5834,22.7815 55.5644,25.2605 C55.5434,27.7395 57.5454,29.7665 60.0354,29.7865 C62.5234,29.8065 64.5564,27.8115 64.5774,25.3335 C64.5964,22.8535 62.5954,20.8275 60.1074,20.8075 Z" id="Stroke-75" stroke="#489DEA" stroke-width="0.75" stroke-linecap="round" stroke-linejoin="round"></path>
                <path d="M60.0838,23.6333 C59.1628,23.6263 58.4088,24.3643 58.4008,25.2823 C58.3948,26.2013 59.1358,26.9513 60.0578,26.9583 C60.9788,26.9663 61.7318,26.2273 61.7398,25.3093 C61.7468,24.3913 61.0058,23.6403 60.0838,23.6333" id="Fill-77" fill="#489DEA"></path>
                <path d="M59.9363,22.3492 C62.5683,22.3702 64.7593,24.1832 65.3783,26.6202 C65.5033,26.1602 65.5793,25.6792 65.5823,25.1802 C65.6073,22.0482 63.0903,19.4902 59.9593,19.4652 C56.8293,19.4402 54.2703,21.9572 54.2453,25.0892 C54.2413,25.5882 54.3083,26.0702 54.4253,26.5322 C55.0833,24.1052 57.3043,22.3282 59.9363,22.3492" id="Fill-79" fill-opacity="0.3" fill="#489DEA"></path>
                <path d="M54.4021,25.251 C54.3771,28.381 56.8941,30.939 60.0251,30.964 C63.1551,30.99 65.7141,28.472 65.7391,25.342 C65.7631,22.21 63.2471,19.653 60.1161,19.628 C56.9861,19.603 54.4261,22.119 54.4021,25.251 Z" id="Stroke-81" stroke="#489DEA" stroke-width="2" stroke-linecap="round" stroke-linejoin="round"></path>
                <path d="M15.9158,19.628 C12.7848,19.603 10.2268,22.119 10.2008,25.251 C10.1758,28.381 12.6938,30.94 15.8238,30.964 C18.9548,30.99 21.5128,28.472 21.5378,25.342 C21.5628,22.211 19.0458,19.653 15.9158,19.628" id="Fill-83" fill="#737987"></path>
                <path d="M15.9158,19.628 C12.7848,19.603 10.2268,22.119 10.2008,25.251 C10.1758,28.381 12.6938,30.94 15.8238,30.964 C18.9548,30.99 21.5128,28.472 21.5378,25.342 C21.5628,22.211 19.0458,19.653 15.9158,19.628 Z" id="Stroke-85" stroke="#284356" stroke-linecap="round" stroke-linejoin="round"></path>
                <path d="M15.8562,26.9585 C14.9352,26.9515 14.1932,26.2015 14.2012,25.2825 C14.2082,24.3645 14.9612,23.6255 15.8832,23.6335 C16.8042,23.6405 17.5452,24.3915 17.5392,25.3095 C17.5312,26.2275 16.7782,26.9655 15.8562,26.9585 M15.9062,20.8075 C13.4172,20.7875 11.3822,22.7815 11.3632,25.2605 C11.3422,27.7395 13.3442,29.7665 15.8342,29.7865 C18.3232,29.8065 20.3562,27.8115 20.3762,25.3335 C20.3962,22.8535 18.3942,20.8275 15.9062,20.8075" id="Fill-87" fill="#B5D7EA"></path>
                <path d="M15.8562,26.9585 C14.9352,26.9515 14.1932,26.2015 14.2012,25.2825 C14.2082,24.3645 14.9612,23.6255 15.8832,23.6335 C16.8042,23.6405 17.5452,24.3915 17.5392,25.3095 C17.5312,26.2275 16.7782,26.9655 15.8562,26.9585 Z M15.9062,20.8075 C13.4172,20.7875 11.3822,22.7815 11.3632,25.2605 C11.3422,27.7395 13.3442,29.7665 15.8342,29.7865 C18.3232,29.8065 20.3562,27.8115 20.3762,25.3335 C20.3962,22.8535 18.3942,20.8275 15.9062,20.8075 Z" id="Stroke-89" stroke="#489DEA" stroke-width="0.75" stroke-linecap="round" stroke-linejoin="round"></path>
                <path d="M15.8836,23.6333 C14.9616,23.6263 14.2076,24.3643 14.2006,25.2823 C14.1936,26.2013 14.9356,26.9513 15.8566,26.9583 C16.7786,26.9663 17.5306,26.2273 17.5386,25.3093 C17.5456,24.3913 16.8046,23.6403 15.8836,23.6333" id="Fill-91" fill="#489DEA"></path>
                <path d="M15.7352,22.3492 C18.3672,22.3702 20.5582,24.1832 21.1772,26.6202 C21.3022,26.1602 21.3782,25.6792 21.3812,25.1802 C21.4072,22.0482 18.8892,19.4902 15.7582,19.4652 C12.6282,19.4402 10.0692,21.9572 10.0442,25.0892 C10.0402,25.5882 10.1072,26.0702 10.2242,26.5322 C10.8822,24.1052 13.1042,22.3282 15.7352,22.3492" id="Fill-93" fill-opacity="0.3" fill="#489DEA"></path>
                <path d="M10.201,25.251 C10.176,28.381 12.694,30.939 15.824,30.964 C18.955,30.99 21.513,28.472 21.538,25.342 C21.563,22.21 19.046,19.653 15.916,19.628 C12.785,19.603 10.226,22.119 10.201,25.251 Z" id="Stroke-95" stroke="#489DEA" stroke-width="2" stroke-linecap="round" stroke-linejoin="round"></path>
            </g>
        </g>
    </g>
</svg>