<?xml version="1.0" encoding="UTF-8"?>
<svg width="94px" height="36px" viewBox="0 0 86 38" version="1.1" xmlns="http://www.w3.org/2000/svg" xmlns:xlink="http://www.w3.org/1999/xlink">
    <!-- Generator: sketchtool 52.3 (67297) - http://www.bohemiancoding.com/sketch -->
    <title>ED4CA617-71A1-4F9F-A869-24E2FF57711F@1x</title>
    <desc>Created with sketchtool.</desc>
    <g id="Page-1" stroke="none" stroke-width="1" fill="none" fill-rule="evenodd">
        <g id="Car-Model-Icons" transform="translate(-145.000000, -363.000000)">
            <g id="MINIVAN" transform="translate(132.000000, 337.000000)">
                <g transform="translate(13.000000, 26.000000)">
                    <path d="M28.794,3.2352 C29.657,1.9282 31.107,1.1372 32.674,1.1272 C41.631,1.0652 71.982,0.8522 79.233,0.8022 C82.457,0.7812 83.401,2.0042 83.424,5.2272 C83.446,8.4502 83.559,23.2112 83.585,26.9542 C83.61,30.6962 77.776,32.8592 77.894,32.4972 C78.192,31.5842 78.344,30.6042 78.322,29.5862 C78.228,24.9712 74.393,21.1052 69.779,20.9952 C64.811,20.8752 60.764,24.8912 60.798,29.8312 C60.807,31.2042 61.131,32.5002 61.701,33.6562 L24.713,33.9102 C25.306,32.6642 25.616,31.2592 25.557,29.7772 C25.375,25.2142 21.543,21.4472 16.979,21.3572 C12.027,21.2582 8.002,25.2672 8.035,30.1942 C8.042,31.0932 8.184,31.9622 8.44,32.7772 C8.575,33.2072 7.839,34.0262 7.366,34.0302 C5.815,34.0412 4.841,34.0472 4.608,34.0482 C2.528,34.0632 1.786,31.8832 1.771,29.6482 C1.755,27.4132 1.762,28.3452 1.733,24.2922 C1.715,21.5042 2.858,18.9342 4.495,18.0632 C5.239,17.6662 15.086,14.4622 18.894,13.0682 C20.327,12.5442 21.789,11.2112 22.165,10.8902 C23.04,10.1472 28.814,3.2122 28.794,3.2352" id="Fill-1" fill="#E9F5FD"></path>
                    <path d="M28.794,3.2352 C29.657,1.9282 31.107,1.1372 32.674,1.1272 C41.631,1.0652 71.982,0.8522 79.233,0.8022 C82.457,0.7812 83.401,2.0042 83.424,5.2272 C83.446,8.4502 83.559,23.2112 83.585,26.9542 C83.61,30.6962 77.776,32.8592 77.894,32.4972 C78.192,31.5842 78.344,30.6042 78.322,29.5862 C78.228,24.9712 74.393,21.1052 69.779,20.9952 C64.811,20.8752 60.764,24.8912 60.798,29.8312 C60.807,31.2042 61.131,32.5002 61.701,33.6562 L24.713,33.9102 C25.306,32.6642 25.616,31.2592 25.557,29.7772 C25.375,25.2142 21.543,21.4472 16.979,21.3572 C12.027,21.2582 8.002,25.2672 8.035,30.1942 C8.042,31.0932 8.184,31.9622 8.44,32.7772 C8.575,33.2072 7.839,34.0262 7.366,34.0302 C5.815,34.0412 4.841,34.0472 4.608,34.0482 C2.528,34.0632 1.786,31.8832 1.771,29.6482 C1.755,27.4132 1.762,28.3452 1.733,24.2922 C1.715,21.5042 2.858,18.9342 4.495,18.0632 C5.239,17.6662 15.086,14.4622 18.894,13.0682 C20.327,12.5442 21.789,11.2112 22.165,10.8902 C23.04,10.1472 28.814,3.2122 28.794,3.2352 Z" id="Stroke-3" stroke="#489DEA"></path>
                    <path d="M79.1182,1.0564 C78.1012,1.0634 76.5132,1.0754 75.1592,1.0834 C78.3832,1.0614 79.3272,2.2854 79.3492,5.5094 C79.3722,8.7314 79.4852,25.1604 79.5112,28.9034 C79.5202,30.2494 78.7692,30.3214 77.8112,31.2154 C77.7632,31.9564 77.6242,32.6734 77.4022,33.3524 C77.2852,33.7144 83.1192,32.6204 83.0942,28.8784 C83.0672,25.1354 82.9532,8.4974 82.9312,5.2754 C82.9092,2.0504 82.3422,1.0344 79.1182,1.0564" id="Fill-5" fill-opacity="0.15" fill="#489DEA"></path>
                    <path d="M61.4512,31.4168 C61.3852,31.1658 61.1552,30.9898 60.8932,30.9908 L25.4082,31.2358 C25.1482,31.2368 24.9202,31.4168 24.8562,31.6688 L24.3082,33.8568 C24.2552,34.0738 24.4212,34.2838 24.6462,34.2818 L61.6982,34.0268 C61.9252,34.0248 62.0862,33.8138 62.0292,33.5988 L61.4512,31.4168 Z" id="Fill-7" fill="#C1E2F8"></path>
                    <path d="M61.4512,31.4168 C61.3852,31.1658 61.1552,30.9898 60.8932,30.9908 L25.4082,31.2358 C25.1482,31.2368 24.9202,31.4168 24.8562,31.6688 L24.3082,33.8568 C24.2552,34.0738 24.4212,34.2838 24.6462,34.2818 L61.6982,34.0268 C61.9252,34.0248 62.0862,33.8138 62.0292,33.5988 L61.4512,31.4168 Z" id="Stroke-9" stroke="#489DEA" stroke-linecap="round" stroke-linejoin="round"></path>
                    <path d="M2.2921,25.5857 C2.1881,25.5857 2.0881,25.5417 2.0171,25.4647 C1.9451,25.3877 1.9091,25.2827 1.9181,25.1787 L2.2071,21.8617 C2.2251,21.6687 2.3851,21.5207 2.5781,21.5197 L5.8271,21.4967 C6.1631,21.4967 6.4631,21.6487 6.6561,21.9147 C6.8491,22.1797 6.9001,22.5097 6.8001,22.8197 L6.2741,24.4587 C6.0611,25.1187 5.4531,25.5647 4.7631,25.5677 C4.7631,25.5677 2.2931,25.5857 2.2921,25.5857" id="Fill-11" fill="#E9F5FD"></path>
                    <path d="M5.835,21.1219 L5.825,21.1219 L2.576,21.1439 C2.189,21.1459 1.868,21.4429 1.834,21.8289 L1.545,25.1449 C1.526,25.3549 1.598,25.5639 1.741,25.7199 C1.883,25.8729 2.083,25.9609 2.292,25.9609 L2.298,25.9609 L4.766,25.9429 C5.618,25.9369 6.367,25.3879 6.63,24.5749 L7.157,22.9339 C7.293,22.5149 7.219,22.0509 6.958,21.6929 C6.698,21.3359 6.277,21.1219 5.835,21.1219 M5.835,21.8719 C6.269,21.8719 6.576,22.2939 6.443,22.7049 L5.917,24.3449 C5.755,24.8459 5.288,25.1899 4.761,25.1929 L2.292,25.2109 L2.581,21.8939 L5.83,21.8719 L5.835,21.8719" id="Fill-13" fill="#489DEA"></path>
                    <path d="M8.7706,33.1443 C9.2236,34.3883 7.6366,34.0283 6.9046,34.0333 L3.1626,34.0583 C2.3886,34.0643 1.7116,33.5293 1.5376,32.7743 L0.5286,28.4133 C0.3746,27.7483 0.8746,27.1173 1.5546,27.1123 L7.1696,27.0733 C7.9016,27.0683 8.8276,27.4233 8.4296,28.6963 C8.0336,29.9683 8.3376,31.9573 8.7706,33.1443" id="Fill-15" fill="#C1E2F8"></path>
                    <path d="M8.7706,33.1443 C9.2236,34.3883 7.6366,34.0283 6.9046,34.0333 L3.1626,34.0583 C2.3886,34.0643 1.7116,33.5293 1.5376,32.7743 L0.5286,28.4133 C0.3746,27.7483 0.8746,27.1173 1.5546,27.1123 L7.1696,27.0733 C7.9016,27.0683 8.8276,27.4233 8.4296,28.6963 C8.0336,29.9683 8.3376,31.9573 8.7706,33.1443 Z" id="Stroke-17" stroke="#489DEA" stroke-linecap="round" stroke-linejoin="round"></path>
                    <path d="M8.7706,33.1443 C8.3376,31.9573 8.0336,29.9683 8.4296,28.6963 C8.8276,27.4233 7.9016,27.0683 7.1696,27.0733 L4.7846,27.0893 C5.5166,27.0843 6.4426,27.4403 6.0436,28.7123 C5.6486,29.9853 5.9526,31.9743 6.3856,33.1613 C6.5846,33.7083 6.3886,33.9453 6.0436,34.0393 L6.9046,34.0333 C7.6366,34.0283 9.2236,34.3883 8.7706,33.1443" id="Fill-19" fill-opacity="0.3" fill="#489DEA"></path>
                    <path d="M77.6846,32.4373 C77.3306,33.4163 78.1806,33.5423 78.9136,33.5373 L82.4986,33.5123 C83.2726,33.5073 83.9426,32.9623 84.1066,32.2063 L85.0546,27.8313 C85.1996,27.1663 84.6926,26.5403 84.0106,26.5443 L78.8656,26.5803 C78.1326,26.5843 77.4446,26.6703 77.8876,27.9513 C78.3746,29.3493 78.0396,31.4553 77.6846,32.4373" id="Fill-21" fill="#C1E2F8"></path>
                    <path d="M77.6846,32.4373 C77.3306,33.4163 78.1806,33.5423 78.9136,33.5373 L82.4986,33.5123 C83.2726,33.5073 83.9426,32.9623 84.1066,32.2063 L85.0546,27.8313 C85.1996,27.1663 84.6926,26.5403 84.0106,26.5443 L78.8656,26.5803 C78.1326,26.5843 77.4446,26.6703 77.8876,27.9513 C78.3746,29.3493 78.0396,31.4553 77.6846,32.4373 Z" id="Stroke-23" stroke="#489DEA" stroke-linecap="round" stroke-linejoin="round"></path>
                    <path d="M84.0108,26.5711 L81.8828,26.5861 C82.5648,26.5811 83.0728,27.2061 82.9278,27.8721 L81.9798,32.2471 C81.8148,33.0041 81.1458,33.5491 80.3708,33.5531 L82.4988,33.5391 C83.2738,33.5341 83.9428,32.9891 84.1068,32.2321 L85.0548,27.8571 C85.1998,27.1911 84.6928,26.5661 84.0108,26.5711" id="Fill-25" fill-opacity="0.3" fill="#489DEA"></path>
                    <path d="M29.5011,5.8768 C27.6481,8.1478 27.5241,14.8838 27.5311,16.8958 L27.5311,16.9568 L27.6181,29.5838" id="Stroke-27" stroke="#489DEA" stroke-linecap="round" stroke-linejoin="round"></path>
                    <path d="M47.9884,28.2244 L47.8154,5.1524 C47.8074,4.0524 46.9104,3.1674 45.8124,3.17534619" id="Stroke-29" stroke="#489DEA" stroke-linecap="round" stroke-linejoin="round"></path>
                    <path d="M67.3458,20.8123 L67.1738,5.1523 C67.1658,4.0523 66.2688,3.1673 65.1698,3.17524619" id="Stroke-31" stroke="#489DEA" stroke-linecap="round" stroke-linejoin="round"></path>
                    <path d="M31.6798,7.7791 C32.9278,6.2491 34.8258,5.3161 38.1348,5.2941 L44.3318,5.2511 C44.7418,5.2481 45.0758,5.5771 45.0788,5.9871 L45.1448,15.5261 C45.1478,15.9371 44.8178,16.2691 44.4088,16.2721 L31.0188,16.3651 C30.6088,16.3681 30.2758,16.0371 30.2838,15.6261 C30.3188,13.8101 30.5248,9.1961 31.6798,7.7791" id="Fill-33" fill="#FFFFFF"></path>
                    <path d="M31.6798,7.7791 C32.9278,6.2491 34.8258,5.3161 38.1348,5.2941 L44.3318,5.2511 C44.7418,5.2481 45.0758,5.5771 45.0788,5.9871 L45.1448,15.5261 C45.1478,15.9371 44.8178,16.2691 44.4088,16.2721 L31.0188,16.3651 C30.6088,16.3681 30.2758,16.0371 30.2838,15.6261 C30.3188,13.8101 30.5248,9.1961 31.6798,7.7791 Z" id="Stroke-35" stroke="#489DEA" stroke-linecap="round" stroke-linejoin="round"></path>
                    <path d="M39.2921,6.5418 L45.0831,6.5028 L45.0801,6.0698 C45.0771,5.6598 44.7421,5.3308 44.3331,5.3338 L38.1351,5.3768 C34.8271,5.3988 32.9281,6.3318 31.6801,7.8618 C30.5241,9.2778 30.3191,13.8928 30.2831,15.7088 C30.2761,16.1198 30.6091,16.4498 31.0201,16.4468 L31.4511,16.4438 C31.5111,14.4168 31.7641,10.3438 32.8371,9.0268 C34.0851,7.4978 35.9831,6.5648 39.2921,6.5418" id="Fill-37" fill-opacity="0.3" fill="#489DEA"></path>
                    <path d="M26.2628,9.0281 C26.3018,8.9681 26.3918,9.0151 26.3668,9.0821 C25.6778,10.9721 25.4728,14.2451 25.3748,15.7061 C25.3488,16.1021 25.0138,16.4061 24.6168,16.4091 L22.0788,16.4261 C21.7788,16.4281 21.5978,16.0941 21.7638,15.8441 L26.2628,9.0281 Z" id="Stroke-39" stroke="#489DEA" stroke-linecap="round" stroke-linejoin="round"></path>
                    <path d="M43.2657,3.199 L39.3737,3.225" id="Stroke-41" stroke="#489DEA" stroke-linecap="round" stroke-linejoin="round"></path>
                    <path d="M29.6182,22.8514 L45.8522,22.7344" id="Stroke-43" stroke="#489DEA" stroke-linecap="round" stroke-linejoin="round"></path>
                    <path d="M50.5421,22.7078 L60.5551,22.6388" id="Stroke-45" stroke="#489DEA" stroke-linecap="round" stroke-linejoin="round"></path>
                    <path d="M26.2637,9.1111 C26.3017,9.0511 26.3927,9.0981 26.3677,9.1651 C25.6787,11.0551 25.4737,14.3281 25.3757,15.7891 C25.3497,16.1851 25.0137,16.4891 24.6167,16.4911 L22.0797,16.5081 C21.7787,16.5101 21.5987,16.1761 21.7647,15.9261 L26.2637,9.1111 Z" id="Fill-47" fill="#E9F5FD"></path>
                    <path d="M26.2637,9.1111 C26.3017,9.0511 26.3927,9.0981 26.3677,9.1651 C25.6787,11.0551 25.4737,14.3281 25.3757,15.7891 C25.3497,16.1851 25.0137,16.4891 24.6167,16.4911 L22.0797,16.5081 C21.7787,16.5101 21.5987,16.1761 21.7647,15.9261 L26.2637,9.1111 Z" id="Stroke-49" stroke="#489DEA"></path>
                    <path d="M83.0938,25.2 L81.5978,25.211 C81.1708,25.214 80.8228,24.82 80.8208,24.332 L80.7578,20.068 C80.7548,19.581 81.0968,19.182 81.5238,19.179 L83.0188,19.169" id="Fill-51" fill="#E9F5FD"></path>
                    <path d="M83.0938,25.2 L81.5978,25.211 C81.1708,25.214 80.8228,24.82 80.8208,24.332 L80.7578,20.068 C80.7548,19.581 81.0968,19.182 81.5238,19.179 L83.0188,19.169" id="Stroke-53" stroke="#489DEA" stroke-width="0.75" stroke-linecap="round" stroke-linejoin="round"></path>
                    <path d="M63.5382,16.323 L51.5592,16.323 C51.1452,16.323 50.8092,15.987 50.8092,15.573 L50.8092,6.043 C50.8092,5.628 51.1452,5.293 51.5592,5.293 L63.5382,5.293 C63.9522,5.293 64.2882,5.628 64.2882,6.043 L64.2882,15.573 C64.2882,15.987 63.9522,16.323 63.5382,16.323" id="Fill-55" fill="#FFFFFF"></path>
                    <path d="M63.5382,16.323 L51.5592,16.323 C51.1452,16.323 50.8092,15.987 50.8092,15.573 L50.8092,6.043 C50.8092,5.628 51.1452,5.293 51.5592,5.293 L63.5382,5.293 C63.9522,5.293 64.2882,5.628 64.2882,6.043 L64.2882,15.573 C64.2882,15.987 63.9522,16.323 63.5382,16.323 Z" id="Stroke-57" stroke="#489DEA"></path>
                    <path d="M77.1095,16.323 L70.6645,16.323 C70.2505,16.323 69.9145,15.987 69.9145,15.573 L69.9145,6.043 C69.9145,5.628 70.2505,5.293 70.6645,5.293 L77.1095,5.293 C77.5235,5.293 77.8595,5.628 77.8595,6.043 L77.8595,15.573 C77.8595,15.987 77.5235,16.323 77.1095,16.323" id="Fill-59" fill="#FFFFFF"></path>
                    <path d="M77.1095,16.323 L70.6645,16.323 C70.2505,16.323 69.9145,15.987 69.9145,15.573 L69.9145,6.043 C69.9145,5.628 70.2505,5.293 70.6645,5.293 L77.1095,5.293 C77.5235,5.293 77.8595,5.628 77.8595,6.043 L77.8595,15.573 C77.8595,15.987 77.5235,16.323 77.1095,16.323 Z" id="Stroke-61" stroke="#489DEA"></path>
                    <path d="M29.5011,2.3963 L13.7001,14.8723" id="Fill-63" fill="#E9F5FD"></path>
                    <path d="M62.7511,29.785 C62.7511,26.025 65.7991,22.977 69.5601,22.977 C73.3201,22.977 76.3691,26.025 76.3691,29.785 C76.3691,33.546 73.3201,36.595 69.5601,36.595 C65.7991,36.595 62.7511,33.546 62.7511,29.785" id="Fill-67" fill="#B5D7EA"></path>
                    <path d="M62.7511,29.785 C62.7511,26.025 65.7991,22.977 69.5601,22.977 C73.3201,22.977 76.3691,26.025 76.3691,29.785 C76.3691,33.546 73.3201,36.595 69.5601,36.595 C65.7991,36.595 62.7511,33.546 62.7511,29.785 Z" id="Stroke-69" stroke="#489DEA" stroke-width="1.5" stroke-linecap="round" stroke-linejoin="round"></path>
                    <path d="M74.0294,29.7859 C74.0294,32.2539 72.0284,34.2549 69.5594,34.2549 C67.0924,34.2549 65.0914,32.2539 65.0914,29.7859 C65.0914,27.3169 67.0924,25.3159 69.5594,25.3159 C72.0284,25.3159 74.0294,27.3169 74.0294,29.7859" id="Fill-71" fill="#B5D7EA"></path>
                    <path d="M74.0294,29.7859 C74.0294,32.2539 72.0284,34.2549 69.5594,34.2549 C67.0924,34.2549 65.0914,32.2539 65.0914,29.7859 C65.0914,27.3169 67.0924,25.3159 69.5594,25.3159 C72.0284,25.3159 74.0294,27.3169 74.0294,29.7859 Z" id="Stroke-73" stroke="#489DEA" stroke-width="0.75" stroke-linecap="round" stroke-linejoin="round"></path>
                    <path d="M71.8038,29.7859 C71.8038,31.0239 70.7988,32.0289 69.5598,32.0289 C68.3218,32.0289 67.3168,31.0239 67.3168,29.7859 C67.3168,28.5469 68.3218,27.5419 69.5598,27.5419 C70.7988,27.5419 71.8038,28.5469 71.8038,29.7859" id="Fill-75" fill="#489DEA"></path>
                    <path d="M69.5841,26.2654 C72.8791,26.2914 75.6231,28.5624 76.3981,31.6134 C76.5541,31.0364 76.6481,30.4354 76.6531,29.8104 C76.6851,25.8884 73.5321,22.6864 69.6131,22.6554 C65.6941,22.6234 62.4901,25.7754 62.4591,29.6964 C62.4541,30.3214 62.5381,30.9244 62.6851,31.5024 C63.5091,28.4644 66.2901,26.2394 69.5841,26.2654" id="Fill-77" fill-opacity="0.3" fill="#489DEA"></path>
                    <path d="M9.8653,29.785 C9.8653,26.025 12.9143,22.977 16.6753,22.977 C20.4343,22.977 23.4843,26.025 23.4843,29.785 C23.4843,33.546 20.4343,36.595 16.6753,36.595 C12.9143,36.595 9.8653,33.546 9.8653,29.785" id="Fill-79" fill="#B5D7EA"></path>
                    <path d="M9.8653,29.785 C9.8653,26.025 12.9143,22.977 16.6753,22.977 C20.4343,22.977 23.4843,26.025 23.4843,29.785 C23.4843,33.546 20.4343,36.595 16.6753,36.595 C12.9143,36.595 9.8653,33.546 9.8653,29.785 Z" id="Stroke-81" stroke="#489DEA" stroke-width="1.5" stroke-linecap="round" stroke-linejoin="round"></path>
                    <path d="M21.1446,29.7859 C21.1446,32.2539 19.1436,34.2549 16.6746,34.2549 C14.2066,34.2549 12.2056,32.2539 12.2056,29.7859 C12.2056,27.3169 14.2066,25.3159 16.6746,25.3159 C19.1436,25.3159 21.1446,27.3169 21.1446,29.7859" id="Fill-83" fill="#B5D7EA"></path>
                    <path d="M21.1446,29.7859 C21.1446,32.2539 19.1436,34.2549 16.6746,34.2549 C14.2066,34.2549 12.2056,32.2539 12.2056,29.7859 C12.2056,27.3169 14.2066,25.3159 16.6746,25.3159 C19.1436,25.3159 21.1446,27.3169 21.1446,29.7859 Z" id="Stroke-85" stroke="#489DEA" stroke-width="0.75" stroke-linecap="round" stroke-linejoin="round"></path>
                    <path d="M18.918,29.7859 C18.918,31.0239 17.914,32.0289 16.675,32.0289 C15.436,32.0289 14.431,31.0239 14.431,29.7859 C14.431,28.5469 15.436,27.5419 16.675,27.5419 C17.914,27.5419 18.918,28.5469 18.918,29.7859" id="Fill-87" fill="#489DEA"></path>
                    <path d="M16.6983,26.2654 C19.9933,26.2914 22.7373,28.5624 23.5123,31.6134 C23.6693,31.0364 23.7623,30.4354 23.7673,29.8104 C23.7993,25.8884 20.6473,22.6864 16.7273,22.6554 C12.8083,22.6234 9.6043,25.7754 9.5733,29.6964 C9.5683,30.3214 9.6523,30.9244 9.7993,31.5024 C10.6233,28.4644 13.4043,26.2394 16.6983,26.2654" id="Fill-89" fill-opacity="0.3" fill="#489DEA"></path>
                </g>
            </g>
        </g>
    </g>
</svg>