<?xml version="1.0" encoding="UTF-8"?>
<svg width="94px" height="36px" viewBox="0 0 77 29" version="1.1" xmlns="http://www.w3.org/2000/svg" xmlns:xlink="http://www.w3.org/1999/xlink">
    <!-- Generator: sketchtool 52.3 (67297) - http://www.bohemiancoding.com/sketch -->
    <title>C2D30C0B-3094-4AD5-935A-B7B0E58D3D17@1x</title>
    <desc>Created with sketchtool.</desc>
    <g id="Page-1" stroke="none" stroke-width="1" fill="none" fill-rule="evenodd">
        <g id="Car-Model-Icons" transform="translate(-22.000000, -116.000000)">
            <g id="SEDAN" transform="translate(22.000000, 116.000000)">
                <path d="M57.6307,2.249 C58.0537,2.02 58.0667,1.688 58.0677,1.404 C58.0697,1.119 57.8417,0.723 57.2887,0.719 L31.1837,0.509 C30.6267,0.504 29.4447,0.393 29.0487,1.113 C28.6107,1.908 29.2927,2.797 30.0367,2.81 L23.7177,8.379 L9.0797,10.359 C4.8277,11.163 2.1107,15.228 2.2597,19.198 C2.2957,20.191 2.7817,21.124 3.5827,21.721 L3.6687,21.785 C4.4817,22.391 5.4717,22.724 6.4847,22.732 C7.3177,22.739 7.9347,22.015 7.9937,21.183 C8.2687,17.351 11.4797,14.344 15.3727,14.375 C18.5127,14.4 21.1367,16.38 22.1747,19.104 C22.9087,21.028 21.8977,22.856 23.9557,22.873 C29.5467,22.918 44.7937,23.04 50.9437,23.09 C50.9477,22.538 50.7247,20.665 52.0767,18.355 C53.3607,16.163 55.7497,14.699 58.4727,14.721 C61.7177,14.747 64.4537,16.875 65.3987,19.804 C65.9677,21.569 68.5227,23.231 70.3767,23.246 C72.2047,23.26 74.2047,22.06 73.9977,20.243 C73.9977,20.243 73.8997,16.368 72.8487,12.19 C72.3827,10.34 70.7747,9.573 69.1137,9.265 L63.7517,8.925 C62.6467,8.855 61.5977,8.387 60.8057,7.611 C60.8057,7.611 57.9257,4.829 57.0677,3.945 C56.2087,3.061 57.2067,2.479 57.6307,2.249" id="Fill-15" fill="#E9F5FD"></path>
                <path d="M57.6307,2.249 C58.0537,2.02 58.0667,1.688 58.0677,1.404 C58.0697,1.119 57.8417,0.723 57.2887,0.719 L31.1837,0.509 C30.6267,0.504 29.4447,0.393 29.0487,1.113 C28.6107,1.908 29.2927,2.797 30.0367,2.81 L23.7177,8.379 L9.0797,10.359 C4.8277,11.163 2.1107,15.228 2.2597,19.198 C2.2957,20.191 2.7817,21.124 3.5827,21.721 L3.6687,21.785 C4.4817,22.391 5.4717,22.724 6.4847,22.732 C7.3177,22.739 7.9347,22.015 7.9937,21.183 C8.2687,17.351 11.4797,14.344 15.3727,14.375 C18.5127,14.4 21.1367,16.38 22.1747,19.104 C22.9087,21.028 21.8977,22.856 23.9557,22.873 C29.5467,22.918 44.7937,23.04 50.9437,23.09 C50.9477,22.538 50.7247,20.665 52.0767,18.355 C53.3607,16.163 55.7497,14.699 58.4727,14.721 C61.7177,14.747 64.4537,16.875 65.3987,19.804 C65.9677,21.569 68.5227,23.231 70.3767,23.246 C72.2047,23.26 74.2047,22.06 73.9977,20.243 C73.9977,20.243 73.8997,16.368 72.8487,12.19 C72.3827,10.34 70.7747,9.573 69.1137,9.265 L63.7517,8.925 C62.6467,8.855 61.5977,8.387 60.8057,7.611 C60.8057,7.611 57.9257,4.829 57.0677,3.945 C56.2087,3.061 57.2067,2.479 57.6307,2.249 Z" id="Stroke-17" stroke="#489DEA"></path>
                <path d="M3.0125,16.8769 C2.9045,16.8759 2.8015,16.8279 2.7315,16.7459 C2.6605,16.6629 2.6295,16.5549 2.6455,16.4469 C2.6505,16.4179 2.7545,15.7239 3.0575,15.1289 C3.4485,14.3629 3.8285,14.0459 3.8705,14.0129 C3.9375,13.9599 4.0205,13.9309 4.1055,13.9309 C4.1065,13.9309 6.7755,13.9519 6.7755,13.9519 C7.0725,13.9549 7.3515,14.0999 7.5235,14.3419 C7.6945,14.5829 7.7405,14.8929 7.6455,15.1719 L7.4225,15.9249 C7.2215,16.5199 6.6785,16.9089 6.0675,16.9089 L3.0125,16.8769 Z" id="Fill-19" fill="#E9F5FD"></path>
                <path d="M4.1053,13.5556 C3.9353,13.5556 3.7703,13.6136 3.6373,13.7196 C3.5583,13.7826 3.1403,14.1396 2.7233,14.9576 C2.3983,15.5966 2.2863,16.3126 2.2743,16.3926 C2.2433,16.6066 2.3053,16.8246 2.4463,16.9886 C2.5863,17.1536 2.7923,17.2496 3.0083,17.2516 L6.0493,17.2846 C6.8393,17.2846 7.5253,16.7926 7.7733,16.0596 L8.0083,15.2636 C8.1333,14.9016 8.0703,14.4646 7.8303,14.1256 C7.5883,13.7856 7.1963,13.5806 6.7783,13.5766 L4.1113,13.5556 L4.1053,13.5556 Z M4.1053,14.3056 L6.7723,14.3266 C7.1483,14.3296 7.4103,14.6986 7.2903,15.0516 L7.0633,15.8196 C6.9183,16.2446 6.5163,16.5346 6.0663,16.5346 L6.0583,16.5346 L3.0163,16.5016 C3.0163,16.5016 3.1133,15.8456 3.3923,15.2986 C3.7563,14.5836 4.1053,14.3056 4.1053,14.3056 Z" id="Fill-21" fill="#489DEA"></path>
                <path d="M51.7059,22.8315 C51.6519,22.6145 51.4579,22.4595 51.2329,22.4575 L22.8509,22.2295 C22.6269,22.2285 22.4309,22.3795 22.3729,22.5955 L21.8759,24.4715 C21.8269,24.6565 21.9659,24.8385 22.1589,24.8405 L51.8839,25.0795 C52.0769,25.0805 52.2189,24.9005 52.1729,24.7145 L51.7059,22.8315 Z" id="Fill-23" fill="#C1E2F8"></path>
                <path d="M51.7059,22.8315 C51.6519,22.6145 51.4579,22.4595 51.2329,22.4575 L22.8509,22.2295 C22.6269,22.2285 22.4309,22.3795 22.3729,22.5955 L21.8759,24.4715 C21.8269,24.6565 21.9659,24.8385 22.1589,24.8405 L51.8839,25.0795 C52.0769,25.0805 52.2189,24.9005 52.1729,24.7145 L51.7059,22.8315 Z" id="Stroke-25" stroke="#489DEA" stroke-width="0.75" stroke-linecap="round" stroke-linejoin="round"></path>
                <path d="M58.5603,16.4672 C55.4303,16.4422 52.8713,18.9592 52.8463,22.0912 C52.8213,25.2202 55.3383,27.7792 58.4693,27.8042 C61.5993,27.8292 64.1583,25.3112 64.1833,22.1812 C64.2073,19.0502 61.6913,16.4922 58.5603,16.4672" id="Fill-29" fill="#737987"></path>
                <path d="M58.5603,16.4672 C55.4303,16.4422 52.8713,18.9592 52.8463,22.0912 C52.8213,25.2202 55.3383,27.7792 58.4693,27.8042 C61.5993,27.8292 64.1583,25.3112 64.1833,22.1812 C64.2073,19.0502 61.6913,16.4922 58.5603,16.4672 Z" id="Stroke-31" stroke="#284356" stroke-linecap="round" stroke-linejoin="round"></path>
                <path d="M58.5018,23.7978 C57.5798,23.7908 56.8388,23.0408 56.8458,22.1218 C56.8538,21.2038 57.6068,20.4658 58.5278,20.4728 C59.4498,20.4808 60.1908,21.2308 60.1848,22.1488 C60.1768,23.0678 59.4228,23.8058 58.5018,23.7978 M58.5518,17.6468 C56.0628,17.6268 54.0278,19.6208 54.0078,22.0998 C53.9878,24.5788 55.9898,26.6058 58.4798,26.6258 C60.9678,26.6458 63.0008,24.6518 63.0218,22.1728 C63.0408,19.6938 61.0398,17.6668 58.5518,17.6468" id="Fill-33" fill="#B5D7EA"></path>
                <path d="M58.5018,23.7978 C57.5798,23.7908 56.8388,23.0408 56.8458,22.1218 C56.8538,21.2038 57.6068,20.4658 58.5278,20.4728 C59.4498,20.4808 60.1908,21.2308 60.1848,22.1488 C60.1768,23.0678 59.4228,23.8058 58.5018,23.7978 Z M58.5518,17.6468 C56.0628,17.6268 54.0278,19.6208 54.0078,22.0998 C53.9878,24.5788 55.9898,26.6058 58.4798,26.6258 C60.9678,26.6458 63.0008,24.6518 63.0218,22.1728 C63.0408,19.6938 61.0398,17.6668 58.5518,17.6468 Z" id="Stroke-35" stroke="#489DEA" stroke-width="0.75" stroke-linecap="round" stroke-linejoin="round"></path>
                <path d="M58.5281,20.4731 C57.6071,20.4661 56.8531,21.2041 56.8451,22.1221 C56.8391,23.0401 57.5801,23.7901 58.5021,23.7981 C59.4231,23.8061 60.1761,23.0671 60.1841,22.1491 C60.1911,21.2311 59.4501,20.4801 58.5281,20.4731" id="Fill-37" fill="#489DEA"></path>
                <path d="M58.3807,19.1884 C61.0127,19.2094 63.2037,21.0224 63.8227,23.4594 C63.9477,22.9994 64.0227,22.5184 64.0267,22.0194 C64.0517,18.8874 61.5347,16.3304 58.4037,16.3054 C55.2737,16.2794 52.7147,18.7964 52.6897,21.9284 C52.6857,22.4274 52.7527,22.9094 52.8697,23.3714 C53.5277,20.9454 55.7487,19.1674 58.3807,19.1884" id="Fill-39" fill-opacity="0.3" fill="#489DEA"></path>
                <path d="M52.8465,22.0908 C52.8215,25.2198 55.3385,27.7788 58.4695,27.8038 C61.5995,27.8298 64.1585,25.3118 64.1835,22.1818 C64.2075,19.0498 61.6915,16.4928 58.5605,16.4668 C55.4305,16.4428 52.8705,18.9588 52.8465,22.0908 Z" id="Stroke-41" stroke="#489DEA" stroke-width="2" stroke-linecap="round" stroke-linejoin="round"></path>
                <path d="M15.4656,16.4672 C12.3356,16.4422 9.7766,18.9592 9.7516,22.0912 C9.7266,25.2202 12.2436,27.7792 15.3746,27.8042 C18.5046,27.8292 21.0636,25.3112 21.0886,22.1812 C21.1126,19.0502 18.5956,16.4922 15.4656,16.4672" id="Fill-45" fill="#737987"></path>
                <path d="M15.4656,16.4672 C12.3356,16.4422 9.7766,18.9592 9.7516,22.0912 C9.7266,25.2202 12.2436,27.7792 15.3746,27.8042 C18.5046,27.8292 21.0636,25.3112 21.0886,22.1812 C21.1126,19.0502 18.5956,16.4922 15.4656,16.4672 Z" id="Stroke-47" stroke="#284356" stroke-linecap="round" stroke-linejoin="round"></path>
                <path d="M15.407,23.7978 C14.485,23.7908 13.744,23.0408 13.751,22.1218 C13.759,21.2038 14.511,20.4658 15.433,20.4728 C16.355,20.4808 17.096,21.2308 17.09,22.1488 C17.082,23.0678 16.328,23.8058 15.407,23.7978 M15.457,17.6468 C12.968,17.6268 10.933,19.6208 10.913,22.0998 C10.893,24.5788 12.895,26.6058 15.385,26.6258 C17.873,26.6458 19.906,24.6518 19.927,22.1728 C19.946,19.6938 17.945,17.6668 15.457,17.6468" id="Fill-49" fill="#B5D7EA"></path>
                <path d="M15.407,23.7978 C14.485,23.7908 13.744,23.0408 13.751,22.1218 C13.759,21.2038 14.511,20.4658 15.433,20.4728 C16.355,20.4808 17.096,21.2308 17.09,22.1488 C17.082,23.0678 16.328,23.8058 15.407,23.7978 Z M15.457,17.6468 C12.968,17.6268 10.933,19.6208 10.913,22.0998 C10.893,24.5788 12.895,26.6058 15.385,26.6258 C17.873,26.6458 19.906,24.6518 19.927,22.1728 C19.946,19.6938 17.945,17.6668 15.457,17.6468 Z" id="Stroke-51" stroke="#489DEA" stroke-width="0.75" stroke-linecap="round" stroke-linejoin="round"></path>
                <path d="M15.4334,20.4731 C14.5114,20.4661 13.7584,21.2041 13.7504,22.1221 C13.7444,23.0401 14.4854,23.7901 15.4074,23.7981 C16.3284,23.8061 17.0814,23.0671 17.0894,22.1491 C17.0964,21.2311 16.3554,20.4801 15.4334,20.4731" id="Fill-53" fill="#489DEA"></path>
                <path d="M20.7279,23.4594 C20.8529,22.9994 20.9279,22.5184 20.9319,22.0194 C20.9569,18.8874 18.4389,16.3304 15.3089,16.3054 C12.1789,16.2794 9.6199,18.7964 9.5949,21.9284 C9.5909,22.4274 9.6579,22.9094 9.7749,23.3714 C10.4329,20.9454 12.6539,19.1674 15.2859,19.1884 C17.9179,19.2094 20.1089,21.0224 20.7279,23.4594 Z" id="Fill-55" fill-opacity="0.3" fill="#489DEA"></path>
                <path d="M9.7518,22.0908 C9.7268,25.2198 12.2438,27.7788 15.3748,27.8038 C18.5048,27.8298 21.0638,25.3118 21.0888,22.1818 C21.1128,19.0498 18.5958,16.4928 15.4658,16.4668 C12.3358,16.4428 9.7758,18.9588 9.7518,22.0908 Z" id="Stroke-57" stroke="#489DEA" stroke-width="2" stroke-linecap="round" stroke-linejoin="round"></path>
                <path d="M66.9695,13.5332 C66.9665,13.7982 66.7495,14.0122 66.4845,14.0102 L64.8865,13.9972 C64.6205,13.9952 64.4065,13.7772 64.4085,13.5122 L64.4215,11.9152 C64.4245,11.6492 64.6415,11.4352 64.9065,11.4372 L66.5045,11.4502 C66.7705,11.4522 66.9845,11.6702 66.9825,11.9352 L66.9695,13.5332 Z" id="Stroke-61" stroke="#489DEA" stroke-width="0.75" stroke-linecap="round" stroke-linejoin="round"></path>
                <path d="M72.24,18.103 C71.614,18.098 71.108,17.585 71.112,16.959 L70.995,13.966 C70.999,13.328 71.509,12.823 72.131,12.823 L72.668,12.827 C72.844,12.829 72.997,12.954 73.032,13.127 C73.047,13.199 73.392,14.899 73.472,15.588 L73.719,17.693 C73.731,17.8 73.697,17.907 73.626,17.987 C73.554,18.066 73.453,18.112 73.346,18.112 C73.345,18.112 72.24,18.103 72.24,18.103" id="Fill-63" fill="#E9F5FD"></path>
                <path d="M72.1307,12.4477 C71.3047,12.4477 70.6267,13.1197 70.6197,13.9457 L70.7377,16.9907 C70.7307,17.7887 71.4027,18.4707 72.2357,18.4777 L73.3407,18.4867 L73.3467,18.4867 C73.5597,18.4867 73.7627,18.3967 73.9047,18.2377 C74.0487,18.0777 74.1157,17.8637 74.0917,17.6497 L73.8457,15.5447 C73.7637,14.8397 73.4147,13.1247 73.4007,13.0517 C73.3287,12.7047 73.0257,12.4547 72.6707,12.4517 L72.1427,12.4477 L72.1307,12.4477 Z M72.1307,13.1977 L72.1367,13.1977 L72.6647,13.2017 C72.6647,13.2017 73.0217,14.9497 73.1007,15.6317 C73.1797,16.3117 73.3467,17.7367 73.3467,17.7367 L72.2417,17.7277 C71.8217,17.7247 71.4847,17.3817 71.4867,16.9617 L71.3697,13.9517 C71.3727,13.5337 71.7127,13.1977 72.1307,13.1977 Z" id="Fill-65" fill="#489DEA"></path>
                <path d="M24.9334,10.5756 C24.9384,10.0266 25.1664,9.4996 25.5634,9.1216 L31.8494,3.1386 C32.2474,2.7586 32.7824,2.5476 33.3324,2.5526 L40.1344,2.6146 C40.6104,2.6186 40.9934,3.0076 40.9894,3.4826 L40.8604,19.4386 C40.8574,19.9136 40.4684,20.2966 39.9934,20.2926 L33.8254,20.2356 L25.7164,20.1696 C25.2424,20.1656 24.8604,19.7776 24.8634,19.3026 L24.9334,10.5756 Z" id="Stroke-67" stroke="#489DEA" stroke-linecap="round" stroke-linejoin="round"></path>
                <path d="M56.6951,13.4184 C57.1741,13.3184 57.5461,12.9154 57.5491,12.4244 L57.5621,10.8374 C57.5661,10.2884 57.3461,9.7584 56.9551,9.3744 L51.3741,3.2954 C50.9801,2.9094 50.4501,2.6894 49.8991,2.6854 L43.9181,2.6374 C43.4431,2.6334 43.0541,3.0154 43.0511,3.4904 L42.9231,19.4474 C42.9191,19.9224 43.3011,20.3114 43.7761,20.3144 L48.9271,20.3564 C49.4291,20.3604 49.8531,20.0014 50.0011,19.5214 C50.9451,16.4424 53.5101,14.0804 56.6951,13.4184 Z" id="Stroke-75" stroke="#489DEA" stroke-linecap="round" stroke-linejoin="round"></path>
                <path d="M8.4129,23.9619 C8.7849,25.0309 7.4329,24.7029 6.8069,24.6979 L2.7009,24.6649 C2.0399,24.6599 1.4689,24.1929 1.3279,23.5459 L0.5209,19.8039 C0.3979,19.2339 0.8339,18.6999 1.4159,18.7049 L7.1219,18.7509 C7.7479,18.7559 8.5339,19.0709 8.1789,20.1549 C7.8239,21.2379 8.0589,22.9419 8.4129,23.9619 Z" id="Stroke-83" stroke="#489DEA" stroke-linecap="round" stroke-linejoin="round"></path>
                <path d="M8.4129,23.957 C8.0469,22.941 7.8239,21.233 8.1789,20.15 C8.5339,19.066 7.7479,18.751 7.1219,18.746 L6.5219,18.741 C6.5089,18.801 6.4919,18.864 6.4709,18.929 C6.1709,19.843 5.7919,21.213 6.0879,22.667 C6.1709,23.075 5.8879,23.478 5.4719,23.475 L1.3069,23.442 L1.3279,23.541 C1.4689,24.188 2.0399,24.655 2.7009,24.66 L6.8079,24.693 C7.4329,24.698 8.7019,24.757 8.4129,23.957" id="Fill-85" fill="#489DEA"></path>
                <path d="M8.4129,23.9619 C8.7849,25.0309 7.4329,24.7029 6.8069,24.6979 L2.7009,24.6649 C2.0399,24.6599 1.4689,24.1929 1.3279,23.5459 L0.5209,19.8039 C0.3979,19.2339 0.8339,18.6999 1.4159,18.7049 L7.1219,18.7509 C7.7479,18.7559 8.5339,19.0709 8.1789,20.1549 C7.8239,21.2379 8.0589,22.9419 8.4129,23.9619" id="Fill-87" fill="#C1E2F8"></path>
                <path d="M8.4129,23.9619 C8.7849,25.0309 7.4329,24.7029 6.8069,24.6979 L2.7009,24.6649 C2.0399,24.6599 1.4689,24.1929 1.3279,23.5459 L0.5209,19.8039 C0.3979,19.2339 0.8339,18.6999 1.4159,18.7049 L7.1219,18.7509 C7.7479,18.7559 8.5339,19.0709 8.1789,20.1549 C7.8239,21.2379 8.0589,22.9419 8.4129,23.9619 Z" id="Stroke-89" stroke="#489DEA" stroke-linecap="round" stroke-linejoin="round"></path>
                <path d="M22.6541,21.603 L21.8761,24.471 C21.8271,24.657 21.9661,24.839 22.1591,24.84 L51.8831,25.079 C52.0771,25.081 52.2181,24.901 52.1731,24.714 L51.6321,22.569" id="Stroke-91" stroke="#489DEA" stroke-width="0.75" stroke-linecap="round" stroke-linejoin="round"></path>
                <path d="M65.4705,24.2348 C65.1525,25.0718 65.8825,25.1908 66.5115,25.1958 L73.5795,25.2528 C74.2455,25.2578 74.8275,24.7988 74.9795,24.1508 L75.8515,20.3998 C75.9845,19.8298 75.5555,19.2858 74.9695,19.2808 L66.5605,19.2138 C65.9305,19.2078 65.3365,19.2728 65.7015,20.3788 C66.1035,21.5888 65.7875,23.3948 65.4705,24.2348 Z" id="Stroke-93" stroke="#489DEA" stroke-linecap="round" stroke-linejoin="round"></path>
                <path d="M74.6873,19.3007 L74.2763,19.2977 C74.2723,19.3167 74.2733,19.3347 74.2693,19.3527 L73.3983,23.1037 C73.2463,23.7517 72.6643,24.2117 71.9993,24.2067 L65.2243,24.1527 C65.2123,24.1867 65.2013,24.2227 65.1883,24.2547 C64.8713,25.0927 65.6003,25.2117 66.2303,25.2167 L73.2983,25.2737 C73.9633,25.2787 74.5463,24.8187 74.6983,24.1707 L75.5693,20.4207 C75.7023,19.8497 75.2733,19.3057 74.6873,19.3007" id="Fill-95" fill="#489DEA"></path>
                <path d="M65.4705,24.2348 C65.1525,25.0718 65.8825,25.1908 66.5115,25.1958 L73.5795,25.2528 C74.2455,25.2578 74.8275,24.7988 74.9795,24.1508 L75.8515,20.3998 C75.9845,19.8298 75.5555,19.2858 74.9695,19.2808 L66.5605,19.2138 C65.9305,19.2078 65.3365,19.2728 65.7015,20.3788 C66.1035,21.5888 65.7875,23.3948 65.4705,24.2348" id="Fill-97" fill="#C1E2F8"></path>
                <path d="M65.4705,24.2348 C65.1525,25.0718 65.8825,25.1908 66.5115,25.1958 L73.5795,25.2528 C74.2455,25.2578 74.8275,24.7988 74.9795,24.1508 L75.8515,20.3998 C75.9845,19.8298 75.5555,19.2858 74.9695,19.2808 L66.5605,19.2138 C65.9305,19.2078 65.3365,19.2728 65.7015,20.3788 C66.1035,21.5888 65.7875,23.3948 65.4705,24.2348 Z" id="Stroke-99" stroke="#489DEA" stroke-linecap="round" stroke-linejoin="round"></path>
                <g id="Group-101" transform="translate(19.000000, 1.000000)">
                    <path d="M1.2117,8.1455 C1.0637,8.1455 0.9267,8.0575 0.8667,7.9175 C0.7977,7.7565 0.8507,7.5685 0.9917,7.4665 L10.4917,0.6115 C10.5567,0.5645 10.6337,0.5405 10.7117,0.5405 C10.7237,0.5405 10.7337,0.5415 10.7457,0.5415 C11.3197,0.5945 11.6687,0.7885 11.7827,1.1185 C11.8887,1.4235 11.7607,1.7665 11.4237,2.0845 L6.1927,6.9015 C5.7387,7.2915 5.1227,7.4545 4.3347,7.5805 L1.2787,8.1395 C1.2567,8.1435 1.2337,8.1455 1.2117,8.1455" id="Fill-1" fill="#FFFFFF"></path>
                    <path d="M10.7117,0.1655 C10.5557,0.1655 10.4007,0.2145 10.2737,0.3075 L0.7737,7.1625 C0.4887,7.3675 0.3847,7.7425 0.5227,8.0645 C0.6417,8.3445 0.9157,8.5205 1.2117,8.5205 C1.2567,8.5205 1.3017,8.5165 1.3467,8.5085 L4.4097,7.9485 C5.2437,7.8145 5.9147,7.6345 6.4267,7.1955 L11.6747,2.3635 C12.1247,1.9395 12.2917,1.4425 12.1377,0.9965 C11.9717,0.5145 11.5147,0.2355 10.7797,0.1685 C10.7577,0.1665 10.7347,0.1655 10.7117,0.1655 M10.7127,0.9155 C11.6687,1.0025 11.5337,1.4655 11.1667,1.8115 L5.9397,6.6255 C5.5657,6.9465 5.0067,7.0935 4.2747,7.2105 L1.2117,7.7705 L10.7127,0.9155" id="Fill-3" fill="#489DEA"></path>
                    <path d="M43.2937,8.6474 C43.1927,8.6444 43.0977,8.6004 43.0297,8.5264 L36.7987,1.7594 C36.7177,1.6724 36.6837,1.5524 36.7057,1.4364 C36.7277,1.3194 36.8037,1.2204 36.9097,1.1684 L37.9227,0.6744 C37.9747,0.6494 38.0307,0.6364 38.0867,0.6364 C38.1677,0.6364 38.2467,0.6624 38.3147,0.7134 L48.0287,8.1104 C48.1577,8.2094 48.2097,8.3804 48.1547,8.5334 C48.1027,8.6844 47.9597,8.7834 47.8017,8.7834 C47.7977,8.7834 43.2937,8.6474 43.2937,8.6474" id="Fill-5" fill="#FFFFFF"></path>
                    <path d="M38.0867,0.2617 C37.9757,0.2617 37.8627,0.2867 37.7587,0.3377 L36.7457,0.8307 C36.5327,0.9347 36.3817,1.1337 36.3377,1.3657 C36.2937,1.5987 36.3617,1.8397 36.5227,2.0137 L42.7537,8.7807 C42.8907,8.9287 43.0807,9.0157 43.2827,9.0227 L47.7787,9.1587 L47.8017,9.1587 C48.1187,9.1587 48.4017,8.9597 48.5087,8.6587 C48.6177,8.3517 48.5157,8.0097 48.2557,7.8117 L38.5407,0.4147 C38.4077,0.3137 38.2477,0.2617 38.0867,0.2617 M38.0867,1.0117 L47.8017,8.4087 L43.3057,8.2727 L37.0737,1.5057 L38.0867,1.0117" id="Fill-7" fill="#489DEA"></path>
                    <path d="M38.8953,1.6215 L37.7443,2.1345 L40.4593,4.9155 C40.4593,4.9155 39.7643,4.0965 40.6853,2.9905 C39.5773,2.1465 38.8953,1.6215 38.8953,1.6215" id="Fill-9" fill-opacity="0.3" fill="#489DEA"></path>
                    <path d="M10.4266,1.1152 L10.7336,1.6092 L8.4066,3.6202 C8.4066,3.6202 9.1466,3.0402 8.6426,2.4082 L10.4266,1.1152 Z" id="Fill-11" fill-opacity="0.3" fill="#489DEA"></path>
                    <path d="M3.0486,11.871 L1.3756,11.857" id="Stroke-27" stroke="#489DEA" stroke-linecap="round" stroke-linejoin="round"></path>
                    <path d="M20.0184,10.9946 L16.6714,10.9676" id="Stroke-69" stroke="#489DEA" stroke-linecap="round" stroke-linejoin="round"></path>
                    <path d="M19.9783,8.3188 C19.9763,8.5698 19.7713,8.7718 19.5203,8.7698 L9.0993,8.6788 C8.9353,8.6778 8.8553,8.4768 8.9743,8.3618 L13.9413,3.6348 C14.0613,3.5208 14.2243,3.4558 14.3903,3.4568 L19.5623,3.5058 C19.8133,3.5068 20.0153,3.7128 20.0133,3.9638 L19.9783,8.3188 Z" id="Fill-71" fill="#FFFFFF"></path>
                    <path d="M19.9783,8.3188 C19.9763,8.5698 19.7713,8.7718 19.5203,8.7698 L9.0993,8.6788 C8.9353,8.6778 8.8553,8.4768 8.9743,8.3618 L13.9413,3.6348 C14.0613,3.5208 14.2243,3.4558 14.3903,3.4568 L19.5623,3.5058 C19.8133,3.5068 20.0153,3.7128 20.0133,3.9638 L19.9783,8.3188 Z" id="Stroke-73" stroke="#489DEA" stroke-width="0.75" stroke-linecap="round" stroke-linejoin="round"></path>
                    <path d="M34.3318,10.9731 L36.2968,10.9891" id="Stroke-77" stroke="#489DEA" stroke-linecap="round" stroke-linejoin="round"></path>
                    <path d="M25.6756,3.9746 C25.6776,3.7216 25.8846,3.5176 26.1376,3.5196 L30.6666,3.5556 C30.8336,3.5576 30.9976,3.6246 31.1156,3.7426 L35.5396,8.5876 C35.6586,8.7046 35.5746,8.9066 35.4086,8.9056 L26.0946,8.8306 C25.8416,8.8286 25.6376,8.6216 25.6406,8.3686 L25.6756,3.9746 Z" id="Fill-79" fill="#FFFFFF"></path>
                    <path d="M25.6756,3.9746 C25.6776,3.7216 25.8846,3.5176 26.1376,3.5196 L30.6666,3.5556 C30.8336,3.5576 30.9976,3.6246 31.1156,3.7426 L35.5396,8.5876 C35.6586,8.7046 35.5746,8.9066 35.4086,8.9056 L26.0946,8.8306 C25.8416,8.8286 25.6376,8.6216 25.6406,8.3686 L25.6756,3.9746 Z" id="Stroke-81" stroke="#489DEA" stroke-width="0.75" stroke-linecap="round" stroke-linejoin="round"></path>
                </g>
            </g>
        </g>
    </g>
</svg>