<?xml version="1.0" encoding="UTF-8"?>
<svg width="94px" height="36px" viewBox="0 0 77 30" version="1.1" xmlns="http://www.w3.org/2000/svg" xmlns:xlink="http://www.w3.org/1999/xlink">
    <!-- Generator: sketchtool 52.3 (67297) - http://www.bohemiancoding.com/sketch -->
    <title>FF00EB31-95A9-4B0E-BA17-F470A027F8BF@1x</title>
    <desc>Created with sketchtool.</desc>
    <g id="Page-1" stroke="none" stroke-width="1" fill="none" fill-rule="evenodd">
        <g id="Car-Model-Icons---Greyscale" transform="translate(-22.000000, -116.000000)">
            <g id="Group-101" transform="translate(22.000000, 116.000000)">
                <path d="M20.2118,9.1455 C20.0638,9.1455 19.9268,9.0575 19.8668,8.9175 C19.7978,8.7565 19.8498,8.5685 19.9928,8.4665 L29.4928,1.6115 C29.5568,1.5645 29.6338,1.5405 29.7118,1.5405 C29.7238,1.5405 29.7348,1.5415 29.7468,1.5415 C30.3208,1.5945 30.6698,1.7885 30.7828,2.1185 C30.8888,2.4245 30.7608,2.7675 30.4238,3.0845 L25.1928,7.9015 C24.7388,8.2915 24.1228,8.4535 23.3348,8.5805 L20.2788,9.1395 C20.2568,9.1435 20.2338,9.1455 20.2118,9.1455" id="Fill-1" fill="#FFFFFF"></path>
                <path d="M29.7123,1.1655 C29.5553,1.1655 29.4013,1.2145 29.2733,1.3075 L19.7733,8.1625 C19.4883,8.3675 19.3843,8.7425 19.5223,9.0645 C19.6413,9.3445 19.9153,9.5205 20.2113,9.5205 C20.2563,9.5205 20.3013,9.5165 20.3463,9.5085 L23.4093,8.9485 C24.2433,8.8145 24.9153,8.6345 25.4273,8.1955 L30.6753,3.3635 C31.1253,2.9395 31.2913,2.4425 31.1373,1.9965 C30.9713,1.5145 30.5143,1.2355 29.7803,1.1685 C29.7573,1.1665 29.7343,1.1655 29.7123,1.1655 M29.7123,1.9155 C30.6683,2.0025 30.5343,2.4655 30.1673,2.8115 L24.9393,7.6255 C24.5653,7.9465 24.0063,8.0935 23.2753,8.2105 L20.2123,8.7705 L29.7123,1.9155" id="Fill-3" fill="#202020"></path>
                <path d="M62.2943,9.6474 C62.1933,9.6444 62.0983,9.6004 62.0293,9.5264 L55.7983,2.7594 C55.7183,2.6724 55.6843,2.5524 55.7063,2.4364 C55.7283,2.3194 55.8033,2.2204 55.9103,2.1684 L56.9223,1.6744 C56.9743,1.6494 57.0303,1.6364 57.0863,1.6364 C57.1673,1.6364 57.2473,1.6624 57.3143,1.7134 L67.0283,9.1104 C67.1583,9.2094 67.2093,9.3804 67.1553,9.5334 C67.1023,9.6844 66.9603,9.7834 66.8013,9.7834 C66.7973,9.7834 62.2943,9.6474 62.2943,9.6474" id="Fill-5" fill="#FFFFFF"></path>
                <path d="M57.0868,1.2622 C56.9748,1.2622 56.8628,1.2872 56.7578,1.3382 L55.7458,1.8312 C55.5328,1.9352 55.3808,2.1332 55.3368,2.3662 C55.2938,2.5992 55.3618,2.8392 55.5228,3.0132 L61.7538,9.7812 C61.8908,9.9292 62.0808,10.0162 62.2828,10.0222 L66.7788,10.1582 L66.8018,10.1582 C67.1188,10.1582 67.4018,9.9592 67.5088,9.6592 C67.6178,9.3522 67.5158,9.0102 67.2558,8.8122 L57.5418,1.4152 C57.4078,1.3142 57.2478,1.2622 57.0868,1.2622 M57.0868,2.0122 L66.8018,9.4082 L62.3058,9.2722 L56.0748,2.5052 L57.0868,2.0122" id="Fill-7" fill="#202020"></path>
                <path d="M57.8954,2.6215 L56.7434,3.1345 L59.4594,5.9155 C59.4594,5.9155 58.7644,5.0965 59.6854,3.9905 C58.5774,3.1465 57.8954,2.6215 57.8954,2.6215" id="Fill-9" fill-opacity="0.1" fill="#202020"></path>
                <path d="M29.4261,2.1152 L29.7331,2.6092 L27.4071,4.6202 C27.4071,4.6202 28.1461,4.0402 27.6421,3.4082 L29.4261,2.1152 Z" id="Fill-11" fill-opacity="0.1" fill="#202020"></path>
                <polygon id="Stroke-13" stroke="#202020" stroke-linecap="round" stroke-linejoin="round" points="69.1249 13.517 11.5729 13.055 6.3079 22.507 69.6559 23.016"></polygon>
                <path d="M57.6307,2.249 C58.0537,2.02 58.0657,1.688 58.0677,1.404 C58.0707,1.119 57.8407,0.723 57.2887,0.719 L31.1837,0.509 C30.6267,0.504 29.4447,0.393 29.0487,1.113 C28.6107,1.908 29.2937,2.797 30.0367,2.81 L23.7177,8.379 L9.0807,10.359 C4.8277,11.163 2.1107,15.228 2.2597,19.198 C2.2967,20.191 2.7827,21.124 3.5827,21.721 L3.6687,21.785 C4.4817,22.391 5.4707,22.724 6.4847,22.732 C7.3177,22.739 7.9347,22.015 7.9947,21.183 C8.2677,17.351 11.4787,14.344 15.3727,14.375 C18.5127,14.4 21.1367,16.38 22.1747,19.104 C22.9087,21.028 21.8967,22.856 23.9557,22.873 C29.5477,22.918 44.7937,23.04 50.9437,23.09 C50.9487,22.538 50.7247,20.665 52.0767,18.355 C53.3617,16.163 55.7497,14.699 58.4727,14.721 C61.7167,14.747 64.4537,16.875 65.3987,19.804 C65.9677,21.569 68.5227,23.231 70.3767,23.246 C72.2047,23.26 74.2047,22.06 73.9977,20.243 C73.9977,20.243 73.8997,16.368 72.8487,12.19 C72.3827,10.34 70.7737,9.573 69.1137,9.265 L63.7517,8.925 C62.6467,8.855 61.5967,8.387 60.8057,7.611 C60.8057,7.611 57.9257,4.829 57.0677,3.945 C56.2087,3.061 57.2067,2.479 57.6307,2.249" id="Fill-15" fill="#ECECEC"></path>
                <path d="M57.6307,2.249 C58.0537,2.02 58.0657,1.688 58.0677,1.404 C58.0707,1.119 57.8407,0.723 57.2887,0.719 L31.1837,0.509 C30.6267,0.504 29.4447,0.393 29.0487,1.113 C28.6107,1.908 29.2937,2.797 30.0367,2.81 L23.7177,8.379 L9.0807,10.359 C4.8277,11.163 2.1107,15.228 2.2597,19.198 C2.2967,20.191 2.7827,21.124 3.5827,21.721 L3.6687,21.785 C4.4817,22.391 5.4707,22.724 6.4847,22.732 C7.3177,22.739 7.9347,22.015 7.9947,21.183 C8.2677,17.351 11.4787,14.344 15.3727,14.375 C18.5127,14.4 21.1367,16.38 22.1747,19.104 C22.9087,21.028 21.8967,22.856 23.9557,22.873 C29.5477,22.918 44.7937,23.04 50.9437,23.09 C50.9487,22.538 50.7247,20.665 52.0767,18.355 C53.3617,16.163 55.7497,14.699 58.4727,14.721 C61.7167,14.747 64.4537,16.875 65.3987,19.804 C65.9677,21.569 68.5227,23.231 70.3767,23.246 C72.2047,23.26 74.2047,22.06 73.9977,20.243 C73.9977,20.243 73.8997,16.368 72.8487,12.19 C72.3827,10.34 70.7737,9.573 69.1137,9.265 L63.7517,8.925 C62.6467,8.855 61.5967,8.387 60.8057,7.611 C60.8057,7.611 57.9257,4.829 57.0677,3.945 C56.2087,3.061 57.2067,2.479 57.6307,2.249 Z" id="Stroke-17" stroke="#202020"></path>
                <path d="M3.0126,16.8769 C2.9046,16.8759 2.8016,16.8279 2.7316,16.7459 C2.6606,16.6629 2.6296,16.5549 2.6456,16.4469 C2.6496,16.4179 2.7546,15.7229 3.0576,15.1279 C3.4476,14.3629 3.8296,14.0459 3.8716,14.0119 C3.9376,13.9599 4.0206,13.9309 4.1056,13.9309 C4.1066,13.9309 6.7756,13.9519 6.7756,13.9519 C7.0726,13.9549 7.3526,14.1009 7.5246,14.3419 C7.6956,14.5839 7.7396,14.8939 7.6446,15.1729 L7.4226,15.9249 C7.2216,16.5199 6.6796,16.9089 6.0676,16.9089 L3.0126,16.8769 Z" id="Fill-19" fill="#ECECEC"></path>
                <path d="M4.1053,13.5556 C3.9353,13.5556 3.7703,13.6136 3.6373,13.7196 C3.5583,13.7826 3.1403,14.1396 2.7233,14.9576 C2.3983,15.5966 2.2863,16.3126 2.2743,16.3926 C2.2433,16.6066 2.3053,16.8246 2.4463,16.9886 C2.5863,17.1536 2.7923,17.2496 3.0083,17.2516 L6.0503,17.2846 C6.8393,17.2846 7.5253,16.7926 7.7733,16.0596 L8.0083,15.2636 C8.1333,14.9016 8.0703,14.4646 7.8303,14.1256 C7.5893,13.7856 7.1953,13.5806 6.7783,13.5766 L4.1113,13.5556 L4.1053,13.5556 Z M4.1053,14.3056 L6.7723,14.3266 C7.1483,14.3296 7.4103,14.6986 7.2893,15.0516 L7.0633,15.8196 C6.9183,16.2446 6.5163,16.5346 6.0663,16.5346 L6.0583,16.5346 L3.0163,16.5016 C3.0163,16.5016 3.1133,15.8456 3.3923,15.2986 C3.7563,14.5836 4.1053,14.3056 4.1053,14.3056 Z" id="Fill-21" fill="#202020"></path>
                <path d="M51.7059,22.8315 C51.6519,22.6145 51.4579,22.4595 51.2339,22.4575 L22.8509,22.2295 C22.6269,22.2285 22.4299,22.3795 22.3729,22.5955 L21.8749,24.4715 C21.8269,24.6565 21.9659,24.8385 22.1589,24.8405 L51.8839,25.0795 C52.0769,25.0805 52.2179,24.9005 52.1719,24.7145 L51.7059,22.8315 Z" id="Fill-23" fill="#CFCFD1"></path>
                <path d="M51.7059,22.8315 C51.6519,22.6145 51.4579,22.4595 51.2339,22.4575 L22.8509,22.2295 C22.6269,22.2285 22.4299,22.3795 22.3729,22.5955 L21.8749,24.4715 C21.8269,24.6565 21.9659,24.8385 22.1589,24.8405 L51.8839,25.0795 C52.0769,25.0805 52.2179,24.9005 52.1719,24.7145 L51.7059,22.8315 Z" id="Stroke-25" stroke="#202020" stroke-width="0.75" stroke-linecap="round" stroke-linejoin="round"></path>
                <path d="M22.0487,12.871 L20.3757,12.857" id="Stroke-27" stroke="#202020" stroke-linecap="round" stroke-linejoin="round"></path>
                <path d="M58.5609,16.4672 C55.4299,16.4422 52.8719,18.9592 52.8459,22.0912 C52.8209,25.2202 55.3389,27.7792 58.4699,27.8042 C61.5999,27.8292 64.1579,25.3112 64.1829,22.1812 C64.2079,19.0502 61.6909,16.4922 58.5609,16.4672" id="Fill-29" fill="#737987"></path>
                <path d="M58.5609,16.4672 C55.4299,16.4422 52.8719,18.9592 52.8459,22.0912 C52.8209,25.2202 55.3389,27.7792 58.4699,27.8042 C61.5999,27.8292 64.1579,25.3112 64.1829,22.1812 C64.2079,19.0502 61.6909,16.4922 58.5609,16.4672 Z" id="Stroke-31" stroke="#284356" stroke-linecap="round" stroke-linejoin="round"></path>
                <path d="M58.5018,23.7978 C57.5798,23.7908 56.8378,23.0408 56.8458,22.1218 C56.8538,21.2038 57.6068,20.4658 58.5288,20.4728 C59.4498,20.4808 60.1908,21.2308 60.1838,22.1488 C60.1768,23.0678 59.4228,23.8058 58.5018,23.7978 M58.5508,17.6468 C56.0618,17.6268 54.0278,19.6208 54.0078,22.0998 C53.9878,24.5788 55.9898,26.6058 58.4788,26.6258 C60.9678,26.6458 63.0018,24.6518 63.0208,22.1728 C63.0408,19.6938 61.0398,17.6668 58.5508,17.6468" id="Fill-33" fill="#CFCFD1"></path>
                <path d="M58.5018,23.7978 C57.5798,23.7908 56.8378,23.0408 56.8458,22.1218 C56.8538,21.2038 57.6068,20.4658 58.5288,20.4728 C59.4498,20.4808 60.1908,21.2308 60.1838,22.1488 C60.1768,23.0678 59.4228,23.8058 58.5018,23.7978 Z M58.5508,17.6468 C56.0618,17.6268 54.0278,19.6208 54.0078,22.0998 C53.9878,24.5788 55.9898,26.6058 58.4788,26.6258 C60.9678,26.6458 63.0018,24.6518 63.0208,22.1728 C63.0408,19.6938 61.0398,17.6668 58.5508,17.6468 Z" id="Stroke-35" stroke="#202020" stroke-width="0.75" stroke-linecap="round" stroke-linejoin="round"></path>
                <path d="M58.5287,20.4731 C57.6067,20.4661 56.8537,21.2041 56.8457,22.1221 C56.8387,23.0401 57.5797,23.7901 58.5017,23.7981 C59.4237,23.8061 60.1767,23.0671 60.1837,22.1491 C60.1917,21.2311 59.4497,20.4801 58.5287,20.4731" id="Fill-37" fill="#202020"></path>
                <path d="M58.3807,19.1884 C61.0117,19.2094 63.2037,21.0224 63.8227,23.4594 C63.9477,22.9994 64.0227,22.5184 64.0267,22.0194 C64.0517,18.8874 61.5347,16.3304 58.4037,16.3054 C55.2737,16.2794 52.7137,18.7964 52.6897,21.9284 C52.6857,22.4274 52.7527,22.9094 52.8697,23.3714 C53.5277,20.9454 55.7487,19.1674 58.3807,19.1884" id="Fill-39" fill-opacity="0.1" fill="#202020"></path>
                <path d="M52.8461,22.0908 C52.8211,25.2198 55.3391,27.7788 58.4701,27.8038 C61.5991,27.8298 64.1581,25.3118 64.1831,22.1818 C64.2081,19.0498 61.6911,16.4928 58.5611,16.4668 C55.4301,16.4428 52.8711,18.9588 52.8461,22.0908 Z" id="Stroke-41" stroke="#202020" stroke-width="2" stroke-linecap="round" stroke-linejoin="round"></path>
                <path d="M58.5692,15.0927 L58.5672,15.0927 L58.5132,15.0927 C56.6532,15.0927 54.9002,15.8117 53.5742,17.1157 C52.2332,18.4347 51.4862,20.1977 51.4712,22.0797 C51.4572,23.9617 52.1752,25.7357 53.4942,27.0767 C54.8142,28.4177 56.5772,29.1647 58.4592,29.1797 L58.5162,29.1797 C62.3682,29.1797 65.5272,26.0457 65.5582,22.1927 C65.5892,18.3097 62.4542,15.1247 58.5712,15.0927 L58.5692,15.0927 Z M58.5672,15.5927 C62.1742,15.6217 65.0872,18.5807 65.0582,22.1887 C65.0292,25.7797 62.0992,28.6797 58.5162,28.6797 L58.4632,28.6797 C56.7152,28.6657 55.0772,27.9717 53.8502,26.7257 C52.6252,25.4797 51.9582,23.8317 51.9712,22.0837 C51.9852,20.3367 52.6782,18.6977 53.9252,17.4717 C55.1582,16.2587 56.7862,15.5927 58.5132,15.5927 L58.5672,15.5927 Z" id="Fill-43" fill="#FFFFFF"></path>
                <path d="M15.4657,16.4672 C12.3357,16.4422 9.7767,18.9592 9.7517,22.0912 C9.7257,25.2202 12.2447,27.7792 15.3747,27.8042 C18.5047,27.8292 21.0627,25.3112 21.0887,22.1812 C21.1127,19.0502 18.5957,16.4922 15.4657,16.4672" id="Fill-45" fill="#737987"></path>
                <path d="M15.4657,16.4672 C12.3357,16.4422 9.7767,18.9592 9.7517,22.0912 C9.7257,25.2202 12.2447,27.7792 15.3747,27.8042 C18.5047,27.8292 21.0627,25.3112 21.0887,22.1812 C21.1127,19.0502 18.5957,16.4922 15.4657,16.4672 Z" id="Stroke-47" stroke="#284356" stroke-linecap="round" stroke-linejoin="round"></path>
                <path d="M15.4071,23.7978 C14.4851,23.7908 13.7431,23.0408 13.7511,22.1218 C13.7581,21.2038 14.5121,20.4658 15.4331,20.4728 C16.3551,20.4808 17.0961,21.2308 17.0891,22.1488 C17.0821,23.0678 16.3281,23.8058 15.4071,23.7978 M15.4561,17.6468 C12.9671,17.6268 10.9331,19.6208 10.9131,22.0998 C10.8931,24.5788 12.8951,26.6058 15.3841,26.6258 C17.8731,26.6458 19.9071,24.6518 19.9261,22.1728 C19.9461,19.6938 17.9451,17.6668 15.4561,17.6468" id="Fill-49" fill="#CFCFD1"></path>
                <path d="M15.4071,23.7978 C14.4851,23.7908 13.7431,23.0408 13.7511,22.1218 C13.7581,21.2038 14.5121,20.4658 15.4331,20.4728 C16.3551,20.4808 17.0961,21.2308 17.0891,22.1488 C17.0821,23.0678 16.3281,23.8058 15.4071,23.7978 Z M15.4561,17.6468 C12.9671,17.6268 10.9331,19.6208 10.9131,22.0998 C10.8931,24.5788 12.8951,26.6058 15.3841,26.6258 C17.8731,26.6458 19.9071,24.6518 19.9261,22.1728 C19.9461,19.6938 17.9451,17.6668 15.4561,17.6468 Z" id="Stroke-51" stroke="#202020" stroke-width="0.75" stroke-linecap="round" stroke-linejoin="round"></path>
                <path d="M15.4335,20.4731 C14.5125,20.4661 13.7585,21.2041 13.7505,22.1221 C13.7435,23.0401 14.4855,23.7901 15.4075,23.7981 C16.3285,23.8061 17.0815,23.0671 17.0895,22.1491 C17.0965,21.2311 16.3545,20.4801 15.4335,20.4731" id="Fill-53" fill="#202020"></path>
                <path d="M15.286,19.1884 C17.917,19.2094 20.109,21.0224 20.728,23.4594 C20.853,22.9994 20.928,22.5184 20.932,22.0194 C20.957,18.8874 18.44,16.3304 15.309,16.3054 C12.178,16.2794 9.619,18.7964 9.595,21.9284 C9.59,22.4274 9.658,22.9094 9.775,23.3714 C10.433,20.9454 12.654,19.1674 15.286,19.1884" id="Fill-55" fill-opacity="0.1" fill="#202020"></path>
                <path d="M9.7513,22.0908 C9.7263,25.2198 12.2443,27.7788 15.3753,27.8038 C18.5043,27.8298 21.0633,25.3118 21.0883,22.1818 C21.1133,19.0498 18.5963,16.4928 15.4653,16.4668 C12.3353,16.4428 9.7763,18.9588 9.7513,22.0908 Z" id="Stroke-57" stroke="#202020" stroke-width="2" stroke-linecap="round" stroke-linejoin="round"></path>
                <path d="M15.4745,15.0927 L15.4725,15.0927 L15.4185,15.0927 C13.5585,15.0927 11.8055,15.8117 10.4795,17.1157 C9.1385,18.4347 8.3915,20.1977 8.3765,22.0797 C8.3625,23.9617 9.0805,25.7357 10.3995,27.0767 C11.7195,28.4177 13.4825,29.1647 15.3635,29.1797 L15.4215,29.1797 C19.2735,29.1797 22.4325,26.0457 22.4635,22.1927 C22.4945,18.3097 19.3595,15.1247 15.4765,15.0927 L15.4745,15.0927 Z M15.4725,15.5927 C19.0795,15.6217 21.9925,18.5807 21.9635,22.1887 C21.9345,25.7797 19.0045,28.6797 15.4215,28.6797 L15.3685,28.6797 C13.6205,28.6657 11.9825,27.9717 10.7555,26.7257 C9.5305,25.4797 8.8635,23.8317 8.8765,22.0837 C8.8905,20.3367 9.5835,18.6977 10.8305,17.4717 C12.0635,16.2587 13.6915,15.5927 15.4185,15.5927 L15.4725,15.5927 Z" id="Fill-59" fill="#FFFFFF"></path>
                <path d="M66.9691,13.5332 C66.9671,13.7982 66.7501,14.0122 66.4841,14.0102 L64.8861,13.9972 C64.6201,13.9952 64.4071,13.7772 64.4091,13.5122 L64.4221,11.9152 C64.4241,11.6492 64.6411,11.4352 64.9071,11.4372 L66.5041,11.4502 C66.7701,11.4522 66.9841,11.6702 66.9821,11.9352 L66.9691,13.5332 Z" id="Stroke-61" stroke="#202020" stroke-width="0.75" stroke-linecap="round" stroke-linejoin="round"></path>
                <path d="M72.2396,18.103 C71.6136,18.098 71.1076,17.584 71.1126,16.959 L70.9956,13.966 C70.9996,13.328 71.5096,12.823 72.1306,12.823 L72.6676,12.827 C72.8446,12.829 72.9966,12.954 73.0326,13.127 C73.0476,13.199 73.3926,14.899 73.4726,15.588 L73.7186,17.693 C73.7316,17.8 73.6976,17.907 73.6256,17.987 C73.5546,18.066 73.4526,18.112 73.3466,18.112 C73.3456,18.112 72.2396,18.103 72.2396,18.103" id="Fill-63" fill="#ECECEC"></path>
                <path d="M72.1302,12.4477 C71.3042,12.4477 70.6272,13.1197 70.6202,13.9457 L70.7382,16.9907 C70.7312,17.7887 71.4032,18.4707 72.2362,18.4777 L73.3402,18.4867 L73.3462,18.4867 C73.5592,18.4867 73.7622,18.3967 73.9042,18.2377 C74.0482,18.0777 74.1162,17.8637 74.0912,17.6497 L73.8452,15.5447 C73.7632,14.8397 73.4142,13.1247 73.4002,13.0517 C73.3292,12.7047 73.0252,12.4547 72.6712,12.4517 L72.1422,12.4477 L72.1302,12.4477 Z M72.1302,13.1977 L72.1362,13.1977 L72.6652,13.2017 C72.6652,13.2017 73.0212,14.9497 73.1002,15.6317 C73.1802,16.3117 73.3462,17.7367 73.3462,17.7367 L72.2422,17.7277 C71.8222,17.7247 71.4842,17.3817 71.4872,16.9617 L71.3702,13.9517 C71.3732,13.5337 71.7132,13.1977 72.1302,13.1977 Z" id="Fill-65" fill="#202020"></path>
                <path d="M24.9335,10.5756 C24.9375,10.0266 25.1665,9.4996 25.5635,9.1216 L31.8505,3.1386 C32.2475,2.7586 32.7825,2.5476 33.3325,2.5526 L40.1355,2.6146 C40.6105,2.6186 40.9925,3.0076 40.9885,3.4826 L40.8605,19.4386 C40.8565,19.9136 40.4685,20.2966 39.9935,20.2926 L33.8245,20.2356 L25.7165,20.1696 C25.2425,20.1656 24.8595,19.7776 24.8635,19.3026 L24.9335,10.5756 Z" id="Stroke-67" stroke="#202020" stroke-linecap="round" stroke-linejoin="round"></path>
                <path d="M39.0184,11.9946 L35.6714,11.9676" id="Stroke-69" stroke="#202020" stroke-linecap="round" stroke-linejoin="round"></path>
                <path d="M38.9784,9.3188 C38.9764,9.5698 38.7714,9.7718 38.5204,9.7698 L28.0994,9.6788 C27.9354,9.6778 27.8544,9.4768 27.9744,9.3618 L32.9414,4.6348 C33.0614,4.5208 33.2244,4.4558 33.3904,4.4568 L38.5624,4.5058 C38.8134,4.5068 39.0154,4.7128 39.0134,4.9638 L38.9784,9.3188 Z" id="Fill-71" fill="#FFFFFF"></path>
                <path d="M38.9784,9.3188 C38.9764,9.5698 38.7714,9.7718 38.5204,9.7698 L28.0994,9.6788 C27.9354,9.6778 27.8544,9.4768 27.9744,9.3618 L32.9414,4.6348 C33.0614,4.5208 33.2244,4.4558 33.3904,4.4568 L38.5624,4.5058 C38.8134,4.5068 39.0154,4.7128 39.0134,4.9638 L38.9784,9.3188 Z" id="Stroke-73" stroke="#202020" stroke-width="0.75" stroke-linecap="round" stroke-linejoin="round"></path>
                <path d="M56.6947,13.4184 C57.1747,13.3184 57.5457,12.9154 57.5487,12.4244 L57.5617,10.8374 C57.5667,10.2884 57.3467,9.7584 56.9557,9.3744 L51.3737,3.2954 C50.9807,2.9094 50.4497,2.6894 49.8997,2.6854 L43.9187,2.6374 C43.4437,2.6334 43.0547,3.0154 43.0507,3.4904 L42.9227,19.4474 C42.9197,19.9224 43.3007,20.3114 43.7767,20.3144 L48.9267,20.3564 C49.4287,20.3604 49.8537,20.0014 50.0007,19.5214 C50.9447,16.4424 53.5107,14.0804 56.6947,13.4184 Z" id="Stroke-75" stroke="#202020" stroke-linecap="round" stroke-linejoin="round"></path>
                <path d="M53.3319,11.9731 L55.2969,11.9891" id="Stroke-77" stroke="#202020" stroke-linecap="round" stroke-linejoin="round"></path>
                <path d="M44.6752,4.9746 C44.6772,4.7216 44.8842,4.5176 45.1372,4.5196 L49.6662,4.5556 C49.8342,4.5576 49.9972,4.6246 50.1162,4.7426 L54.5402,9.5876 C54.6592,9.7046 54.5752,9.9066 54.4092,9.9056 L45.0942,9.8306 C44.8422,9.8286 44.6382,9.6216 44.6402,9.3686 L44.6752,4.9746 Z" id="Fill-79" fill="#FFFFFF"></path>
                <path d="M44.6752,4.9746 C44.6772,4.7216 44.8842,4.5176 45.1372,4.5196 L49.6662,4.5556 C49.8342,4.5576 49.9972,4.6246 50.1162,4.7426 L54.5402,9.5876 C54.6592,9.7046 54.5752,9.9066 54.4092,9.9056 L45.0942,9.8306 C44.8422,9.8286 44.6382,9.6216 44.6402,9.3686 L44.6752,4.9746 Z" id="Stroke-81" stroke="#202020" stroke-width="0.75" stroke-linecap="round" stroke-linejoin="round"></path>
                <path d="M8.413,23.9619 C8.786,25.0309 7.433,24.7029 6.807,24.6979 L2.701,24.6649 C2.04,24.6599 1.468,24.1929 1.328,23.5459 L0.521,19.8039 C0.398,19.2339 0.834,18.6999 1.416,18.7049 L7.122,18.7509 C7.747,18.7559 8.535,19.0709 8.179,20.1549 C7.824,21.2379 8.059,22.9419 8.413,23.9619 Z" id="Stroke-83" stroke="#202020" stroke-linecap="round" stroke-linejoin="round"></path>
                <path d="M8.4135,23.957 C8.0465,22.941 7.8245,21.233 8.1785,20.15 C8.5345,19.066 7.7475,18.751 7.1215,18.746 L6.5225,18.741 C6.5085,18.801 6.4925,18.864 6.4705,18.929 C6.1705,19.843 5.7915,21.213 6.0885,22.667 C6.1705,23.075 5.8875,23.478 5.4715,23.475 L1.3065,23.442 L1.3285,23.541 C1.4685,24.188 2.0395,24.655 2.7015,24.66 L6.8075,24.693 C7.4335,24.698 8.7025,24.757 8.4135,23.957" id="Fill-85" fill="#202020"></path>
                <path d="M8.413,23.9619 C8.786,25.0309 7.433,24.7029 6.807,24.6979 L2.701,24.6649 C2.04,24.6599 1.468,24.1929 1.328,23.5459 L0.521,19.8039 C0.398,19.2339 0.834,18.6999 1.416,18.7049 L7.122,18.7509 C7.747,18.7559 8.535,19.0709 8.179,20.1549 C7.824,21.2379 8.059,22.9419 8.413,23.9619" id="Fill-87" fill="#CFCFD1"></path>
                <path d="M8.413,23.9619 C8.786,25.0309 7.433,24.7029 6.807,24.6979 L2.701,24.6649 C2.04,24.6599 1.468,24.1929 1.328,23.5459 L0.521,19.8039 C0.398,19.2339 0.834,18.6999 1.416,18.7049 L7.122,18.7509 C7.747,18.7559 8.535,19.0709 8.179,20.1549 C7.824,21.2379 8.059,22.9419 8.413,23.9619 Z" id="Stroke-89" stroke="#202020" stroke-linecap="round" stroke-linejoin="round"></path>
                <path d="M22.6547,21.603 L21.8757,24.471 C21.8267,24.657 21.9657,24.839 22.1587,24.84 L51.8837,25.079 C52.0767,25.081 52.2177,24.901 52.1727,24.714 L51.6317,22.569" id="Stroke-91" stroke="#202020" stroke-width="0.75" stroke-linecap="round" stroke-linejoin="round"></path>
                <path d="M65.4701,24.2348 C65.1521,25.0718 65.8821,25.1908 66.5121,25.1958 L73.5801,25.2528 C74.2461,25.2578 74.8281,24.7988 74.9801,24.1508 L75.8511,20.3998 C75.9841,19.8298 75.5551,19.2858 74.9691,19.2808 L66.5601,19.2138 C65.9301,19.2078 65.3371,19.2728 65.7021,20.3788 C66.1031,21.5888 65.7881,23.3948 65.4701,24.2348 Z" id="Stroke-93" stroke="#202020" stroke-linecap="round" stroke-linejoin="round"></path>
                <path d="M74.6874,19.3007 L74.2754,19.2977 C74.2724,19.3167 74.2734,19.3347 74.2694,19.3527 L73.3974,23.1037 C73.2464,23.7517 72.6644,24.2117 71.9984,24.2067 L65.2254,24.1527 C65.2124,24.1867 65.2004,24.2227 65.1884,24.2547 C64.8704,25.0927 65.6004,25.2117 66.2304,25.2167 L73.2984,25.2737 C73.9634,25.2787 74.5464,24.8187 74.6984,24.1707 L75.5694,20.4207 C75.7024,19.8497 75.2734,19.3057 74.6874,19.3007" id="Fill-95" fill="#202020"></path>
                <path d="M65.4701,24.2348 C65.1521,25.0718 65.8821,25.1908 66.5121,25.1958 L73.5801,25.2528 C74.2461,25.2578 74.8281,24.7988 74.9801,24.1508 L75.8511,20.3998 C75.9841,19.8298 75.5551,19.2858 74.9691,19.2808 L66.5601,19.2138 C65.9301,19.2078 65.3371,19.2728 65.7021,20.3788 C66.1031,21.5888 65.7881,23.3948 65.4701,24.2348" id="Fill-97" fill="#CFCFD1"></path>
                <path d="M65.4701,24.2348 C65.1521,25.0718 65.8821,25.1908 66.5121,25.1958 L73.5801,25.2528 C74.2461,25.2578 74.8281,24.7988 74.9801,24.1508 L75.8511,20.3998 C75.9841,19.8298 75.5551,19.2858 74.9691,19.2808 L66.5601,19.2138 C65.9301,19.2078 65.3371,19.2728 65.7021,20.3788 C66.1031,21.5888 65.7881,23.3948 65.4701,24.2348 Z" id="Stroke-99" stroke="#202020" stroke-linecap="round" stroke-linejoin="round"></path>
            </g>
        </g>
    </g>
</svg>