<?xml version="1.0" encoding="UTF-8"?>
<svg width="94px" height="36px" viewBox="0 0 87 34" version="1.1" xmlns="http://www.w3.org/2000/svg" xmlns:xlink="http://www.w3.org/1999/xlink">
    <!-- Generator: sketchtool 52.3 (67297) - http://www.bohemiancoding.com/sketch -->
    <title>6BAE4C09-35AD-48CC-8450-9A8A081228A7@1x</title>
    <desc>Created with sketchtool.</desc>
    <g id="Page-1" stroke="none" stroke-width="1" fill="none" fill-rule="evenodd">
        <g id="Car-Model-Icons" transform="translate(-17.000000, -367.000000)">
            <g id="WAGON" transform="translate(17.000000, 367.000000)">
                <polygon id="Fill-1" fill="#A5CECA" points="35.393 3.7837 32.625 3.1487 19.247 11.4527 20.804 12.2617 22.65 11.2227"></polygon>
                <path d="M3.4633,15.0278 L19.0273,12.2258 C19.1643,12.2018 19.2953,12.1478 19.4113,12.0698 L34.9833,0.6728 C35.1483,0.5598 35.3443,0.5008 35.5433,0.5008 L72.4943,0.5008 C72.7453,0.5008 72.9853,0.5938 73.1703,0.7628 L83.9823,11.5198 C83.9823,11.5198 84.4763,11.9558 84.4763,12.5248 L84.4763,21.1428 L85.0873,21.1428 C85.4283,21.1428 85.7463,21.4718 85.7463,21.7568 L85.7463,27.1478 C85.7463,27.7008 85.2983,28.1478 84.7463,28.1478 L2.0273,28.1498 C1.4543,28.1498 0.9743,27.7158 0.9163,27.1448 L0.5023,23.0288 C0.5123,22.9068 0.5223,22.7948 0.5323,22.6728 C0.8263,21.6448 2.3453,16.3428 2.5413,15.8358 C2.7593,15.2738 3.4633,15.0278 3.4633,15.0278" id="Fill-2" fill="#E9F5FD"></path>
                <path d="M3.4633,15.0278 L19.0273,12.2258 C19.1643,12.2018 19.2953,12.1478 19.4113,12.0698 L34.9833,0.6728 C35.1483,0.5598 35.3443,0.5008 35.5433,0.5008 L72.4943,0.5008 C72.7453,0.5008 72.9853,0.5938 73.1703,0.7628 L83.9823,11.5198 C83.9823,11.5198 84.4763,11.9558 84.4763,12.5248 L84.4763,21.1428 L85.0873,21.1428 C85.4283,21.1428 85.7463,21.4718 85.7463,21.7568 L85.7463,27.1478 C85.7463,27.7008 85.2983,28.1478 84.7463,28.1478 L2.0273,28.1498 C1.4543,28.1498 0.9743,27.7158 0.9163,27.1448 L0.5023,23.0288 C0.5123,22.9068 0.5223,22.7948 0.5323,22.6728 C0.8263,21.6448 2.3453,16.3428 2.5413,15.8358 C2.7593,15.2738 3.4633,15.0278 3.4633,15.0278 Z" id="Stroke-4" stroke="#489DEA"></path>
                <path d="M16.9467,17.1587 C17.8877,17.5237 18.7537,18.0377 19.5117,18.6767 L16.5117,23.8247 L13.0617,23.8247 L16.9467,17.1587 Z" id="Fill-6" fill="#F4F4F6"></path>
                <path d="M6.5102,25.3442 C6.5102,21.3652 9.7382,18.1372 13.7182,18.1372 C17.6992,18.1372 20.9272,21.3652 20.9272,25.3442 C20.9272,29.3252 17.6992,32.5522 13.7182,32.5522 C9.7382,32.5522 6.5102,29.3252 6.5102,25.3442" id="Fill-8" fill="#B5D7EA"></path>
                <path d="M6.5102,25.3442 C6.5102,21.3652 9.7382,18.1372 13.7182,18.1372 C17.6992,18.1372 20.9272,21.3652 20.9272,25.3442 C20.9272,29.3252 17.6992,32.5522 13.7182,32.5522 C9.7382,32.5522 6.5102,29.3252 6.5102,25.3442 Z" id="Stroke-10" stroke="#489DEA" stroke-linecap="round" stroke-linejoin="round"></path>
                <path d="M83.1508,10.7534 C83.3598,10.9474 83.3008,11.0664 83.0198,11.0184 L80.8718,10.6474 C80.5898,10.5994 80.1958,10.3934 79.9958,10.1894 L73.2008,3.4714 C73.0008,3.2684 72.8318,2.9294 73.1178,2.9294 L73.7428,2.5154 C74.0288,2.5154 74.4328,2.6734 74.6418,2.8674" id="Fill-12" fill="#FFFFFF"></path>
                <path d="M83.9614,13.98 L82.6024,13.98 C81.7724,13.98 81.2894,14.583 81.1924,15.141 L80.5634,17.826 C80.4934,18.029 80.3804,18.513 80.6774,18.963 C80.8524,19.229 81.2174,19.545 81.9674,19.545 L83.9614,19.545 C84.3754,19.545 84.7114,19.209 84.7114,18.795 L84.7114,14.73 C84.7114,14.316 84.3754,13.98 83.9614,13.98 M83.9614,14.73 L83.9614,18.795 L81.9674,18.795 C80.9584,18.795 81.2824,18.042 81.2824,18.042 L81.9314,15.27 C81.9314,15.27 82.0244,14.73 82.6024,14.73 L83.9614,14.73" id="Fill-14" fill="#489DEA"></path>
                <path d="M20.186,16.1235 C20.186,16.1715 20.224,16.2105 20.272,16.2105 L21.105,16.2105 C21.153,16.2105 21.191,16.1715 21.191,16.1235 L21.191,15.9345 C21.191,15.8875 21.153,15.8485 21.105,15.8485 L20.272,15.8485 C20.224,15.8485 20.186,15.8875 20.186,15.9345 L20.186,16.1235 Z" id="Fill-16" fill="#FFFFFF"></path>
                <path d="M83.9819,11.52 L84.2879,11.437 L83.1079,10.411 L81.0129,10.005 C80.4609,9.899 79.9539,9.633 79.5489,9.243 L73.5789,3.455 L73.1459,3.835 C80.0779,10.929 80.2239,11.002 80.3409,11.061 C80.4269,11.104 80.1839,10.76 83.9819,11.52" id="Fill-18" fill="#489DEA"></path>
                <path d="M73.8225762,3.98477444 L75.3205762,2.65204338 C75.5535762,2.56595788 74.2879785,1.71017915 74.0529785,1.79626465 L73.2115762,2.40972864 C72.7755762,2.62175404 73.1225762,3.11754275 73.2855762,3.5113042 C73.3995762,3.78390828 73.4785762,3.89071806 73.6755762,3.89071806 C73.7065762,3.89071806 73.7905762,3.99593367 73.8225762,3.98477444 Z" id="Fill-20" fill-opacity="0.3" fill="#489DEA"></path>
                <path d="M26.2563,12.5962 L75.1873,12.5962 C75.9893,12.5962 76.4653,11.6982 76.0143,11.0342 L70.7483,3.2832 C70.5623,3.0102 70.2523,2.8462 69.9213,2.8462 L36.2913,2.8462 C36.0703,2.8462 35.8563,2.9192 35.6803,3.0552 L25.6453,10.8052 C24.8903,11.3882 25.3023,12.5962 26.2563,12.5962" id="Fill-22" fill="#FFFFFF"></path>
                <path d="M26.2563,12.5962 L75.1873,12.5962 C75.9893,12.5962 76.4653,11.6982 76.0143,11.0342 L70.7483,3.2832 C70.5623,3.0102 70.2523,2.8462 69.9213,2.8462 L36.2913,2.8462 C36.0703,2.8462 35.8563,2.9192 35.6803,3.0552 L25.6453,10.8052 C24.8903,11.3882 25.3023,12.5962 26.2563,12.5962 Z" id="Stroke-24" stroke="#489DEA" stroke-width="0.75" stroke-linecap="round" stroke-linejoin="round"></path>
                <path d="M1.5786,20.7983 L4.4006,20.8523 C5.0536,20.8573 5.6396,20.3283 5.8496,19.5503 L6.1776,18.1553 C6.3516,17.5133 5.9756,16.8453 5.4346,16.8413 L2.4506,16.8073" id="Stroke-26" stroke="#489DEA" stroke-width="0.75" stroke-linecap="round" stroke-linejoin="round"></path>
                <path d="M21.6245,16.1929 L19.9505,16.1789" id="Stroke-28" stroke="#489DEA" stroke-linecap="round" stroke-linejoin="round"></path>
                <path d="M73.8257,1.9712 L72.2007,2.6792 L80.1557,10.8752 C80.3447,11.0702 80.6027,11.1792 80.8747,11.1792 L83.6477,11.1792" id="Stroke-30" stroke="#489DEA" stroke-linecap="round" stroke-linejoin="round"></path>
                <path d="M26.2563,12.5962 L75.1873,12.5962 C75.9893,12.5962 76.4653,11.6982 76.0143,11.0342 L70.7483,3.2832 C70.5623,3.0102 70.2523,2.8462 69.9213,2.8462 L36.2913,2.8462 C36.0703,2.8462 35.8563,2.9192 35.6803,3.0552 L25.6453,10.8052 C24.8903,11.3882 25.3023,12.5962 26.2563,12.5962 Z" id="Stroke-32" stroke="#489DEA" stroke-linecap="round" stroke-linejoin="round"></path>
                <polyline id="Stroke-34" stroke="#489DEA" stroke-linecap="round" stroke-linejoin="round" points="48.8257 2.9712 48.8257 12.4712 48.2837 28.0132"></polyline>
                <path d="M66.0757,2.9712 L68.8257,12.5962" id="Stroke-36" stroke="#489DEA" stroke-linecap="round" stroke-linejoin="round"></path>
                <path d="M62.4507,15.1587 L66.1387,15.1587" id="Stroke-38" stroke="#489DEA" stroke-linecap="round" stroke-linejoin="round"></path>
                <path d="M81.8042,22.9917 L85.4922,22.9917" id="Stroke-40" stroke="#489DEA" stroke-linecap="round" stroke-linejoin="round"></path>
                <path d="M0.7007,22.9917 L3.4717,22.9917" id="Stroke-42" stroke="#489DEA" stroke-linecap="round" stroke-linejoin="round"></path>
                <path d="M42.8882,15.1587 L46.5762,15.1587" id="Stroke-44" stroke="#489DEA" stroke-linecap="round" stroke-linejoin="round"></path>
                <path d="M23.9507,22.8462 L61.6177,22.8462" id="Stroke-46" stroke="#489DEA" stroke-linecap="round" stroke-linejoin="round"></path>
                <path d="M18.4497,25.3452 C18.4497,27.9582 16.3317,30.0762 13.7187,30.0762 C11.1057,30.0762 8.9867,27.9582 8.9867,25.3452 C8.9867,22.7322 11.1057,20.6142 13.7187,20.6142 C16.3317,20.6142 18.4497,22.7322 18.4497,25.3452" id="Fill-48" fill="#B5D7EA"></path>
                <path d="M18.4497,25.3452 C18.4497,27.9582 16.3317,30.0762 13.7187,30.0762 C11.1057,30.0762 8.9867,27.9582 8.9867,25.3452 C8.9867,22.7322 11.1057,20.6142 13.7187,20.6142 C16.3317,20.6142 18.4497,22.7322 18.4497,25.3452 Z" id="Stroke-50" stroke="#489DEA" stroke-width="0.75" stroke-linecap="round" stroke-linejoin="round"></path>
                <path d="M16.0932,25.3452 C16.0932,26.6572 15.0312,27.7202 13.7182,27.7202 C12.4062,27.7202 11.3432,26.6572 11.3432,25.3452 C11.3432,24.0332 12.4062,22.9702 13.7182,22.9702 C15.0312,22.9702 16.0932,24.0332 16.0932,25.3452" id="Fill-52" fill="#489DEA"></path>
                <path d="M13.7436,21.6186 C17.2316,21.6466 20.1376,24.0506 20.9576,27.2796 C21.1226,26.6696 21.2226,26.0326 21.2266,25.3716 C21.2616,21.2206 17.9246,17.8306 13.7746,17.7966 C9.6266,17.7636 6.2346,21.0986 6.2016,25.2506 C6.1956,25.9116 6.2856,26.5506 6.4406,27.1626 C7.3126,23.9466 10.2576,21.5916 13.7436,21.6186" id="Fill-54" fill-opacity="0.3" fill="#489DEA"></path>
                <path d="M64.8852,25.5942 C64.8852,21.6152 68.1132,18.3872 72.0932,18.3872 C76.0742,18.3872 79.3022,21.6152 79.3022,25.5942 C79.3022,29.5752 76.0742,32.8022 72.0932,32.8022 C68.1132,32.8022 64.8852,29.5752 64.8852,25.5942" id="Fill-56" fill="#B5D7EA"></path>
                <path d="M64.8852,25.5942 C64.8852,21.6152 68.1132,18.3872 72.0932,18.3872 C76.0742,18.3872 79.3022,21.6152 79.3022,25.5942 C79.3022,29.5752 76.0742,32.8022 72.0932,32.8022 C68.1132,32.8022 64.8852,29.5752 64.8852,25.5942 Z" id="Stroke-58" stroke="#489DEA" stroke-linecap="round" stroke-linejoin="round"></path>
                <path d="M76.8247,25.5952 C76.8247,28.2082 74.7067,30.3262 72.0937,30.3262 C69.4807,30.3262 67.3617,28.2082 67.3617,25.5952 C67.3617,22.9822 69.4807,20.8642 72.0937,20.8642 C74.7067,20.8642 76.8247,22.9822 76.8247,25.5952" id="Fill-60" fill="#B5D7EA"></path>
                <path d="M76.8247,25.5952 C76.8247,28.2082 74.7067,30.3262 72.0937,30.3262 C69.4807,30.3262 67.3617,28.2082 67.3617,25.5952 C67.3617,22.9822 69.4807,20.8642 72.0937,20.8642 C74.7067,20.8642 76.8247,22.9822 76.8247,25.5952 Z" id="Stroke-62" stroke="#489DEA" stroke-width="0.75" stroke-linecap="round" stroke-linejoin="round"></path>
                <path d="M74.4682,25.5952 C74.4682,26.9072 73.4062,27.9702 72.0932,27.9702 C70.7812,27.9702 69.7182,26.9072 69.7182,25.5952 C69.7182,24.2832 70.7812,23.2202 72.0932,23.2202 C73.4062,23.2202 74.4682,24.2832 74.4682,25.5952" id="Fill-64" fill="#489DEA"></path>
                <path d="M72.1186,21.8686 C75.6066,21.8966 78.5126,24.3006 79.3326,27.5296 C79.4976,26.9196 79.5976,26.2826 79.6016,25.6216 C79.6366,21.4706 76.2996,18.0806 72.1496,18.0466 C68.0016,18.0136 64.6096,21.3486 64.5766,25.5006 C64.5706,26.1616 64.6606,26.8006 64.8156,27.4126 C65.6876,24.1966 68.6326,21.8416 72.1186,21.8686" id="Fill-66" fill-opacity="0.3" fill="#489DEA"></path>
            </g>
        </g>
    </g>
</svg>