<?xml version="1.0" encoding="UTF-8"?>
<svg width="123px" height="31px" viewBox="0 0 123 31" version="1.1" xmlns="http://www.w3.org/2000/svg" xmlns:xlink="http://www.w3.org/1999/xlink">
    <!-- Generator: sketchtool 51.3 (57544) - http://www.bohemiancoding.com/sketch -->
    <title>859FD9C2-28AB-4D8B-81F8-6CB708568E00@1x</title>
    <desc>Created with sketchtool.</desc>
    <defs></defs>
    <g id="Page-1" stroke="none" stroke-width="1" fill="none" fill-rule="evenodd">
        <g id="Get-Started" transform="translate(-137.000000, -17.000000)">
            <g id="CARFAX-Canada" transform="translate(137.000000, 17.000000)">
                <g>
                    <polygon id="Shape" fill="#E91D2B" fill-rule="nonzero" points="113.527355 30.2245954 112.142555 30.3774288 112.243188 29.8380169 110.919643 28.6400731 111.182164 28.4467838 110.959021 27.4960704 111.77065 27.6646366 111.99598 27.2668204 112.820735 28.0399774 112.523211 26.2644133 113.074506 26.5992982 113.636739 25.4642857 114.207723 26.5925555 114.774331 26.2689084 114.485558 28.0422249 115.299374 27.2331071 115.561895 27.6961023 116.338521 27.4915753 116.097876 28.455774 116.410714 28.6872716 115.021539 29.8537498 115.183427 30.3954092 113.809565 30.2245954 113.809565 31 113.529543 31"></polygon>
                    <path d="M117.508929,20.3663321 C117.50347,20.8429947 117.309913,21.2979502 116.970846,21.6310972 C116.631778,21.9642442 116.17498,22.1482882 115.700957,22.142735 L1.80797122,22.142735 C1.33394856,22.1482882 0.877150182,21.9642442 0.538082833,21.6310972 C0.199015485,21.2979502 0.0054588153,20.8429947 0,20.3663321 L0,1.77655347 C0.0054588153,1.29989089 0.199015485,0.84493546 0.538082833,0.511788444 C0.877150182,0.178641428 1.33394856,-0.00540257847 1.80797122,0.000150581411 L115.698657,0.000150581411 C116.173076,-0.00602124556 116.630466,0.177748427 116.970033,0.51096201 C117.309599,0.844175594 117.503473,1.29948516 117.508929,1.77655347 L117.508929,20.3663321 Z" id="Shape" fill="#FFFFFF"></path>
                    <rect id="Rectangle-path" fill="#010101" fill-rule="nonzero" x="20.8660714" y="2.21428571" width="18.6696429" height="19.9285714"></rect>
                    <rect id="Rectangle-path" fill="#010101" fill-rule="nonzero" x="40.6339286" y="2.21428571" width="18.6696429" height="19.9285714"></rect>
                    <rect id="Rectangle-path" fill="#010101" fill-rule="nonzero" x="59.3035714" y="2.21428571" width="18.6696429" height="19.9285714"></rect>
                    <rect id="Rectangle-path" fill="#010101" fill-rule="nonzero" x="79.0714286" y="2.21428571" width="18.6696429" height="19.9285714"></rect>
                    <rect id="Rectangle-path" fill="#010101" fill-rule="nonzero" x="2.19642857" y="2.21428571" width="18.6696429" height="19.9285714"></rect>
                    <path d="M11.234821,18.8214286 C7.49144044,18.8214286 5.49107143,15.9932578 5.49107143,12.1761828 C5.49107143,8.03186161 7.8657785,5.53571429 11.2511983,5.53571429 C14.3511854,5.53571429 15.5748029,6.89486053 16.4404597,9.32173679 L13.2679446,10.5948914 C12.818739,9.40056249 12.3859106,8.63858067 11.234821,8.63858067 C9.77490261,8.63858067 9.14320713,10.1338804 9.14320713,12.1761828 C9.14320713,14.1516027 9.75618571,15.7185622 11.2699152,15.7185622 C12.3671937,15.7185622 12.8374559,15.1094545 13.5206228,13.891239 L16.4732143,15.4988057 C15.6309536,17.1875867 14.2225067,18.8214286 11.234821,18.8214286 Z" id="Shape" fill="#FFFFFF" fill-rule="nonzero"></path>
                    <path d="M31.8158105,13.5584427 L29.6467104,13.5584427 L29.8809545,12.6868201 C30.3494426,10.9981996 30.5579199,10.2595766 30.7242332,9.361829 C30.8928889,10.2524516 31.0990237,10.9720747 31.5675118,12.6868201 L31.8158105,13.5584427 Z M37.3392857,18.8214286 L32.5841311,5.53571429 L28.9158689,5.53571429 L24.1607143,18.8214286 L28.0538507,18.8214286 L28.756583,16.4701849 L32.6871985,16.4701849 L33.3899307,18.8214286 L37.3392857,18.8214286 Z" id="Shape" fill="#FFFFFF" fill-rule="nonzero"></path>
                    <path d="M51.1255067,9.96032739 C51.1255067,10.9103248 50.6672491,11.4423234 49.5216052,11.4423234 L47.4296593,11.4423234 L47.4296593,8.53295623 L49.5743048,8.53295623 C50.6832881,8.53295623 51.1255067,9.12432964 51.1255067,9.96032739 Z M54.9107143,18.8214286 L52.3513457,13.7508172 C53.7604878,13.088194 54.6586726,11.8508223 54.6586726,9.86295265 C54.6586726,6.71371112 52.6629609,5.53571429 49.6567912,5.53571429 L43.9285714,5.53571429 L43.9285714,18.8214286 L47.4227855,18.8214286 L47.4227855,14.3350656 L48.8525491,14.3350656 L50.9444949,18.8214286 L54.9107143,18.8214286 Z" id="Shape" fill="#FFFFFF" fill-rule="nonzero"></path>
                    <polygon id="Shape" fill="#FFFFFF" fill-rule="nonzero" points="67.14711 8.66022959 67.14711 10.5131122 71.0525324 10.5131122 71.0525324 13.6233929 67.14711 13.6233929 67.14711 18.8214286 63.6964286 18.8214286 63.6964286 5.53571429 73.5803571 5.53571429 73.5803571 8.66022959"></polygon>
                    <path d="M88.9248512,13.5584427 L86.7518887,13.5584427 L86.9865499,12.6868201 C87.4558723,10.9981996 87.6600275,10.2595766 87.8289835,9.361829 C87.9979396,10.2548266 88.2044414,10.9720747 88.6714171,12.6868201 L88.9248512,13.5584427 Z M94.4464286,18.8214286 L89.6921932,5.53571429 L86.0220925,5.53571429 L81.2678571,18.8214286 L85.1538462,18.8214286 L85.8578297,16.4701849 L89.7884043,16.4701849 L90.4923878,18.8214286 L94.4464286,18.8214286 Z" id="Shape" fill="#FFFFFF" fill-rule="nonzero"></path>
                    <path d="M121.352679,3.32110783 C120.913252,3.32989597 120.489247,3.15776878 120.178464,2.84442919 C119.867681,2.53108959 119.696959,2.10359587 119.705675,1.66055392 C119.705675,0.743455312 120.443064,1.6846828e-16 121.352679,0 C122.262293,-1.6846828e-16 122.999682,0.743455312 122.999682,1.66055392 C123.008398,2.10359587 122.837676,2.53108959 122.526893,2.84442919 C122.21611,3.15776878 121.792105,3.32989597 121.352679,3.32110783 Z M121.352679,0.267241827 C120.984301,0.260998342 120.629189,0.405787525 120.36867,0.668449865 C120.108151,0.931112204 119.964544,1.28914575 119.970736,1.66055392 C119.970736,2.43005893 120.589453,3.053866 121.352679,3.053866 C122.115904,3.053866 122.734621,2.43005893 122.734621,1.66055392 C122.740813,1.28914575 122.597206,0.931112204 122.336687,0.668449865 C122.076168,0.405787525 121.721056,0.260998342 121.352679,0.267241827 Z M121.721952,1.80445336 L122.091225,2.53537118 L121.731014,2.53537118 L121.379864,1.82729454 L121.033246,1.82729454 L121.033246,2.53537118 L120.727406,2.53537118 L120.727406,0.721781344 L121.518059,0.721781344 C121.671116,0.703670804 121.824381,0.753902687 121.93762,0.859291211 C122.050859,0.964679734 122.112763,1.11469918 122.107083,1.26996971 C122.12247,1.51820304 121.96086,1.74248432 121.721952,1.80445336 Z M121.508997,1.02100083 L121.033246,1.02100083 L121.033246,1.53721153 L121.508997,1.53721153 C121.672111,1.53721153 121.796712,1.4572674 121.796712,1.27910618 C121.798042,1.20448626 121.766985,1.13300168 121.711684,1.08339166 C121.656382,1.03378165 121.582351,1.01099344 121.508997,1.02100083 Z" id="Shape" fill="#010101" fill-rule="nonzero"></path>
                    <path d="M116.30006,0.893777259 C117.092305,0.895045074 117.73566,1.54845959 117.741987,2.35825134 L117.741987,20.8917487 C117.739454,21.7046902 117.095363,22.3630667 116.30006,22.3656557 L2.30708311,22.3656557 C1.51125561,22.3643573 0.866426445,21.7052266 0.865156168,20.8917487 L0.865156168,2.35825134 C0.870229859,1.54792116 1.51431886,0.893760663 2.30708311,0.893777259 L116.30006,0.893777259 Z M116.30006,0.00943300538 L2.30708311,0.00943300538 C1.0365115,0.00942261532 0.00508228642,1.05951042 0,2.35825134 L0,20.8917487 C-1.16184424e-15,21.5171958 0.243066987,22.1170263 0.675728999,22.5592842 C1.10839101,23.0015421 1.69520663,23.25 2.30708311,23.25 L116.30006,23.25 C117.574227,23.25 118.607143,22.1941749 118.607143,20.8917487 L118.607143,2.35825134 C118.607143,1.05582509 117.574227,7.97506071e-17 116.30006,0 L116.30006,0.00943300538 Z" id="Shape" fill="#010101" fill-rule="nonzero"></path>
                    <path d="M117.042187,2.69230374 L117.042187,21.6648391 L99.3060268,21.6648391 L99.3060268,2.69230374 L117.042187,2.69230374 Z M117.508929,2.21428571 L98.8392857,2.21428571 L98.8392857,22.1428571 L117.508929,22.1428571 L117.508929,2.21428571 Z" id="Shape" fill="#010101" fill-rule="nonzero"></path>
                    <path d="M109.475761,21.0357143 L108.846838,19.9214556 C108.637998,19.5669187 108.412354,19.1594315 108.169906,18.7035984 C107.927459,18.2477653 107.711417,17.8034432 107.516979,17.3706319 C107.307338,17.8034432 107.085695,18.2477653 106.852049,18.7035984 C106.612002,19.1640359 106.39596,19.5669187 106.187119,19.9214556 L105.534192,21.0357143 L101.035714,21.0357143 L105.356557,14.6793748 L101.515808,8.85714286 L106.254333,8.85714286 L106.400761,9.13570753 L107.089696,10.4594653 C107.332113,10.9150945 107.538339,11.3876168 107.706616,11.8730084 C107.901766,11.3862731 108.123721,10.9098172 108.371546,10.4456522 C108.637998,9.94377532 108.866042,9.50635971 109.06048,9.13570753 L109.204508,8.85714286 L113.734192,8.85714286 L109.838232,14.4951998 L114.214286,21.0357143 L109.475761,21.0357143 Z" id="Shape" fill="#000000" fill-rule="nonzero"></path>
                    <path d="M76.865442,26.3776675 L76.0052219,27.3243034 C75.6479986,26.9035453 75.112236,26.646522 74.5356793,26.6193146 C73.6271821,26.6639095 72.9151885,27.3603607 72.9151885,28.204431 C72.9151885,29.0485014 73.6271821,29.7449525 74.5356793,29.7895475 C75.0952657,29.7598546 75.621251,29.5321203 76.0052219,29.1532839 L76.875,30.0068082 C76.2380113,30.6146456 75.3724311,30.9705081 74.4592153,31 C72.6957642,31 71.3839286,29.7984152 71.3839286,28.2088649 C71.3839286,26.6193146 72.7292172,25.4642857 74.5093948,25.4642857 C75.3928686,25.4729741 76.2379539,25.800593 76.865442,26.3776675 Z" id="Shape" fill="#000000" fill-rule="nonzero"></path>
                    <path d="M78.8508195,29.9746168 L78.4208735,31 L76.875,31 L79.435353,25.4642857 L80.9812264,25.4642857 L83.4642857,31 L81.8507803,31 L81.4304959,29.9813924 L78.8508195,29.9746168 Z M80.1599811,26.8623302 L79.2976736,28.9085796 L81.0053807,28.9085796 L80.1599811,26.8623302 Z" id="Shape" fill="#000000" fill-rule="nonzero"></path>
                    <polygon id="Shape" fill="#000000" fill-rule="nonzero" points="87.6208736 31 84.8838456 27.5941015 84.8838456 31 83.4642857 31 83.4642857 25.4642857 84.7987692 25.4642857 87.5455203 28.8769598 87.5455203 25.4642857 88.9553571 25.4642857 88.9553571 31"></polygon>
                    <path d="M92.0310815,29.9733602 L91.5988784,31 L90.0535714,31 L92.6057426,25.4642857 L94.1510496,25.4642857 L96.6428571,31 L95.0396011,31 L94.6170562,29.9801441 L92.0310815,29.9733602 Z M93.3301052,26.8572596 L92.4705282,28.9060166 L94.175195,28.9060166 L93.3301052,26.8572596 Z" id="Shape" fill="#000000" fill-rule="nonzero"></path>
                    <path d="M99.1001875,25.4642857 C100.894762,25.4642857 102.133929,26.5935624 102.133929,28.228755 C102.133929,29.8639477 100.878426,31 99.0441799,31 L96.6428571,31 L96.6428571,25.4642857 L99.1001875,25.4642857 Z M98.0967192,29.8707233 L99.1328585,29.8707233 C100.021978,29.8707233 100.659064,29.2067086 100.659064,28.2355307 C100.659064,27.2643527 99.989307,26.5845282 99.0675164,26.5845282 L98.0967192,26.5845282 L98.0967192,29.8707233 Z" id="Shape" fill="#000000" fill-rule="nonzero"></path>
                    <path d="M104.108301,29.9733602 L103.67867,31 L102.133929,31 L104.682751,25.4642857 L106.227492,25.4642857 L108.723214,31 L107.118132,31 L106.695742,29.9801441 L104.108301,29.9733602 Z M105.409262,26.8572596 L104.547586,28.9060166 L106.254042,28.9060166 L105.409262,26.8572596 Z" id="Shape" fill="#000000" fill-rule="nonzero"></path>
                </g>
            </g>
        </g>
    </g>
</svg>