<?xml version="1.0" encoding="UTF-8"?>
<svg width="77px" height="28px" viewBox="0 0 77 28" version="1.1" xmlns="http://www.w3.org/2000/svg" xmlns:xlink="http://www.w3.org/1999/xlink">
    <!-- Generator: sketchtool 52.3 (67297) - http://www.bohemiancoding.com/sketch -->
    <title>0ABC0E40-F492-43E6-960A-BE5498CA70BE@1.5x</title>
    <desc>Created with sketchtool.</desc>
    <g id="Page-1" stroke="none" stroke-width="1" fill="none" fill-rule="evenodd">
        <g id="Car-Model-Icons" transform="translate(-277.000000, -111.000000)">
            <g id="Convertible" transform="translate(277.000000, 111.000000)">
                <path d="M51,3.74 C50.8128475,3.34681276 50.4399604,3.07458232 50.0084482,3.01610637 C49.576936,2.95763041 49.1450458,3.12080225 48.86,3.45 C48.4537056,3.86180002 48.2333395,4.42174674 48.25,5 C48.2361332,5.69556756 48.397777,6.38341353 48.72,7 L50.93,7.39 C51.1165199,6.34095142 51.1836143,5.27415136 51.13,4.21 C51.1059999,4.04861719 51.0623421,3.89077756 51,3.74 Z" id="Path" stroke="#489DEA" fill="#C1E2F8"></path>
                <path d="M61.59,5.69 C61.59,5.69 62.42,4.16 61,4 C59.58,3.84 57.86,6 57.8,6 C57.74,6 61.59,5.69 61.59,5.69 Z" id="Path" stroke="#489DEA" fill="#C1E2F8"></path>
                <path d="M31.61,0.74 C32.61,1.39 32.86,1.95 32.47,2.2 C32.08,2.45 25.06,6.47 24.17,7.41 C23.43,8.18 19.59,8.34 19.59,8.34 L18.59,7.69 C18.59,7.69 30.59,0.1 31.61,0.74 Z" id="Path" stroke="#489DEA" stroke-width="1.41" fill="#B5D7EA" stroke-linecap="round" stroke-linejoin="round"></path>
                <path d="M46.73,7.08 C46.73,7.08 46.84,5.95 47.15,5.76 C47.46,5.57 67,4.9 69,6 C71,7.1 47.57,7.65 46.73,7.08 Z" id="Path" stroke="#489DEA" fill="#C1E2F8"></path>
                <polygon id="Path" stroke="#489DEA" stroke-width="1.41" fill="#B5D7EA" stroke-linecap="round" stroke-linejoin="round" points="69.87 13 7.59 13 7.21 22.4 70.47 20.91"></polygon>
                <path d="M24.54,7.66 C24.54,7.66 1.5,6.63 2.43,19 C2.49259488,19.9859887 2.97730773,20.8971031 3.76,21.5 L3.85,21.56 C4.66249818,22.1551685 5.64283992,22.4772808 6.65,22.48 C7.47409026,22.4327323 8.12083924,21.7553939 8.13,20.93 C8.35782355,17.5409589 10.9050222,14.7628887 14.2616302,14.2426145 C17.6182383,13.7223402 20.8869124,15.5989502 22.13,18.76 C22.87,20.66 21.89,22.48 23.92,22.48 L52.47,22.48 C52.337987,20.8395396 52.7151269,19.1982823 53.55,17.78 C54.9781367,15.2973198 57.7308655,13.8845158 60.5805729,14.1716454 C63.4302802,14.458775 65.8458387,16.3923231 66.75,19.11 C67.33,20.85 68.61,22.48 70.44,22.48 C72.27,22.48 74.22,21.27 74.01,19.48 C73.8892892,16.5905101 73.4839956,13.7199597 72.8,10.91 C72.33,9.08 70.73,6.84 69.08,6.55 L24.54,7.66 Z" id="Path" fill="#E9F5FD"></path>
                <path d="M45.91,11.33 L42.59,11.33" id="Path" stroke="#489DEA" stroke-width="1.75" stroke-linecap="round" stroke-linejoin="round"></path>
                <path d="M71.07,14.86 C70.4624868,14.86 69.97,14.3675132 69.97,13.76 L69.97,13.64 C69.97,13.0324868 70.4624868,12.54 71.07,12.54 L73,12.54 C73.1770245,12.5432062 73.3254383,12.6746584 73.35,12.85 L73.55,14.47 C73.5698545,14.567702 73.5398746,14.6688844 73.47,14.74 C73.4029922,14.819059 73.3035851,14.86324 73.2,14.86 L71.07,14.86 Z" id="Path" fill="#E9F5FD"></path>
                <path d="M73,12.89 L73.2,14.51 L71.07,14.51 C70.6580379,14.5046142 70.3253858,14.1719621 70.32,13.76 L70.32,13.64 C70.3253858,13.2280379 70.6580379,12.8953858 71.07,12.89 L73,12.89 Z M73,12.18 L71.07,12.18 C70.2675722,12.1854962 69.6199812,12.8375534 69.62,13.64 L69.62,13.76 C69.6199812,14.5624466 70.2675722,15.2145038 71.07,15.22 L73.2,15.22 C73.40312,15.2206849 73.5965215,15.1331069 73.73,14.98 C73.8682033,14.8285136 73.930667,14.6227506 73.9,14.42 L73.7,12.8 C73.6508765,12.4493168 73.3540491,12.1864124 73,12.18 Z" id="Shape" fill="#489DEA" fill-rule="nonzero"></path>
                <path d="M2.92,16.12 C2.77938139,16.1221227 2.65114914,16.0398731 2.59443705,15.9111803 C2.53772497,15.7824875 2.56354881,15.6323487 2.66,15.53 C2.94241504,15.2360517 3.17542412,14.8983574 3.35,14.53 C3.46302609,14.093578 3.62400603,13.6710057 3.83,13.27 C3.89140956,13.1553035 4.00992573,13.0826646 4.14,13.08 L7.59,13.26 C7.87565748,13.26366 8.14219462,13.4042244 8.30655305,13.6378907 C8.47091149,13.8715569 8.51311049,14.1699185 8.42,14.44 L8.21,15.18 C8.03157843,15.7672853 7.49373366,16.1716798 6.88,16.18 L2.92,16.12 Z" id="Path" fill="#E9F5FD"></path>
                <path d="M4.14,13.4 L7.57,13.58 C7.74552394,13.5809782 7.91003927,13.6656758 8.01280848,13.8079717 C8.11557768,13.9502675 8.14425642,14.1330693 8.09,14.3 L7.87,15.06 C7.73794848,15.4972829 7.32636993,15.7895036 6.87,15.77 L2.87,15.77 C3.18946175,15.4251549 3.44964437,15.0298124 3.64,14.6 C3.7530326,14.1903216 3.90367277,13.791962 4.09,13.41 L4.14,13.4 Z M4.09,12.71 C3.82624964,12.711712 3.58454585,12.8575016 3.46,13.09 C3.26586202,13.5181521 3.11186866,13.9633938 3,14.42 C2.83613911,14.741268 2.62737827,15.0375737 2.38,15.3 C2.20178121,15.5078743 2.15897952,15.799704 2.27,16.05 C2.37899532,16.3063533 2.63144497,16.4720234 2.91,16.47 L6.91,16.47 C7.66408375,16.4694291 8.3330024,15.9858734 8.57,15.27 L8.79,14.48 C8.91076095,14.1090092 8.84362576,13.7024683 8.61,13.39 C8.38037051,13.0651529 8.00781069,12.8714218 7.61,12.87 L4.18,12.7 L4.09,12.71 Z" id="Shape" fill="#489DEA" fill-rule="nonzero"></path>
                <g id="Group" opacity="0.2" transform="translate(5.000000, 13.000000)" fill="#489DEA">
                    <path d="M2.58,0.58 L1.5,0.58 C1.67298891,0.580813921 1.83511617,0.664457343 1.93603907,0.804957853 C2.03696197,0.945458362 2.06446199,1.12580586 2.01,1.29 L1.79,2.05 C1.66169387,2.49125906 1.24917103,2.78827551 0.79,2.77 L1.79,2.77 C2.24917103,2.78827551 2.66169387,2.49125906 2.79,2.05 L3.01,1.29 C3.05863709,1.13842171 3.03921318,0.973205426 2.95674709,0.837040494 C2.87428101,0.700875562 2.73686308,0.607120435 2.58,0.58 Z" id="Path"></path>
                </g>
                <path d="M10.25,21.27 C10.25,24.0314237 12.4885763,26.27 15.25,26.27 C18.0114237,26.27 20.25,24.0314237 20.25,21.27 C20.25,18.5085763 18.0114237,16.27 15.25,16.27 C12.4885763,16.27 10.25,18.5085763 10.25,21.27 Z" id="Path" stroke="#489DEA" stroke-width="1.75" fill="#B5D7EA" stroke-linecap="round" stroke-linejoin="round"></path>
                <ellipse id="Oval" stroke="#489DEA" stroke-width="0.71" fill="#B5D7EA" stroke-linecap="round" stroke-linejoin="round" cx="15.28" cy="21.27" rx="4" ry="3.98"></ellipse>
                <path d="M13.79,21.27 C13.7818865,21.8744026 14.1397239,22.4238187 14.6958071,22.6607573 C15.2518903,22.8976958 15.8960183,22.7752018 16.3263121,22.3506837 C16.756606,21.9261657 16.8877928,21.2837517 16.6583902,20.7245176 C16.4289876,20.1652834 15.8844571,19.8000545 15.28,19.8 C14.4648434,19.7999266 13.8009417,20.4549168 13.79,21.27 Z" id="Path" fill="#489DEA"></path>
                <path d="M55,21.27 C55,24.0314237 57.2385763,26.27 60,26.27 C62.7614237,26.27 65,24.0314237 65,21.27 C65,18.5085763 62.7614237,16.27 60,16.27 C57.2385763,16.27 55,18.5085763 55,21.27 Z" id="Path" stroke="#489DEA" stroke-width="1.75" fill="#B5D7EA" stroke-linecap="round" stroke-linejoin="round"></path>
                <ellipse id="Oval" stroke="#489DEA" stroke-width="0.71" fill="#B5D7EA" stroke-linecap="round" stroke-linejoin="round" cx="60.03" cy="21.27" rx="4" ry="3.98"></ellipse>
                <path d="M58.55,21.27 C58.5460544,21.8722028 58.9073911,22.4167472 59.4638001,22.6471225 C60.0202091,22.8774977 60.6607252,22.7477597 61.0836295,22.3190223 C61.5065337,21.8902849 61.6274858,21.2480517 61.3895105,20.6948506 C61.1515352,20.1416494 60.6020922,19.7878058 60,19.8 C59.1982312,19.8162382 58.555254,20.468084 58.55,21.27 Z" id="Path" fill="#489DEA"></path>
                <path d="M26.88,7.78 C26.88,7.78 24.8,9 25.87,19.72 C25.9100068,20.0785951 26.2092644,20.352202 26.57,20.36 C29.73,20.36 43.78,20.42 45.06,20.14 C46.51,19.83 46.71,18.48 46.95,17.82 C47.19,17.16 48.95,11.49 48.89,10.36 C48.610678,9.29079205 48.1211512,8.28794218 47.45,7.41" id="Path" stroke="#489DEA" stroke-linecap="round" stroke-linejoin="round"></path>
                <path d="M24.54,7.66 C24.54,7.66 1.5,6.63 2.43,19 C2.49259488,19.9859887 2.97730773,20.8971031 3.76,21.5 L3.85,21.56 C4.66249818,22.1551685 5.64283992,22.4772808 6.65,22.48 C7.47409026,22.4327323 8.12083924,21.7553939 8.13,20.93 C8.35782355,17.5409589 10.9050222,14.7628887 14.2616302,14.2426145 C17.6182383,13.7223402 20.8869124,15.5989502 22.13,18.76 C22.87,20.66 21.89,22.48 23.92,22.48 L52.47,22.48 C52.337987,20.8395396 52.7151269,19.1982823 53.55,17.78 C54.9781367,15.2973198 57.7308655,13.8845158 60.5805729,14.1716454 C63.4302802,14.458775 65.8458387,16.3923231 66.75,19.11 C67.33,20.85 68.61,22.48 70.44,22.48 C72.27,22.48 74.22,21.27 74.01,19.48 C73.8892892,16.5905101 73.4839956,13.7199597 72.8,10.91 C72.33,9.08 70.73,6.84 69.08,6.55 L24.54,7.66 Z" id="Path" stroke="#489DEA" stroke-width="1.5"></path>
                <path d="M8.62,22.89 C9,23.96 7.62,23.64 7.03,23.64 L2.94,23.64 C2.28033651,23.6383857 1.70865503,23.1826976 1.56,22.54 L0.73,18.82 C0.669047025,18.5525748 0.733370104,18.2719505 0.904713716,18.057771 C1.07605733,17.8435915 1.33571745,17.7192368 1.61,17.72 L7.29,17.72 C7.92,17.72 8.7,18.02 8.36,19.1 C8.08870743,20.3626587 8.17881968,21.6762181 8.62,22.89 Z" id="Path" stroke="#489DEA" stroke-width="1.41" fill="#B5D7EA" stroke-linecap="round" stroke-linejoin="round"></path>
                <path d="M8.62,22.89 C8.17449158,21.6771379 8.08429427,20.3623385 8.36,19.1 C8.7,18.02 7.92,17.71 7.29,17.71 L6.7,17.71 C6.7,17.77 6.7,17.83 6.7,17.9 C6.25650059,19.0871237 6.13236451,20.3698633 6.34,21.62 C6.3883229,21.8094083 6.34883876,22.0105069 6.23248645,22.1675826 C6.11613414,22.3246582 5.93526944,22.4210305 5.74,22.43 L1.54,22.43 L1.54,22.53 C1.68865503,23.1726976 2.26033651,23.6283857 2.92,23.63 L7,23.63 C7.65,23.63 8.91,23.68 8.62,22.89 Z" id="Path" fill="#489DEA" opacity="0.2"></path>
                <g id="Group" opacity="0.3" style="mix-blend-mode: multiply;" transform="translate(54.000000, 15.000000)" fill="#489DEA">
                    <path d="M6,3 C8.54869924,3.00332186 10.7748763,4.72429639 11.42,7.19 C12.0378257,4.9061605 11.1591502,2.47995975 9.22217785,1.12136873 C7.28520548,-0.237222284 4.70479452,-0.237222284 2.76782215,1.12136873 C0.83084977,2.47995975 -0.0478257486,4.9061605 0.57,7.19 C1.21915443,4.72274357 3.44877469,3.00228153 6,3 Z" id="Path"></path>
                </g>
                <g id="Group" opacity="0.2" transform="translate(9.000000, 15.000000)" fill="#489DEA">
                    <path d="M6.32,3 C8.86869924,3.00332186 11.0948763,4.72429639 11.74,7.19 C12.3483091,4.91249664 11.4679231,2.49765113 9.53654219,1.14604861 C7.60516131,-0.205553903 5.03483869,-0.205553903 3.10345781,1.14604861 C1.17207693,2.49765113 0.291690924,4.91249664 0.9,7.19 C1.54202821,4.72225079 3.77010072,2.99981097 6.32,3 Z" id="Path"></path>
                </g>
                <path d="M66.7,23 C66.39,23.83 67.12,23.94 67.7,23.94 L73.43,23.94 C74.090965,23.9421088 74.6646841,23.4847964 74.81,22.84 L75.64,19.12 C75.7066298,18.8564428 75.6505611,18.5768905 75.4874517,18.3594113 C75.3243422,18.141932 75.0716713,18.0098314 74.8,18 L67.74,18 C67.12,18 66.53,18.07 66.9,19.16 C67.2081994,20.4322115 67.1386953,21.7666892 66.7,23 Z" id="Path" stroke="#489DEA" stroke-width="1.41" fill="#B5D7EA" stroke-linecap="round" stroke-linejoin="round"></path>
                <g id="Group" opacity="0.2" transform="translate(66.000000, 18.000000)" fill="#489DEA">
                    <path d="M8.52,0.06 L8.12,0.06 C8.11532148,0.0797263926 8.11532148,0.100273607 8.12,0.12 L7.29,3.84 C7.14134497,4.4826976 6.56966349,4.93838574 5.91,4.94 L0.46,4.94 L0.46,5.04 C0.16,5.87 0.88,5.98 1.46,5.98 L7.2,5.98 C7.85722136,5.97743527 8.42550843,5.52114638 8.57,4.88 L9.4,1.16 C9.46095298,0.892574808 9.3966299,0.611950488 9.22528628,0.397770973 C9.05394267,0.183591457 8.79428255,0.0592367737 8.52,0.06 Z" id="Path" opacity="0.3" style="mix-blend-mode: multiply;"></path>
                </g>
                <path d="M66.7,23 C66.39,23.83 67.12,23.94 67.7,23.94 L73.43,23.94 C74.090965,23.9421088 74.6646841,23.4847964 74.81,22.84 L75.64,19.12 C75.7066298,18.8564428 75.6505611,18.5768905 75.4874517,18.3594113 C75.3243422,18.141932 75.0716713,18.0098314 74.8,18 L67.74,18 C67.12,18 66.53,18.07 66.9,19.16 C67.2081994,20.4322115 67.1386953,21.7666892 66.7,23 Z" id="Path" stroke="#489DEA" stroke-width="1.75" stroke-linecap="round" stroke-linejoin="round"></path>
            </g>
        </g>
    </g>
</svg>