<?xml version="1.0" encoding="UTF-8"?>
<svg width="77px" height="28px" viewBox="0 0 77 28" version="1.1" xmlns="http://www.w3.org/2000/svg" xmlns:xlink="http://www.w3.org/1999/xlink">
    <!-- Generator: sketchtool 52.3 (67297) - http://www.bohemiancoding.com/sketch -->
    <title>36BD14A2-4DE0-40F7-83B2-259DAC27EE3D@1.5x</title>
    <desc>Created with sketchtool.</desc>
    <g id="Page-1" stroke="none" stroke-width="1" fill="none" fill-rule="evenodd">
        <g id="Car-Model-Icons" transform="translate(-150.000000, -111.000000)">
            <g id="Coupe" transform="translate(150.000000, 111.000000)">
                <path d="M23.42,9.05 C23.2803201,9.05238882 23.1533944,8.96909385 23.1,8.84 C23.0315319,8.68644886 23.0819152,8.50590846 23.22,8.41 L32.88,1.52 C32.939853,1.47318485 33.0140285,1.4484597 33.09,1.45 C33.65,1.5 33.99,1.68 34.09,2 C34.1749352,2.35532883 34.036641,2.72674744 33.74,2.94 L28.34,7.78 C27.8061485,8.16737759 27.1770716,8.40241734 26.52,8.46 L23.52,9.05 L23.42,9.05 Z" id="Path" fill="#FFFFFF"></path>
                <path d="M33.09,1.8 C34.04,1.88 33.91,2.34 33.55,2.69 L28.1,7.52 C27.6165445,7.8609673 27.0498709,8.06483158 26.46,8.11 L23.46,8.7 L33.13,1.8 L33.09,1.8 Z M33.13,1.1 C32.9827602,1.09709595 32.8386653,1.14278457 32.72,1.23 L23,8.12 C22.7472072,8.29848548 22.6391325,8.62014232 22.7328655,8.91505825 C22.8265985,9.20997418 23.1005469,9.41021284 23.41,9.41 L23.55,9.41 L26.55,8.83 C27.2740054,8.76599054 27.9661952,8.50295842 28.55,8.07 L34,3.22 C34.4031515,2.90258145 34.5798503,2.37641171 34.45,1.88 C34.29,1.42 33.84,1.16 33.13,1.1 Z" id="Shape" fill="#489DEA" fill-rule="nonzero"></path>
                <path d="M61.36,7.66 C61.2888698,7.66019767 61.2192751,7.63931927 61.16,7.6 L53.63,2.47 C53.5464912,2.41658961 53.4914156,2.32846863 53.48,2.23 C53.4782764,2.146229 53.5066624,2.06461929 53.56,2 L54.33,1 C54.3999345,0.917940682 54.5021837,0.870467847 54.61,0.87 C54.6590695,0.856357892 54.7109305,0.856357892 54.76,0.87 L67,7 C67.1436793,7.0771679 67.2175328,7.24128668 67.18,7.4 C67.146363,7.56006484 67.0035236,7.67349615 66.84,7.67 L61.36,7.66 Z" id="Path" fill="#FFFFFF"></path>
                <path d="M54.61,1.23 L66.86,7.33 L61.36,7.33 L53.83,2.18 L54.61,1.18 L54.61,1.23 Z M54.61,0.48 C54.3969424,0.479754412 54.1950365,0.575200839 54.06,0.74 L53.28,1.74 C53.1569801,1.89125606 53.1026165,2.08696522 53.13,2.28 C53.1609941,2.47667958 53.2689228,2.65296312 53.43,2.77 L61,7.89 C61.1134741,7.97253259 61.2497011,8.01794159 61.39,8.02 L66.89,8.02 C67.2168848,8.02030037 67.5017319,7.79737656 67.58,7.48 C67.6497397,7.1605645 67.4985723,6.83371619 67.21,6.68 L54.92,0.6 C54.8234001,0.553207997 54.7173335,0.529257466 54.61,0.53 L54.61,0.48 Z" id="Shape" fill="#489DEA" fill-rule="nonzero"></path>
                <g id="Group" opacity="0.2" transform="translate(54.000000, 1.000000)" fill="#489DEA">
                    <path d="M1.31,0.58 L0.56,1.58 L3.38,3.38 C3.09529717,3.1788092 2.91722731,2.85933276 2.89584429,2.5113727 C2.87446127,2.16341264 3.01207372,1.82453672 3.27,1.59 C2,0.91 1.31,0.58 1.31,0.58 Z" id="Path"></path>
                </g>
                <g id="Group" opacity="0.3" style="mix-blend-mode: multiply;" transform="translate(30.000000, 2.000000)" fill="#489DEA">
                    <path d="M2.81,0 L3.12,0.48 L0.83,2.48 C0.83,2.48 1.53,1.87 1.03,1.25 L2.81,0 Z" id="Path"></path>
                </g>
                <polygon id="Path" stroke="#489DEA" stroke-width="1.41" fill="#B5D7EA" stroke-linecap="round" stroke-linejoin="round" points="69.11 12.44 11.43 12.52 6.29 21.95 69.73 21.86"></polygon>
                <path d="M74.11,19.07 C73.9886945,16.1733404 73.5800224,13.2958872 72.89,10.48 C72.41,8.65 70.81,7.9 69.16,7.61 L63.7,7.23 C62.0239648,7.23495437 60.3856018,6.73298783 59,5.79 L55.29,3.38 C54.29,2.74 55.07,1.63 55.06,1.21 C55.05,0.79 54.57,0.75 54.31,0.75 L35.24,0.78 C34.6113898,0.723487815 33.979758,0.848425969 33.42,1.14 C33.42,1.14 32.94,1.43 33.08,1.65 C33.4587638,2.06297042 33.4587638,2.69702958 33.08,3.11 L28.08,7.52 C27.5965445,7.8609673 27.0298709,8.06483158 26.44,8.11 L24.79,8.38 L9,10.84 C5.10552405,11.387506 2.24072943,14.7684798 2.34,18.7 C2.3888866,19.6921923 2.88081434,20.609968 3.68,21.2 L3.77,21.26 C4.58146099,21.8560158 5.56318421,22.1750759 6.57,22.17 C7.39802351,22.1278073 8.05051253,21.4490435 8.06,20.62 C8.26783653,17.2073234 10.8224902,14.399095 14.2003308,13.8701805 C17.5781713,13.341266 20.8689493,15.2341955 22.11,18.42 C22.86,20.33 21.87,22.15 23.92,22.15 L52.52,22.15 C52.381471,20.493173 52.7587041,18.8340457 53.6,17.4 C55.0273289,14.9070987 57.7855602,13.4848168 60.6442007,13.7676581 C63.5028413,14.0504995 65.928872,15.9857257 66.84,18.71 C67.42,20.46 68.7,22.08 70.54,22.08 C72.38,22.08 74.33,20.87 74.11,19.07 Z" id="Path" stroke="#489DEA" stroke-width="1.5" fill="#E9F5FD"></path>
                <path d="M9.71,21.16 C9.71000359,23.4380317 11.0827936,25.4915638 13.1878083,26.3623916 C15.2928231,27.2332195 17.7151691,26.7497049 19.3245483,25.137462 C20.9339275,23.5252192 21.4131349,21.1020175 20.5385662,18.9985542 C19.6639975,16.8950909 17.6080281,15.5259538 15.33,15.53 C13.8377491,15.5299976 12.4067626,16.1234756 11.3525202,17.1795938 C10.2982778,18.2357121 9.70734475,19.6677515 9.71,21.16 Z" id="Path" stroke="#489DEA" stroke-width="1.75" fill="#B5D7EA" stroke-linecap="round" stroke-linejoin="round"></path>
                <ellipse id="Oval" stroke="#489DEA" stroke-width="0.71" fill="#B5D7EA" stroke-linecap="round" stroke-linejoin="round" transform="translate(15.339516, 21.148561) rotate(-0.080000) translate(-15.339516, -21.148561) " cx="15.339516" cy="21.1485607" rx="4.47" ry="4.46"></ellipse>
                <path d="M13.68,21.16 C13.6800122,21.8323147 14.0855488,22.438234 14.7070768,22.6945735 C15.3286049,22.950913 16.0433782,22.8070479 16.5173381,22.3302156 C16.991298,21.8533832 17.1308416,21.1377537 16.8707513,20.5177858 C16.6106611,19.897818 16.0023025,19.4959499 15.33,19.5 C14.8898264,19.4972831 14.4670383,19.6716278 14.1567244,19.9838224 C13.8464105,20.296017 13.6746235,20.7198509 13.68,21.16 Z" id="Path" fill="#489DEA"></path>
                <path d="M66.85,23.11 C66.54,23.94 67.27,24.05 67.9,24.05 L73.64,24.05 C74.2964667,24.0417401 74.8603671,23.5814978 75,22.94 L75.83,19.21 C75.8891607,18.9498736 75.8311998,18.6768887 75.6714465,18.4632427 C75.5116932,18.2495967 75.266239,18.1168096 75,18.1 L67.89,18.1 C67.26,18.1 66.67,18.17 67.05,19.27 C67.3564574,20.5423731 67.2869795,21.8763476 66.85,23.11 Z" id="Path" stroke="#489DEA" stroke-width="1.41" fill="#B5D7EA" stroke-linecap="round" stroke-linejoin="round"></path>
                <g id="Group" opacity="0.2" transform="translate(66.000000, 18.000000)" fill="#489DEA">
                    <path d="M8.69,0.13 L8.28,0.13 C8.2838381,0.146445702 8.2838381,0.163554298 8.28,0.18 L7.45,3.91 C7.30327284,4.55666793 6.72300178,5.01170063 6.06,5 L0.61,5 L0.61,5.1 C0.31,5.94 1.03,6.05 1.66,6.05 L7.4,6.05 C8.03139822,6.0395563 8.57885626,5.61057799 8.74,5 L9.57,1.27 C9.65015481,0.996587056 9.59456093,0.701325273 9.42045992,0.475785325 C9.24635891,0.250245377 8.97479896,0.12169425 8.69,0.13 Z" id="Path" opacity="0.3" style="mix-blend-mode: multiply;"></path>
                </g>
                <path d="M66.85,23.11 C66.54,23.94 67.27,24.05 67.9,24.05 L73.64,24.05 C74.2964667,24.0417401 74.8603671,23.5814978 75,22.94 L75.83,19.21 C75.8891607,18.9498736 75.8311998,18.6768887 75.6714465,18.4632427 C75.5116932,18.2495967 75.266239,18.1168096 75,18.1 L67.89,18.1 C67.26,18.1 66.67,18.17 67.05,19.27 C67.3564574,20.5423731 67.2869795,21.8763476 66.85,23.11 Z" id="Path" stroke="#489DEA" stroke-width="1.75" stroke-linecap="round" stroke-linejoin="round"></path>
                <path d="M71.34,16.56 C70.7324868,16.56 70.24,16.0675132 70.24,15.46 L70.24,15.34 C70.2399753,14.730848 70.7308728,14.2354879 71.34,14.23 L73.27,14.23 C73.4486985,14.2288296 73.5995807,14.3624681 73.62,14.54 L73.83,16.16 C73.8446027,16.2611323 73.8142811,16.3635959 73.7469943,16.4404951 C73.6797076,16.5173942 73.5821758,16.5610488 73.48,16.56 L71.34,16.56 Z" id="Path" fill="#E9F5FD"></path>
                <path d="M73.27,14.58 L73.48,16.21 L71.35,16.21 C70.934138,16.210036 70.5954719,15.875826 70.59,15.46 L70.59,15.34 C70.59,14.9257864 70.9257864,14.59 71.34,14.59 L73.27,14.59 L73.27,14.58 Z M73.27,13.89 L71.34,13.89 C70.9632448,13.8969722 70.6042327,14.0513474 70.34,14.32 C70.0748378,14.586606 69.9210958,14.9441455 69.91,15.32 L69.91,15.44 C69.9208707,16.2456817 70.5742629,16.894629 71.38,16.9 L73.51,16.9 C73.7142989,16.9063852 73.9100279,16.8177532 74.04,16.66 C74.1778484,16.5123424 74.2404869,16.3096885 74.21,16.11 L74,14.49 C73.9588297,14.1366056 73.6557044,13.8724536 73.3,13.88 L73.27,13.89 Z" id="Shape" fill="#489DEA" fill-rule="nonzero"></path>
                <path d="M71.34,14 C70.730848,14.0000247 70.2354879,13.5091272 70.23,12.9 L70.23,12.78 C70.2406789,12.1714422 70.7314422,11.6806789 71.34,11.67 L72.81,11.67 C72.976641,11.6673881 73.1206096,11.7859505 73.15,11.95 L73.47,13.58 C73.4925864,13.6822886 73.4667614,13.7892781 73.4,13.87 C73.3323606,13.9494711 73.2343059,13.9966826 73.13,14 L71.34,14 Z" id="Path" fill="#E9F5FD"></path>
                <path d="M72.81,12 L73.13,13.63 L71.34,13.63 C70.9280379,13.6246142 70.5953858,13.2919621 70.59,12.88 L70.59,12.76 C70.589964,12.344138 70.924174,12.0054719 71.34,12 L72.81,12 Z M72.81,11.3 L71.34,11.3 C70.5336643,11.3 69.88,11.9536643 69.88,12.76 L69.88,12.88 C69.8854515,13.6840668 70.5359332,14.3345485 71.34,14.34 L73.13,14.34 C73.338531,14.3425539 73.5370294,14.2506565 73.67,14.09 C73.8023256,13.9239591 73.8569563,13.7090787 73.82,13.5 L73.5,11.88 C73.4373622,11.5485779 73.1472878,11.3089512 72.81,11.31 L72.81,11.3 Z" id="Shape" fill="#489DEA" fill-rule="nonzero"></path>
                <path d="M59.92,15.46 C56.8106441,15.4655277 54.2944933,17.9906381 54.3000178,21.099994 C54.3055422,24.20935 56.83065,26.7255034 59.9400059,26.7199822 C63.0493618,26.714461 65.5655179,24.1893559 65.56,21.08 C65.5489819,17.9729273 63.0270922,15.4599805 59.92,15.46 Z" id="Path" stroke="#489DEA" stroke-width="1.75" fill="#B5D7EA" stroke-linecap="round" stroke-linejoin="round"></path>
                <path d="M59.92,16.63 C57.4581437,16.641046 55.4708465,18.6447504 55.4800422,21.1066142 C55.4892379,23.5684781 57.4914481,25.5572807 59.9533182,25.5499353 C62.4151883,25.5425898 64.4054951,23.5418749 64.4,21.08 C64.3835096,18.6174881 62.3825671,16.6299448 59.92,16.63 Z M59.92,22.74 C59.0087302,22.74 58.27,22.0012698 58.27,21.09 C58.27,20.1787302 59.0087302,19.44 59.92,19.44 C60.8312698,19.44 61.57,20.1787302 61.57,21.09 C61.5726628,21.5266851 61.4010538,21.9463991 61.093205,22.256125 C60.7853563,22.5658509 60.3666932,22.7400081 59.93,22.74 L59.92,22.74 Z" id="Shape" stroke="#489DEA" stroke-width="0.71" fill="#B5D7EA" fill-rule="nonzero" stroke-linecap="round" stroke-linejoin="round"></path>
                <path d="M59.93,19.44 C59.0187302,19.44 58.28,20.1787302 58.28,21.09 C58.28,22.0012698 59.0187302,22.74 59.93,22.74 C60.8412698,22.74 61.58,22.0012698 61.58,21.09 C61.58,20.1787302 60.8412698,19.44 59.93,19.44 Z" id="Path" fill="#489DEA"></path>
                <path d="M8.82,23.37 C9.2,24.43 7.82,24.12 7.22,24.12 L3.12,24.12 C2.45299257,24.1200686 1.87718592,23.6527472 1.74,23 L0.9,19.29 C0.839047025,19.0225748 0.903370104,18.7419505 1.07471372,18.527771 C1.24605733,18.3135915 1.50571745,18.1892368 1.78,18.19 L7.48,18.19 C8.1,18.19 8.89,18.49 8.55,19.58 C8.2797117,20.8434414 8.37333495,22.1576344 8.82,23.37 Z" id="Path" stroke="#489DEA" stroke-width="1.41" fill="#B5D7EA" stroke-linecap="round" stroke-linejoin="round"></path>
                <path d="M8.82,23.36 C8.3658917,22.1457744 8.2721349,20.8262342 8.55,19.56 C8.89,18.48 8.1,18.17 7.48,18.17 L6.88,18.17 C6.88452959,18.2332523 6.88452959,18.2967477 6.88,18.36 C6.44045704,19.5551028 6.31982942,20.8440951 6.53,22.1 C6.5786202,22.2910538 6.53790422,22.4938492 6.41930739,22.6513303 C6.30071057,22.8088113 6.11705067,22.9039576 5.92,22.91 L1.72,22.91 L1.72,23.01 C1.86865503,23.6526976 2.44033651,24.1083857 3.1,24.11 L7.2,24.11 C7.85,24.11 9.11,24.16 8.82,23.36 Z" id="Path" fill="#489DEA" opacity="0.2"></path>
                <path d="M8.82,23.37 C9.2,24.43 7.82,24.12 7.22,24.12 L3.12,24.12 C2.45299257,24.1200686 1.87718592,23.6527472 1.74,23 L0.9,19.29 C0.839047025,19.0225748 0.903370104,18.7419505 1.07471372,18.527771 C1.24605733,18.3135915 1.50571745,18.1892368 1.78,18.19 L7.48,18.19 C8.1,18.19 8.89,18.49 8.55,19.58 C8.2797117,20.8434414 8.37333495,22.1576344 8.82,23.37 Z" id="Path" stroke="#489DEA" stroke-width="1.75" stroke-linecap="round" stroke-linejoin="round"></path>
                <path d="M3.16,16.32 C3.04213468,16.3205386 2.93239871,16.2599946 2.87,16.16 C2.81482319,16.0604688 2.81482319,15.9395312 2.87,15.84 C3.03377998,15.4165004 3.23455633,15.0082552 3.47,14.62 C3.72283546,14.2396712 4.00361002,13.8786753 4.31,13.54 C4.37477465,13.4636744 4.46989358,13.4197734 4.57,13.42 L7.18,13.42 C7.46819424,13.4207804 7.73898407,13.55803 7.91,13.79 C8.07242825,14.0283833 8.10613854,14.3317759 8,14.6 L7.79,15.35 C7.61435166,15.9392203 7.07482246,16.3448813 6.46,16.35 L3.16,16.32 Z" id="Path" fill="#E9F5FD"></path>
                <path d="M7.18,13.77 C7.35474917,13.767581 7.51986407,13.8498827 7.62312817,13.990878 C7.72639227,14.1318732 7.75503564,14.3141259 7.7,14.48 L7.48,15.25 C7.35169387,15.6912591 6.93917103,15.9882755 6.48,15.97 L3.16,15.97 C3.31638066,15.570902 3.50709591,15.1861256 3.73,14.82 C3.97216789,14.4677849 4.23953436,14.1335769 4.53,13.82 L7.18,13.82 L7.18,13.77 Z M7.18,13.11 L4.53,13.11 C4.33417987,13.0937854 4.14091843,13.1630678 4,13.3 C3.67891042,13.6542053 3.38475697,14.0319251 3.12,14.43 C2.87229943,14.8370532 2.6614613,15.2654228 2.49,15.71 C2.40081798,15.9244062 2.4272125,16.1694982 2.56,16.36 C2.69169901,16.5563355 2.91360274,16.6729289 3.15,16.67 L6.49,16.67 C7.24509627,16.6725651 7.91566278,16.1878182 8.15,15.47 L8.38,14.68 C8.49786778,14.2996586 8.42747754,13.8859166 8.19046606,13.5659511 C7.95345458,13.2459856 7.57818173,13.0580825 7.18,13.06 L7.18,13.11 Z" id="Shape" fill="#489DEA" fill-rule="nonzero"></path>
                <g id="Group" opacity="0.2" transform="translate(5.000000, 13.000000)" fill="#489DEA">
                    <path d="M2.19,0.77 L1.1,0.77 C1.27474917,0.767580955 1.43986407,0.849882743 1.54312817,0.990877959 C1.64639227,1.13187318 1.67503564,1.31412594 1.62,1.48 L1.41,2.25 C1.26387895,2.67697234 0.861274614,2.96282141 0.41,2.96 L1.41,2.96 C1.86917103,2.97827551 2.28169387,2.68125906 2.41,2.24 L2.63,1.48 C2.67860883,1.32694747 2.65789899,1.16029508 2.57330758,1.0237953 C2.48871617,0.887295531 2.34869322,0.79458365 2.19,0.77 Z" id="Path"></path>
                </g>
                <path d="M50.51,10.3 C50.6991249,10.3027216 50.8813019,10.2287926 51.0150472,10.0950472 C51.1487926,9.96130185 51.2227216,9.77912493 51.22,9.59 L51.22,9.43 C51.2235759,8.9746972 51.0475145,8.53634023 50.73,8.21 L46.43,3.84 C46.3168454,3.72021197 46.1640431,3.6455876 46,3.63 L37.13,3.63 C36.9067048,3.62686835 36.6898933,3.70506265 36.52,3.85 L30.15,9.75 C30.0431979,9.84172937 30.0063523,9.99111467 30.05825,10.1219871 C30.1101476,10.2528595 30.2393584,10.3363949 30.38,10.33 L50.51,10.3 Z" id="Path" stroke="#489DEA" stroke-width="0.71" fill="#FFFFFF" stroke-linecap="round" stroke-linejoin="round"></path>
                <path d="M53.17,21.84 C53.1148029,21.6261682 52.9208279,21.4775916 52.7,21.48 L22.7,21.48 C22.4774951,21.4823095 22.2844819,21.634256 22.23,21.85 L21.76,23.72 C21.7385183,23.8063596 21.7578766,23.8978008 21.8125119,23.9680463 C21.8671473,24.0382917 21.9510098,24.079563 22.04,24.08 L53.36,24.03 C53.4493944,24.0288278 53.5336081,23.9878469 53.5896927,23.9182246 C53.6457772,23.8486024 53.6678881,23.7575942 53.65,23.67 L53.17,21.84 Z" id="Path" stroke="#489DEA" stroke-width="0.71" fill="#C1E2F8" stroke-linecap="round" stroke-linejoin="round"></path>
                <path d="M22.51,20.9 L21.77,23.76 C21.7485183,23.8463596 21.7678766,23.9378008 21.8225119,24.0080463 C21.8771473,24.0782917 21.9610098,24.119563 22.05,24.12 L53.37,24.07 C53.4593944,24.0688278 53.5436081,24.0278469 53.5996927,23.9582246 C53.6557772,23.8886024 53.6778881,23.7975942 53.66,23.71 L53.1,21.58" id="Path" stroke="#489DEA" stroke-linecap="round" stroke-linejoin="round"></path>
                <path d="M50.61,12.19 L47.29,12.19" id="Path" stroke="#489DEA" stroke-width="1.75" stroke-linecap="round" stroke-linejoin="round"></path>
                <path d="M24.63,12.23 L22.97,12.23" id="Path" stroke="#489DEA" stroke-linecap="round" stroke-linejoin="round"></path>
                <g id="Group" opacity="0.3" style="mix-blend-mode: multiply;" transform="translate(54.000000, 15.000000)" fill="#489DEA">
                    <path d="M5.77,3.17 C8.3232686,3.16303189 10.5591739,4.88106207 11.21,7.35 C11.3352755,6.88362914 11.3991483,6.40290269 11.4,5.92 C11.4,2.81063686 8.87936314,0.29 5.77,0.29 C2.66063686,0.29 0.14,2.81063686 0.14,5.92 C0.140486307,6.40360308 0.20778936,6.88481991 0.34,7.35 C0.986790645,4.88261437 3.21925603,3.16406827 5.77,3.17 Z" id="Path"></path>
                </g>
                <g id="Group" opacity="0.2" transform="translate(9.000000, 15.000000)" fill="#489DEA">
                    <path d="M6.17,3.23 C8.72375459,3.23123799 10.9568197,4.95119068 11.61,7.42 C12.1742063,5.30318814 11.4592693,3.05130684 9.77735452,1.6476032 C8.09543974,0.243899573 5.75199331,-0.0567051169 3.77024277,0.877043251 C1.78849223,1.81079162 0.528335737,3.80931856 0.54,6 C0.540851743,6.48290269 0.604724487,6.96362914 0.73,7.43 C1.37937164,4.95722212 3.61337957,3.23243659 6.17,3.23 Z" id="Path"></path>
                </g>
                <path d="M54.4,20 C54.0445969,21.8375218 54.6238746,23.7316644 55.9462767,25.0560702 C57.2686788,26.3804759 59.1619422,26.9626206 61,26.61 C63.7781006,26.0694618 65.7231074,23.5505647 65.5433635,20.7260794 C65.3636197,17.9015942 63.1150024,15.6495699 60.2907925,15.4655499 C57.4665826,15.28153 54.9447437,17.2227209 54.4,20 Z" id="Path" stroke="#489DEA" stroke-width="1.75" stroke-linecap="round" stroke-linejoin="round"></path>
                <path d="M9.71,21.16 C9.71000359,23.4380317 11.0827936,25.4915638 13.1878083,26.3623916 C15.2928231,27.2332195 17.7151691,26.7497049 19.3245483,25.137462 C20.9339275,23.5252192 21.4131349,21.1020175 20.5385662,18.9985542 C19.6639975,16.8950909 17.6080281,15.5259538 15.33,15.53 C13.8377491,15.5299976 12.4067626,16.1234756 11.3525202,17.1795938 C10.2982778,18.2357121 9.70734475,19.6677515 9.71,21.16 Z" id="Path" stroke="#489DEA" stroke-width="1.75" stroke-linecap="round" stroke-linejoin="round"></path>
                <rect id="Rectangle" stroke="#489DEA" stroke-width="0.71" stroke-linecap="round" stroke-linejoin="round" transform="translate(65.985658, 11.257850) rotate(-0.080000) translate(-65.985658, -11.257850) " x="64.7156576" y="9.98784963" width="2.54" height="2.54" rx="0.48"></rect>
                <path d="M51.26,15 C53.68,12.44 54.14,12.19 54.13,11.16 L54.13,10.39 C54.1316972,9.84197329 53.9201052,9.31478628 53.54,8.92 L47.58,3 C47.2026866,2.60965128 46.6828971,2.38946265 46.14,2.39 L37.14,2.39 C36.5701863,2.40237918 36.0237346,2.61883082 35.6,3 L28.54,9.4 C28.1447713,9.77151203 27.9173935,10.2876235 27.91,10.83 L27.91,18.54 C27.91,19.4844069 28.6755931,20.25 29.62,20.25 L48.72,20.25 C49.1794711,20.2394333 49.5494333,19.8694711 49.56,19.41 C49.5412024,17.776573 50.1496613,16.198159 51.26,15 Z" id="Path" stroke="#489DEA" stroke-linecap="round" stroke-linejoin="round"></path>
            </g>
        </g>
    </g>
</svg>