<?xml version="1.0" encoding="UTF-8"?>
<svg width="59px" height="36px" viewBox="0 0 59 36" version="1.1" xmlns="http://www.w3.org/2000/svg" xmlns:xlink="http://www.w3.org/1999/xlink">
    <!-- Generator: sketchtool 52.3 (67297) - http://www.bohemiancoding.com/sketch -->
    <title>EE5FBC3F-393E-445B-8B9D-A588BE393BF2@1.5x</title>
    <desc>Created with sketchtool.</desc>
    <g id="Page-1" stroke="none" stroke-width="1" fill="none" fill-rule="evenodd">
        <g id="Car-Model-Icons" transform="translate(-32.000000, -236.000000)">
            <g id="Mini" transform="translate(32.000000, 237.000000)">
                <path d="M57.13,18.41 L49.84,16.77 C49.6906468,16.7389386 49.5802644,16.6122032 49.57,16.46 L48.57,4.59 C48.5573658,4.4290015 48.6565267,4.28026012 48.81,4.23 L52.44,3 C52.4760751,2.99068545 52.5139249,2.99068545 52.55,3 C52.6858608,3.00094146 52.8096192,3.07829045 52.87,3.2 L57,12.2 C57.3655198,12.9224767 57.5572779,13.7203272 57.56,14.53 L57.56,18.13 C57.5566826,18.2343059 57.5094711,18.3323606 57.43,18.4 C57.3662852,18.4480088 57.2896702,18.4758687 57.21,18.48 L57.13,18.41 Z" id="Path" fill="#FFFFFF"></path>
                <path d="M52.55,3.33 L56.68,12.33 C57.0286563,13.0073363 57.2103712,13.7581959 57.21,14.52 L57.2100006,18.12 L49.92,16.48 L48.92,4.61 L52.58,3.38 L52.55,3.33 Z M52.58,2.68 C52.5069915,2.67023807 52.4330085,2.67023807 52.36,2.68 L48.67,3.89 C48.3615041,3.9944371 48.163627,4.29537514 48.19,4.62 L49.19,16.49 C49.2181405,16.7946542 49.4408743,17.0457359 49.74,17.11 L57.03,18.75 C57.0828158,18.7605075 57.1371842,18.7605075 57.19,18.75 C57.3490935,18.7492823 57.5035972,18.6966106 57.63,18.6 C57.7915036,18.4624154 57.8861848,18.2621282 57.89,18.05 L57.89,14.45 C57.8885118,13.5779872 57.6830365,12.7184156 57.29,11.94 L53.19,3 C53.0759011,2.74932911 52.8254145,2.58886117 52.55,2.59 L52.58,2.68 Z" id="Shape" fill="#489DEA" fill-rule="nonzero"></path>
                <path d="M6,29.55 L1.87,29.55 C1.25532537,29.5500245 0.755488166,29.0546501 0.75,28.44 L0.75,20.44 C0.75,19.26 2.65,18.31 3.82,18.31 L2.88,18.31 C2.88,18.31 3.82,14.68 4.71,14 C6.24,12.8 8.71,10.74 10.4,10.74 L12,10.74 C12.3710525,10.7393376 12.7346054,10.6354653 13.05,10.44 C15.2,9.15 23.74,4 28.93,2 C34.93,-0.3 52.93,1.05 53.33,1.69 C53.73,2.33 52.55,2.76 52.55,3.29 C52.55,3.82 52.68,9.36 52.74,11.66 C52.7494667,12.2860612 53.0002281,12.8843063 53.44,13.33 C54.69,14.62 57.24,17.33 57.51,18.03 C57.85,18.98 57.51,29.29 57.51,29.29 C57.51,29.29 56.59,23.02 50.06,23.02 C43.53,23.02 44.13,28.09 44.13,28.09 L14.78,28.09 C14.78,28.09 17.08,24.65 9.83,24.65 C2.58,24.65 6,29.55 6,29.55 Z" id="Path" stroke="#489DEA" stroke-width="1.5" fill="#E9F5FD"></path>
                <path d="M39,25.5 L20.3,25.5 C19.5810729,25.4837985 19.0052243,24.8990906 19,24.18 L19,11.53 C19.0010058,11.01242 19.2797052,10.5351952 19.73,10.28 C23.1211326,8.29865999 26.6348977,6.53509731 30.25,5 C32.06,4.25 36,3.85 41,3.85 L42.31,3.85 C42.7600954,3.85336889 43.1879542,4.04616656 43.4886398,4.38110746 C43.7893254,4.71604835 43.9350234,5.16214945 43.89,5.61 L42.24,22.61 C42.056193,24.2592283 40.6594316,25.5051051 39,25.5 Z" id="Path" stroke="#489DEA"></path>
                <path d="M43.35,11.51 L44,5.23 C44.0450234,4.78214945 43.8993254,4.33604835 43.5986398,4.00110746 C43.2979542,3.66616656 42.8700954,3.47336889 42.42,3.47 L41.07,3.47 C36.07,3.47 32.07,3.87 30.3,4.57 C26.6736565,6.11691424 23.1498169,7.89386466 19.75,9.89 C19.2888867,10.1367615 19.0007363,10.6170123 19,11.14 L19,14.29 L43.35,11.51 Z" id="Path" stroke="#489DEA" fill="#C1E2F8"></path>
                <path d="M42.15,16 L40.66,16 L41.52,13.51 C41.6914145,12.9979622 42.1700358,12.6520678 42.71,12.65 L43.3,12.65" id="Path" stroke="#489DEA" stroke-width="0.5" stroke-linecap="round" stroke-linejoin="round"></path>
                <path d="M3.26,18.81 C3.13996562,18.808491 3.02812352,18.7488419 2.96,18.65 C2.90998708,18.5491957 2.90998708,18.4308043 2.96,18.33 C2.96,18.33 3.24,17.61 3.52,16.76 C3.68143027,16.2745839 3.8890476,15.8057706 4.14,15.36 C4.20647432,15.2529999 4.32404096,15.1885279 4.45,15.19 L8.65,15.19 C8.99698539,15.1867796 9.32438512,15.3504794 9.53,15.63 C9.7460155,15.9164666 9.80245981,16.2927621 9.68,16.63 L9.39,17.63 C9.14881887,18.3545306 8.46342587,18.8371447 7.7,18.82 L3.26,18.81 Z" id="Path" fill="#E9F5FD"></path>
                <path d="M8.62,15.54 C8.85333697,15.5387396 9.0732165,15.649102 9.21163378,15.8369541 C9.35005107,16.0248061 9.39032516,16.2675093 9.32,16.49 L9.02,17.49 C8.84825029,18.0776638 8.31221535,18.4837509 7.7,18.49 L3.26,18.49 C3.26,18.49 3.54,17.76 3.82,16.91 C3.97446024,16.4443049 4.17547665,15.9953683 4.42,15.57 L8.62,15.57 L8.62,15.54 Z M8.62,14.86 L4.42,14.86 C4.16910907,14.8606946 3.93721183,14.9937504 3.81,15.21 C3.54432014,15.678184 3.32334361,16.170359 3.15,16.68 C2.88,17.51 2.6,18.22 2.6,18.23 C2.49569141,18.4497021 2.51289479,18.7077996 2.64543939,18.9117144 C2.77798398,19.1156292 3.00687103,19.2361323 3.25,19.23 L7.7,19.23 C8.60885543,19.2359281 9.41735493,18.6538085 9.7,17.79 L10.01,16.79 C10.1432331,16.353065 10.061254,15.8788306 9.78907305,15.5119781 C9.51689211,15.1451255 9.086796,14.9291715 8.63,14.93 L8.62,14.86 Z" id="Shape" fill="#489DEA" fill-rule="nonzero"></path>
                <g id="Group" opacity="0.2" transform="translate(6.000000, 15.000000)" fill="#489DEA">
                    <path d="M2.71,0.38 L1.13,0.38 C1.37633327,0.380491694 1.60833882,0.495861014 1.75739126,0.691982645 C1.9064437,0.888104276 1.95548162,1.14252899 1.89,1.38 L1.57,2.49 C1.35269434,3.07899383 0.797633835,3.47546561 0.17,3.49 L1.7,3.49 C2.34597829,3.49620839 2.92624924,3.09602153 3.15,2.49 L3.46,1.38 C3.52504526,1.14421165 3.47720338,0.891592025 3.33044599,0.695915505 C3.1836886,0.500238985 2.95456949,0.383577291 2.71,0.38 Z" id="Path"></path>
                </g>
                <path d="M50.14,21.8 C46.8262915,21.8 44.14,24.4862915 44.14,27.8 C44.14,31.1137085 46.8262915,33.8 50.14,33.8 C53.4537085,33.8 56.14,31.1137085 56.14,27.8 C56.14,24.4862915 53.4537085,21.8 50.14,21.8 Z" id="Path" stroke="#489DEA" stroke-width="1.75" fill="#B5D7EA" stroke-linecap="round" stroke-linejoin="round"></path>
                <path d="M50.14,23.06 C47.5137564,23.0710347 45.3926699,25.2070208 45.4000186,27.8332773 C45.4073674,30.4595339 47.5403744,32.5836162 50.1666387,32.5799534 C52.7929029,32.5762906 54.9199768,30.4462668 54.92,27.82 C54.9173506,26.5549165 54.4122558,25.3427003 53.5158313,24.4500265 C52.6194068,23.5573527 51.4050835,23.0573451 50.14,23.06 Z M50.14,29.58 C49.162456,29.58 48.37,28.787544 48.37,27.81 C48.37,26.832456 49.162456,26.04 50.14,26.04 C51.117544,26.04 51.91,26.832456 51.91,27.81 C51.91,28.787544 51.117544,29.58 50.14,29.58 Z" id="Shape" stroke="#489DEA" stroke-width="0.71" fill="#B5D7EA" fill-rule="nonzero" stroke-linecap="round" stroke-linejoin="round"></path>
                <path d="M50.14,26.05 C49.4231943,26.0500114 48.7771644,26.4823481 48.5037983,27.1449803 C48.2304322,27.8076125 48.3837078,28.5696992 48.8919998,29.0751195 C49.4002918,29.5805398 50.1632347,29.7294952 50.8243075,29.4523792 C51.4853802,29.1752633 51.9140497,28.5267943 51.91,27.81 C51.9100076,27.3414812 51.7232074,26.8922961 51.3909774,26.5619431 C51.0587474,26.2315901 50.6085112,26.047338 50.14,26.05 Z" id="Path" fill="#489DEA"></path>
                <g id="Group" opacity="0.3" style="mix-blend-mode: multiply;" transform="translate(44.000000, 21.000000)" fill="#489DEA">
                    <path d="M6,3.69 C8.73042817,3.68739472 11.1182925,5.52863947 11.81,8.17 C11.9422679,7.67414388 12.0094982,7.16319375 12.01,6.65 C12.01,3.3362915 9.3237085,0.65 6.01,0.65 C2.6962915,0.65 0.01,3.3362915 0.01,6.65 C0.0138757928,7.16362323 0.0844666128,7.67456631 0.22,8.17 C0.908862643,5.53941717 3.2807397,3.70100728 6,3.69 Z" id="Path"></path>
                </g>
                <path d="M44.24,26.63 C43.7190565,29.2176377 44.950394,31.8418025 47.273532,33.0949111 C49.59667,34.3480197 52.4658918,33.9357107 54.3421675,32.0791438 C56.2184432,30.2225769 56.6610263,27.3578687 55.4325185,25.0216282 C54.2040106,22.6853877 51.5929943,21.4264093 49,21.92 C46.6033064,22.3762238 44.7215059,24.2382575 44.24,26.63 Z" id="Path" stroke="#489DEA" stroke-width="1.75" stroke-linecap="round" stroke-linejoin="round"></path>
                <path d="M10,21.8 C6.6862915,21.8 4,24.4862915 4,27.8 C4,31.1137085 6.6862915,33.8 10,33.8 C13.3137085,33.8 16,31.1137085 16,27.8 C16,24.4862915 13.3137085,21.8 10,21.8 Z" id="Path" stroke="#489DEA" stroke-width="1.75" fill="#B5D7EA" stroke-linecap="round" stroke-linejoin="round"></path>
                <path d="M10,23.06 C7.37375637,23.0710347 5.25266986,25.2070208 5.26001864,27.8332773 C5.26736741,30.4595339 7.40037441,32.5836162 10.0266387,32.5799534 C12.6529029,32.5762906 14.7799768,30.4462668 14.78,27.82 C14.7773506,26.5549165 14.2722558,25.3427003 13.3758313,24.4500265 C12.4794068,23.5573527 11.2650835,23.0573451 10,23.06 Z M10,29.58 C9.02245599,29.58 8.23,28.787544 8.23,27.81 C8.23,26.832456 9.02245599,26.04 10,26.04 C10.977544,26.04 11.77,26.832456 11.77,27.81 C11.77,28.787544 10.977544,29.58 10,29.58 Z" id="Shape" stroke="#489DEA" stroke-width="0.71" fill="#B5D7EA" fill-rule="nonzero" stroke-linecap="round" stroke-linejoin="round"></path>
                <path d="M10,26.05 C9.28319428,26.0500114 8.63716441,26.4823481 8.36379831,27.1449803 C8.09043222,27.8076125 8.2437078,28.5696992 8.7519998,29.0751195 C9.26029181,29.5805398 10.0232347,29.7294952 10.6843075,29.4523792 C11.3453802,29.1752633 11.7740497,28.5267943 11.77,27.81 C11.7700076,27.3414812 11.5832074,26.8922961 11.2509774,26.5619431 C10.9187474,26.2315901 10.4685112,26.047338 10,26.05 Z" id="Path" fill="#489DEA"></path>
                <g id="Group" opacity="0.3" style="mix-blend-mode: multiply;" transform="translate(3.000000, 21.000000)" fill="#489DEA">
                    <path d="M6.83,3.69 C9.56042817,3.68739472 11.9482925,5.52863947 12.64,8.17 C12.7722679,7.67414388 12.8394982,7.16319375 12.84,6.65 C12.84,3.3362915 10.1537085,0.65 6.84,0.65 C3.5262915,0.65 0.84,3.3362915 0.84,6.65 C0.827542557,7.16144724 0.881322472,7.67235644 1,8.17 C1.69357363,5.52141613 4.09213528,3.67826755 6.83,3.69 Z" id="Path"></path>
                </g>
                <path d="M4.1,26.63 C3.58124252,29.2204934 4.81795677,31.8454696 7.14579996,33.0948341 C9.47364314,34.3441985 12.3447622,33.9239159 14.2168387,32.0597552 C16.0889152,30.1955945 16.5213597,27.326282 15.2818702,24.9931659 C14.0423806,22.6600497 11.4226683,21.4122238 8.83,21.92 C6.44492132,22.3871196 4.57722164,24.246922 4.1,26.63 Z" id="Path" stroke="#489DEA" stroke-width="1.75" stroke-linecap="round" stroke-linejoin="round"></path>
            </g>
        </g>
    </g>
</svg>