<?xml version="1.0" encoding="UTF-8"?>
<svg width="77px" height="29px" viewBox="0 0 77 29" version="1.1" xmlns="http://www.w3.org/2000/svg" xmlns:xlink="http://www.w3.org/1999/xlink">
    <!-- Generator: sketchtool 52.3 (67297) - http://www.bohemiancoding.com/sketch -->
    <title>0335832C-090F-4C5C-87BF-1B853F665162@1.5x</title>
    <desc>Created with sketchtool.</desc>
    <g id="Page-1" stroke="none" stroke-width="1" fill="none" fill-rule="evenodd">
        <g id="Car-Model-Icons" transform="translate(-23.000000, -110.000000)">
            <g id="Sedan" transform="translate(23.000000, 110.000000)">
                <path d="M20.21,9.37 C20.0703201,9.37238882 19.9433944,9.28909385 19.89,9.16 C19.8194759,9.00877087 19.8655186,8.82878588 20,8.73 L29.5,1.88 C29.5584167,1.83766767 29.6279347,1.81333638 29.7,1.81 C30.27,1.87 30.61,2.05 30.7,2.38 C30.782136,2.73515296 30.6444084,3.10504973 30.35,3.32 L25.18,8.14 C24.6339602,8.52401553 23.9953093,8.75531074 23.33,8.81 L20.33,9.37 L20.21,9.37 Z" id="Path" fill="#FFFFFF"></path>
                <path d="M29.71,2.17 C30.71,2.25 30.53,2.72 30.17,3.06 L24.94,7.88 C24.4439988,8.21677751 23.8679741,8.41683399 23.27,8.46 L20.21,9 L29.71,2.15 L29.71,2.17 Z M29.71,1.44 C29.5634765,1.44178356 29.420781,1.48702847 29.3,1.57 L19.8,8.45 C19.5287881,8.64073612 19.4285958,8.99558404 19.56,9.3 C19.6716052,9.56006743 19.9269985,9.72901996 20.21,9.73 L20.34,9.73 L23.4,9.17 C24.1222407,9.11289294 24.8145262,8.8567473 25.4,8.43 L30.64,3.6 C31.0434706,3.29155459 31.2243893,2.7723966 31.1,2.28 C30.94,1.82 30.49,1.55 29.78,1.48 L29.71,1.44 Z" id="Shape" fill="#489DEA" fill-rule="nonzero"></path>
                <path d="M62.29,9.88 C62.197803,9.87143944 62.1121666,9.82862125 62.05,9.76 L55.81,3 C55.7393649,2.91722936 55.7099575,2.80695133 55.73,2.7 C55.7503005,2.5913383 55.8207411,2.49865333 55.92,2.45 L56.92,1.95 C56.9728158,1.93949251 57.0271842,1.93949251 57.08,1.95 C57.1569301,1.94030279 57.2348182,1.95800463 57.3,2 L67,9.38 C67.1231857,9.47292487 67.1683485,9.63715321 67.11,9.78 C67.0594395,9.91853256 66.9274699,10.0105113 66.78,10.01 L62.29,9.88 Z" id="Path" fill="#FFFFFF"></path>
                <path d="M57.09,2.26 L66.8,9.66 L62.31,9.52 L56.07,2.76 L57.07,2.26 L57.09,2.26 Z M57.07,1.56 C56.9625481,1.55813363 56.8562239,1.58214233 56.76,1.63 L55.76,2.12 C55.5617859,2.21916749 55.4212522,2.40520871 55.3800517,2.62298275 C55.3388512,2.84075679 55.401711,3.06527787 55.55,3.23 L61.79,10 C61.9151884,10.140207 62.0921573,10.223274 62.28,10.23 L66.78,10.36 C67.081195,10.3638062 67.3510521,10.1745035 67.45,9.89 C67.5470749,9.60243726 67.4506289,9.28496918 67.21,9.1 L57.51,1.7 C57.3906952,1.60562478 57.242069,1.55608269 57.09,1.56 L57.07,1.56 Z" id="Shape" fill="#489DEA" fill-rule="nonzero"></path>
                <g id="Group" opacity="0.3" style="mix-blend-mode: multiply;" transform="translate(56.000000, 2.000000)" fill="#489DEA">
                    <path d="M1.9,0.87 L0.74,1.38 L3.46,4.17 C3.0372828,3.56294957 3.13150743,2.73634258 3.68,2.24 L1.9,0.87 Z" id="Path"></path>
                </g>
                <g id="Group" opacity="0.3" style="mix-blend-mode: multiply;" transform="translate(27.000000, 2.000000)" fill="#489DEA">
                    <path d="M2.43,0.37 L2.73,0.86 L0.41,2.86 C0.41,2.86 1.15,2.28 0.64,1.65 L2.43,0.37 Z" id="Path"></path>
                </g>
                <polygon id="Path" stroke="#489DEA" stroke-width="1.41" fill="#B5D7EA" stroke-linecap="round" stroke-linejoin="round" points="69.13 13.77 11.57 13.3 6.31 22.76 69.66 23.27"></polygon>
                <path d="M57.63,2.5 C57.9417139,2.33827732 58.1179172,1.99788465 58.07,1.65 C58.0330216,1.25568421 57.6845198,0.965266079 57.29,1 L31.18,0.76 C30.63,0.76 29.44,0.64 29.05,1.36 C28.8688054,1.71594384 28.881705,2.13972789 29.0842134,2.48399213 C29.2867218,2.82825637 29.6508568,3.04543133 30.05,3.06 L23.72,8.63 L9.08,10.63 C4.96170045,11.5296785 2.0851703,15.2582014 2.26,19.47 C2.29663557,20.469061 2.7815201,21.398423 3.58,22 L3.67,22.07 C4.48563037,22.6676532 5.46886489,22.9930654 6.48,23 C7.32523209,22.9678927 7.99525617,22.2758284 8,21.43 C8.24965547,17.9976833 10.8504405,15.1996513 14.2553883,14.700195 C17.660336,14.2007386 20.9551294,16.1339749 22.18,19.35 C22.92,21.28 21.91,23.11 23.97,23.12 L50.97,23.34 C50.8563029,21.6837636 51.2542606,20.0325879 52.11,18.61 C53.5757314,16.1309828 56.3557657,14.738175 59.2189201,15.0484039 C62.0820745,15.3586328 64.499265,17.3145711 65.4,20.05 C65.97,21.82 68.52,23.48 70.4,23.5 C72.28,23.52 74.22,22.31 74.02,20.5 C73.8972353,17.8023281 73.5120847,15.1230196 72.87,12.5 C72.4,10.65 70.79,9.88 69.13,9.58 L63.77,9.24 C62.6644164,9.16279691 61.6223236,8.69491855 60.83,7.92 C60.83,7.92 57.93,5.08 57.07,4.2 C56.21,3.32 57.21,2.73 57.63,2.5 Z" id="Path" stroke="#489DEA" stroke-width="1.5" fill="#E9F5FD"></path>
                <path d="M9.76,22 C9.73250909,25.1312765 12.2485812,27.6919857 15.3798569,27.7195578 C18.5111327,27.7471299 21.0719072,25.2311242 21.0995604,22.0998491 C21.1272136,18.9685741 18.6112743,16.4077344 15.48,16.38 C12.3529555,16.3632766 9.79842562,18.8731469 9.76,22 Z" id="Path" stroke="#284356" stroke-width="1.75" fill="#737987" stroke-linecap="round" stroke-linejoin="round"></path>
                <path d="M10.93,22 C10.905738,23.8266486 11.9857961,25.4875144 13.6652923,26.2062121 C15.3447884,26.9249098 17.2919536,26.5594673 18.5965696,25.2807137 C19.9011857,24.0019601 20.3055376,22.0625015 19.6206078,20.3689534 C18.9356781,18.6754054 17.2967682,17.5623128 15.47,17.55 C12.9885445,17.5277896 10.9574734,19.5185972 10.93,22 Z" id="Path" stroke="#489DEA" stroke-width="0.71" fill="#B5D7EA" stroke-linecap="round" stroke-linejoin="round"></path>
                <path d="M13.76,22 C13.7653888,22.9161856 14.5038632,23.6591087 15.42,23.67 C16.3354873,23.6699834 17.0781393,22.9287987 17.0799666,22.0133133 C17.0817938,21.0978278 16.3421064,20.3536845 15.4266265,20.3500133 C14.5111466,20.3463422 13.765515,21.0845293 13.76,22 Z" id="Path" fill="#489DEA"></path>
                <path d="M65.47,24.48 C65.15,25.32 65.88,25.48 66.47,25.48 L73.54,25.53 C74.2385345,25.5642661 74.85801,25.084809 75,24.4 L75.87,20.65 C75.9336416,20.3818396 75.872322,20.099285 75.7032491,19.8816279 C75.5341762,19.6639709 75.2755694,19.5346662 75,19.53 L66.59,19.46 C65.96,19.46 65.37,19.52 65.73,20.63 C66.0163399,21.9115598 65.9260479,23.2485755 65.47,24.48 Z" id="Path" stroke="#489DEA" stroke-width="1.41" fill="#B5D7EA" stroke-linecap="round" stroke-linejoin="round"></path>
                <path d="M74.69,19.55 L74.28,19.55 C74.2752774,19.5663321 74.2752774,19.5836679 74.28,19.6 L73.41,23.35 C73.2561756,24.0034205 72.6712714,24.463877 72,24.46 L65.22,24.4 L65.22,24.5 C64.9,25.34 65.63,25.5 66.22,25.5 L73.29,25.55 C73.957133,25.5577543 74.5396951,25.1000269 74.69,24.45 L75.56,20.7 C75.6303085,20.4279909 75.572474,20.1387646 75.402971,19.9147089 C75.233468,19.6906532 74.9708775,19.5563292 74.69,19.55 Z" id="Path" fill="#489DEA" opacity="0.3" style="mix-blend-mode: multiply;"></path>
                <path d="M65.47,24.48 C65.15,25.32 65.88,25.48 66.47,25.48 L73.54,25.53 C74.2385345,25.5642661 74.85801,25.084809 75,24.4 L75.87,20.65 C75.9336416,20.3818396 75.872322,20.099285 75.7032491,19.8816279 C75.5341762,19.6639709 75.2755694,19.5346662 75,19.53 L66.59,19.46 C65.96,19.46 65.37,19.52 65.73,20.63 C66.0163399,21.9115598 65.9260479,23.2485755 65.47,24.48 Z" id="Path" stroke="#489DEA" stroke-width="1.75" stroke-linecap="round" stroke-linejoin="round"></path>
                <path d="M58.56,16.72 C56.2659106,16.6998269 54.1857366,18.0640825 53.2900866,20.1762056 C52.3944366,22.2883287 52.8598349,24.7320394 54.4691268,26.3671029 C56.0784187,28.0021664 58.5144276,28.5063268 60.6405125,27.644343 C62.7665975,26.7823593 64.1637266,24.7241204 64.18,22.43 C64.1933138,20.9271382 63.6083614,19.4806863 62.5541109,18.4095528 C61.4998605,17.3384194 60.0628837,16.7305624 58.56,16.72 Z" id="Path" stroke="#284356" stroke-width="1.75" fill="#737987" stroke-linecap="round" stroke-linejoin="round"></path>
                <path d="M58.55,17.9 C56.7331515,17.8838547 55.085654,18.964263 54.3763652,20.6370178 C53.6670764,22.3097725 54.0358213,24.2451168 55.3105131,25.5398599 C56.5852049,26.8346031 58.5145586,27.2335072 60.1981792,26.5504108 C61.8817998,25.8673145 62.9877885,24.2368792 63,22.42 C63.0166409,19.9440931 61.0258651,17.9220017 58.55,17.9 Z M58.55,24.05 C57.873664,24.0459017 57.2665817,23.6342664 57.0124695,23.0074697 C56.7583573,22.3806729 56.9073975,21.662495 57.389937,21.1885722 C57.8724766,20.7146495 58.5932231,20.5785725 59.2153399,20.8439362 C59.8374567,21.1092999 60.2380876,21.7236999 60.23,22.4 C60.2276849,22.8509224 60.042026,23.2815 59.7157161,23.5927205 C59.3894061,23.903941 58.950527,24.069021 58.5,24.05 L58.55,24.05 Z" id="Shape" stroke="#489DEA" stroke-width="0.71" fill="#B5D7EA" fill-rule="nonzero" stroke-linecap="round" stroke-linejoin="round"></path>
                <path d="M58.53,20.72 C57.8536999,20.7119124 57.2392999,21.1125433 56.9739362,21.7346601 C56.7085725,22.3567769 56.8446495,23.0775234 57.3185722,23.560063 C57.792495,24.0426025 58.5106729,24.1916427 59.1374697,23.9375305 C59.7642664,23.6834183 60.1759017,23.076336 60.18,22.4 C60.1853334,21.9580138 60.0141706,21.5321525 59.7044448,21.2167953 C59.394719,20.9014381 58.9720105,20.7226306 58.53,20.72 Z" id="Path" fill="#489DEA"></path>
                <path d="M8.83,24.21 C9.21,25.28 7.83,24.95 7.22,24.95 L3.09,24.95 C2.42299257,24.9500686 1.84718592,24.4827472 1.71,23.83 L0.9,20 C0.838732093,19.7281652 0.905386922,19.4432434 1.0808836,19.2267975 C1.25638027,19.0103516 1.52137158,18.8862432 1.8,18.89 L7.53,18.89 C8.16,18.89 8.96,19.21 8.6,20.3 C8.30304449,21.5986664 8.38283502,22.9551054 8.83,24.21 Z" id="Path" stroke="#489DEA" stroke-width="1.41" fill="#B5D7EA" stroke-linecap="round" stroke-linejoin="round"></path>
                <path d="M8.83,24.2 C8.39385699,22.9705338 8.31412513,21.642825 8.6,20.37 C9,19.28 8.16,19 7.53,19 L6.93,19 C6.93334492,19.0632892 6.93334492,19.1267108 6.93,19.19 C6.4773214,20.3886823 6.34631232,21.6849828 6.55,22.95 C6.59531285,23.1439924 6.55057814,23.3480728 6.42827244,23.505323 C6.30596673,23.6625732 6.11917735,23.7561666 5.92,23.76 L1.74,23.76 L1.74,23.86 C1.87654953,24.5146141 2.45131253,24.9852534 3.12,24.99 L7.25,24.99 C7.85,25 9.12,25 8.83,24.2 Z" id="Path" fill="#489DEA" opacity="0.3" style="mix-blend-mode: multiply;"></path>
                <path d="M8.83,24.21 C9.21,25.28 7.83,24.95 7.22,24.95 L3.09,24.95 C2.42299257,24.9500686 1.84718592,24.4827472 1.71,23.83 L0.9,20 C0.838732093,19.7281652 0.905386922,19.4432434 1.0808836,19.2267975 C1.25638027,19.0103516 1.52137158,18.8862432 1.8,18.89 L7.53,18.89 C8.16,18.89 8.96,19.21 8.6,20.3 C8.30304449,21.5986664 8.38283502,22.9551054 8.83,24.21 Z" id="Path" stroke="#489DEA" stroke-width="1.75" stroke-linecap="round" stroke-linejoin="round"></path>
                <path d="M3,17.1 C2.89957288,17.0981628 2.80477529,17.0532677 2.73972294,16.9767355 C2.67467059,16.9002033 2.64563406,16.7994113 2.66,16.7 C2.73167976,16.2455886 2.86982568,15.8041955 3.07,15.39 C3.26260576,14.971881 3.53426078,14.5949597 3.87,14.28 C3.93274254,14.2302262 4.00994118,14.202154 4.09,14.2 L6.77,14.2 C7.06095825,14.2085932 7.3311097,14.3529207 7.5,14.59 C7.67084288,14.8242032 7.71219665,15.1287174 7.61,15.4 L7.39,16.15 C7.21157843,16.7372853 6.67373366,17.1416798 6.06,17.15 L3,17.1 Z" id="Path" fill="#E9F5FD"></path>
                <path d="M4.11,14.56 L6.77,14.56 C6.94552394,14.5609782 7.11003927,14.6456758 7.21280848,14.7879717 C7.31557768,14.9302675 7.34425642,15.1130693 7.29,15.28 L7.06,16.05 C6.92794848,16.4872829 6.51636993,16.7795036 6.06,16.76 L3.06,16.76 C3.12464481,16.3442099 3.24927645,15.9399992 3.43,15.56 C3.60042839,15.1817082 3.84529644,14.8416137 4.15,14.56 L4.11,14.56 Z M4.15,13.85 C3.98760439,13.8492679 3.82947725,13.901977 3.7,14 C3.32866411,14.352709 3.02380892,14.7693444 2.8,15.23 C2.58339356,15.6787635 2.43508807,16.1573858 2.36,16.65 C2.33079554,16.8509583 2.38903709,17.0548038 2.52,17.21 C2.64892563,17.3702705 2.84432431,17.4624397 3.05,17.46 L6.05,17.46 C6.79996517,17.4708093 7.47438139,17.0051409 7.73,16.3 L8,15.5 C8.1207956,15.1257529 8.053782,14.7162253 7.82,14.4 C7.59142994,14.0726454 7.21921979,13.875374 6.82,13.87 L4.15,13.87 L4.15,13.85 Z" id="Shape" fill="#489DEA" fill-rule="nonzero"></path>
                <path d="M51.71,23.08 C51.654605,22.8606436 51.4562315,22.7077307 51.23,22.71 L22.85,22.48 C22.6249675,22.4812631 22.4285058,22.6327023 22.37,22.85 L21.88,24.72 C21.8548182,24.8077387 21.8724158,24.9022131 21.9274986,24.9750011 C21.9825813,25.047789 22.06872,25.0903946 22.16,25.09 L51.88,25.33 C51.9730229,25.3336327 52.0621346,25.2923866 52.1195625,25.2191166 C52.1769904,25.1458465 52.195752,25.0494611 52.17,24.96 L51.71,23.08 Z" id="Path" stroke="#489DEA" stroke-width="0.71" fill="#C1E2F8" stroke-linecap="round" stroke-linejoin="round"></path>
                <path d="M22.65,21.85 L21.88,24.72 C21.8548182,24.8077387 21.8724158,24.9022131 21.9274986,24.9750011 C21.9825813,25.047789 22.06872,25.0903946 22.16,25.09 L51.88,25.33 C51.9730229,25.3336327 52.0621346,25.2923866 52.1195625,25.2191166 C52.1769904,25.1458465 52.195752,25.0494611 52.17,24.96 L51.63,22.82" id="Path" stroke="#489DEA" stroke-linecap="round" stroke-linejoin="round"></path>
                <path d="M22.05,13.12 L20.38,13.11" id="Path" stroke="#489DEA" stroke-width="1.75" stroke-linecap="round" stroke-linejoin="round"></path>
                <g id="Group" opacity="0.3" transform="translate(52.000000, 16.000000)" fill="#489DEA">
                    <path d="M6.38,3.44 C8.95315378,3.4612381 11.1881432,5.21554046 11.82,7.71 C12.4161771,5.58082762 11.7202736,3.29930864 10.0372716,1.86532601 C8.3542695,0.431343377 5.991202,0.106501214 3.98369091,1.03316263 C1.97617982,1.95982404 0.690459121,3.96893647 0.69,6.18 C0.683179027,6.66601107 0.743755409,7.15062212 0.87,7.62 C1.54589203,5.13813459 3.80780852,3.42219795 6.38,3.44 Z" id="Path"></path>
                </g>
                <g id="Group" opacity="0.3" style="mix-blend-mode: multiply;" transform="translate(9.000000, 16.000000)" fill="#489DEA">
                    <path d="M6.46,3.09 C9.03071159,3.11819633 11.2619642,4.8695656 11.9,7.36 C12.4615522,5.24457676 11.753129,2.9949861 10.0807686,1.58304881 C8.40840814,0.171111518 6.07188163,-0.150082153 4.08056602,0.758223122 C2.08925041,1.6665284 0.800089719,3.64151858 0.77,5.83 C0.780174582,6.32156122 0.857558916,6.80941898 1,7.28 C1.66426356,4.81012027 3.90235555,3.09261012 6.46,3.09 Z" id="Path"></path>
                </g>
                <path d="M52.85,22.34 C52.8298269,24.6340894 54.1940825,26.7142634 56.3062056,27.6099134 C58.4183287,28.5055634 60.8620394,28.0401651 62.4971029,26.4308732 C64.1321664,24.8215813 64.6363268,22.3855724 63.774343,20.2594875 C62.9123593,18.1334025 60.8541204,16.7362734 58.56,16.72 C57.0571382,16.7066862 55.6106863,17.2916386 54.5395528,18.3458891 C53.4684194,19.4001395 52.8605624,20.8371163 52.85,22.34 Z" id="Path" stroke="#489DEA" stroke-width="1.75" stroke-linecap="round" stroke-linejoin="round"></path>
                <path d="M9.76,22 C9.73250909,25.1312765 12.2485812,27.6919857 15.3798569,27.7195578 C18.5111327,27.7471299 21.0719072,25.2311242 21.0995604,22.0998491 C21.1272136,18.9685741 18.6112743,16.4077344 15.48,16.38 C12.3529555,16.3632766 9.79842562,18.8731469 9.76,22 Z" id="Path" stroke="#489DEA" stroke-width="1.75" stroke-linecap="round" stroke-linejoin="round"></path>
                <rect id="Rectangle" stroke="#489DEA" stroke-linecap="round" stroke-linejoin="round" transform="translate(65.687050, 12.966246) rotate(-89.540000) translate(-65.687050, -12.966246) " x="64.4070497" y="11.6862461" width="2.56" height="2.56" rx="0.48"></rect>
                <path d="M72.24,18.33 C71.6253499,18.3245118 71.1299755,17.8246746 71.13,17.21 L71.02,14.21 C71.017336,13.912954 71.1327882,13.6270172 71.3409561,13.4150985 C71.5491241,13.2031798 71.8329538,13.0826404 72.13,13.08 L72.67,13.08 C72.8352158,13.0813836 72.9769615,13.1981154 73.01,13.36 C73.01,13.43 73.37,15.13 73.45,15.82 L73.7,18 C73.7123458,18.0989764 73.6792625,18.1982263 73.61,18.27 C73.5452253,18.3463256 73.4501064,18.3902266 73.35,18.39 L72.24,18.33 Z" id="Path" fill="#E9F5FD"></path>
                <path d="M72.13,13.45 L72.66,13.45 C72.66,13.45 73.02,15.2 73.1,15.88 L73.35,18 L72.24,18 C72.0384299,17.9973652 71.8461643,17.9147559 71.7055083,17.7703491 C71.5648522,17.6259423 71.4873303,17.4315697 71.49,17.23 L71.37,14.23 C71.3699822,14.0293428 71.450371,13.8370461 71.5931936,13.6961028 C71.7360161,13.5551595 71.9293607,13.4773246 72.13,13.48 L72.13,13.45 Z M72.13,12.77 C71.3242629,12.775371 70.6708707,13.4243183 70.66,14.23 L70.78,17.23 C70.7884134,17.6044714 70.9385016,17.9618243 71.2,18.23 C71.4642327,18.4986526 71.8232448,18.6530278 72.2,18.66 L73.31,18.66 C73.5086059,18.6629588 73.6985771,18.5789331 73.83,18.43 C73.9681391,18.278135 74.0337825,18.0739112 74.01,17.87 L73.76,15.77 C73.68,15.07 73.33,13.35 73.32,13.28 C73.2496885,12.9546789 72.9628274,12.7218641 72.63,12.72 L72.09,12.72 L72.13,12.77 Z" id="Shape" fill="#489DEA" fill-rule="nonzero"></path>
                <path d="M24.93,10.83 C24.9405059,10.2795674 25.1667427,9.75527271 25.56,9.37 L31.85,3.37 C32.2495686,2.99105186 32.7793125,2.7798702 33.33,2.78 L40.13,2.84 C40.6043219,2.85075355 40.9847305,3.2355855 40.99,3.71 L40.86,19.71 C40.8600634,19.9389424 40.7677699,20.1582303 40.6040118,20.3182238 C40.4402537,20.4782174 40.218879,20.5653869 39.99,20.56 L33.82,20.51 L25.72,20.44 C25.4901706,20.4400155 25.269897,20.3480372 25.1083251,20.1845866 C24.9467533,20.021136 24.8573276,19.7998139 24.86,19.57 L24.93,10.83 Z" id="Path" stroke="#489DEA" stroke-linecap="round" stroke-linejoin="round"></path>
                <path d="M39.02,12.48 L35.67,12.46" id="Path" stroke="#489DEA" stroke-linecap="round" stroke-linejoin="round"></path>
                <path d="M39,9.57 C38.994561,9.82013731 38.7901964,10.0200591 38.54,10.02 L28.1,9.93 C28.0310698,9.91693931 27.9749461,9.86695687 27.9540201,9.79999372 C27.9330941,9.73303058 27.9507716,9.65998526 28,9.61 L33,4.88 C33.1232728,4.76874096 33.2839551,4.70803873 33.45,4.71 L38.62,4.71 C38.8685281,4.71 39.07,4.91147186 39.07,5.16 L39,9.57 Z" id="Path" stroke="#489DEA" stroke-width="0.71" fill="#FFFFFF" stroke-linecap="round" stroke-linejoin="round"></path>
                <path d="M56.69,13.67 C57.1870163,13.5997504 57.5549401,13.171932 57.55,12.67 L57.55,11.09 C57.5746233,10.5455276 57.375973,10.0145895 57,9.62 L51.37,3.55 C50.980244,3.15982909 50.4514915,2.94041478 49.9,2.94 L43.9,2.94 C43.671121,2.93461311 43.4497463,3.02178264 43.2859882,3.18177616 C43.1222301,3.34176968 43.0299366,3.56105759 43.03,3.79 L42.9,19.79 C42.9052695,20.2644145 43.2856781,20.6492465 43.76,20.66 L48.91,20.66 C49.4336224,20.6461917 49.8817567,20.2802839 50,19.77 C50.951969,16.6695951 53.5151204,14.3324914 56.69,13.67 Z" id="Path" stroke="#489DEA" stroke-linecap="round" stroke-linejoin="round"></path>
                <path d="M53.33,11.98 L55.3,12" id="Path" stroke="#489DEA" stroke-linecap="round" stroke-linejoin="round"></path>
                <path d="M44.68,5.22 C44.6799701,5.09889959 44.7287509,4.98289837 44.8153176,4.89821356 C44.9018843,4.81352875 45.0189295,4.76730888 45.14,4.77 L49.67,4.77 C49.8377969,4.76868699 49.9993974,4.83332721 50.12,4.95 L54.54,9.8 C54.5908898,9.85409699 54.6055928,9.93288692 54.5776387,10.001697 C54.5496846,10.070507 54.484199,10.1167203 54.41,10.12 L45.09,10.04 C44.8398627,10.034561 44.6399409,9.83019643 44.64,9.58 L44.68,5.22 Z" id="Path" stroke="#489DEA" stroke-width="0.71" fill="#FFFFFF" stroke-linecap="round" stroke-linejoin="round"></path>
            </g>
        </g>
    </g>
</svg>