<?xml version="1.0" encoding="UTF-8" standalone="no"?>
<!DOCTYPE svg PUBLIC "-//W3C//DTD SVG 1.1//EN" "http://www.w3.org/Graphics/SVG/1.1/DTD/svg11.dtd">
<svg version="1.1" xmlns="http://www.w3.org/2000/svg" xmlns:xlink="http://www.w3.org/1999/xlink" preserveAspectRatio="xMidYMid meet" viewBox="0 0 640 640" width="640" height="640"><defs><path d="M371.18 203.74C371.18 238.45 340.71 266.62 303.18 266.62C265.65 266.62 235.18 238.45 235.18 203.74C235.18 169.04 265.65 140.86 303.18 140.86C340.71 140.86 371.18 169.04 371.18 203.74Z" id="b1o7MhvEuJ"></path><radialGradient id="gradienta6MyA0oSe" gradientUnits="userSpaceOnUse" cx="355.83" cy="231.53" dx="339.74" dy="103.57" r="128.96"><stop style="stop-color: #9ecb02;stop-opacity: 1" offset="0%"></stop><stop style="stop-color: #010000;stop-opacity: 1" offset="100%"></stop></radialGradient><radialGradient id="gradientb2cZ5Bdfhj" gradientUnits="userSpaceOnUse" cx="265.89" cy="173.76" dx="249.81" dy="45.81" r="128.96"><stop style="stop-color: #025ccb;stop-opacity: 1" offset="0%"></stop><stop style="stop-color: #51caff;stop-opacity: 1" offset="100%"></stop></radialGradient></defs><g><g><g><use xlink:href="#b1o7MhvEuJ" opacity="1" fill="url(#gradienta6MyA0oSe)"></use><use xlink:href="#b1o7MhvEuJ" opacity="1" fill="url(#gradientb2cZ5Bdfhj)"></use><g><filter id="shadow10601261" x="208.18" y="113.86" width="190" height="179.76" filterUnits="userSpaceOnUse" primitiveUnits="userSpaceOnUse"><feFlood></feFlood><feComposite in2="SourceAlpha" operator="out"></feComposite><feGaussianBlur stdDeviation="3.16"></feGaussianBlur><feOffset dx="0" dy="0" result="afterOffset"></feOffset><feFlood flood-color="#08f0ff" flood-opacity="1"></feFlood><feComposite in2="afterOffset" operator="in"></feComposite><feMorphology operator="dilate" radius="2"></feMorphology><feComposite in2="SourceAlpha" operator="in"></feComposite></filter><path d="M371.18 203.74C371.18 238.45 340.71 266.62 303.18 266.62C265.65 266.62 235.18 238.45 235.18 203.74C235.18 169.04 265.65 140.86 303.18 140.86C340.71 140.86 371.18 169.04 371.18 203.74Z" id="cPriqOhix" fill="white" fill-opacity="1" filter="url(#shadow10601261)"></path></g></g></g></g></svg>