<?xml version="1.0" encoding="UTF-8" standalone="no"?>
<!DOCTYPE svg PUBLIC "-//W3C//DTD SVG 1.1//EN" "http://www.w3.org/Graphics/SVG/1.1/DTD/svg11.dtd">
<svg version="1.1" xmlns="http://www.w3.org/2000/svg" xmlns:xlink="http://www.w3.org/1999/xlink" preserveAspectRatio="xMidYMid meet" viewBox="0 0 640 640" width="640" height="640"><defs><path d="M640 320C640 496.61 496.61 640 320 640C143.39 640 0 496.61 0 320C0 143.39 143.39 0 320 0C496.61 0 640 143.39 640 320Z" id="b1WGg7iJKc"></path><radialGradient id="gradientc188qWdna" gradientUnits="userSpaceOnUse" cx="567.74" cy="461.4" dx="492.04" dy="-189.77" r="655.55"><stop style="stop-color: #9ecb02;stop-opacity: 1" offset="0%"></stop><stop style="stop-color: #010000;stop-opacity: 1" offset="100%"></stop></radialGradient><radialGradient id="gradienta2gH0sg2lV" gradientUnits="userSpaceOnUse" cx="144.52" cy="167.44" dx="68.82" dy="-483.72" r="655.55"><stop style="stop-color: #025ccb;stop-opacity: 1" offset="0%"></stop><stop style="stop-color: #51caff;stop-opacity: 1" offset="100%"></stop></radialGradient></defs><g><g><g><use xlink:href="#b1WGg7iJKc" opacity="1" fill="url(#gradientc188qWdna)"></use><use xlink:href="#b1WGg7iJKc" opacity="1" fill="url(#gradienta2gH0sg2lV)"></use><g><filter id="shadow9087920" x="-27" y="-27" width="694" height="694" filterUnits="userSpaceOnUse" primitiveUnits="userSpaceOnUse"><feFlood></feFlood><feComposite in2="SourceAlpha" operator="out"></feComposite><feGaussianBlur stdDeviation="3.16"></feGaussianBlur><feOffset dx="0" dy="0" result="afterOffset"></feOffset><feFlood flood-color="#08f0ff" flood-opacity="1"></feFlood><feComposite in2="afterOffset" operator="in"></feComposite><feMorphology operator="dilate" radius="2"></feMorphology><feComposite in2="SourceAlpha" operator="in"></feComposite></filter><path d="M640 320C640 496.61 496.61 640 320 640C143.39 640 0 496.61 0 320C0 143.39 143.39 0 320 0C496.61 0 640 143.39 640 320Z" id="dBW6A8i2m" fill="white" fill-opacity="1" filter="url(#shadow9087920)"></path></g></g></g></g></svg>