<?xml version="1.0" encoding="UTF-8"?>
<svg width="16px" height="17px" viewBox="0 0 16 17" version="1.1" xmlns="http://www.w3.org/2000/svg" xmlns:xlink="http://www.w3.org/1999/xlink">
    <!-- Generator: sketchtool 51.3 (57544) - http://www.bohemiancoding.com/sketch -->
    <title>E8859F86-461C-4E80-BCD0-23713B52CC36@1x</title>
    <desc>Created with sketchtool.</desc>
    <defs></defs>
    <g id="Page-1" stroke="none" stroke-width="1" fill="none" fill-rule="evenodd">
        <g id="Result" transform="translate(-375.000000, -22.000000)" fill="#ABABAB" fill-rule="nonzero">
            <g id="X-Close" transform="translate(375.000000, 22.000000)">
                <path d="M9.29705627,8.5 L15.6485281,2.07291538 C16.1171573,1.59870731 16.1171573,0.82986412 15.6485281,0.355656051 C15.179899,-0.118552017 14.420101,-0.118552017 13.9514719,0.355656051 L6.75147186,7.64137034 C6.28284271,8.11557841 6.28284271,8.88442159 6.75147186,9.35862966 L13.9514719,16.6443439 C14.420101,17.118552 15.179899,17.118552 15.6485281,16.6443439 C16.1171573,16.1701359 16.1171573,15.4012927 15.6485281,14.9270846 L9.29705627,8.5 Z" id="Path"></path>
                <path d="M2.89705627,8.5 L9.24852814,2.07291538 C9.71715729,1.59870731 9.71715729,0.82986412 9.24852814,0.355656051 C8.77989899,-0.118552017 8.02010101,-0.118552017 7.55147186,0.355656051 L0.351471863,7.64137034 C-0.117157288,8.11557841 -0.117157288,8.88442159 0.351471863,9.35862966 L7.55147186,16.6443439 C8.02010101,17.118552 8.77989899,17.118552 9.24852814,16.6443439 C9.71715729,16.1701359 9.71715729,15.4012927 9.24852814,14.9270846 L2.89705627,8.5 Z" id="Path-Copy" transform="translate(4.800000, 8.500000) scale(-1, 1) translate(-4.800000, -8.500000) "></path>
            </g>
        </g>
    </g>
</svg>